%TF.GenerationSoftware,KiCad,Pcbnew,7.0.10*%
%TF.CreationDate,2024-03-03T10:32:20-06:00*%
%TF.ProjectId,Zimbelstern,5a696d62-656c-4737-9465-726e2e6b6963,rev?*%
%TF.SameCoordinates,Original*%
%TF.FileFunction,Copper,L1,Top*%
%TF.FilePolarity,Positive*%
%FSLAX46Y46*%
G04 Gerber Fmt 4.6, Leading zero omitted, Abs format (unit mm)*
G04 Created by KiCad (PCBNEW 7.0.10) date 2024-03-03 10:32:20*
%MOMM*%
%LPD*%
G01*
G04 APERTURE LIST*
G04 Aperture macros list*
%AMRoundRect*
0 Rectangle with rounded corners*
0 $1 Rounding radius*
0 $2 $3 $4 $5 $6 $7 $8 $9 X,Y pos of 4 corners*
0 Add a 4 corners polygon primitive as box body*
4,1,4,$2,$3,$4,$5,$6,$7,$8,$9,$2,$3,0*
0 Add four circle primitives for the rounded corners*
1,1,$1+$1,$2,$3*
1,1,$1+$1,$4,$5*
1,1,$1+$1,$6,$7*
1,1,$1+$1,$8,$9*
0 Add four rect primitives between the rounded corners*
20,1,$1+$1,$2,$3,$4,$5,0*
20,1,$1+$1,$4,$5,$6,$7,0*
20,1,$1+$1,$6,$7,$8,$9,0*
20,1,$1+$1,$8,$9,$2,$3,0*%
G04 Aperture macros list end*
%TA.AperFunction,ComponentPad*%
%ADD10O,1.200000X1.750000*%
%TD*%
%TA.AperFunction,ComponentPad*%
%ADD11RoundRect,0.250000X0.350000X0.625000X-0.350000X0.625000X-0.350000X-0.625000X0.350000X-0.625000X0*%
%TD*%
%TA.AperFunction,ComponentPad*%
%ADD12C,1.500000*%
%TD*%
%TA.AperFunction,ComponentPad*%
%ADD13R,1.500000X1.500000*%
%TD*%
%TA.AperFunction,ComponentPad*%
%ADD14RoundRect,0.250000X0.625000X-0.350000X0.625000X0.350000X-0.625000X0.350000X-0.625000X-0.350000X0*%
%TD*%
%TA.AperFunction,ComponentPad*%
%ADD15O,1.750000X1.200000*%
%TD*%
%TA.AperFunction,ComponentPad*%
%ADD16O,2.200000X2.200000*%
%TD*%
%TA.AperFunction,ComponentPad*%
%ADD17R,2.200000X2.200000*%
%TD*%
%TA.AperFunction,ComponentPad*%
%ADD18O,1.600000X1.600000*%
%TD*%
%TA.AperFunction,ComponentPad*%
%ADD19R,1.600000X1.600000*%
%TD*%
%TA.AperFunction,ComponentPad*%
%ADD20C,1.600000*%
%TD*%
%TA.AperFunction,ComponentPad*%
%ADD21C,2.400000*%
%TD*%
%TA.AperFunction,ComponentPad*%
%ADD22O,2.400000X2.400000*%
%TD*%
%TA.AperFunction,ComponentPad*%
%ADD23O,1.700000X1.700000*%
%TD*%
%TA.AperFunction,ComponentPad*%
%ADD24R,1.700000X1.700000*%
%TD*%
%TA.AperFunction,ComponentPad*%
%ADD25R,1.100000X1.800000*%
%TD*%
%TA.AperFunction,ComponentPad*%
%ADD26RoundRect,0.275000X-0.275000X-0.625000X0.275000X-0.625000X0.275000X0.625000X-0.275000X0.625000X0*%
%TD*%
%TA.AperFunction,WasherPad*%
%ADD27C,2.499360*%
%TD*%
%TA.AperFunction,ComponentPad*%
%ADD28C,2.499360*%
%TD*%
%TA.AperFunction,ComponentPad*%
%ADD29O,2.000000X4.200000*%
%TD*%
%TA.AperFunction,ComponentPad*%
%ADD30O,4.200000X2.000000*%
%TD*%
%TA.AperFunction,ComponentPad*%
%ADD31R,4.600000X2.000000*%
%TD*%
%TA.AperFunction,ComponentPad*%
%ADD32O,1.500000X1.500000*%
%TD*%
%TA.AperFunction,SMDPad,CuDef*%
%ADD33R,3.500000X1.700000*%
%TD*%
%TA.AperFunction,SMDPad,CuDef*%
%ADD34R,1.700000X3.500000*%
%TD*%
%TA.AperFunction,Conductor*%
%ADD35C,0.250000*%
%TD*%
%TA.AperFunction,Conductor*%
%ADD36C,1.000000*%
%TD*%
G04 APERTURE END LIST*
D10*
%TO.P,J5,2,Pin_2*%
%TO.N,Net-(D3-A)*%
X76500000Y-140000000D03*
D11*
%TO.P,J5,1,Pin_1*%
%TO.N,+12V*%
X78500000Y-140000000D03*
%TD*%
D12*
%TO.P,Q7,3,C*%
%TO.N,Net-(J11-Pin_4)*%
X55000000Y-84960000D03*
%TO.P,Q7,2,B*%
%TO.N,Net-(Q7-B)*%
X55000000Y-87500000D03*
D13*
%TO.P,Q7,1,E*%
%TO.N,GND*%
X55000000Y-90040000D03*
%TD*%
D10*
%TO.P,J6,2,Pin_2*%
%TO.N,Net-(D4-A)*%
X66500000Y-140000000D03*
D11*
%TO.P,J6,1,Pin_1*%
%TO.N,+12V*%
X68500000Y-140000000D03*
%TD*%
D14*
%TO.P,J10,1,Pin_1*%
%TO.N,+3V3*%
X45000000Y-115000000D03*
D15*
%TO.P,J10,2,Pin_2*%
%TO.N,VOLUME_POT*%
X45000000Y-113000000D03*
%TO.P,J10,3,Pin_3*%
%TO.N,GND*%
X45000000Y-111000000D03*
%TD*%
D16*
%TO.P,D5,2,A*%
%TO.N,Net-(D5-A)*%
X42340000Y-131000000D03*
D17*
%TO.P,D5,1,K*%
%TO.N,+12V*%
X52500000Y-131000000D03*
%TD*%
D18*
%TO.P,U2,6*%
%TO.N,+3V3*%
X77620000Y-67460000D03*
%TO.P,U2,5*%
%TO.N,GND*%
X77620000Y-70000000D03*
%TO.P,U2,4*%
%TO.N,MIDI_RX*%
X77620000Y-72540000D03*
%TO.P,U2,3*%
%TO.N,unconnected-(U2-Pad3)*%
X70000000Y-72540000D03*
%TO.P,U2,2*%
%TO.N,Net-(D6-A)*%
X70000000Y-70000000D03*
D19*
%TO.P,U2,1*%
%TO.N,Net-(D6-K)*%
X70000000Y-67460000D03*
%TD*%
D18*
%TO.P,R7,2*%
%TO.N,MIDI_RX*%
X82700000Y-75080000D03*
D20*
%TO.P,R7,1*%
%TO.N,+3V3*%
X82700000Y-64920000D03*
%TD*%
D21*
%TO.P,R9,1*%
%TO.N,+12V*%
X80240000Y-102500000D03*
D22*
%TO.P,R9,2*%
%TO.N,Net-(J12-Pin_3)*%
X65000000Y-102500000D03*
%TD*%
D20*
%TO.P,R11,1*%
%TO.N,PREPARE_LAMP*%
X77700000Y-92340000D03*
D18*
%TO.P,R11,2*%
%TO.N,Net-(Q7-B)*%
X67540000Y-92340000D03*
%TD*%
D17*
%TO.P,D3,1,K*%
%TO.N,+12V*%
X82580000Y-131000000D03*
D16*
%TO.P,D3,2,A*%
%TO.N,Net-(D3-A)*%
X72420000Y-131000000D03*
%TD*%
D17*
%TO.P,D2,1,K*%
%TO.N,+12V*%
X97500000Y-131000000D03*
D16*
%TO.P,D2,2,A*%
%TO.N,Net-(D2-A)*%
X87340000Y-131000000D03*
%TD*%
D20*
%TO.P,R4,1*%
%TO.N,BELL4*%
X95760000Y-102840000D03*
D18*
%TO.P,R4,2*%
%TO.N,Net-(Q4-B)*%
X95760000Y-113000000D03*
%TD*%
D10*
%TO.P,J4,2,Pin_2*%
%TO.N,Net-(D2-A)*%
X86700000Y-140000000D03*
D11*
%TO.P,J4,1,Pin_1*%
%TO.N,+12V*%
X88700000Y-140000000D03*
%TD*%
D23*
%TO.P,J3,5,Pin_5*%
%TO.N,unconnected-(J3-Pin_5-Pad5)*%
X45000000Y-67340000D03*
%TO.P,J3,4,Pin_4*%
%TO.N,unconnected-(J3-Pin_4-Pad4)*%
X45000000Y-69880000D03*
%TO.P,J3,3,Pin_3*%
%TO.N,+12V*%
X45000000Y-72420000D03*
%TO.P,J3,2,Pin_2*%
%TO.N,GND*%
X45000000Y-74960000D03*
D24*
%TO.P,J3,1,Pin_1*%
%TO.N,+3V3*%
X45000000Y-77500000D03*
%TD*%
D20*
%TO.P,R8,1*%
%TO.N,ZIMBLE_LAMP*%
X77700000Y-96390000D03*
D18*
%TO.P,R8,2*%
%TO.N,Net-(Q6-B)*%
X67540000Y-96390000D03*
%TD*%
D25*
%TO.P,Q5,1,C*%
%TO.N,Net-(D5-A)*%
X46000000Y-123900000D03*
D26*
%TO.P,Q5,2,B*%
%TO.N,Net-(Q5-B)*%
X47270000Y-121830000D03*
%TO.P,Q5,3,E*%
%TO.N,GND*%
X48540000Y-123900000D03*
%TD*%
D16*
%TO.P,D4,2,A*%
%TO.N,Net-(D4-A)*%
X57420000Y-131000000D03*
D17*
%TO.P,D4,1,K*%
%TO.N,+12V*%
X67580000Y-131000000D03*
%TD*%
D25*
%TO.P,Q2,1,C*%
%TO.N,Net-(D2-A)*%
X91000000Y-123900000D03*
D26*
%TO.P,Q2,2,B*%
%TO.N,Net-(Q2-B)*%
X92270000Y-121830000D03*
%TO.P,Q2,3,E*%
%TO.N,GND*%
X93540000Y-123900000D03*
%TD*%
D20*
%TO.P,R5,1*%
%TO.N,BELL5*%
X90680000Y-102840000D03*
D18*
%TO.P,R5,2*%
%TO.N,Net-(Q5-B)*%
X90680000Y-113000000D03*
%TD*%
D21*
%TO.P,R10,1*%
%TO.N,+12V*%
X80240000Y-86230000D03*
D22*
%TO.P,R10,2*%
%TO.N,Net-(J11-Pin_3)*%
X65000000Y-86230000D03*
%TD*%
D27*
%TO.P,J8,*%
%TO.N,*%
X83027520Y-32385000D03*
X73025000Y-32385000D03*
D28*
%TO.P,J8,1*%
%TO.N,unconnected-(J8-Pad1)*%
X70528180Y-42379900D03*
%TO.P,J8,2*%
%TO.N,unconnected-(J8-Pad2)*%
X78026260Y-42382440D03*
%TO.P,J8,3*%
%TO.N,unconnected-(J8-Pad3)*%
X85524340Y-42379900D03*
%TO.P,J8,4*%
%TO.N,Net-(J8-Pad4)*%
X73030080Y-44881800D03*
%TO.P,J8,5*%
%TO.N,Net-(D6-A)*%
X83022440Y-44881800D03*
%TD*%
D25*
%TO.P,Q1,1,C*%
%TO.N,Net-(D1-A)*%
X106000000Y-123900000D03*
D26*
%TO.P,Q1,2,B*%
%TO.N,Net-(Q1-B)*%
X107270000Y-121830000D03*
%TO.P,Q1,3,E*%
%TO.N,GND*%
X108540000Y-123900000D03*
%TD*%
D15*
%TO.P,J11,4,Pin_4*%
%TO.N,Net-(J11-Pin_4)*%
X45000000Y-86000000D03*
%TO.P,J11,3,Pin_3*%
%TO.N,Net-(J11-Pin_3)*%
X45000000Y-88000000D03*
%TO.P,J11,2,Pin_2*%
%TO.N,GND*%
X45000000Y-90000000D03*
D14*
%TO.P,J11,1,Pin_1*%
%TO.N,PREPARE_SWITCH*%
X45000000Y-92000000D03*
%TD*%
D17*
%TO.P,D1,1,K*%
%TO.N,+12V*%
X112500000Y-131000000D03*
D16*
%TO.P,D1,2,A*%
%TO.N,Net-(D1-A)*%
X102340000Y-131000000D03*
%TD*%
D20*
%TO.P,R3,1*%
%TO.N,BELL3*%
X100840000Y-102840000D03*
D18*
%TO.P,R3,2*%
%TO.N,Net-(Q3-B)*%
X100840000Y-113000000D03*
%TD*%
%TO.P,R6,2*%
%TO.N,Net-(D6-K)*%
X59840000Y-75080000D03*
D20*
%TO.P,R6,1*%
%TO.N,Net-(J8-Pad4)*%
X59840000Y-64920000D03*
%TD*%
D13*
%TO.P,J9,1*%
%TO.N,GND*%
X58510000Y-38630000D03*
D12*
%TO.P,J9,2*%
%TO.N,STAR_TX*%
X59530000Y-41170000D03*
%TO.P,J9,3*%
%TO.N,unconnected-(J9-Pad3)*%
X60550000Y-38630000D03*
%TO.P,J9,4*%
%TO.N,unconnected-(J9-Pad4)*%
X61570000Y-41170000D03*
%TD*%
%TO.P,Q6,3,C*%
%TO.N,Net-(J12-Pin_4)*%
X55000000Y-97460000D03*
%TO.P,Q6,2,B*%
%TO.N,Net-(Q6-B)*%
X55000000Y-100000000D03*
D13*
%TO.P,Q6,1,E*%
%TO.N,GND*%
X55000000Y-102540000D03*
%TD*%
D14*
%TO.P,J12,1,Pin_1*%
%TO.N,ZIMBLE_SWITCH*%
X45000000Y-104500000D03*
D15*
%TO.P,J12,2,Pin_2*%
%TO.N,GND*%
X45000000Y-102500000D03*
%TO.P,J12,3,Pin_3*%
%TO.N,Net-(J12-Pin_3)*%
X45000000Y-100500000D03*
%TO.P,J12,4,Pin_4*%
%TO.N,Net-(J12-Pin_4)*%
X45000000Y-98500000D03*
%TD*%
D11*
%TO.P,J2,1,Pin_1*%
%TO.N,+12V*%
X98500000Y-140000000D03*
D10*
%TO.P,J2,2,Pin_2*%
%TO.N,Net-(D1-A)*%
X96500000Y-140000000D03*
%TD*%
D26*
%TO.P,Q4,3,E*%
%TO.N,GND*%
X63540000Y-123900000D03*
%TO.P,Q4,2,B*%
%TO.N,Net-(Q4-B)*%
X62270000Y-121830000D03*
D25*
%TO.P,Q4,1,C*%
%TO.N,Net-(D4-A)*%
X61000000Y-123900000D03*
%TD*%
D18*
%TO.P,R1,2*%
%TO.N,Net-(Q1-B)*%
X111000000Y-113000000D03*
D20*
%TO.P,R1,1*%
%TO.N,BELL1*%
X111000000Y-102840000D03*
%TD*%
D25*
%TO.P,Q3,1,C*%
%TO.N,Net-(D3-A)*%
X76000000Y-123900000D03*
D26*
%TO.P,Q3,2,B*%
%TO.N,Net-(Q3-B)*%
X77270000Y-121830000D03*
%TO.P,Q3,3,E*%
%TO.N,GND*%
X78540000Y-123900000D03*
%TD*%
D29*
%TO.P,J1,3*%
%TO.N,N/C*%
X41555000Y-40865000D03*
D30*
%TO.P,J1,2*%
%TO.N,GND*%
X46355000Y-37465000D03*
D31*
%TO.P,J1,1*%
%TO.N,+12V*%
X46355000Y-43765000D03*
%TD*%
D20*
%TO.P,R2,1*%
%TO.N,BELL2*%
X105920000Y-102840000D03*
D18*
%TO.P,R2,2*%
%TO.N,Net-(Q2-B)*%
X105920000Y-113000000D03*
%TD*%
D32*
%TO.P,D6,2,A*%
%TO.N,Net-(D6-A)*%
X64920000Y-74120000D03*
D13*
%TO.P,D6,1,K*%
%TO.N,Net-(D6-K)*%
X64920000Y-66500000D03*
%TD*%
D23*
%TO.P,U1,1,GPIO0*%
%TO.N,unconnected-(U1-GPIO0-Pad1)*%
X92710000Y-31750000D03*
D33*
X91810000Y-31750000D03*
D23*
%TO.P,U1,2,GPIO1*%
%TO.N,MIDI_RX*%
X92710000Y-34290000D03*
D33*
X91810000Y-34290000D03*
D24*
%TO.P,U1,3,GND*%
%TO.N,GND*%
X92710000Y-36830000D03*
D33*
X91810000Y-36830000D03*
D23*
%TO.P,U1,4,GPIO2*%
%TO.N,unconnected-(U1-GPIO2-Pad4)*%
X92710000Y-39370000D03*
D33*
X91810000Y-39370000D03*
D23*
%TO.P,U1,5,GPIO3*%
%TO.N,unconnected-(U1-GPIO3-Pad5)*%
X92710000Y-41910000D03*
D33*
X91810000Y-41910000D03*
D23*
%TO.P,U1,6,GPIO4*%
%TO.N,STAR_TX*%
X92710000Y-44450000D03*
D33*
X91810000Y-44450000D03*
D23*
%TO.P,U1,7,GPIO5*%
%TO.N,unconnected-(U1-GPIO5-Pad7)*%
X92710000Y-46990000D03*
D33*
X91810000Y-46990000D03*
D24*
%TO.P,U1,8,GND*%
%TO.N,GND*%
X92710000Y-49530000D03*
D33*
X91810000Y-49530000D03*
D23*
%TO.P,U1,9,GPIO6*%
%TO.N,unconnected-(U1-GPIO6-Pad9)*%
X92710000Y-52070000D03*
D33*
X91810000Y-52070000D03*
D23*
%TO.P,U1,10,GPIO7*%
%TO.N,BELL1*%
X92710000Y-54610000D03*
D33*
X91810000Y-54610000D03*
D23*
%TO.P,U1,11,GPIO8*%
%TO.N,BELL2*%
X92710000Y-57150000D03*
D33*
X91810000Y-57150000D03*
D23*
%TO.P,U1,12,GPIO9*%
%TO.N,BELL3*%
X92710000Y-59690000D03*
D33*
X91810000Y-59690000D03*
D24*
%TO.P,U1,13,GND*%
%TO.N,GND*%
X92710000Y-62230000D03*
D33*
X91810000Y-62230000D03*
D23*
%TO.P,U1,14,GPIO10*%
%TO.N,BELL4*%
X92710000Y-64770000D03*
D33*
X91810000Y-64770000D03*
D23*
%TO.P,U1,15,GPIO11*%
%TO.N,BELL5*%
X92710000Y-67310000D03*
D33*
X91810000Y-67310000D03*
D23*
%TO.P,U1,16,GPIO12*%
%TO.N,ZIMBLE_SWITCH*%
X92710000Y-69850000D03*
D33*
X91810000Y-69850000D03*
D23*
%TO.P,U1,17,GPIO13*%
%TO.N,PREPARE_SWITCH*%
X92710000Y-72390000D03*
D33*
X91810000Y-72390000D03*
D24*
%TO.P,U1,18,GND*%
%TO.N,GND*%
X92710000Y-74930000D03*
D33*
X91810000Y-74930000D03*
D23*
%TO.P,U1,19,GPIO14*%
%TO.N,PREPARE_LAMP*%
X92710000Y-77470000D03*
D33*
X91810000Y-77470000D03*
D23*
%TO.P,U1,20,GPIO15*%
%TO.N,ZIMBLE_LAMP*%
X92710000Y-80010000D03*
D33*
X91810000Y-80010000D03*
D23*
%TO.P,U1,21,GPIO16*%
%TO.N,unconnected-(U1-GPIO16-Pad21)*%
X110490000Y-80010000D03*
D33*
X111390000Y-80010000D03*
D23*
%TO.P,U1,22,GPIO17*%
%TO.N,unconnected-(U1-GPIO17-Pad22)*%
X110490000Y-77470000D03*
D33*
X111390000Y-77470000D03*
D24*
%TO.P,U1,23,GND*%
%TO.N,GND*%
X110490000Y-74930000D03*
D33*
X111390000Y-74930000D03*
D23*
%TO.P,U1,24,GPIO18*%
%TO.N,unconnected-(U1-GPIO18-Pad24)*%
X110490000Y-72390000D03*
D33*
X111390000Y-72390000D03*
D23*
%TO.P,U1,25,GPIO19*%
%TO.N,unconnected-(U1-GPIO19-Pad25)*%
X110490000Y-69850000D03*
D33*
X111390000Y-69850000D03*
D23*
%TO.P,U1,26,GPIO20*%
%TO.N,unconnected-(U1-GPIO20-Pad26)*%
X110490000Y-67310000D03*
D33*
X111390000Y-67310000D03*
D23*
%TO.P,U1,27,GPIO21*%
%TO.N,unconnected-(U1-GPIO21-Pad27)*%
X110490000Y-64770000D03*
D33*
X111390000Y-64770000D03*
D24*
%TO.P,U1,28,GND*%
%TO.N,GND*%
X110490000Y-62230000D03*
D33*
X111390000Y-62230000D03*
D23*
%TO.P,U1,29,GPIO22*%
%TO.N,unconnected-(U1-GPIO22-Pad29)*%
X110490000Y-59690000D03*
D33*
X111390000Y-59690000D03*
D23*
%TO.P,U1,30,RUN*%
%TO.N,unconnected-(U1-RUN-Pad30)*%
X110490000Y-57150000D03*
D33*
X111390000Y-57150000D03*
D23*
%TO.P,U1,31,GPIO26_ADC0*%
%TO.N,VOLUME_POT*%
X110490000Y-54610000D03*
D33*
X111390000Y-54610000D03*
D23*
%TO.P,U1,32,GPIO27_ADC1*%
%TO.N,unconnected-(U1-GPIO27_ADC1-Pad32)*%
X110490000Y-52070000D03*
D33*
X111390000Y-52070000D03*
D24*
%TO.P,U1,33,AGND*%
%TO.N,unconnected-(U1-AGND-Pad33)*%
X110490000Y-49530000D03*
D33*
X111390000Y-49530000D03*
D23*
%TO.P,U1,34,GPIO28_ADC2*%
%TO.N,unconnected-(U1-GPIO28_ADC2-Pad34)*%
X110490000Y-46990000D03*
D33*
X111390000Y-46990000D03*
D23*
%TO.P,U1,35,ADC_VREF*%
%TO.N,unconnected-(U1-ADC_VREF-Pad35)*%
X110490000Y-44450000D03*
D33*
X111390000Y-44450000D03*
D23*
%TO.P,U1,36,3V3*%
%TO.N,unconnected-(U1-3V3-Pad36)*%
X110490000Y-41910000D03*
D33*
X111390000Y-41910000D03*
D23*
%TO.P,U1,37,3V3_EN*%
%TO.N,unconnected-(U1-3V3_EN-Pad37)*%
X110490000Y-39370000D03*
D33*
X111390000Y-39370000D03*
D24*
%TO.P,U1,38,GND*%
%TO.N,GND*%
X110490000Y-36830000D03*
D33*
X111390000Y-36830000D03*
D23*
%TO.P,U1,39,VSYS*%
%TO.N,+3V3*%
X110490000Y-34290000D03*
D33*
X111390000Y-34290000D03*
D23*
%TO.P,U1,40,VBUS*%
%TO.N,unconnected-(U1-VBUS-Pad40)*%
X110490000Y-31750000D03*
D33*
X111390000Y-31750000D03*
D23*
%TO.P,U1,41,SWCLK*%
%TO.N,unconnected-(U1-SWCLK-Pad41)*%
X99060000Y-79780000D03*
D34*
X99060000Y-80680000D03*
D24*
%TO.P,U1,42,GND*%
%TO.N,GND*%
X101600000Y-79780000D03*
D34*
X101600000Y-80680000D03*
D23*
%TO.P,U1,43,SWDIO*%
%TO.N,unconnected-(U1-SWDIO-Pad43)*%
X104140000Y-79780000D03*
D34*
X104140000Y-80680000D03*
%TD*%
D10*
%TO.P,J7,2,Pin_2*%
%TO.N,Net-(D5-A)*%
X56500000Y-140050000D03*
D11*
%TO.P,J7,1,Pin_1*%
%TO.N,+12V*%
X58500000Y-140050000D03*
%TD*%
D35*
%TO.N,ZIMBLE_SWITCH*%
X77950000Y-82050000D02*
X90150000Y-69850000D01*
X90150000Y-69850000D02*
X92710000Y-69850000D01*
D36*
%TO.N,+12V*%
X45000000Y-72420000D02*
X46202081Y-72420000D01*
X46202081Y-72420000D02*
X52500000Y-66122081D01*
X52500000Y-66122081D02*
X52500000Y-50000000D01*
X46355000Y-43855000D02*
X46355000Y-43765000D01*
X52500000Y-50000000D02*
X46355000Y-43855000D01*
D35*
%TO.N,STAR_TX*%
X92710000Y-44450000D02*
X93885000Y-43275000D01*
X93885000Y-43275000D02*
X93885000Y-33115000D01*
X93885000Y-33115000D02*
X84524454Y-33115000D01*
X84524454Y-33115000D02*
X77639454Y-40000000D01*
X77639454Y-40000000D02*
X60700000Y-40000000D01*
X60700000Y-40000000D02*
X59530000Y-41170000D01*
%TO.N,MIDI_RX*%
X92710000Y-34290000D02*
X91100000Y-34290000D01*
X91100000Y-34290000D02*
X89735000Y-35655000D01*
X89735000Y-35655000D02*
X89735000Y-68045000D01*
X89735000Y-68045000D02*
X82700000Y-75080000D01*
D36*
%TO.N,+3V3*%
X45000000Y-115000000D02*
X44125000Y-115000000D01*
X40925000Y-81575000D02*
X45000000Y-77500000D01*
X44125000Y-115000000D02*
X40925000Y-111800000D01*
X40925000Y-111800000D02*
X40925000Y-81575000D01*
D35*
%TO.N,ZIMBLE_SWITCH*%
X45000000Y-104500000D02*
X42050000Y-101550000D01*
X42050000Y-101550000D02*
X42050000Y-83646878D01*
X43646878Y-82050000D02*
X77950000Y-82050000D01*
X42050000Y-83646878D02*
X43646878Y-82050000D01*
%TO.N,PREPARE_SWITCH*%
X45000000Y-92000000D02*
X42500000Y-89500000D01*
X42500000Y-83833274D02*
X43833274Y-82500000D01*
X42500000Y-89500000D02*
X42500000Y-83833274D01*
X43833274Y-82500000D02*
X80000000Y-82500000D01*
X80000000Y-82500000D02*
X90110000Y-72390000D01*
X90110000Y-72390000D02*
X92710000Y-72390000D01*
%TO.N,VOLUME_POT*%
X45000000Y-113000000D02*
X45275000Y-113000000D01*
X40125000Y-130800255D02*
X51824745Y-142500000D01*
X45275000Y-113000000D02*
X46500000Y-114225000D01*
X46500000Y-114225000D02*
X46500000Y-118625000D01*
X46500000Y-118625000D02*
X40125000Y-125000000D01*
X40125000Y-125000000D02*
X40125000Y-130800255D01*
X114875000Y-57375000D02*
X112110000Y-54610000D01*
X51824745Y-142500000D02*
X104450000Y-142500000D01*
X104450000Y-142500000D02*
X114875000Y-132075000D01*
X114875000Y-132075000D02*
X114875000Y-57375000D01*
X112110000Y-54610000D02*
X110490000Y-54610000D01*
%TO.N,Net-(D6-A)*%
X83022440Y-44881800D02*
X83022440Y-56977560D01*
X83022440Y-56977560D02*
X70000000Y-70000000D01*
%TO.N,Net-(J8-Pad4)*%
X59840000Y-64920000D02*
X59840000Y-58071880D01*
X59840000Y-58071880D02*
X73030080Y-44881800D01*
%TO.N,Net-(D6-K)*%
X59840000Y-75080000D02*
X59840000Y-71580000D01*
X59840000Y-71580000D02*
X64920000Y-66500000D01*
%TO.N,Net-(D6-A)*%
X70000000Y-70000000D02*
X65880000Y-74120000D01*
X65880000Y-74120000D02*
X64920000Y-74120000D01*
%TO.N,Net-(D6-K)*%
X70000000Y-67460000D02*
X65880000Y-67460000D01*
X65880000Y-67460000D02*
X64920000Y-66500000D01*
%TO.N,MIDI_RX*%
X77620000Y-72540000D02*
X80160000Y-72540000D01*
X80160000Y-72540000D02*
X82700000Y-75080000D01*
%TO.N,PREPARE_LAMP*%
X77700000Y-92340000D02*
X89735000Y-80305000D01*
X89735000Y-80305000D02*
X89735000Y-78835000D01*
X89735000Y-78835000D02*
X91100000Y-77470000D01*
X91100000Y-77470000D02*
X92710000Y-77470000D01*
%TO.N,ZIMBLE_LAMP*%
X77700000Y-96390000D02*
X77700000Y-95020000D01*
X77700000Y-95020000D02*
X92710000Y-80010000D01*
%TO.N,Net-(Q7-B)*%
X67540000Y-92340000D02*
X59840000Y-92340000D01*
X59840000Y-92340000D02*
X55000000Y-87500000D01*
%TO.N,Net-(Q6-B)*%
X55000000Y-100000000D02*
X58610000Y-96390000D01*
X58610000Y-96390000D02*
X67540000Y-96390000D01*
D36*
%TO.N,Net-(J12-Pin_3)*%
X65000000Y-102500000D02*
X63510000Y-103990000D01*
X45500000Y-100500000D02*
X45000000Y-100500000D01*
X63510000Y-103990000D02*
X48990000Y-103990000D01*
X48990000Y-103990000D02*
X45500000Y-100500000D01*
%TO.N,Net-(J11-Pin_3)*%
X65000000Y-86230000D02*
X62280000Y-83510000D01*
X62280000Y-83510000D02*
X43990000Y-83510000D01*
X43425000Y-84075000D02*
X43425000Y-86538478D01*
X44886522Y-88000000D02*
X45000000Y-88000000D01*
X43990000Y-83510000D02*
X43425000Y-84075000D01*
X43425000Y-86538478D02*
X44886522Y-88000000D01*
D35*
%TO.N,Net-(J11-Pin_4)*%
X45000000Y-86000000D02*
X53960000Y-86000000D01*
X53960000Y-86000000D02*
X55000000Y-84960000D01*
%TO.N,Net-(J12-Pin_4)*%
X45000000Y-98500000D02*
X53960000Y-98500000D01*
X53960000Y-98500000D02*
X55000000Y-97460000D01*
%TO.N,BELL1*%
X111000000Y-102840000D02*
X95900000Y-87740000D01*
X95900000Y-57800000D02*
X92710000Y-54610000D01*
X95900000Y-87740000D02*
X95900000Y-57800000D01*
%TO.N,BELL2*%
X105920000Y-102840000D02*
X95400000Y-92320000D01*
X95400000Y-92320000D02*
X95400000Y-59840000D01*
X95400000Y-59840000D02*
X92710000Y-57150000D01*
%TO.N,BELL3*%
X100840000Y-102840000D02*
X94900000Y-96900000D01*
X94900000Y-96900000D02*
X94900000Y-61880000D01*
X94900000Y-61880000D02*
X92710000Y-59690000D01*
%TO.N,BELL4*%
X95760000Y-102840000D02*
X94400000Y-101480000D01*
X94400000Y-101480000D02*
X94400000Y-66460000D01*
X94400000Y-66460000D02*
X92710000Y-64770000D01*
%TO.N,BELL5*%
X92710000Y-67310000D02*
X93885000Y-68485000D01*
X93885000Y-99635000D02*
X90680000Y-102840000D01*
X93885000Y-68485000D02*
X93885000Y-99635000D01*
%TO.N,Net-(Q5-B)*%
X47270000Y-122230000D02*
X56500000Y-113000000D01*
X56500000Y-113000000D02*
X90680000Y-113000000D01*
%TO.N,Net-(Q4-B)*%
X62270000Y-122230000D02*
X70375000Y-114125000D01*
X70375000Y-114125000D02*
X94635000Y-114125000D01*
X94635000Y-114125000D02*
X95760000Y-113000000D01*
%TO.N,Net-(Q3-B)*%
X77270000Y-122230000D02*
X78895000Y-120605000D01*
X78895000Y-120605000D02*
X93235000Y-120605000D01*
X93235000Y-120605000D02*
X100840000Y-113000000D01*
%TO.N,Net-(Q2-B)*%
X92270000Y-122230000D02*
X96690000Y-122230000D01*
X96690000Y-122230000D02*
X105920000Y-113000000D01*
%TO.N,Net-(Q1-B)*%
X107270000Y-122230000D02*
X111000000Y-118500000D01*
X111000000Y-118500000D02*
X111000000Y-113000000D01*
D36*
%TO.N,Net-(D1-A)*%
X102340000Y-131000000D02*
X102340000Y-127160000D01*
X102340000Y-127160000D02*
X106000000Y-123500000D01*
%TO.N,Net-(D2-A)*%
X87340000Y-131000000D02*
X87340000Y-127160000D01*
X87340000Y-127160000D02*
X91000000Y-123500000D01*
%TO.N,Net-(D3-A)*%
X72420000Y-131000000D02*
X72420000Y-127080000D01*
X72420000Y-127080000D02*
X76000000Y-123500000D01*
%TO.N,Net-(D4-A)*%
X57420000Y-131000000D02*
X57420000Y-127080000D01*
X57420000Y-127080000D02*
X61000000Y-123500000D01*
%TO.N,Net-(D5-A)*%
X42340000Y-131000000D02*
X42340000Y-127160000D01*
X42340000Y-127160000D02*
X46000000Y-123500000D01*
%TO.N,Net-(D1-A)*%
X96500000Y-140000000D02*
X96500000Y-136840000D01*
X96500000Y-136840000D02*
X102340000Y-131000000D01*
%TO.N,Net-(D2-A)*%
X86700000Y-140000000D02*
X86700000Y-131640000D01*
X86700000Y-131640000D02*
X87340000Y-131000000D01*
%TO.N,Net-(D5-A)*%
X56500000Y-140050000D02*
X51390000Y-140050000D01*
X51390000Y-140050000D02*
X42340000Y-131000000D01*
%TO.N,Net-(D4-A)*%
X66500000Y-140000000D02*
X66340000Y-140000000D01*
X66340000Y-140000000D02*
X57340000Y-131000000D01*
%TO.N,Net-(D3-A)*%
X76500000Y-140000000D02*
X76500000Y-135080000D01*
X76500000Y-135080000D02*
X72420000Y-131000000D01*
%TO.N,+12V*%
X98500000Y-140000000D02*
X107500000Y-131000000D01*
X107500000Y-131000000D02*
X112500000Y-131000000D01*
X88700000Y-140000000D02*
X97500000Y-131200000D01*
X97500000Y-131200000D02*
X97500000Y-131000000D01*
X58500000Y-140050000D02*
X58500000Y-137000000D01*
X58500000Y-137000000D02*
X52500000Y-131000000D01*
X68500000Y-140000000D02*
X68500000Y-132000000D01*
X68500000Y-132000000D02*
X67500000Y-131000000D01*
X78500000Y-140000000D02*
X78500000Y-135080000D01*
X78500000Y-135080000D02*
X82580000Y-131000000D01*
%TD*%
M02*
