%TF.GenerationSoftware,KiCad,Pcbnew,7.0.10*%
%TF.CreationDate,2024-03-03T10:32:23-06:00*%
%TF.ProjectId,Zimbelstern,5a696d62-656c-4737-9465-726e2e6b6963,rev?*%
%TF.SameCoordinates,Original*%
%TF.FileFunction,Drillmap*%
%TF.FilePolarity,Positive*%
%FSLAX45Y45*%
G04 Gerber Fmt 4.5, Leading zero omitted, Abs format (unit mm)*
G04 Created by KiCad (PCBNEW 7.0.10) date 2024-03-03 10:32:23*
%MOMM*%
%LPD*%
G01*
G04 APERTURE LIST*
%ADD10C,0.100000*%
%ADD11C,0.200000*%
%ADD12C,0.139700*%
%ADD13C,0.150000*%
%ADD14C,0.180000*%
%ADD15C,0.230000*%
%ADD16C,0.300000*%
G04 APERTURE END LIST*
D10*
X11500000Y-14500000D02*
X4000000Y-14500000D01*
X4000000Y-3000000D01*
X11500000Y-3000000D01*
X11500000Y-14500000D01*
D11*
D12*
X7232650Y-3168650D02*
X7372350Y-3308350D01*
X7372350Y-3168650D02*
X7232650Y-3308350D01*
X8232902Y-3168650D02*
X8372602Y-3308350D01*
X8372602Y-3168650D02*
X8232902Y-3308350D01*
D13*
X9992500Y-3491000D02*
G75*
G03*
X9842500Y-3491000I-75000J0D01*
G01*
X9842500Y-3491000D02*
G75*
G03*
X9992500Y-3491000I75000J0D01*
G01*
X10477500Y-3491000D02*
G75*
G03*
X10327500Y-3491000I-75000J0D01*
G01*
X10327500Y-3491000D02*
G75*
G03*
X10477500Y-3491000I75000J0D01*
G01*
D14*
X9887500Y-3098000D02*
X9887500Y-3278000D01*
X9797500Y-3188000D02*
X9977500Y-3188000D01*
X10432500Y-3098000D02*
X10432500Y-3278000D01*
X10342500Y-3188000D02*
X10522500Y-3188000D01*
D15*
X5485318Y-3714318D02*
X5485318Y-3551682D01*
X5322682Y-3551682D01*
X5322682Y-3714318D01*
X5485318Y-3714318D01*
X6685318Y-3714318D02*
X6685318Y-3551682D01*
X6522682Y-3551682D01*
X6522682Y-3714318D01*
X6685318Y-3714318D01*
D16*
X4500000Y-5900000D02*
X4650000Y-5750000D01*
X4500000Y-5600000D01*
X4350000Y-5750000D01*
X4500000Y-5900000D01*
X4500000Y-14150000D02*
X4650000Y-14000000D01*
X4500000Y-13850000D01*
X4350000Y-14000000D01*
X4500000Y-14150000D01*
X7750000Y-5900000D02*
X7900000Y-5750000D01*
X7750000Y-5600000D01*
X7600000Y-5750000D01*
X7750000Y-5900000D01*
X10922000Y-9294000D02*
X11072000Y-9144000D01*
X10922000Y-8994000D01*
X10772000Y-9144000D01*
X10922000Y-9294000D01*
X11000000Y-14150000D02*
X11150000Y-14000000D01*
X11000000Y-13850000D01*
X10850000Y-14000000D01*
X11000000Y-14150000D01*
D11*
X4255777Y-14816484D02*
X4255777Y-14616484D01*
X4255777Y-14616484D02*
X4303396Y-14616484D01*
X4303396Y-14616484D02*
X4331967Y-14626008D01*
X4331967Y-14626008D02*
X4351015Y-14645055D01*
X4351015Y-14645055D02*
X4360539Y-14664103D01*
X4360539Y-14664103D02*
X4370063Y-14702198D01*
X4370063Y-14702198D02*
X4370063Y-14730769D01*
X4370063Y-14730769D02*
X4360539Y-14768865D01*
X4360539Y-14768865D02*
X4351015Y-14787912D01*
X4351015Y-14787912D02*
X4331967Y-14806960D01*
X4331967Y-14806960D02*
X4303396Y-14816484D01*
X4303396Y-14816484D02*
X4255777Y-14816484D01*
X4455777Y-14816484D02*
X4455777Y-14683150D01*
X4455777Y-14721246D02*
X4465301Y-14702198D01*
X4465301Y-14702198D02*
X4474824Y-14692674D01*
X4474824Y-14692674D02*
X4493872Y-14683150D01*
X4493872Y-14683150D02*
X4512920Y-14683150D01*
X4579586Y-14816484D02*
X4579586Y-14683150D01*
X4579586Y-14616484D02*
X4570063Y-14626008D01*
X4570063Y-14626008D02*
X4579586Y-14635531D01*
X4579586Y-14635531D02*
X4589110Y-14626008D01*
X4589110Y-14626008D02*
X4579586Y-14616484D01*
X4579586Y-14616484D02*
X4579586Y-14635531D01*
X4703396Y-14816484D02*
X4684348Y-14806960D01*
X4684348Y-14806960D02*
X4674824Y-14787912D01*
X4674824Y-14787912D02*
X4674824Y-14616484D01*
X4808158Y-14816484D02*
X4789110Y-14806960D01*
X4789110Y-14806960D02*
X4779586Y-14787912D01*
X4779586Y-14787912D02*
X4779586Y-14616484D01*
X5036729Y-14816484D02*
X5036729Y-14616484D01*
X5036729Y-14616484D02*
X5103396Y-14759341D01*
X5103396Y-14759341D02*
X5170063Y-14616484D01*
X5170063Y-14616484D02*
X5170063Y-14816484D01*
X5351015Y-14816484D02*
X5351015Y-14711722D01*
X5351015Y-14711722D02*
X5341491Y-14692674D01*
X5341491Y-14692674D02*
X5322444Y-14683150D01*
X5322444Y-14683150D02*
X5284348Y-14683150D01*
X5284348Y-14683150D02*
X5265301Y-14692674D01*
X5351015Y-14806960D02*
X5331967Y-14816484D01*
X5331967Y-14816484D02*
X5284348Y-14816484D01*
X5284348Y-14816484D02*
X5265301Y-14806960D01*
X5265301Y-14806960D02*
X5255777Y-14787912D01*
X5255777Y-14787912D02*
X5255777Y-14768865D01*
X5255777Y-14768865D02*
X5265301Y-14749817D01*
X5265301Y-14749817D02*
X5284348Y-14740293D01*
X5284348Y-14740293D02*
X5331967Y-14740293D01*
X5331967Y-14740293D02*
X5351015Y-14730769D01*
X5446253Y-14683150D02*
X5446253Y-14883150D01*
X5446253Y-14692674D02*
X5465301Y-14683150D01*
X5465301Y-14683150D02*
X5503396Y-14683150D01*
X5503396Y-14683150D02*
X5522444Y-14692674D01*
X5522444Y-14692674D02*
X5531967Y-14702198D01*
X5531967Y-14702198D02*
X5541491Y-14721246D01*
X5541491Y-14721246D02*
X5541491Y-14778388D01*
X5541491Y-14778388D02*
X5531967Y-14797436D01*
X5531967Y-14797436D02*
X5522444Y-14806960D01*
X5522444Y-14806960D02*
X5503396Y-14816484D01*
X5503396Y-14816484D02*
X5465301Y-14816484D01*
X5465301Y-14816484D02*
X5446253Y-14806960D01*
X5627205Y-14797436D02*
X5636729Y-14806960D01*
X5636729Y-14806960D02*
X5627205Y-14816484D01*
X5627205Y-14816484D02*
X5617682Y-14806960D01*
X5617682Y-14806960D02*
X5627205Y-14797436D01*
X5627205Y-14797436D02*
X5627205Y-14816484D01*
X5627205Y-14692674D02*
X5636729Y-14702198D01*
X5636729Y-14702198D02*
X5627205Y-14711722D01*
X5627205Y-14711722D02*
X5617682Y-14702198D01*
X5617682Y-14702198D02*
X5627205Y-14692674D01*
X5627205Y-14692674D02*
X5627205Y-14711722D01*
D12*
X3855300Y-15075150D02*
X3995000Y-15214850D01*
X3995000Y-15075150D02*
X3855300Y-15214850D01*
D11*
X4360539Y-15236484D02*
X4246253Y-15236484D01*
X4303396Y-15236484D02*
X4303396Y-15036484D01*
X4303396Y-15036484D02*
X4284348Y-15065055D01*
X4284348Y-15065055D02*
X4265301Y-15084103D01*
X4265301Y-15084103D02*
X4246253Y-15093627D01*
X4446253Y-15217436D02*
X4455777Y-15226960D01*
X4455777Y-15226960D02*
X4446253Y-15236484D01*
X4446253Y-15236484D02*
X4436729Y-15226960D01*
X4436729Y-15226960D02*
X4446253Y-15217436D01*
X4446253Y-15217436D02*
X4446253Y-15236484D01*
X4522444Y-15036484D02*
X4646253Y-15036484D01*
X4646253Y-15036484D02*
X4579586Y-15112674D01*
X4579586Y-15112674D02*
X4608158Y-15112674D01*
X4608158Y-15112674D02*
X4627205Y-15122198D01*
X4627205Y-15122198D02*
X4636729Y-15131722D01*
X4636729Y-15131722D02*
X4646253Y-15150769D01*
X4646253Y-15150769D02*
X4646253Y-15198388D01*
X4646253Y-15198388D02*
X4636729Y-15217436D01*
X4636729Y-15217436D02*
X4627205Y-15226960D01*
X4627205Y-15226960D02*
X4608158Y-15236484D01*
X4608158Y-15236484D02*
X4551015Y-15236484D01*
X4551015Y-15236484D02*
X4531967Y-15226960D01*
X4531967Y-15226960D02*
X4522444Y-15217436D01*
X4741491Y-15236484D02*
X4779586Y-15236484D01*
X4779586Y-15236484D02*
X4798634Y-15226960D01*
X4798634Y-15226960D02*
X4808158Y-15217436D01*
X4808158Y-15217436D02*
X4827205Y-15188865D01*
X4827205Y-15188865D02*
X4836729Y-15150769D01*
X4836729Y-15150769D02*
X4836729Y-15074579D01*
X4836729Y-15074579D02*
X4827205Y-15055531D01*
X4827205Y-15055531D02*
X4817682Y-15046008D01*
X4817682Y-15046008D02*
X4798634Y-15036484D01*
X4798634Y-15036484D02*
X4760539Y-15036484D01*
X4760539Y-15036484D02*
X4741491Y-15046008D01*
X4741491Y-15046008D02*
X4731967Y-15055531D01*
X4731967Y-15055531D02*
X4722444Y-15074579D01*
X4722444Y-15074579D02*
X4722444Y-15122198D01*
X4722444Y-15122198D02*
X4731967Y-15141246D01*
X4731967Y-15141246D02*
X4741491Y-15150769D01*
X4741491Y-15150769D02*
X4760539Y-15160293D01*
X4760539Y-15160293D02*
X4798634Y-15160293D01*
X4798634Y-15160293D02*
X4817682Y-15150769D01*
X4817682Y-15150769D02*
X4827205Y-15141246D01*
X4827205Y-15141246D02*
X4836729Y-15122198D01*
X4903396Y-15036484D02*
X5036729Y-15036484D01*
X5036729Y-15036484D02*
X4951015Y-15236484D01*
X5112920Y-15236484D02*
X5112920Y-15103150D01*
X5112920Y-15122198D02*
X5122444Y-15112674D01*
X5122444Y-15112674D02*
X5141491Y-15103150D01*
X5141491Y-15103150D02*
X5170063Y-15103150D01*
X5170063Y-15103150D02*
X5189110Y-15112674D01*
X5189110Y-15112674D02*
X5198634Y-15131722D01*
X5198634Y-15131722D02*
X5198634Y-15236484D01*
X5198634Y-15131722D02*
X5208158Y-15112674D01*
X5208158Y-15112674D02*
X5227205Y-15103150D01*
X5227205Y-15103150D02*
X5255777Y-15103150D01*
X5255777Y-15103150D02*
X5274825Y-15112674D01*
X5274825Y-15112674D02*
X5284348Y-15131722D01*
X5284348Y-15131722D02*
X5284348Y-15236484D01*
X5379586Y-15236484D02*
X5379586Y-15103150D01*
X5379586Y-15122198D02*
X5389110Y-15112674D01*
X5389110Y-15112674D02*
X5408158Y-15103150D01*
X5408158Y-15103150D02*
X5436729Y-15103150D01*
X5436729Y-15103150D02*
X5455777Y-15112674D01*
X5455777Y-15112674D02*
X5465301Y-15131722D01*
X5465301Y-15131722D02*
X5465301Y-15236484D01*
X5465301Y-15131722D02*
X5474825Y-15112674D01*
X5474825Y-15112674D02*
X5493872Y-15103150D01*
X5493872Y-15103150D02*
X5522444Y-15103150D01*
X5522444Y-15103150D02*
X5541491Y-15112674D01*
X5541491Y-15112674D02*
X5551015Y-15131722D01*
X5551015Y-15131722D02*
X5551015Y-15236484D01*
X5941491Y-15026960D02*
X5770063Y-15284103D01*
X6198634Y-15036484D02*
X6217682Y-15036484D01*
X6217682Y-15036484D02*
X6236729Y-15046008D01*
X6236729Y-15046008D02*
X6246253Y-15055531D01*
X6246253Y-15055531D02*
X6255777Y-15074579D01*
X6255777Y-15074579D02*
X6265301Y-15112674D01*
X6265301Y-15112674D02*
X6265301Y-15160293D01*
X6265301Y-15160293D02*
X6255777Y-15198388D01*
X6255777Y-15198388D02*
X6246253Y-15217436D01*
X6246253Y-15217436D02*
X6236729Y-15226960D01*
X6236729Y-15226960D02*
X6217682Y-15236484D01*
X6217682Y-15236484D02*
X6198634Y-15236484D01*
X6198634Y-15236484D02*
X6179586Y-15226960D01*
X6179586Y-15226960D02*
X6170063Y-15217436D01*
X6170063Y-15217436D02*
X6160539Y-15198388D01*
X6160539Y-15198388D02*
X6151015Y-15160293D01*
X6151015Y-15160293D02*
X6151015Y-15112674D01*
X6151015Y-15112674D02*
X6160539Y-15074579D01*
X6160539Y-15074579D02*
X6170063Y-15055531D01*
X6170063Y-15055531D02*
X6179586Y-15046008D01*
X6179586Y-15046008D02*
X6198634Y-15036484D01*
X6351015Y-15217436D02*
X6360539Y-15226960D01*
X6360539Y-15226960D02*
X6351015Y-15236484D01*
X6351015Y-15236484D02*
X6341491Y-15226960D01*
X6341491Y-15226960D02*
X6351015Y-15217436D01*
X6351015Y-15217436D02*
X6351015Y-15236484D01*
X6484348Y-15036484D02*
X6503396Y-15036484D01*
X6503396Y-15036484D02*
X6522444Y-15046008D01*
X6522444Y-15046008D02*
X6531967Y-15055531D01*
X6531967Y-15055531D02*
X6541491Y-15074579D01*
X6541491Y-15074579D02*
X6551015Y-15112674D01*
X6551015Y-15112674D02*
X6551015Y-15160293D01*
X6551015Y-15160293D02*
X6541491Y-15198388D01*
X6541491Y-15198388D02*
X6531967Y-15217436D01*
X6531967Y-15217436D02*
X6522444Y-15226960D01*
X6522444Y-15226960D02*
X6503396Y-15236484D01*
X6503396Y-15236484D02*
X6484348Y-15236484D01*
X6484348Y-15236484D02*
X6465301Y-15226960D01*
X6465301Y-15226960D02*
X6455777Y-15217436D01*
X6455777Y-15217436D02*
X6446253Y-15198388D01*
X6446253Y-15198388D02*
X6436729Y-15160293D01*
X6436729Y-15160293D02*
X6436729Y-15112674D01*
X6436729Y-15112674D02*
X6446253Y-15074579D01*
X6446253Y-15074579D02*
X6455777Y-15055531D01*
X6455777Y-15055531D02*
X6465301Y-15046008D01*
X6465301Y-15046008D02*
X6484348Y-15036484D01*
X6731967Y-15036484D02*
X6636729Y-15036484D01*
X6636729Y-15036484D02*
X6627206Y-15131722D01*
X6627206Y-15131722D02*
X6636729Y-15122198D01*
X6636729Y-15122198D02*
X6655777Y-15112674D01*
X6655777Y-15112674D02*
X6703396Y-15112674D01*
X6703396Y-15112674D02*
X6722444Y-15122198D01*
X6722444Y-15122198D02*
X6731967Y-15131722D01*
X6731967Y-15131722D02*
X6741491Y-15150769D01*
X6741491Y-15150769D02*
X6741491Y-15198388D01*
X6741491Y-15198388D02*
X6731967Y-15217436D01*
X6731967Y-15217436D02*
X6722444Y-15226960D01*
X6722444Y-15226960D02*
X6703396Y-15236484D01*
X6703396Y-15236484D02*
X6655777Y-15236484D01*
X6655777Y-15236484D02*
X6636729Y-15226960D01*
X6636729Y-15226960D02*
X6627206Y-15217436D01*
X6922444Y-15036484D02*
X6827206Y-15036484D01*
X6827206Y-15036484D02*
X6817682Y-15131722D01*
X6817682Y-15131722D02*
X6827206Y-15122198D01*
X6827206Y-15122198D02*
X6846253Y-15112674D01*
X6846253Y-15112674D02*
X6893872Y-15112674D01*
X6893872Y-15112674D02*
X6912920Y-15122198D01*
X6912920Y-15122198D02*
X6922444Y-15131722D01*
X6922444Y-15131722D02*
X6931967Y-15150769D01*
X6931967Y-15150769D02*
X6931967Y-15198388D01*
X6931967Y-15198388D02*
X6922444Y-15217436D01*
X6922444Y-15217436D02*
X6912920Y-15226960D01*
X6912920Y-15226960D02*
X6893872Y-15236484D01*
X6893872Y-15236484D02*
X6846253Y-15236484D01*
X6846253Y-15236484D02*
X6827206Y-15226960D01*
X6827206Y-15226960D02*
X6817682Y-15217436D01*
X7055777Y-15036484D02*
X7074825Y-15036484D01*
X7074825Y-15036484D02*
X7093872Y-15046008D01*
X7093872Y-15046008D02*
X7103396Y-15055531D01*
X7103396Y-15055531D02*
X7112920Y-15074579D01*
X7112920Y-15074579D02*
X7122444Y-15112674D01*
X7122444Y-15112674D02*
X7122444Y-15160293D01*
X7122444Y-15160293D02*
X7112920Y-15198388D01*
X7112920Y-15198388D02*
X7103396Y-15217436D01*
X7103396Y-15217436D02*
X7093872Y-15226960D01*
X7093872Y-15226960D02*
X7074825Y-15236484D01*
X7074825Y-15236484D02*
X7055777Y-15236484D01*
X7055777Y-15236484D02*
X7036729Y-15226960D01*
X7036729Y-15226960D02*
X7027206Y-15217436D01*
X7027206Y-15217436D02*
X7017682Y-15198388D01*
X7017682Y-15198388D02*
X7008158Y-15160293D01*
X7008158Y-15160293D02*
X7008158Y-15112674D01*
X7008158Y-15112674D02*
X7017682Y-15074579D01*
X7017682Y-15074579D02*
X7027206Y-15055531D01*
X7027206Y-15055531D02*
X7036729Y-15046008D01*
X7036729Y-15046008D02*
X7055777Y-15036484D01*
X7198634Y-15036484D02*
X7198634Y-15074579D01*
X7274825Y-15036484D02*
X7274825Y-15074579D01*
X7570063Y-15312674D02*
X7560539Y-15303150D01*
X7560539Y-15303150D02*
X7541491Y-15274579D01*
X7541491Y-15274579D02*
X7531968Y-15255531D01*
X7531968Y-15255531D02*
X7522444Y-15226960D01*
X7522444Y-15226960D02*
X7512920Y-15179341D01*
X7512920Y-15179341D02*
X7512920Y-15141246D01*
X7512920Y-15141246D02*
X7522444Y-15093627D01*
X7522444Y-15093627D02*
X7531968Y-15065055D01*
X7531968Y-15065055D02*
X7541491Y-15046008D01*
X7541491Y-15046008D02*
X7560539Y-15017436D01*
X7560539Y-15017436D02*
X7570063Y-15007912D01*
X7636729Y-15055531D02*
X7646253Y-15046008D01*
X7646253Y-15046008D02*
X7665301Y-15036484D01*
X7665301Y-15036484D02*
X7712920Y-15036484D01*
X7712920Y-15036484D02*
X7731968Y-15046008D01*
X7731968Y-15046008D02*
X7741491Y-15055531D01*
X7741491Y-15055531D02*
X7751015Y-15074579D01*
X7751015Y-15074579D02*
X7751015Y-15093627D01*
X7751015Y-15093627D02*
X7741491Y-15122198D01*
X7741491Y-15122198D02*
X7627206Y-15236484D01*
X7627206Y-15236484D02*
X7751015Y-15236484D01*
X7989110Y-15236484D02*
X7989110Y-15036484D01*
X8074825Y-15236484D02*
X8074825Y-15131722D01*
X8074825Y-15131722D02*
X8065301Y-15112674D01*
X8065301Y-15112674D02*
X8046253Y-15103150D01*
X8046253Y-15103150D02*
X8017682Y-15103150D01*
X8017682Y-15103150D02*
X7998634Y-15112674D01*
X7998634Y-15112674D02*
X7989110Y-15122198D01*
X8198634Y-15236484D02*
X8179587Y-15226960D01*
X8179587Y-15226960D02*
X8170063Y-15217436D01*
X8170063Y-15217436D02*
X8160539Y-15198388D01*
X8160539Y-15198388D02*
X8160539Y-15141246D01*
X8160539Y-15141246D02*
X8170063Y-15122198D01*
X8170063Y-15122198D02*
X8179587Y-15112674D01*
X8179587Y-15112674D02*
X8198634Y-15103150D01*
X8198634Y-15103150D02*
X8227206Y-15103150D01*
X8227206Y-15103150D02*
X8246253Y-15112674D01*
X8246253Y-15112674D02*
X8255777Y-15122198D01*
X8255777Y-15122198D02*
X8265301Y-15141246D01*
X8265301Y-15141246D02*
X8265301Y-15198388D01*
X8265301Y-15198388D02*
X8255777Y-15217436D01*
X8255777Y-15217436D02*
X8246253Y-15226960D01*
X8246253Y-15226960D02*
X8227206Y-15236484D01*
X8227206Y-15236484D02*
X8198634Y-15236484D01*
X8379587Y-15236484D02*
X8360539Y-15226960D01*
X8360539Y-15226960D02*
X8351015Y-15207912D01*
X8351015Y-15207912D02*
X8351015Y-15036484D01*
X8531968Y-15226960D02*
X8512920Y-15236484D01*
X8512920Y-15236484D02*
X8474825Y-15236484D01*
X8474825Y-15236484D02*
X8455777Y-15226960D01*
X8455777Y-15226960D02*
X8446253Y-15207912D01*
X8446253Y-15207912D02*
X8446253Y-15131722D01*
X8446253Y-15131722D02*
X8455777Y-15112674D01*
X8455777Y-15112674D02*
X8474825Y-15103150D01*
X8474825Y-15103150D02*
X8512920Y-15103150D01*
X8512920Y-15103150D02*
X8531968Y-15112674D01*
X8531968Y-15112674D02*
X8541492Y-15131722D01*
X8541492Y-15131722D02*
X8541492Y-15150769D01*
X8541492Y-15150769D02*
X8446253Y-15169817D01*
X8617682Y-15226960D02*
X8636730Y-15236484D01*
X8636730Y-15236484D02*
X8674825Y-15236484D01*
X8674825Y-15236484D02*
X8693873Y-15226960D01*
X8693873Y-15226960D02*
X8703396Y-15207912D01*
X8703396Y-15207912D02*
X8703396Y-15198388D01*
X8703396Y-15198388D02*
X8693873Y-15179341D01*
X8693873Y-15179341D02*
X8674825Y-15169817D01*
X8674825Y-15169817D02*
X8646253Y-15169817D01*
X8646253Y-15169817D02*
X8627206Y-15160293D01*
X8627206Y-15160293D02*
X8617682Y-15141246D01*
X8617682Y-15141246D02*
X8617682Y-15131722D01*
X8617682Y-15131722D02*
X8627206Y-15112674D01*
X8627206Y-15112674D02*
X8646253Y-15103150D01*
X8646253Y-15103150D02*
X8674825Y-15103150D01*
X8674825Y-15103150D02*
X8693873Y-15112674D01*
X8770063Y-15312674D02*
X8779587Y-15303150D01*
X8779587Y-15303150D02*
X8798634Y-15274579D01*
X8798634Y-15274579D02*
X8808158Y-15255531D01*
X8808158Y-15255531D02*
X8817682Y-15226960D01*
X8817682Y-15226960D02*
X8827206Y-15179341D01*
X8827206Y-15179341D02*
X8827206Y-15141246D01*
X8827206Y-15141246D02*
X8817682Y-15093627D01*
X8817682Y-15093627D02*
X8808158Y-15065055D01*
X8808158Y-15065055D02*
X8798634Y-15046008D01*
X8798634Y-15046008D02*
X8779587Y-15017436D01*
X8779587Y-15017436D02*
X8770063Y-15007912D01*
X9131968Y-15312674D02*
X9122444Y-15303150D01*
X9122444Y-15303150D02*
X9103396Y-15274579D01*
X9103396Y-15274579D02*
X9093873Y-15255531D01*
X9093873Y-15255531D02*
X9084349Y-15226960D01*
X9084349Y-15226960D02*
X9074825Y-15179341D01*
X9074825Y-15179341D02*
X9074825Y-15141246D01*
X9074825Y-15141246D02*
X9084349Y-15093627D01*
X9084349Y-15093627D02*
X9093873Y-15065055D01*
X9093873Y-15065055D02*
X9103396Y-15046008D01*
X9103396Y-15046008D02*
X9122444Y-15017436D01*
X9122444Y-15017436D02*
X9131968Y-15007912D01*
X9208158Y-15103150D02*
X9208158Y-15236484D01*
X9208158Y-15122198D02*
X9217682Y-15112674D01*
X9217682Y-15112674D02*
X9236730Y-15103150D01*
X9236730Y-15103150D02*
X9265301Y-15103150D01*
X9265301Y-15103150D02*
X9284349Y-15112674D01*
X9284349Y-15112674D02*
X9293873Y-15131722D01*
X9293873Y-15131722D02*
X9293873Y-15236484D01*
X9417682Y-15236484D02*
X9398634Y-15226960D01*
X9398634Y-15226960D02*
X9389111Y-15217436D01*
X9389111Y-15217436D02*
X9379587Y-15198388D01*
X9379587Y-15198388D02*
X9379587Y-15141246D01*
X9379587Y-15141246D02*
X9389111Y-15122198D01*
X9389111Y-15122198D02*
X9398634Y-15112674D01*
X9398634Y-15112674D02*
X9417682Y-15103150D01*
X9417682Y-15103150D02*
X9446254Y-15103150D01*
X9446254Y-15103150D02*
X9465301Y-15112674D01*
X9465301Y-15112674D02*
X9474825Y-15122198D01*
X9474825Y-15122198D02*
X9484349Y-15141246D01*
X9484349Y-15141246D02*
X9484349Y-15198388D01*
X9484349Y-15198388D02*
X9474825Y-15217436D01*
X9474825Y-15217436D02*
X9465301Y-15226960D01*
X9465301Y-15226960D02*
X9446254Y-15236484D01*
X9446254Y-15236484D02*
X9417682Y-15236484D01*
X9541492Y-15103150D02*
X9617682Y-15103150D01*
X9570063Y-15036484D02*
X9570063Y-15207912D01*
X9570063Y-15207912D02*
X9579587Y-15226960D01*
X9579587Y-15226960D02*
X9598634Y-15236484D01*
X9598634Y-15236484D02*
X9617682Y-15236484D01*
X9836730Y-15103150D02*
X9836730Y-15303150D01*
X9836730Y-15112674D02*
X9855777Y-15103150D01*
X9855777Y-15103150D02*
X9893873Y-15103150D01*
X9893873Y-15103150D02*
X9912920Y-15112674D01*
X9912920Y-15112674D02*
X9922444Y-15122198D01*
X9922444Y-15122198D02*
X9931968Y-15141246D01*
X9931968Y-15141246D02*
X9931968Y-15198388D01*
X9931968Y-15198388D02*
X9922444Y-15217436D01*
X9922444Y-15217436D02*
X9912920Y-15226960D01*
X9912920Y-15226960D02*
X9893873Y-15236484D01*
X9893873Y-15236484D02*
X9855777Y-15236484D01*
X9855777Y-15236484D02*
X9836730Y-15226960D01*
X10046254Y-15236484D02*
X10027206Y-15226960D01*
X10027206Y-15226960D02*
X10017682Y-15207912D01*
X10017682Y-15207912D02*
X10017682Y-15036484D01*
X10208158Y-15236484D02*
X10208158Y-15131722D01*
X10208158Y-15131722D02*
X10198635Y-15112674D01*
X10198635Y-15112674D02*
X10179587Y-15103150D01*
X10179587Y-15103150D02*
X10141492Y-15103150D01*
X10141492Y-15103150D02*
X10122444Y-15112674D01*
X10208158Y-15226960D02*
X10189111Y-15236484D01*
X10189111Y-15236484D02*
X10141492Y-15236484D01*
X10141492Y-15236484D02*
X10122444Y-15226960D01*
X10122444Y-15226960D02*
X10112920Y-15207912D01*
X10112920Y-15207912D02*
X10112920Y-15188865D01*
X10112920Y-15188865D02*
X10122444Y-15169817D01*
X10122444Y-15169817D02*
X10141492Y-15160293D01*
X10141492Y-15160293D02*
X10189111Y-15160293D01*
X10189111Y-15160293D02*
X10208158Y-15150769D01*
X10274825Y-15103150D02*
X10351015Y-15103150D01*
X10303396Y-15036484D02*
X10303396Y-15207912D01*
X10303396Y-15207912D02*
X10312920Y-15226960D01*
X10312920Y-15226960D02*
X10331968Y-15236484D01*
X10331968Y-15236484D02*
X10351015Y-15236484D01*
X10493873Y-15226960D02*
X10474825Y-15236484D01*
X10474825Y-15236484D02*
X10436730Y-15236484D01*
X10436730Y-15236484D02*
X10417682Y-15226960D01*
X10417682Y-15226960D02*
X10408158Y-15207912D01*
X10408158Y-15207912D02*
X10408158Y-15131722D01*
X10408158Y-15131722D02*
X10417682Y-15112674D01*
X10417682Y-15112674D02*
X10436730Y-15103150D01*
X10436730Y-15103150D02*
X10474825Y-15103150D01*
X10474825Y-15103150D02*
X10493873Y-15112674D01*
X10493873Y-15112674D02*
X10503396Y-15131722D01*
X10503396Y-15131722D02*
X10503396Y-15150769D01*
X10503396Y-15150769D02*
X10408158Y-15169817D01*
X10674825Y-15236484D02*
X10674825Y-15036484D01*
X10674825Y-15226960D02*
X10655777Y-15236484D01*
X10655777Y-15236484D02*
X10617682Y-15236484D01*
X10617682Y-15236484D02*
X10598635Y-15226960D01*
X10598635Y-15226960D02*
X10589111Y-15217436D01*
X10589111Y-15217436D02*
X10579587Y-15198388D01*
X10579587Y-15198388D02*
X10579587Y-15141246D01*
X10579587Y-15141246D02*
X10589111Y-15122198D01*
X10589111Y-15122198D02*
X10598635Y-15112674D01*
X10598635Y-15112674D02*
X10617682Y-15103150D01*
X10617682Y-15103150D02*
X10655777Y-15103150D01*
X10655777Y-15103150D02*
X10674825Y-15112674D01*
X10751016Y-15312674D02*
X10760539Y-15303150D01*
X10760539Y-15303150D02*
X10779587Y-15274579D01*
X10779587Y-15274579D02*
X10789111Y-15255531D01*
X10789111Y-15255531D02*
X10798635Y-15226960D01*
X10798635Y-15226960D02*
X10808158Y-15179341D01*
X10808158Y-15179341D02*
X10808158Y-15141246D01*
X10808158Y-15141246D02*
X10798635Y-15093627D01*
X10798635Y-15093627D02*
X10789111Y-15065055D01*
X10789111Y-15065055D02*
X10779587Y-15046008D01*
X10779587Y-15046008D02*
X10760539Y-15017436D01*
X10760539Y-15017436D02*
X10751016Y-15007912D01*
D13*
X3995000Y-15409000D02*
G75*
G03*
X3845000Y-15409000I-75000J0D01*
G01*
X3845000Y-15409000D02*
G75*
G03*
X3995000Y-15409000I75000J0D01*
G01*
D11*
X4360539Y-15500484D02*
X4246253Y-15500484D01*
X4303396Y-15500484D02*
X4303396Y-15300484D01*
X4303396Y-15300484D02*
X4284348Y-15329055D01*
X4284348Y-15329055D02*
X4265301Y-15348103D01*
X4265301Y-15348103D02*
X4246253Y-15357627D01*
X4446253Y-15481436D02*
X4455777Y-15490960D01*
X4455777Y-15490960D02*
X4446253Y-15500484D01*
X4446253Y-15500484D02*
X4436729Y-15490960D01*
X4436729Y-15490960D02*
X4446253Y-15481436D01*
X4446253Y-15481436D02*
X4446253Y-15500484D01*
X4636729Y-15300484D02*
X4541491Y-15300484D01*
X4541491Y-15300484D02*
X4531967Y-15395722D01*
X4531967Y-15395722D02*
X4541491Y-15386198D01*
X4541491Y-15386198D02*
X4560539Y-15376674D01*
X4560539Y-15376674D02*
X4608158Y-15376674D01*
X4608158Y-15376674D02*
X4627205Y-15386198D01*
X4627205Y-15386198D02*
X4636729Y-15395722D01*
X4636729Y-15395722D02*
X4646253Y-15414769D01*
X4646253Y-15414769D02*
X4646253Y-15462388D01*
X4646253Y-15462388D02*
X4636729Y-15481436D01*
X4636729Y-15481436D02*
X4627205Y-15490960D01*
X4627205Y-15490960D02*
X4608158Y-15500484D01*
X4608158Y-15500484D02*
X4560539Y-15500484D01*
X4560539Y-15500484D02*
X4541491Y-15490960D01*
X4541491Y-15490960D02*
X4531967Y-15481436D01*
X4770063Y-15300484D02*
X4789110Y-15300484D01*
X4789110Y-15300484D02*
X4808158Y-15310008D01*
X4808158Y-15310008D02*
X4817682Y-15319531D01*
X4817682Y-15319531D02*
X4827205Y-15338579D01*
X4827205Y-15338579D02*
X4836729Y-15376674D01*
X4836729Y-15376674D02*
X4836729Y-15424293D01*
X4836729Y-15424293D02*
X4827205Y-15462388D01*
X4827205Y-15462388D02*
X4817682Y-15481436D01*
X4817682Y-15481436D02*
X4808158Y-15490960D01*
X4808158Y-15490960D02*
X4789110Y-15500484D01*
X4789110Y-15500484D02*
X4770063Y-15500484D01*
X4770063Y-15500484D02*
X4751015Y-15490960D01*
X4751015Y-15490960D02*
X4741491Y-15481436D01*
X4741491Y-15481436D02*
X4731967Y-15462388D01*
X4731967Y-15462388D02*
X4722444Y-15424293D01*
X4722444Y-15424293D02*
X4722444Y-15376674D01*
X4722444Y-15376674D02*
X4731967Y-15338579D01*
X4731967Y-15338579D02*
X4741491Y-15319531D01*
X4741491Y-15319531D02*
X4751015Y-15310008D01*
X4751015Y-15310008D02*
X4770063Y-15300484D01*
X4960539Y-15300484D02*
X4979586Y-15300484D01*
X4979586Y-15300484D02*
X4998634Y-15310008D01*
X4998634Y-15310008D02*
X5008158Y-15319531D01*
X5008158Y-15319531D02*
X5017682Y-15338579D01*
X5017682Y-15338579D02*
X5027205Y-15376674D01*
X5027205Y-15376674D02*
X5027205Y-15424293D01*
X5027205Y-15424293D02*
X5017682Y-15462388D01*
X5017682Y-15462388D02*
X5008158Y-15481436D01*
X5008158Y-15481436D02*
X4998634Y-15490960D01*
X4998634Y-15490960D02*
X4979586Y-15500484D01*
X4979586Y-15500484D02*
X4960539Y-15500484D01*
X4960539Y-15500484D02*
X4941491Y-15490960D01*
X4941491Y-15490960D02*
X4931967Y-15481436D01*
X4931967Y-15481436D02*
X4922444Y-15462388D01*
X4922444Y-15462388D02*
X4912920Y-15424293D01*
X4912920Y-15424293D02*
X4912920Y-15376674D01*
X4912920Y-15376674D02*
X4922444Y-15338579D01*
X4922444Y-15338579D02*
X4931967Y-15319531D01*
X4931967Y-15319531D02*
X4941491Y-15310008D01*
X4941491Y-15310008D02*
X4960539Y-15300484D01*
X5112920Y-15500484D02*
X5112920Y-15367150D01*
X5112920Y-15386198D02*
X5122444Y-15376674D01*
X5122444Y-15376674D02*
X5141491Y-15367150D01*
X5141491Y-15367150D02*
X5170063Y-15367150D01*
X5170063Y-15367150D02*
X5189110Y-15376674D01*
X5189110Y-15376674D02*
X5198634Y-15395722D01*
X5198634Y-15395722D02*
X5198634Y-15500484D01*
X5198634Y-15395722D02*
X5208158Y-15376674D01*
X5208158Y-15376674D02*
X5227205Y-15367150D01*
X5227205Y-15367150D02*
X5255777Y-15367150D01*
X5255777Y-15367150D02*
X5274825Y-15376674D01*
X5274825Y-15376674D02*
X5284348Y-15395722D01*
X5284348Y-15395722D02*
X5284348Y-15500484D01*
X5379586Y-15500484D02*
X5379586Y-15367150D01*
X5379586Y-15386198D02*
X5389110Y-15376674D01*
X5389110Y-15376674D02*
X5408158Y-15367150D01*
X5408158Y-15367150D02*
X5436729Y-15367150D01*
X5436729Y-15367150D02*
X5455777Y-15376674D01*
X5455777Y-15376674D02*
X5465301Y-15395722D01*
X5465301Y-15395722D02*
X5465301Y-15500484D01*
X5465301Y-15395722D02*
X5474825Y-15376674D01*
X5474825Y-15376674D02*
X5493872Y-15367150D01*
X5493872Y-15367150D02*
X5522444Y-15367150D01*
X5522444Y-15367150D02*
X5541491Y-15376674D01*
X5541491Y-15376674D02*
X5551015Y-15395722D01*
X5551015Y-15395722D02*
X5551015Y-15500484D01*
X5941491Y-15290960D02*
X5770063Y-15548103D01*
X6198634Y-15300484D02*
X6217682Y-15300484D01*
X6217682Y-15300484D02*
X6236729Y-15310008D01*
X6236729Y-15310008D02*
X6246253Y-15319531D01*
X6246253Y-15319531D02*
X6255777Y-15338579D01*
X6255777Y-15338579D02*
X6265301Y-15376674D01*
X6265301Y-15376674D02*
X6265301Y-15424293D01*
X6265301Y-15424293D02*
X6255777Y-15462388D01*
X6255777Y-15462388D02*
X6246253Y-15481436D01*
X6246253Y-15481436D02*
X6236729Y-15490960D01*
X6236729Y-15490960D02*
X6217682Y-15500484D01*
X6217682Y-15500484D02*
X6198634Y-15500484D01*
X6198634Y-15500484D02*
X6179586Y-15490960D01*
X6179586Y-15490960D02*
X6170063Y-15481436D01*
X6170063Y-15481436D02*
X6160539Y-15462388D01*
X6160539Y-15462388D02*
X6151015Y-15424293D01*
X6151015Y-15424293D02*
X6151015Y-15376674D01*
X6151015Y-15376674D02*
X6160539Y-15338579D01*
X6160539Y-15338579D02*
X6170063Y-15319531D01*
X6170063Y-15319531D02*
X6179586Y-15310008D01*
X6179586Y-15310008D02*
X6198634Y-15300484D01*
X6351015Y-15481436D02*
X6360539Y-15490960D01*
X6360539Y-15490960D02*
X6351015Y-15500484D01*
X6351015Y-15500484D02*
X6341491Y-15490960D01*
X6341491Y-15490960D02*
X6351015Y-15481436D01*
X6351015Y-15481436D02*
X6351015Y-15500484D01*
X6484348Y-15300484D02*
X6503396Y-15300484D01*
X6503396Y-15300484D02*
X6522444Y-15310008D01*
X6522444Y-15310008D02*
X6531967Y-15319531D01*
X6531967Y-15319531D02*
X6541491Y-15338579D01*
X6541491Y-15338579D02*
X6551015Y-15376674D01*
X6551015Y-15376674D02*
X6551015Y-15424293D01*
X6551015Y-15424293D02*
X6541491Y-15462388D01*
X6541491Y-15462388D02*
X6531967Y-15481436D01*
X6531967Y-15481436D02*
X6522444Y-15490960D01*
X6522444Y-15490960D02*
X6503396Y-15500484D01*
X6503396Y-15500484D02*
X6484348Y-15500484D01*
X6484348Y-15500484D02*
X6465301Y-15490960D01*
X6465301Y-15490960D02*
X6455777Y-15481436D01*
X6455777Y-15481436D02*
X6446253Y-15462388D01*
X6446253Y-15462388D02*
X6436729Y-15424293D01*
X6436729Y-15424293D02*
X6436729Y-15376674D01*
X6436729Y-15376674D02*
X6446253Y-15338579D01*
X6446253Y-15338579D02*
X6455777Y-15319531D01*
X6455777Y-15319531D02*
X6465301Y-15310008D01*
X6465301Y-15310008D02*
X6484348Y-15300484D01*
X6731967Y-15300484D02*
X6636729Y-15300484D01*
X6636729Y-15300484D02*
X6627206Y-15395722D01*
X6627206Y-15395722D02*
X6636729Y-15386198D01*
X6636729Y-15386198D02*
X6655777Y-15376674D01*
X6655777Y-15376674D02*
X6703396Y-15376674D01*
X6703396Y-15376674D02*
X6722444Y-15386198D01*
X6722444Y-15386198D02*
X6731967Y-15395722D01*
X6731967Y-15395722D02*
X6741491Y-15414769D01*
X6741491Y-15414769D02*
X6741491Y-15462388D01*
X6741491Y-15462388D02*
X6731967Y-15481436D01*
X6731967Y-15481436D02*
X6722444Y-15490960D01*
X6722444Y-15490960D02*
X6703396Y-15500484D01*
X6703396Y-15500484D02*
X6655777Y-15500484D01*
X6655777Y-15500484D02*
X6636729Y-15490960D01*
X6636729Y-15490960D02*
X6627206Y-15481436D01*
X6836729Y-15500484D02*
X6874825Y-15500484D01*
X6874825Y-15500484D02*
X6893872Y-15490960D01*
X6893872Y-15490960D02*
X6903396Y-15481436D01*
X6903396Y-15481436D02*
X6922444Y-15452865D01*
X6922444Y-15452865D02*
X6931967Y-15414769D01*
X6931967Y-15414769D02*
X6931967Y-15338579D01*
X6931967Y-15338579D02*
X6922444Y-15319531D01*
X6922444Y-15319531D02*
X6912920Y-15310008D01*
X6912920Y-15310008D02*
X6893872Y-15300484D01*
X6893872Y-15300484D02*
X6855777Y-15300484D01*
X6855777Y-15300484D02*
X6836729Y-15310008D01*
X6836729Y-15310008D02*
X6827206Y-15319531D01*
X6827206Y-15319531D02*
X6817682Y-15338579D01*
X6817682Y-15338579D02*
X6817682Y-15386198D01*
X6817682Y-15386198D02*
X6827206Y-15405246D01*
X6827206Y-15405246D02*
X6836729Y-15414769D01*
X6836729Y-15414769D02*
X6855777Y-15424293D01*
X6855777Y-15424293D02*
X6893872Y-15424293D01*
X6893872Y-15424293D02*
X6912920Y-15414769D01*
X6912920Y-15414769D02*
X6922444Y-15405246D01*
X6922444Y-15405246D02*
X6931967Y-15386198D01*
X7122444Y-15500484D02*
X7008158Y-15500484D01*
X7065301Y-15500484D02*
X7065301Y-15300484D01*
X7065301Y-15300484D02*
X7046253Y-15329055D01*
X7046253Y-15329055D02*
X7027206Y-15348103D01*
X7027206Y-15348103D02*
X7008158Y-15357627D01*
X7198634Y-15300484D02*
X7198634Y-15338579D01*
X7274825Y-15300484D02*
X7274825Y-15338579D01*
X7570063Y-15576674D02*
X7560539Y-15567150D01*
X7560539Y-15567150D02*
X7541491Y-15538579D01*
X7541491Y-15538579D02*
X7531968Y-15519531D01*
X7531968Y-15519531D02*
X7522444Y-15490960D01*
X7522444Y-15490960D02*
X7512920Y-15443341D01*
X7512920Y-15443341D02*
X7512920Y-15405246D01*
X7512920Y-15405246D02*
X7522444Y-15357627D01*
X7522444Y-15357627D02*
X7531968Y-15329055D01*
X7531968Y-15329055D02*
X7541491Y-15310008D01*
X7541491Y-15310008D02*
X7560539Y-15281436D01*
X7560539Y-15281436D02*
X7570063Y-15271912D01*
X7636729Y-15319531D02*
X7646253Y-15310008D01*
X7646253Y-15310008D02*
X7665301Y-15300484D01*
X7665301Y-15300484D02*
X7712920Y-15300484D01*
X7712920Y-15300484D02*
X7731968Y-15310008D01*
X7731968Y-15310008D02*
X7741491Y-15319531D01*
X7741491Y-15319531D02*
X7751015Y-15338579D01*
X7751015Y-15338579D02*
X7751015Y-15357627D01*
X7751015Y-15357627D02*
X7741491Y-15386198D01*
X7741491Y-15386198D02*
X7627206Y-15500484D01*
X7627206Y-15500484D02*
X7751015Y-15500484D01*
X7989110Y-15500484D02*
X7989110Y-15300484D01*
X8074825Y-15500484D02*
X8074825Y-15395722D01*
X8074825Y-15395722D02*
X8065301Y-15376674D01*
X8065301Y-15376674D02*
X8046253Y-15367150D01*
X8046253Y-15367150D02*
X8017682Y-15367150D01*
X8017682Y-15367150D02*
X7998634Y-15376674D01*
X7998634Y-15376674D02*
X7989110Y-15386198D01*
X8198634Y-15500484D02*
X8179587Y-15490960D01*
X8179587Y-15490960D02*
X8170063Y-15481436D01*
X8170063Y-15481436D02*
X8160539Y-15462388D01*
X8160539Y-15462388D02*
X8160539Y-15405246D01*
X8160539Y-15405246D02*
X8170063Y-15386198D01*
X8170063Y-15386198D02*
X8179587Y-15376674D01*
X8179587Y-15376674D02*
X8198634Y-15367150D01*
X8198634Y-15367150D02*
X8227206Y-15367150D01*
X8227206Y-15367150D02*
X8246253Y-15376674D01*
X8246253Y-15376674D02*
X8255777Y-15386198D01*
X8255777Y-15386198D02*
X8265301Y-15405246D01*
X8265301Y-15405246D02*
X8265301Y-15462388D01*
X8265301Y-15462388D02*
X8255777Y-15481436D01*
X8255777Y-15481436D02*
X8246253Y-15490960D01*
X8246253Y-15490960D02*
X8227206Y-15500484D01*
X8227206Y-15500484D02*
X8198634Y-15500484D01*
X8379587Y-15500484D02*
X8360539Y-15490960D01*
X8360539Y-15490960D02*
X8351015Y-15471912D01*
X8351015Y-15471912D02*
X8351015Y-15300484D01*
X8531968Y-15490960D02*
X8512920Y-15500484D01*
X8512920Y-15500484D02*
X8474825Y-15500484D01*
X8474825Y-15500484D02*
X8455777Y-15490960D01*
X8455777Y-15490960D02*
X8446253Y-15471912D01*
X8446253Y-15471912D02*
X8446253Y-15395722D01*
X8446253Y-15395722D02*
X8455777Y-15376674D01*
X8455777Y-15376674D02*
X8474825Y-15367150D01*
X8474825Y-15367150D02*
X8512920Y-15367150D01*
X8512920Y-15367150D02*
X8531968Y-15376674D01*
X8531968Y-15376674D02*
X8541492Y-15395722D01*
X8541492Y-15395722D02*
X8541492Y-15414769D01*
X8541492Y-15414769D02*
X8446253Y-15433817D01*
X8617682Y-15490960D02*
X8636730Y-15500484D01*
X8636730Y-15500484D02*
X8674825Y-15500484D01*
X8674825Y-15500484D02*
X8693873Y-15490960D01*
X8693873Y-15490960D02*
X8703396Y-15471912D01*
X8703396Y-15471912D02*
X8703396Y-15462388D01*
X8703396Y-15462388D02*
X8693873Y-15443341D01*
X8693873Y-15443341D02*
X8674825Y-15433817D01*
X8674825Y-15433817D02*
X8646253Y-15433817D01*
X8646253Y-15433817D02*
X8627206Y-15424293D01*
X8627206Y-15424293D02*
X8617682Y-15405246D01*
X8617682Y-15405246D02*
X8617682Y-15395722D01*
X8617682Y-15395722D02*
X8627206Y-15376674D01*
X8627206Y-15376674D02*
X8646253Y-15367150D01*
X8646253Y-15367150D02*
X8674825Y-15367150D01*
X8674825Y-15367150D02*
X8693873Y-15376674D01*
X8770063Y-15576674D02*
X8779587Y-15567150D01*
X8779587Y-15567150D02*
X8798634Y-15538579D01*
X8798634Y-15538579D02*
X8808158Y-15519531D01*
X8808158Y-15519531D02*
X8817682Y-15490960D01*
X8817682Y-15490960D02*
X8827206Y-15443341D01*
X8827206Y-15443341D02*
X8827206Y-15405246D01*
X8827206Y-15405246D02*
X8817682Y-15357627D01*
X8817682Y-15357627D02*
X8808158Y-15329055D01*
X8808158Y-15329055D02*
X8798634Y-15310008D01*
X8798634Y-15310008D02*
X8779587Y-15281436D01*
X8779587Y-15281436D02*
X8770063Y-15271912D01*
X9131968Y-15576674D02*
X9122444Y-15567150D01*
X9122444Y-15567150D02*
X9103396Y-15538579D01*
X9103396Y-15538579D02*
X9093873Y-15519531D01*
X9093873Y-15519531D02*
X9084349Y-15490960D01*
X9084349Y-15490960D02*
X9074825Y-15443341D01*
X9074825Y-15443341D02*
X9074825Y-15405246D01*
X9074825Y-15405246D02*
X9084349Y-15357627D01*
X9084349Y-15357627D02*
X9093873Y-15329055D01*
X9093873Y-15329055D02*
X9103396Y-15310008D01*
X9103396Y-15310008D02*
X9122444Y-15281436D01*
X9122444Y-15281436D02*
X9131968Y-15271912D01*
X9208158Y-15367150D02*
X9208158Y-15500484D01*
X9208158Y-15386198D02*
X9217682Y-15376674D01*
X9217682Y-15376674D02*
X9236730Y-15367150D01*
X9236730Y-15367150D02*
X9265301Y-15367150D01*
X9265301Y-15367150D02*
X9284349Y-15376674D01*
X9284349Y-15376674D02*
X9293873Y-15395722D01*
X9293873Y-15395722D02*
X9293873Y-15500484D01*
X9417682Y-15500484D02*
X9398634Y-15490960D01*
X9398634Y-15490960D02*
X9389111Y-15481436D01*
X9389111Y-15481436D02*
X9379587Y-15462388D01*
X9379587Y-15462388D02*
X9379587Y-15405246D01*
X9379587Y-15405246D02*
X9389111Y-15386198D01*
X9389111Y-15386198D02*
X9398634Y-15376674D01*
X9398634Y-15376674D02*
X9417682Y-15367150D01*
X9417682Y-15367150D02*
X9446254Y-15367150D01*
X9446254Y-15367150D02*
X9465301Y-15376674D01*
X9465301Y-15376674D02*
X9474825Y-15386198D01*
X9474825Y-15386198D02*
X9484349Y-15405246D01*
X9484349Y-15405246D02*
X9484349Y-15462388D01*
X9484349Y-15462388D02*
X9474825Y-15481436D01*
X9474825Y-15481436D02*
X9465301Y-15490960D01*
X9465301Y-15490960D02*
X9446254Y-15500484D01*
X9446254Y-15500484D02*
X9417682Y-15500484D01*
X9541492Y-15367150D02*
X9617682Y-15367150D01*
X9570063Y-15300484D02*
X9570063Y-15471912D01*
X9570063Y-15471912D02*
X9579587Y-15490960D01*
X9579587Y-15490960D02*
X9598634Y-15500484D01*
X9598634Y-15500484D02*
X9617682Y-15500484D01*
X9836730Y-15367150D02*
X9836730Y-15567150D01*
X9836730Y-15376674D02*
X9855777Y-15367150D01*
X9855777Y-15367150D02*
X9893873Y-15367150D01*
X9893873Y-15367150D02*
X9912920Y-15376674D01*
X9912920Y-15376674D02*
X9922444Y-15386198D01*
X9922444Y-15386198D02*
X9931968Y-15405246D01*
X9931968Y-15405246D02*
X9931968Y-15462388D01*
X9931968Y-15462388D02*
X9922444Y-15481436D01*
X9922444Y-15481436D02*
X9912920Y-15490960D01*
X9912920Y-15490960D02*
X9893873Y-15500484D01*
X9893873Y-15500484D02*
X9855777Y-15500484D01*
X9855777Y-15500484D02*
X9836730Y-15490960D01*
X10046254Y-15500484D02*
X10027206Y-15490960D01*
X10027206Y-15490960D02*
X10017682Y-15471912D01*
X10017682Y-15471912D02*
X10017682Y-15300484D01*
X10208158Y-15500484D02*
X10208158Y-15395722D01*
X10208158Y-15395722D02*
X10198635Y-15376674D01*
X10198635Y-15376674D02*
X10179587Y-15367150D01*
X10179587Y-15367150D02*
X10141492Y-15367150D01*
X10141492Y-15367150D02*
X10122444Y-15376674D01*
X10208158Y-15490960D02*
X10189111Y-15500484D01*
X10189111Y-15500484D02*
X10141492Y-15500484D01*
X10141492Y-15500484D02*
X10122444Y-15490960D01*
X10122444Y-15490960D02*
X10112920Y-15471912D01*
X10112920Y-15471912D02*
X10112920Y-15452865D01*
X10112920Y-15452865D02*
X10122444Y-15433817D01*
X10122444Y-15433817D02*
X10141492Y-15424293D01*
X10141492Y-15424293D02*
X10189111Y-15424293D01*
X10189111Y-15424293D02*
X10208158Y-15414769D01*
X10274825Y-15367150D02*
X10351015Y-15367150D01*
X10303396Y-15300484D02*
X10303396Y-15471912D01*
X10303396Y-15471912D02*
X10312920Y-15490960D01*
X10312920Y-15490960D02*
X10331968Y-15500484D01*
X10331968Y-15500484D02*
X10351015Y-15500484D01*
X10493873Y-15490960D02*
X10474825Y-15500484D01*
X10474825Y-15500484D02*
X10436730Y-15500484D01*
X10436730Y-15500484D02*
X10417682Y-15490960D01*
X10417682Y-15490960D02*
X10408158Y-15471912D01*
X10408158Y-15471912D02*
X10408158Y-15395722D01*
X10408158Y-15395722D02*
X10417682Y-15376674D01*
X10417682Y-15376674D02*
X10436730Y-15367150D01*
X10436730Y-15367150D02*
X10474825Y-15367150D01*
X10474825Y-15367150D02*
X10493873Y-15376674D01*
X10493873Y-15376674D02*
X10503396Y-15395722D01*
X10503396Y-15395722D02*
X10503396Y-15414769D01*
X10503396Y-15414769D02*
X10408158Y-15433817D01*
X10674825Y-15500484D02*
X10674825Y-15300484D01*
X10674825Y-15490960D02*
X10655777Y-15500484D01*
X10655777Y-15500484D02*
X10617682Y-15500484D01*
X10617682Y-15500484D02*
X10598635Y-15490960D01*
X10598635Y-15490960D02*
X10589111Y-15481436D01*
X10589111Y-15481436D02*
X10579587Y-15462388D01*
X10579587Y-15462388D02*
X10579587Y-15405246D01*
X10579587Y-15405246D02*
X10589111Y-15386198D01*
X10589111Y-15386198D02*
X10598635Y-15376674D01*
X10598635Y-15376674D02*
X10617682Y-15367150D01*
X10617682Y-15367150D02*
X10655777Y-15367150D01*
X10655777Y-15367150D02*
X10674825Y-15376674D01*
X10751016Y-15576674D02*
X10760539Y-15567150D01*
X10760539Y-15567150D02*
X10779587Y-15538579D01*
X10779587Y-15538579D02*
X10789111Y-15519531D01*
X10789111Y-15519531D02*
X10798635Y-15490960D01*
X10798635Y-15490960D02*
X10808158Y-15443341D01*
X10808158Y-15443341D02*
X10808158Y-15405246D01*
X10808158Y-15405246D02*
X10798635Y-15357627D01*
X10798635Y-15357627D02*
X10789111Y-15329055D01*
X10789111Y-15329055D02*
X10779587Y-15310008D01*
X10779587Y-15310008D02*
X10760539Y-15281436D01*
X10760539Y-15281436D02*
X10751016Y-15271912D01*
D14*
X3905000Y-15589000D02*
X3905000Y-15769000D01*
X3815000Y-15679000D02*
X3995000Y-15679000D01*
D11*
X4360539Y-15770484D02*
X4246253Y-15770484D01*
X4303396Y-15770484D02*
X4303396Y-15570484D01*
X4303396Y-15570484D02*
X4284348Y-15599055D01*
X4284348Y-15599055D02*
X4265301Y-15618103D01*
X4265301Y-15618103D02*
X4246253Y-15627627D01*
X4446253Y-15751436D02*
X4455777Y-15760960D01*
X4455777Y-15760960D02*
X4446253Y-15770484D01*
X4446253Y-15770484D02*
X4436729Y-15760960D01*
X4436729Y-15760960D02*
X4446253Y-15751436D01*
X4446253Y-15751436D02*
X4446253Y-15770484D01*
X4570063Y-15656198D02*
X4551015Y-15646674D01*
X4551015Y-15646674D02*
X4541491Y-15637150D01*
X4541491Y-15637150D02*
X4531967Y-15618103D01*
X4531967Y-15618103D02*
X4531967Y-15608579D01*
X4531967Y-15608579D02*
X4541491Y-15589531D01*
X4541491Y-15589531D02*
X4551015Y-15580008D01*
X4551015Y-15580008D02*
X4570063Y-15570484D01*
X4570063Y-15570484D02*
X4608158Y-15570484D01*
X4608158Y-15570484D02*
X4627205Y-15580008D01*
X4627205Y-15580008D02*
X4636729Y-15589531D01*
X4636729Y-15589531D02*
X4646253Y-15608579D01*
X4646253Y-15608579D02*
X4646253Y-15618103D01*
X4646253Y-15618103D02*
X4636729Y-15637150D01*
X4636729Y-15637150D02*
X4627205Y-15646674D01*
X4627205Y-15646674D02*
X4608158Y-15656198D01*
X4608158Y-15656198D02*
X4570063Y-15656198D01*
X4570063Y-15656198D02*
X4551015Y-15665722D01*
X4551015Y-15665722D02*
X4541491Y-15675246D01*
X4541491Y-15675246D02*
X4531967Y-15694293D01*
X4531967Y-15694293D02*
X4531967Y-15732388D01*
X4531967Y-15732388D02*
X4541491Y-15751436D01*
X4541491Y-15751436D02*
X4551015Y-15760960D01*
X4551015Y-15760960D02*
X4570063Y-15770484D01*
X4570063Y-15770484D02*
X4608158Y-15770484D01*
X4608158Y-15770484D02*
X4627205Y-15760960D01*
X4627205Y-15760960D02*
X4636729Y-15751436D01*
X4636729Y-15751436D02*
X4646253Y-15732388D01*
X4646253Y-15732388D02*
X4646253Y-15694293D01*
X4646253Y-15694293D02*
X4636729Y-15675246D01*
X4636729Y-15675246D02*
X4627205Y-15665722D01*
X4627205Y-15665722D02*
X4608158Y-15656198D01*
X4770063Y-15570484D02*
X4789110Y-15570484D01*
X4789110Y-15570484D02*
X4808158Y-15580008D01*
X4808158Y-15580008D02*
X4817682Y-15589531D01*
X4817682Y-15589531D02*
X4827205Y-15608579D01*
X4827205Y-15608579D02*
X4836729Y-15646674D01*
X4836729Y-15646674D02*
X4836729Y-15694293D01*
X4836729Y-15694293D02*
X4827205Y-15732388D01*
X4827205Y-15732388D02*
X4817682Y-15751436D01*
X4817682Y-15751436D02*
X4808158Y-15760960D01*
X4808158Y-15760960D02*
X4789110Y-15770484D01*
X4789110Y-15770484D02*
X4770063Y-15770484D01*
X4770063Y-15770484D02*
X4751015Y-15760960D01*
X4751015Y-15760960D02*
X4741491Y-15751436D01*
X4741491Y-15751436D02*
X4731967Y-15732388D01*
X4731967Y-15732388D02*
X4722444Y-15694293D01*
X4722444Y-15694293D02*
X4722444Y-15646674D01*
X4722444Y-15646674D02*
X4731967Y-15608579D01*
X4731967Y-15608579D02*
X4741491Y-15589531D01*
X4741491Y-15589531D02*
X4751015Y-15580008D01*
X4751015Y-15580008D02*
X4770063Y-15570484D01*
X4960539Y-15570484D02*
X4979586Y-15570484D01*
X4979586Y-15570484D02*
X4998634Y-15580008D01*
X4998634Y-15580008D02*
X5008158Y-15589531D01*
X5008158Y-15589531D02*
X5017682Y-15608579D01*
X5017682Y-15608579D02*
X5027205Y-15646674D01*
X5027205Y-15646674D02*
X5027205Y-15694293D01*
X5027205Y-15694293D02*
X5017682Y-15732388D01*
X5017682Y-15732388D02*
X5008158Y-15751436D01*
X5008158Y-15751436D02*
X4998634Y-15760960D01*
X4998634Y-15760960D02*
X4979586Y-15770484D01*
X4979586Y-15770484D02*
X4960539Y-15770484D01*
X4960539Y-15770484D02*
X4941491Y-15760960D01*
X4941491Y-15760960D02*
X4931967Y-15751436D01*
X4931967Y-15751436D02*
X4922444Y-15732388D01*
X4922444Y-15732388D02*
X4912920Y-15694293D01*
X4912920Y-15694293D02*
X4912920Y-15646674D01*
X4912920Y-15646674D02*
X4922444Y-15608579D01*
X4922444Y-15608579D02*
X4931967Y-15589531D01*
X4931967Y-15589531D02*
X4941491Y-15580008D01*
X4941491Y-15580008D02*
X4960539Y-15570484D01*
X5112920Y-15770484D02*
X5112920Y-15637150D01*
X5112920Y-15656198D02*
X5122444Y-15646674D01*
X5122444Y-15646674D02*
X5141491Y-15637150D01*
X5141491Y-15637150D02*
X5170063Y-15637150D01*
X5170063Y-15637150D02*
X5189110Y-15646674D01*
X5189110Y-15646674D02*
X5198634Y-15665722D01*
X5198634Y-15665722D02*
X5198634Y-15770484D01*
X5198634Y-15665722D02*
X5208158Y-15646674D01*
X5208158Y-15646674D02*
X5227205Y-15637150D01*
X5227205Y-15637150D02*
X5255777Y-15637150D01*
X5255777Y-15637150D02*
X5274825Y-15646674D01*
X5274825Y-15646674D02*
X5284348Y-15665722D01*
X5284348Y-15665722D02*
X5284348Y-15770484D01*
X5379586Y-15770484D02*
X5379586Y-15637150D01*
X5379586Y-15656198D02*
X5389110Y-15646674D01*
X5389110Y-15646674D02*
X5408158Y-15637150D01*
X5408158Y-15637150D02*
X5436729Y-15637150D01*
X5436729Y-15637150D02*
X5455777Y-15646674D01*
X5455777Y-15646674D02*
X5465301Y-15665722D01*
X5465301Y-15665722D02*
X5465301Y-15770484D01*
X5465301Y-15665722D02*
X5474825Y-15646674D01*
X5474825Y-15646674D02*
X5493872Y-15637150D01*
X5493872Y-15637150D02*
X5522444Y-15637150D01*
X5522444Y-15637150D02*
X5541491Y-15646674D01*
X5541491Y-15646674D02*
X5551015Y-15665722D01*
X5551015Y-15665722D02*
X5551015Y-15770484D01*
X5941491Y-15560960D02*
X5770063Y-15818103D01*
X6198634Y-15570484D02*
X6217682Y-15570484D01*
X6217682Y-15570484D02*
X6236729Y-15580008D01*
X6236729Y-15580008D02*
X6246253Y-15589531D01*
X6246253Y-15589531D02*
X6255777Y-15608579D01*
X6255777Y-15608579D02*
X6265301Y-15646674D01*
X6265301Y-15646674D02*
X6265301Y-15694293D01*
X6265301Y-15694293D02*
X6255777Y-15732388D01*
X6255777Y-15732388D02*
X6246253Y-15751436D01*
X6246253Y-15751436D02*
X6236729Y-15760960D01*
X6236729Y-15760960D02*
X6217682Y-15770484D01*
X6217682Y-15770484D02*
X6198634Y-15770484D01*
X6198634Y-15770484D02*
X6179586Y-15760960D01*
X6179586Y-15760960D02*
X6170063Y-15751436D01*
X6170063Y-15751436D02*
X6160539Y-15732388D01*
X6160539Y-15732388D02*
X6151015Y-15694293D01*
X6151015Y-15694293D02*
X6151015Y-15646674D01*
X6151015Y-15646674D02*
X6160539Y-15608579D01*
X6160539Y-15608579D02*
X6170063Y-15589531D01*
X6170063Y-15589531D02*
X6179586Y-15580008D01*
X6179586Y-15580008D02*
X6198634Y-15570484D01*
X6351015Y-15751436D02*
X6360539Y-15760960D01*
X6360539Y-15760960D02*
X6351015Y-15770484D01*
X6351015Y-15770484D02*
X6341491Y-15760960D01*
X6341491Y-15760960D02*
X6351015Y-15751436D01*
X6351015Y-15751436D02*
X6351015Y-15770484D01*
X6484348Y-15570484D02*
X6503396Y-15570484D01*
X6503396Y-15570484D02*
X6522444Y-15580008D01*
X6522444Y-15580008D02*
X6531967Y-15589531D01*
X6531967Y-15589531D02*
X6541491Y-15608579D01*
X6541491Y-15608579D02*
X6551015Y-15646674D01*
X6551015Y-15646674D02*
X6551015Y-15694293D01*
X6551015Y-15694293D02*
X6541491Y-15732388D01*
X6541491Y-15732388D02*
X6531967Y-15751436D01*
X6531967Y-15751436D02*
X6522444Y-15760960D01*
X6522444Y-15760960D02*
X6503396Y-15770484D01*
X6503396Y-15770484D02*
X6484348Y-15770484D01*
X6484348Y-15770484D02*
X6465301Y-15760960D01*
X6465301Y-15760960D02*
X6455777Y-15751436D01*
X6455777Y-15751436D02*
X6446253Y-15732388D01*
X6446253Y-15732388D02*
X6436729Y-15694293D01*
X6436729Y-15694293D02*
X6436729Y-15646674D01*
X6436729Y-15646674D02*
X6446253Y-15608579D01*
X6446253Y-15608579D02*
X6455777Y-15589531D01*
X6455777Y-15589531D02*
X6465301Y-15580008D01*
X6465301Y-15580008D02*
X6484348Y-15570484D01*
X6617682Y-15570484D02*
X6751015Y-15570484D01*
X6751015Y-15570484D02*
X6665301Y-15770484D01*
X6865301Y-15570484D02*
X6884348Y-15570484D01*
X6884348Y-15570484D02*
X6903396Y-15580008D01*
X6903396Y-15580008D02*
X6912920Y-15589531D01*
X6912920Y-15589531D02*
X6922444Y-15608579D01*
X6922444Y-15608579D02*
X6931967Y-15646674D01*
X6931967Y-15646674D02*
X6931967Y-15694293D01*
X6931967Y-15694293D02*
X6922444Y-15732388D01*
X6922444Y-15732388D02*
X6912920Y-15751436D01*
X6912920Y-15751436D02*
X6903396Y-15760960D01*
X6903396Y-15760960D02*
X6884348Y-15770484D01*
X6884348Y-15770484D02*
X6865301Y-15770484D01*
X6865301Y-15770484D02*
X6846253Y-15760960D01*
X6846253Y-15760960D02*
X6836729Y-15751436D01*
X6836729Y-15751436D02*
X6827206Y-15732388D01*
X6827206Y-15732388D02*
X6817682Y-15694293D01*
X6817682Y-15694293D02*
X6817682Y-15646674D01*
X6817682Y-15646674D02*
X6827206Y-15608579D01*
X6827206Y-15608579D02*
X6836729Y-15589531D01*
X6836729Y-15589531D02*
X6846253Y-15580008D01*
X6846253Y-15580008D02*
X6865301Y-15570484D01*
X7027206Y-15770484D02*
X7065301Y-15770484D01*
X7065301Y-15770484D02*
X7084348Y-15760960D01*
X7084348Y-15760960D02*
X7093872Y-15751436D01*
X7093872Y-15751436D02*
X7112920Y-15722865D01*
X7112920Y-15722865D02*
X7122444Y-15684769D01*
X7122444Y-15684769D02*
X7122444Y-15608579D01*
X7122444Y-15608579D02*
X7112920Y-15589531D01*
X7112920Y-15589531D02*
X7103396Y-15580008D01*
X7103396Y-15580008D02*
X7084348Y-15570484D01*
X7084348Y-15570484D02*
X7046253Y-15570484D01*
X7046253Y-15570484D02*
X7027206Y-15580008D01*
X7027206Y-15580008D02*
X7017682Y-15589531D01*
X7017682Y-15589531D02*
X7008158Y-15608579D01*
X7008158Y-15608579D02*
X7008158Y-15656198D01*
X7008158Y-15656198D02*
X7017682Y-15675246D01*
X7017682Y-15675246D02*
X7027206Y-15684769D01*
X7027206Y-15684769D02*
X7046253Y-15694293D01*
X7046253Y-15694293D02*
X7084348Y-15694293D01*
X7084348Y-15694293D02*
X7103396Y-15684769D01*
X7103396Y-15684769D02*
X7112920Y-15675246D01*
X7112920Y-15675246D02*
X7122444Y-15656198D01*
X7198634Y-15570484D02*
X7198634Y-15608579D01*
X7274825Y-15570484D02*
X7274825Y-15608579D01*
X7570063Y-15846674D02*
X7560539Y-15837150D01*
X7560539Y-15837150D02*
X7541491Y-15808579D01*
X7541491Y-15808579D02*
X7531968Y-15789531D01*
X7531968Y-15789531D02*
X7522444Y-15760960D01*
X7522444Y-15760960D02*
X7512920Y-15713341D01*
X7512920Y-15713341D02*
X7512920Y-15675246D01*
X7512920Y-15675246D02*
X7522444Y-15627627D01*
X7522444Y-15627627D02*
X7531968Y-15599055D01*
X7531968Y-15599055D02*
X7541491Y-15580008D01*
X7541491Y-15580008D02*
X7560539Y-15551436D01*
X7560539Y-15551436D02*
X7570063Y-15541912D01*
X7636729Y-15589531D02*
X7646253Y-15580008D01*
X7646253Y-15580008D02*
X7665301Y-15570484D01*
X7665301Y-15570484D02*
X7712920Y-15570484D01*
X7712920Y-15570484D02*
X7731968Y-15580008D01*
X7731968Y-15580008D02*
X7741491Y-15589531D01*
X7741491Y-15589531D02*
X7751015Y-15608579D01*
X7751015Y-15608579D02*
X7751015Y-15627627D01*
X7751015Y-15627627D02*
X7741491Y-15656198D01*
X7741491Y-15656198D02*
X7627206Y-15770484D01*
X7627206Y-15770484D02*
X7751015Y-15770484D01*
X7989110Y-15770484D02*
X7989110Y-15570484D01*
X8074825Y-15770484D02*
X8074825Y-15665722D01*
X8074825Y-15665722D02*
X8065301Y-15646674D01*
X8065301Y-15646674D02*
X8046253Y-15637150D01*
X8046253Y-15637150D02*
X8017682Y-15637150D01*
X8017682Y-15637150D02*
X7998634Y-15646674D01*
X7998634Y-15646674D02*
X7989110Y-15656198D01*
X8198634Y-15770484D02*
X8179587Y-15760960D01*
X8179587Y-15760960D02*
X8170063Y-15751436D01*
X8170063Y-15751436D02*
X8160539Y-15732388D01*
X8160539Y-15732388D02*
X8160539Y-15675246D01*
X8160539Y-15675246D02*
X8170063Y-15656198D01*
X8170063Y-15656198D02*
X8179587Y-15646674D01*
X8179587Y-15646674D02*
X8198634Y-15637150D01*
X8198634Y-15637150D02*
X8227206Y-15637150D01*
X8227206Y-15637150D02*
X8246253Y-15646674D01*
X8246253Y-15646674D02*
X8255777Y-15656198D01*
X8255777Y-15656198D02*
X8265301Y-15675246D01*
X8265301Y-15675246D02*
X8265301Y-15732388D01*
X8265301Y-15732388D02*
X8255777Y-15751436D01*
X8255777Y-15751436D02*
X8246253Y-15760960D01*
X8246253Y-15760960D02*
X8227206Y-15770484D01*
X8227206Y-15770484D02*
X8198634Y-15770484D01*
X8379587Y-15770484D02*
X8360539Y-15760960D01*
X8360539Y-15760960D02*
X8351015Y-15741912D01*
X8351015Y-15741912D02*
X8351015Y-15570484D01*
X8531968Y-15760960D02*
X8512920Y-15770484D01*
X8512920Y-15770484D02*
X8474825Y-15770484D01*
X8474825Y-15770484D02*
X8455777Y-15760960D01*
X8455777Y-15760960D02*
X8446253Y-15741912D01*
X8446253Y-15741912D02*
X8446253Y-15665722D01*
X8446253Y-15665722D02*
X8455777Y-15646674D01*
X8455777Y-15646674D02*
X8474825Y-15637150D01*
X8474825Y-15637150D02*
X8512920Y-15637150D01*
X8512920Y-15637150D02*
X8531968Y-15646674D01*
X8531968Y-15646674D02*
X8541492Y-15665722D01*
X8541492Y-15665722D02*
X8541492Y-15684769D01*
X8541492Y-15684769D02*
X8446253Y-15703817D01*
X8617682Y-15760960D02*
X8636730Y-15770484D01*
X8636730Y-15770484D02*
X8674825Y-15770484D01*
X8674825Y-15770484D02*
X8693873Y-15760960D01*
X8693873Y-15760960D02*
X8703396Y-15741912D01*
X8703396Y-15741912D02*
X8703396Y-15732388D01*
X8703396Y-15732388D02*
X8693873Y-15713341D01*
X8693873Y-15713341D02*
X8674825Y-15703817D01*
X8674825Y-15703817D02*
X8646253Y-15703817D01*
X8646253Y-15703817D02*
X8627206Y-15694293D01*
X8627206Y-15694293D02*
X8617682Y-15675246D01*
X8617682Y-15675246D02*
X8617682Y-15665722D01*
X8617682Y-15665722D02*
X8627206Y-15646674D01*
X8627206Y-15646674D02*
X8646253Y-15637150D01*
X8646253Y-15637150D02*
X8674825Y-15637150D01*
X8674825Y-15637150D02*
X8693873Y-15646674D01*
X8770063Y-15846674D02*
X8779587Y-15837150D01*
X8779587Y-15837150D02*
X8798634Y-15808579D01*
X8798634Y-15808579D02*
X8808158Y-15789531D01*
X8808158Y-15789531D02*
X8817682Y-15760960D01*
X8817682Y-15760960D02*
X8827206Y-15713341D01*
X8827206Y-15713341D02*
X8827206Y-15675246D01*
X8827206Y-15675246D02*
X8817682Y-15627627D01*
X8817682Y-15627627D02*
X8808158Y-15599055D01*
X8808158Y-15599055D02*
X8798634Y-15580008D01*
X8798634Y-15580008D02*
X8779587Y-15551436D01*
X8779587Y-15551436D02*
X8770063Y-15541912D01*
X9131968Y-15846674D02*
X9122444Y-15837150D01*
X9122444Y-15837150D02*
X9103396Y-15808579D01*
X9103396Y-15808579D02*
X9093873Y-15789531D01*
X9093873Y-15789531D02*
X9084349Y-15760960D01*
X9084349Y-15760960D02*
X9074825Y-15713341D01*
X9074825Y-15713341D02*
X9074825Y-15675246D01*
X9074825Y-15675246D02*
X9084349Y-15627627D01*
X9084349Y-15627627D02*
X9093873Y-15599055D01*
X9093873Y-15599055D02*
X9103396Y-15580008D01*
X9103396Y-15580008D02*
X9122444Y-15551436D01*
X9122444Y-15551436D02*
X9131968Y-15541912D01*
X9208158Y-15637150D02*
X9208158Y-15770484D01*
X9208158Y-15656198D02*
X9217682Y-15646674D01*
X9217682Y-15646674D02*
X9236730Y-15637150D01*
X9236730Y-15637150D02*
X9265301Y-15637150D01*
X9265301Y-15637150D02*
X9284349Y-15646674D01*
X9284349Y-15646674D02*
X9293873Y-15665722D01*
X9293873Y-15665722D02*
X9293873Y-15770484D01*
X9417682Y-15770484D02*
X9398634Y-15760960D01*
X9398634Y-15760960D02*
X9389111Y-15751436D01*
X9389111Y-15751436D02*
X9379587Y-15732388D01*
X9379587Y-15732388D02*
X9379587Y-15675246D01*
X9379587Y-15675246D02*
X9389111Y-15656198D01*
X9389111Y-15656198D02*
X9398634Y-15646674D01*
X9398634Y-15646674D02*
X9417682Y-15637150D01*
X9417682Y-15637150D02*
X9446254Y-15637150D01*
X9446254Y-15637150D02*
X9465301Y-15646674D01*
X9465301Y-15646674D02*
X9474825Y-15656198D01*
X9474825Y-15656198D02*
X9484349Y-15675246D01*
X9484349Y-15675246D02*
X9484349Y-15732388D01*
X9484349Y-15732388D02*
X9474825Y-15751436D01*
X9474825Y-15751436D02*
X9465301Y-15760960D01*
X9465301Y-15760960D02*
X9446254Y-15770484D01*
X9446254Y-15770484D02*
X9417682Y-15770484D01*
X9541492Y-15637150D02*
X9617682Y-15637150D01*
X9570063Y-15570484D02*
X9570063Y-15741912D01*
X9570063Y-15741912D02*
X9579587Y-15760960D01*
X9579587Y-15760960D02*
X9598634Y-15770484D01*
X9598634Y-15770484D02*
X9617682Y-15770484D01*
X9836730Y-15637150D02*
X9836730Y-15837150D01*
X9836730Y-15646674D02*
X9855777Y-15637150D01*
X9855777Y-15637150D02*
X9893873Y-15637150D01*
X9893873Y-15637150D02*
X9912920Y-15646674D01*
X9912920Y-15646674D02*
X9922444Y-15656198D01*
X9922444Y-15656198D02*
X9931968Y-15675246D01*
X9931968Y-15675246D02*
X9931968Y-15732388D01*
X9931968Y-15732388D02*
X9922444Y-15751436D01*
X9922444Y-15751436D02*
X9912920Y-15760960D01*
X9912920Y-15760960D02*
X9893873Y-15770484D01*
X9893873Y-15770484D02*
X9855777Y-15770484D01*
X9855777Y-15770484D02*
X9836730Y-15760960D01*
X10046254Y-15770484D02*
X10027206Y-15760960D01*
X10027206Y-15760960D02*
X10017682Y-15741912D01*
X10017682Y-15741912D02*
X10017682Y-15570484D01*
X10208158Y-15770484D02*
X10208158Y-15665722D01*
X10208158Y-15665722D02*
X10198635Y-15646674D01*
X10198635Y-15646674D02*
X10179587Y-15637150D01*
X10179587Y-15637150D02*
X10141492Y-15637150D01*
X10141492Y-15637150D02*
X10122444Y-15646674D01*
X10208158Y-15760960D02*
X10189111Y-15770484D01*
X10189111Y-15770484D02*
X10141492Y-15770484D01*
X10141492Y-15770484D02*
X10122444Y-15760960D01*
X10122444Y-15760960D02*
X10112920Y-15741912D01*
X10112920Y-15741912D02*
X10112920Y-15722865D01*
X10112920Y-15722865D02*
X10122444Y-15703817D01*
X10122444Y-15703817D02*
X10141492Y-15694293D01*
X10141492Y-15694293D02*
X10189111Y-15694293D01*
X10189111Y-15694293D02*
X10208158Y-15684769D01*
X10274825Y-15637150D02*
X10351015Y-15637150D01*
X10303396Y-15570484D02*
X10303396Y-15741912D01*
X10303396Y-15741912D02*
X10312920Y-15760960D01*
X10312920Y-15760960D02*
X10331968Y-15770484D01*
X10331968Y-15770484D02*
X10351015Y-15770484D01*
X10493873Y-15760960D02*
X10474825Y-15770484D01*
X10474825Y-15770484D02*
X10436730Y-15770484D01*
X10436730Y-15770484D02*
X10417682Y-15760960D01*
X10417682Y-15760960D02*
X10408158Y-15741912D01*
X10408158Y-15741912D02*
X10408158Y-15665722D01*
X10408158Y-15665722D02*
X10417682Y-15646674D01*
X10417682Y-15646674D02*
X10436730Y-15637150D01*
X10436730Y-15637150D02*
X10474825Y-15637150D01*
X10474825Y-15637150D02*
X10493873Y-15646674D01*
X10493873Y-15646674D02*
X10503396Y-15665722D01*
X10503396Y-15665722D02*
X10503396Y-15684769D01*
X10503396Y-15684769D02*
X10408158Y-15703817D01*
X10674825Y-15770484D02*
X10674825Y-15570484D01*
X10674825Y-15760960D02*
X10655777Y-15770484D01*
X10655777Y-15770484D02*
X10617682Y-15770484D01*
X10617682Y-15770484D02*
X10598635Y-15760960D01*
X10598635Y-15760960D02*
X10589111Y-15751436D01*
X10589111Y-15751436D02*
X10579587Y-15732388D01*
X10579587Y-15732388D02*
X10579587Y-15675246D01*
X10579587Y-15675246D02*
X10589111Y-15656198D01*
X10589111Y-15656198D02*
X10598635Y-15646674D01*
X10598635Y-15646674D02*
X10617682Y-15637150D01*
X10617682Y-15637150D02*
X10655777Y-15637150D01*
X10655777Y-15637150D02*
X10674825Y-15646674D01*
X10751016Y-15846674D02*
X10760539Y-15837150D01*
X10760539Y-15837150D02*
X10779587Y-15808579D01*
X10779587Y-15808579D02*
X10789111Y-15789531D01*
X10789111Y-15789531D02*
X10798635Y-15760960D01*
X10798635Y-15760960D02*
X10808158Y-15713341D01*
X10808158Y-15713341D02*
X10808158Y-15675246D01*
X10808158Y-15675246D02*
X10798635Y-15627627D01*
X10798635Y-15627627D02*
X10789111Y-15599055D01*
X10789111Y-15599055D02*
X10779587Y-15580008D01*
X10779587Y-15580008D02*
X10760539Y-15551436D01*
X10760539Y-15551436D02*
X10751016Y-15541912D01*
X3965711Y-16049711D02*
X3965711Y-15908289D01*
X3824289Y-15908289D01*
X3824289Y-16049711D01*
X3965711Y-16049711D01*
X4246253Y-15889531D02*
X4255777Y-15880008D01*
X4255777Y-15880008D02*
X4274824Y-15870484D01*
X4274824Y-15870484D02*
X4322444Y-15870484D01*
X4322444Y-15870484D02*
X4341491Y-15880008D01*
X4341491Y-15880008D02*
X4351015Y-15889531D01*
X4351015Y-15889531D02*
X4360539Y-15908579D01*
X4360539Y-15908579D02*
X4360539Y-15927627D01*
X4360539Y-15927627D02*
X4351015Y-15956198D01*
X4351015Y-15956198D02*
X4236729Y-16070484D01*
X4236729Y-16070484D02*
X4360539Y-16070484D01*
X4446253Y-16051436D02*
X4455777Y-16060960D01*
X4455777Y-16060960D02*
X4446253Y-16070484D01*
X4446253Y-16070484D02*
X4436729Y-16060960D01*
X4436729Y-16060960D02*
X4446253Y-16051436D01*
X4446253Y-16051436D02*
X4446253Y-16070484D01*
X4522444Y-15870484D02*
X4646253Y-15870484D01*
X4646253Y-15870484D02*
X4579586Y-15946674D01*
X4579586Y-15946674D02*
X4608158Y-15946674D01*
X4608158Y-15946674D02*
X4627205Y-15956198D01*
X4627205Y-15956198D02*
X4636729Y-15965722D01*
X4636729Y-15965722D02*
X4646253Y-15984769D01*
X4646253Y-15984769D02*
X4646253Y-16032388D01*
X4646253Y-16032388D02*
X4636729Y-16051436D01*
X4636729Y-16051436D02*
X4627205Y-16060960D01*
X4627205Y-16060960D02*
X4608158Y-16070484D01*
X4608158Y-16070484D02*
X4551015Y-16070484D01*
X4551015Y-16070484D02*
X4531967Y-16060960D01*
X4531967Y-16060960D02*
X4522444Y-16051436D01*
X4770063Y-15870484D02*
X4789110Y-15870484D01*
X4789110Y-15870484D02*
X4808158Y-15880008D01*
X4808158Y-15880008D02*
X4817682Y-15889531D01*
X4817682Y-15889531D02*
X4827205Y-15908579D01*
X4827205Y-15908579D02*
X4836729Y-15946674D01*
X4836729Y-15946674D02*
X4836729Y-15994293D01*
X4836729Y-15994293D02*
X4827205Y-16032388D01*
X4827205Y-16032388D02*
X4817682Y-16051436D01*
X4817682Y-16051436D02*
X4808158Y-16060960D01*
X4808158Y-16060960D02*
X4789110Y-16070484D01*
X4789110Y-16070484D02*
X4770063Y-16070484D01*
X4770063Y-16070484D02*
X4751015Y-16060960D01*
X4751015Y-16060960D02*
X4741491Y-16051436D01*
X4741491Y-16051436D02*
X4731967Y-16032388D01*
X4731967Y-16032388D02*
X4722444Y-15994293D01*
X4722444Y-15994293D02*
X4722444Y-15946674D01*
X4722444Y-15946674D02*
X4731967Y-15908579D01*
X4731967Y-15908579D02*
X4741491Y-15889531D01*
X4741491Y-15889531D02*
X4751015Y-15880008D01*
X4751015Y-15880008D02*
X4770063Y-15870484D01*
X4960539Y-15870484D02*
X4979586Y-15870484D01*
X4979586Y-15870484D02*
X4998634Y-15880008D01*
X4998634Y-15880008D02*
X5008158Y-15889531D01*
X5008158Y-15889531D02*
X5017682Y-15908579D01*
X5017682Y-15908579D02*
X5027205Y-15946674D01*
X5027205Y-15946674D02*
X5027205Y-15994293D01*
X5027205Y-15994293D02*
X5017682Y-16032388D01*
X5017682Y-16032388D02*
X5008158Y-16051436D01*
X5008158Y-16051436D02*
X4998634Y-16060960D01*
X4998634Y-16060960D02*
X4979586Y-16070484D01*
X4979586Y-16070484D02*
X4960539Y-16070484D01*
X4960539Y-16070484D02*
X4941491Y-16060960D01*
X4941491Y-16060960D02*
X4931967Y-16051436D01*
X4931967Y-16051436D02*
X4922444Y-16032388D01*
X4922444Y-16032388D02*
X4912920Y-15994293D01*
X4912920Y-15994293D02*
X4912920Y-15946674D01*
X4912920Y-15946674D02*
X4922444Y-15908579D01*
X4922444Y-15908579D02*
X4931967Y-15889531D01*
X4931967Y-15889531D02*
X4941491Y-15880008D01*
X4941491Y-15880008D02*
X4960539Y-15870484D01*
X5112920Y-16070484D02*
X5112920Y-15937150D01*
X5112920Y-15956198D02*
X5122444Y-15946674D01*
X5122444Y-15946674D02*
X5141491Y-15937150D01*
X5141491Y-15937150D02*
X5170063Y-15937150D01*
X5170063Y-15937150D02*
X5189110Y-15946674D01*
X5189110Y-15946674D02*
X5198634Y-15965722D01*
X5198634Y-15965722D02*
X5198634Y-16070484D01*
X5198634Y-15965722D02*
X5208158Y-15946674D01*
X5208158Y-15946674D02*
X5227205Y-15937150D01*
X5227205Y-15937150D02*
X5255777Y-15937150D01*
X5255777Y-15937150D02*
X5274825Y-15946674D01*
X5274825Y-15946674D02*
X5284348Y-15965722D01*
X5284348Y-15965722D02*
X5284348Y-16070484D01*
X5379586Y-16070484D02*
X5379586Y-15937150D01*
X5379586Y-15956198D02*
X5389110Y-15946674D01*
X5389110Y-15946674D02*
X5408158Y-15937150D01*
X5408158Y-15937150D02*
X5436729Y-15937150D01*
X5436729Y-15937150D02*
X5455777Y-15946674D01*
X5455777Y-15946674D02*
X5465301Y-15965722D01*
X5465301Y-15965722D02*
X5465301Y-16070484D01*
X5465301Y-15965722D02*
X5474825Y-15946674D01*
X5474825Y-15946674D02*
X5493872Y-15937150D01*
X5493872Y-15937150D02*
X5522444Y-15937150D01*
X5522444Y-15937150D02*
X5541491Y-15946674D01*
X5541491Y-15946674D02*
X5551015Y-15965722D01*
X5551015Y-15965722D02*
X5551015Y-16070484D01*
X5941491Y-15860960D02*
X5770063Y-16118103D01*
X6198634Y-15870484D02*
X6217682Y-15870484D01*
X6217682Y-15870484D02*
X6236729Y-15880008D01*
X6236729Y-15880008D02*
X6246253Y-15889531D01*
X6246253Y-15889531D02*
X6255777Y-15908579D01*
X6255777Y-15908579D02*
X6265301Y-15946674D01*
X6265301Y-15946674D02*
X6265301Y-15994293D01*
X6265301Y-15994293D02*
X6255777Y-16032388D01*
X6255777Y-16032388D02*
X6246253Y-16051436D01*
X6246253Y-16051436D02*
X6236729Y-16060960D01*
X6236729Y-16060960D02*
X6217682Y-16070484D01*
X6217682Y-16070484D02*
X6198634Y-16070484D01*
X6198634Y-16070484D02*
X6179586Y-16060960D01*
X6179586Y-16060960D02*
X6170063Y-16051436D01*
X6170063Y-16051436D02*
X6160539Y-16032388D01*
X6160539Y-16032388D02*
X6151015Y-15994293D01*
X6151015Y-15994293D02*
X6151015Y-15946674D01*
X6151015Y-15946674D02*
X6160539Y-15908579D01*
X6160539Y-15908579D02*
X6170063Y-15889531D01*
X6170063Y-15889531D02*
X6179586Y-15880008D01*
X6179586Y-15880008D02*
X6198634Y-15870484D01*
X6351015Y-16051436D02*
X6360539Y-16060960D01*
X6360539Y-16060960D02*
X6351015Y-16070484D01*
X6351015Y-16070484D02*
X6341491Y-16060960D01*
X6341491Y-16060960D02*
X6351015Y-16051436D01*
X6351015Y-16051436D02*
X6351015Y-16070484D01*
X6484348Y-15870484D02*
X6503396Y-15870484D01*
X6503396Y-15870484D02*
X6522444Y-15880008D01*
X6522444Y-15880008D02*
X6531967Y-15889531D01*
X6531967Y-15889531D02*
X6541491Y-15908579D01*
X6541491Y-15908579D02*
X6551015Y-15946674D01*
X6551015Y-15946674D02*
X6551015Y-15994293D01*
X6551015Y-15994293D02*
X6541491Y-16032388D01*
X6541491Y-16032388D02*
X6531967Y-16051436D01*
X6531967Y-16051436D02*
X6522444Y-16060960D01*
X6522444Y-16060960D02*
X6503396Y-16070484D01*
X6503396Y-16070484D02*
X6484348Y-16070484D01*
X6484348Y-16070484D02*
X6465301Y-16060960D01*
X6465301Y-16060960D02*
X6455777Y-16051436D01*
X6455777Y-16051436D02*
X6446253Y-16032388D01*
X6446253Y-16032388D02*
X6436729Y-15994293D01*
X6436729Y-15994293D02*
X6436729Y-15946674D01*
X6436729Y-15946674D02*
X6446253Y-15908579D01*
X6446253Y-15908579D02*
X6455777Y-15889531D01*
X6455777Y-15889531D02*
X6465301Y-15880008D01*
X6465301Y-15880008D02*
X6484348Y-15870484D01*
X6646253Y-16070484D02*
X6684348Y-16070484D01*
X6684348Y-16070484D02*
X6703396Y-16060960D01*
X6703396Y-16060960D02*
X6712920Y-16051436D01*
X6712920Y-16051436D02*
X6731967Y-16022865D01*
X6731967Y-16022865D02*
X6741491Y-15984769D01*
X6741491Y-15984769D02*
X6741491Y-15908579D01*
X6741491Y-15908579D02*
X6731967Y-15889531D01*
X6731967Y-15889531D02*
X6722444Y-15880008D01*
X6722444Y-15880008D02*
X6703396Y-15870484D01*
X6703396Y-15870484D02*
X6665301Y-15870484D01*
X6665301Y-15870484D02*
X6646253Y-15880008D01*
X6646253Y-15880008D02*
X6636729Y-15889531D01*
X6636729Y-15889531D02*
X6627206Y-15908579D01*
X6627206Y-15908579D02*
X6627206Y-15956198D01*
X6627206Y-15956198D02*
X6636729Y-15975246D01*
X6636729Y-15975246D02*
X6646253Y-15984769D01*
X6646253Y-15984769D02*
X6665301Y-15994293D01*
X6665301Y-15994293D02*
X6703396Y-15994293D01*
X6703396Y-15994293D02*
X6722444Y-15984769D01*
X6722444Y-15984769D02*
X6731967Y-15975246D01*
X6731967Y-15975246D02*
X6741491Y-15956198D01*
X6865301Y-15870484D02*
X6884348Y-15870484D01*
X6884348Y-15870484D02*
X6903396Y-15880008D01*
X6903396Y-15880008D02*
X6912920Y-15889531D01*
X6912920Y-15889531D02*
X6922444Y-15908579D01*
X6922444Y-15908579D02*
X6931967Y-15946674D01*
X6931967Y-15946674D02*
X6931967Y-15994293D01*
X6931967Y-15994293D02*
X6922444Y-16032388D01*
X6922444Y-16032388D02*
X6912920Y-16051436D01*
X6912920Y-16051436D02*
X6903396Y-16060960D01*
X6903396Y-16060960D02*
X6884348Y-16070484D01*
X6884348Y-16070484D02*
X6865301Y-16070484D01*
X6865301Y-16070484D02*
X6846253Y-16060960D01*
X6846253Y-16060960D02*
X6836729Y-16051436D01*
X6836729Y-16051436D02*
X6827206Y-16032388D01*
X6827206Y-16032388D02*
X6817682Y-15994293D01*
X6817682Y-15994293D02*
X6817682Y-15946674D01*
X6817682Y-15946674D02*
X6827206Y-15908579D01*
X6827206Y-15908579D02*
X6836729Y-15889531D01*
X6836729Y-15889531D02*
X6846253Y-15880008D01*
X6846253Y-15880008D02*
X6865301Y-15870484D01*
X7103396Y-15870484D02*
X7065301Y-15870484D01*
X7065301Y-15870484D02*
X7046253Y-15880008D01*
X7046253Y-15880008D02*
X7036729Y-15889531D01*
X7036729Y-15889531D02*
X7017682Y-15918103D01*
X7017682Y-15918103D02*
X7008158Y-15956198D01*
X7008158Y-15956198D02*
X7008158Y-16032388D01*
X7008158Y-16032388D02*
X7017682Y-16051436D01*
X7017682Y-16051436D02*
X7027206Y-16060960D01*
X7027206Y-16060960D02*
X7046253Y-16070484D01*
X7046253Y-16070484D02*
X7084348Y-16070484D01*
X7084348Y-16070484D02*
X7103396Y-16060960D01*
X7103396Y-16060960D02*
X7112920Y-16051436D01*
X7112920Y-16051436D02*
X7122444Y-16032388D01*
X7122444Y-16032388D02*
X7122444Y-15984769D01*
X7122444Y-15984769D02*
X7112920Y-15965722D01*
X7112920Y-15965722D02*
X7103396Y-15956198D01*
X7103396Y-15956198D02*
X7084348Y-15946674D01*
X7084348Y-15946674D02*
X7046253Y-15946674D01*
X7046253Y-15946674D02*
X7027206Y-15956198D01*
X7027206Y-15956198D02*
X7017682Y-15965722D01*
X7017682Y-15965722D02*
X7008158Y-15984769D01*
X7198634Y-15870484D02*
X7198634Y-15908579D01*
X7274825Y-15870484D02*
X7274825Y-15908579D01*
X7570063Y-16146674D02*
X7560539Y-16137150D01*
X7560539Y-16137150D02*
X7541491Y-16108579D01*
X7541491Y-16108579D02*
X7531968Y-16089531D01*
X7531968Y-16089531D02*
X7522444Y-16060960D01*
X7522444Y-16060960D02*
X7512920Y-16013341D01*
X7512920Y-16013341D02*
X7512920Y-15975246D01*
X7512920Y-15975246D02*
X7522444Y-15927627D01*
X7522444Y-15927627D02*
X7531968Y-15899055D01*
X7531968Y-15899055D02*
X7541491Y-15880008D01*
X7541491Y-15880008D02*
X7560539Y-15851436D01*
X7560539Y-15851436D02*
X7570063Y-15841912D01*
X7636729Y-15889531D02*
X7646253Y-15880008D01*
X7646253Y-15880008D02*
X7665301Y-15870484D01*
X7665301Y-15870484D02*
X7712920Y-15870484D01*
X7712920Y-15870484D02*
X7731968Y-15880008D01*
X7731968Y-15880008D02*
X7741491Y-15889531D01*
X7741491Y-15889531D02*
X7751015Y-15908579D01*
X7751015Y-15908579D02*
X7751015Y-15927627D01*
X7751015Y-15927627D02*
X7741491Y-15956198D01*
X7741491Y-15956198D02*
X7627206Y-16070484D01*
X7627206Y-16070484D02*
X7751015Y-16070484D01*
X7989110Y-16070484D02*
X7989110Y-15870484D01*
X8074825Y-16070484D02*
X8074825Y-15965722D01*
X8074825Y-15965722D02*
X8065301Y-15946674D01*
X8065301Y-15946674D02*
X8046253Y-15937150D01*
X8046253Y-15937150D02*
X8017682Y-15937150D01*
X8017682Y-15937150D02*
X7998634Y-15946674D01*
X7998634Y-15946674D02*
X7989110Y-15956198D01*
X8198634Y-16070484D02*
X8179587Y-16060960D01*
X8179587Y-16060960D02*
X8170063Y-16051436D01*
X8170063Y-16051436D02*
X8160539Y-16032388D01*
X8160539Y-16032388D02*
X8160539Y-15975246D01*
X8160539Y-15975246D02*
X8170063Y-15956198D01*
X8170063Y-15956198D02*
X8179587Y-15946674D01*
X8179587Y-15946674D02*
X8198634Y-15937150D01*
X8198634Y-15937150D02*
X8227206Y-15937150D01*
X8227206Y-15937150D02*
X8246253Y-15946674D01*
X8246253Y-15946674D02*
X8255777Y-15956198D01*
X8255777Y-15956198D02*
X8265301Y-15975246D01*
X8265301Y-15975246D02*
X8265301Y-16032388D01*
X8265301Y-16032388D02*
X8255777Y-16051436D01*
X8255777Y-16051436D02*
X8246253Y-16060960D01*
X8246253Y-16060960D02*
X8227206Y-16070484D01*
X8227206Y-16070484D02*
X8198634Y-16070484D01*
X8379587Y-16070484D02*
X8360539Y-16060960D01*
X8360539Y-16060960D02*
X8351015Y-16041912D01*
X8351015Y-16041912D02*
X8351015Y-15870484D01*
X8531968Y-16060960D02*
X8512920Y-16070484D01*
X8512920Y-16070484D02*
X8474825Y-16070484D01*
X8474825Y-16070484D02*
X8455777Y-16060960D01*
X8455777Y-16060960D02*
X8446253Y-16041912D01*
X8446253Y-16041912D02*
X8446253Y-15965722D01*
X8446253Y-15965722D02*
X8455777Y-15946674D01*
X8455777Y-15946674D02*
X8474825Y-15937150D01*
X8474825Y-15937150D02*
X8512920Y-15937150D01*
X8512920Y-15937150D02*
X8531968Y-15946674D01*
X8531968Y-15946674D02*
X8541492Y-15965722D01*
X8541492Y-15965722D02*
X8541492Y-15984769D01*
X8541492Y-15984769D02*
X8446253Y-16003817D01*
X8617682Y-16060960D02*
X8636730Y-16070484D01*
X8636730Y-16070484D02*
X8674825Y-16070484D01*
X8674825Y-16070484D02*
X8693873Y-16060960D01*
X8693873Y-16060960D02*
X8703396Y-16041912D01*
X8703396Y-16041912D02*
X8703396Y-16032388D01*
X8703396Y-16032388D02*
X8693873Y-16013341D01*
X8693873Y-16013341D02*
X8674825Y-16003817D01*
X8674825Y-16003817D02*
X8646253Y-16003817D01*
X8646253Y-16003817D02*
X8627206Y-15994293D01*
X8627206Y-15994293D02*
X8617682Y-15975246D01*
X8617682Y-15975246D02*
X8617682Y-15965722D01*
X8617682Y-15965722D02*
X8627206Y-15946674D01*
X8627206Y-15946674D02*
X8646253Y-15937150D01*
X8646253Y-15937150D02*
X8674825Y-15937150D01*
X8674825Y-15937150D02*
X8693873Y-15946674D01*
X8770063Y-16146674D02*
X8779587Y-16137150D01*
X8779587Y-16137150D02*
X8798634Y-16108579D01*
X8798634Y-16108579D02*
X8808158Y-16089531D01*
X8808158Y-16089531D02*
X8817682Y-16060960D01*
X8817682Y-16060960D02*
X8827206Y-16013341D01*
X8827206Y-16013341D02*
X8827206Y-15975246D01*
X8827206Y-15975246D02*
X8817682Y-15927627D01*
X8817682Y-15927627D02*
X8808158Y-15899055D01*
X8808158Y-15899055D02*
X8798634Y-15880008D01*
X8798634Y-15880008D02*
X8779587Y-15851436D01*
X8779587Y-15851436D02*
X8770063Y-15841912D01*
X9131968Y-16146674D02*
X9122444Y-16137150D01*
X9122444Y-16137150D02*
X9103396Y-16108579D01*
X9103396Y-16108579D02*
X9093873Y-16089531D01*
X9093873Y-16089531D02*
X9084349Y-16060960D01*
X9084349Y-16060960D02*
X9074825Y-16013341D01*
X9074825Y-16013341D02*
X9074825Y-15975246D01*
X9074825Y-15975246D02*
X9084349Y-15927627D01*
X9084349Y-15927627D02*
X9093873Y-15899055D01*
X9093873Y-15899055D02*
X9103396Y-15880008D01*
X9103396Y-15880008D02*
X9122444Y-15851436D01*
X9122444Y-15851436D02*
X9131968Y-15841912D01*
X9208158Y-15937150D02*
X9208158Y-16070484D01*
X9208158Y-15956198D02*
X9217682Y-15946674D01*
X9217682Y-15946674D02*
X9236730Y-15937150D01*
X9236730Y-15937150D02*
X9265301Y-15937150D01*
X9265301Y-15937150D02*
X9284349Y-15946674D01*
X9284349Y-15946674D02*
X9293873Y-15965722D01*
X9293873Y-15965722D02*
X9293873Y-16070484D01*
X9417682Y-16070484D02*
X9398634Y-16060960D01*
X9398634Y-16060960D02*
X9389111Y-16051436D01*
X9389111Y-16051436D02*
X9379587Y-16032388D01*
X9379587Y-16032388D02*
X9379587Y-15975246D01*
X9379587Y-15975246D02*
X9389111Y-15956198D01*
X9389111Y-15956198D02*
X9398634Y-15946674D01*
X9398634Y-15946674D02*
X9417682Y-15937150D01*
X9417682Y-15937150D02*
X9446254Y-15937150D01*
X9446254Y-15937150D02*
X9465301Y-15946674D01*
X9465301Y-15946674D02*
X9474825Y-15956198D01*
X9474825Y-15956198D02*
X9484349Y-15975246D01*
X9484349Y-15975246D02*
X9484349Y-16032388D01*
X9484349Y-16032388D02*
X9474825Y-16051436D01*
X9474825Y-16051436D02*
X9465301Y-16060960D01*
X9465301Y-16060960D02*
X9446254Y-16070484D01*
X9446254Y-16070484D02*
X9417682Y-16070484D01*
X9541492Y-15937150D02*
X9617682Y-15937150D01*
X9570063Y-15870484D02*
X9570063Y-16041912D01*
X9570063Y-16041912D02*
X9579587Y-16060960D01*
X9579587Y-16060960D02*
X9598634Y-16070484D01*
X9598634Y-16070484D02*
X9617682Y-16070484D01*
X9836730Y-15937150D02*
X9836730Y-16137150D01*
X9836730Y-15946674D02*
X9855777Y-15937150D01*
X9855777Y-15937150D02*
X9893873Y-15937150D01*
X9893873Y-15937150D02*
X9912920Y-15946674D01*
X9912920Y-15946674D02*
X9922444Y-15956198D01*
X9922444Y-15956198D02*
X9931968Y-15975246D01*
X9931968Y-15975246D02*
X9931968Y-16032388D01*
X9931968Y-16032388D02*
X9922444Y-16051436D01*
X9922444Y-16051436D02*
X9912920Y-16060960D01*
X9912920Y-16060960D02*
X9893873Y-16070484D01*
X9893873Y-16070484D02*
X9855777Y-16070484D01*
X9855777Y-16070484D02*
X9836730Y-16060960D01*
X10046254Y-16070484D02*
X10027206Y-16060960D01*
X10027206Y-16060960D02*
X10017682Y-16041912D01*
X10017682Y-16041912D02*
X10017682Y-15870484D01*
X10208158Y-16070484D02*
X10208158Y-15965722D01*
X10208158Y-15965722D02*
X10198635Y-15946674D01*
X10198635Y-15946674D02*
X10179587Y-15937150D01*
X10179587Y-15937150D02*
X10141492Y-15937150D01*
X10141492Y-15937150D02*
X10122444Y-15946674D01*
X10208158Y-16060960D02*
X10189111Y-16070484D01*
X10189111Y-16070484D02*
X10141492Y-16070484D01*
X10141492Y-16070484D02*
X10122444Y-16060960D01*
X10122444Y-16060960D02*
X10112920Y-16041912D01*
X10112920Y-16041912D02*
X10112920Y-16022865D01*
X10112920Y-16022865D02*
X10122444Y-16003817D01*
X10122444Y-16003817D02*
X10141492Y-15994293D01*
X10141492Y-15994293D02*
X10189111Y-15994293D01*
X10189111Y-15994293D02*
X10208158Y-15984769D01*
X10274825Y-15937150D02*
X10351015Y-15937150D01*
X10303396Y-15870484D02*
X10303396Y-16041912D01*
X10303396Y-16041912D02*
X10312920Y-16060960D01*
X10312920Y-16060960D02*
X10331968Y-16070484D01*
X10331968Y-16070484D02*
X10351015Y-16070484D01*
X10493873Y-16060960D02*
X10474825Y-16070484D01*
X10474825Y-16070484D02*
X10436730Y-16070484D01*
X10436730Y-16070484D02*
X10417682Y-16060960D01*
X10417682Y-16060960D02*
X10408158Y-16041912D01*
X10408158Y-16041912D02*
X10408158Y-15965722D01*
X10408158Y-15965722D02*
X10417682Y-15946674D01*
X10417682Y-15946674D02*
X10436730Y-15937150D01*
X10436730Y-15937150D02*
X10474825Y-15937150D01*
X10474825Y-15937150D02*
X10493873Y-15946674D01*
X10493873Y-15946674D02*
X10503396Y-15965722D01*
X10503396Y-15965722D02*
X10503396Y-15984769D01*
X10503396Y-15984769D02*
X10408158Y-16003817D01*
X10674825Y-16070484D02*
X10674825Y-15870484D01*
X10674825Y-16060960D02*
X10655777Y-16070484D01*
X10655777Y-16070484D02*
X10617682Y-16070484D01*
X10617682Y-16070484D02*
X10598635Y-16060960D01*
X10598635Y-16060960D02*
X10589111Y-16051436D01*
X10589111Y-16051436D02*
X10579587Y-16032388D01*
X10579587Y-16032388D02*
X10579587Y-15975246D01*
X10579587Y-15975246D02*
X10589111Y-15956198D01*
X10589111Y-15956198D02*
X10598635Y-15946674D01*
X10598635Y-15946674D02*
X10617682Y-15937150D01*
X10617682Y-15937150D02*
X10655777Y-15937150D01*
X10655777Y-15937150D02*
X10674825Y-15946674D01*
X10751016Y-16146674D02*
X10760539Y-16137150D01*
X10760539Y-16137150D02*
X10779587Y-16108579D01*
X10779587Y-16108579D02*
X10789111Y-16089531D01*
X10789111Y-16089531D02*
X10798635Y-16060960D01*
X10798635Y-16060960D02*
X10808158Y-16013341D01*
X10808158Y-16013341D02*
X10808158Y-15975246D01*
X10808158Y-15975246D02*
X10798635Y-15927627D01*
X10798635Y-15927627D02*
X10789111Y-15899055D01*
X10789111Y-15899055D02*
X10779587Y-15880008D01*
X10779587Y-15880008D02*
X10760539Y-15851436D01*
X10760539Y-15851436D02*
X10751016Y-15841912D01*
X3895000Y-16399000D02*
X3995000Y-16299000D01*
X3895000Y-16199000D01*
X3795000Y-16299000D01*
X3895000Y-16399000D01*
X4236729Y-16190484D02*
X4360539Y-16190484D01*
X4360539Y-16190484D02*
X4293872Y-16266674D01*
X4293872Y-16266674D02*
X4322444Y-16266674D01*
X4322444Y-16266674D02*
X4341491Y-16276198D01*
X4341491Y-16276198D02*
X4351015Y-16285722D01*
X4351015Y-16285722D02*
X4360539Y-16304769D01*
X4360539Y-16304769D02*
X4360539Y-16352388D01*
X4360539Y-16352388D02*
X4351015Y-16371436D01*
X4351015Y-16371436D02*
X4341491Y-16380960D01*
X4341491Y-16380960D02*
X4322444Y-16390484D01*
X4322444Y-16390484D02*
X4265301Y-16390484D01*
X4265301Y-16390484D02*
X4246253Y-16380960D01*
X4246253Y-16380960D02*
X4236729Y-16371436D01*
X4446253Y-16371436D02*
X4455777Y-16380960D01*
X4455777Y-16380960D02*
X4446253Y-16390484D01*
X4446253Y-16390484D02*
X4436729Y-16380960D01*
X4436729Y-16380960D02*
X4446253Y-16371436D01*
X4446253Y-16371436D02*
X4446253Y-16390484D01*
X4579586Y-16190484D02*
X4598634Y-16190484D01*
X4598634Y-16190484D02*
X4617682Y-16200008D01*
X4617682Y-16200008D02*
X4627205Y-16209531D01*
X4627205Y-16209531D02*
X4636729Y-16228579D01*
X4636729Y-16228579D02*
X4646253Y-16266674D01*
X4646253Y-16266674D02*
X4646253Y-16314293D01*
X4646253Y-16314293D02*
X4636729Y-16352388D01*
X4636729Y-16352388D02*
X4627205Y-16371436D01*
X4627205Y-16371436D02*
X4617682Y-16380960D01*
X4617682Y-16380960D02*
X4598634Y-16390484D01*
X4598634Y-16390484D02*
X4579586Y-16390484D01*
X4579586Y-16390484D02*
X4560539Y-16380960D01*
X4560539Y-16380960D02*
X4551015Y-16371436D01*
X4551015Y-16371436D02*
X4541491Y-16352388D01*
X4541491Y-16352388D02*
X4531967Y-16314293D01*
X4531967Y-16314293D02*
X4531967Y-16266674D01*
X4531967Y-16266674D02*
X4541491Y-16228579D01*
X4541491Y-16228579D02*
X4551015Y-16209531D01*
X4551015Y-16209531D02*
X4560539Y-16200008D01*
X4560539Y-16200008D02*
X4579586Y-16190484D01*
X4770063Y-16190484D02*
X4789110Y-16190484D01*
X4789110Y-16190484D02*
X4808158Y-16200008D01*
X4808158Y-16200008D02*
X4817682Y-16209531D01*
X4817682Y-16209531D02*
X4827205Y-16228579D01*
X4827205Y-16228579D02*
X4836729Y-16266674D01*
X4836729Y-16266674D02*
X4836729Y-16314293D01*
X4836729Y-16314293D02*
X4827205Y-16352388D01*
X4827205Y-16352388D02*
X4817682Y-16371436D01*
X4817682Y-16371436D02*
X4808158Y-16380960D01*
X4808158Y-16380960D02*
X4789110Y-16390484D01*
X4789110Y-16390484D02*
X4770063Y-16390484D01*
X4770063Y-16390484D02*
X4751015Y-16380960D01*
X4751015Y-16380960D02*
X4741491Y-16371436D01*
X4741491Y-16371436D02*
X4731967Y-16352388D01*
X4731967Y-16352388D02*
X4722444Y-16314293D01*
X4722444Y-16314293D02*
X4722444Y-16266674D01*
X4722444Y-16266674D02*
X4731967Y-16228579D01*
X4731967Y-16228579D02*
X4741491Y-16209531D01*
X4741491Y-16209531D02*
X4751015Y-16200008D01*
X4751015Y-16200008D02*
X4770063Y-16190484D01*
X4960539Y-16190484D02*
X4979586Y-16190484D01*
X4979586Y-16190484D02*
X4998634Y-16200008D01*
X4998634Y-16200008D02*
X5008158Y-16209531D01*
X5008158Y-16209531D02*
X5017682Y-16228579D01*
X5017682Y-16228579D02*
X5027205Y-16266674D01*
X5027205Y-16266674D02*
X5027205Y-16314293D01*
X5027205Y-16314293D02*
X5017682Y-16352388D01*
X5017682Y-16352388D02*
X5008158Y-16371436D01*
X5008158Y-16371436D02*
X4998634Y-16380960D01*
X4998634Y-16380960D02*
X4979586Y-16390484D01*
X4979586Y-16390484D02*
X4960539Y-16390484D01*
X4960539Y-16390484D02*
X4941491Y-16380960D01*
X4941491Y-16380960D02*
X4931967Y-16371436D01*
X4931967Y-16371436D02*
X4922444Y-16352388D01*
X4922444Y-16352388D02*
X4912920Y-16314293D01*
X4912920Y-16314293D02*
X4912920Y-16266674D01*
X4912920Y-16266674D02*
X4922444Y-16228579D01*
X4922444Y-16228579D02*
X4931967Y-16209531D01*
X4931967Y-16209531D02*
X4941491Y-16200008D01*
X4941491Y-16200008D02*
X4960539Y-16190484D01*
X5112920Y-16390484D02*
X5112920Y-16257150D01*
X5112920Y-16276198D02*
X5122444Y-16266674D01*
X5122444Y-16266674D02*
X5141491Y-16257150D01*
X5141491Y-16257150D02*
X5170063Y-16257150D01*
X5170063Y-16257150D02*
X5189110Y-16266674D01*
X5189110Y-16266674D02*
X5198634Y-16285722D01*
X5198634Y-16285722D02*
X5198634Y-16390484D01*
X5198634Y-16285722D02*
X5208158Y-16266674D01*
X5208158Y-16266674D02*
X5227205Y-16257150D01*
X5227205Y-16257150D02*
X5255777Y-16257150D01*
X5255777Y-16257150D02*
X5274825Y-16266674D01*
X5274825Y-16266674D02*
X5284348Y-16285722D01*
X5284348Y-16285722D02*
X5284348Y-16390484D01*
X5379586Y-16390484D02*
X5379586Y-16257150D01*
X5379586Y-16276198D02*
X5389110Y-16266674D01*
X5389110Y-16266674D02*
X5408158Y-16257150D01*
X5408158Y-16257150D02*
X5436729Y-16257150D01*
X5436729Y-16257150D02*
X5455777Y-16266674D01*
X5455777Y-16266674D02*
X5465301Y-16285722D01*
X5465301Y-16285722D02*
X5465301Y-16390484D01*
X5465301Y-16285722D02*
X5474825Y-16266674D01*
X5474825Y-16266674D02*
X5493872Y-16257150D01*
X5493872Y-16257150D02*
X5522444Y-16257150D01*
X5522444Y-16257150D02*
X5541491Y-16266674D01*
X5541491Y-16266674D02*
X5551015Y-16285722D01*
X5551015Y-16285722D02*
X5551015Y-16390484D01*
X5941491Y-16180960D02*
X5770063Y-16438103D01*
X6198634Y-16190484D02*
X6217682Y-16190484D01*
X6217682Y-16190484D02*
X6236729Y-16200008D01*
X6236729Y-16200008D02*
X6246253Y-16209531D01*
X6246253Y-16209531D02*
X6255777Y-16228579D01*
X6255777Y-16228579D02*
X6265301Y-16266674D01*
X6265301Y-16266674D02*
X6265301Y-16314293D01*
X6265301Y-16314293D02*
X6255777Y-16352388D01*
X6255777Y-16352388D02*
X6246253Y-16371436D01*
X6246253Y-16371436D02*
X6236729Y-16380960D01*
X6236729Y-16380960D02*
X6217682Y-16390484D01*
X6217682Y-16390484D02*
X6198634Y-16390484D01*
X6198634Y-16390484D02*
X6179586Y-16380960D01*
X6179586Y-16380960D02*
X6170063Y-16371436D01*
X6170063Y-16371436D02*
X6160539Y-16352388D01*
X6160539Y-16352388D02*
X6151015Y-16314293D01*
X6151015Y-16314293D02*
X6151015Y-16266674D01*
X6151015Y-16266674D02*
X6160539Y-16228579D01*
X6160539Y-16228579D02*
X6170063Y-16209531D01*
X6170063Y-16209531D02*
X6179586Y-16200008D01*
X6179586Y-16200008D02*
X6198634Y-16190484D01*
X6351015Y-16371436D02*
X6360539Y-16380960D01*
X6360539Y-16380960D02*
X6351015Y-16390484D01*
X6351015Y-16390484D02*
X6341491Y-16380960D01*
X6341491Y-16380960D02*
X6351015Y-16371436D01*
X6351015Y-16371436D02*
X6351015Y-16390484D01*
X6551015Y-16390484D02*
X6436729Y-16390484D01*
X6493872Y-16390484D02*
X6493872Y-16190484D01*
X6493872Y-16190484D02*
X6474825Y-16219055D01*
X6474825Y-16219055D02*
X6455777Y-16238103D01*
X6455777Y-16238103D02*
X6436729Y-16247627D01*
X6741491Y-16390484D02*
X6627206Y-16390484D01*
X6684348Y-16390484D02*
X6684348Y-16190484D01*
X6684348Y-16190484D02*
X6665301Y-16219055D01*
X6665301Y-16219055D02*
X6646253Y-16238103D01*
X6646253Y-16238103D02*
X6627206Y-16247627D01*
X6855777Y-16276198D02*
X6836729Y-16266674D01*
X6836729Y-16266674D02*
X6827206Y-16257150D01*
X6827206Y-16257150D02*
X6817682Y-16238103D01*
X6817682Y-16238103D02*
X6817682Y-16228579D01*
X6817682Y-16228579D02*
X6827206Y-16209531D01*
X6827206Y-16209531D02*
X6836729Y-16200008D01*
X6836729Y-16200008D02*
X6855777Y-16190484D01*
X6855777Y-16190484D02*
X6893872Y-16190484D01*
X6893872Y-16190484D02*
X6912920Y-16200008D01*
X6912920Y-16200008D02*
X6922444Y-16209531D01*
X6922444Y-16209531D02*
X6931967Y-16228579D01*
X6931967Y-16228579D02*
X6931967Y-16238103D01*
X6931967Y-16238103D02*
X6922444Y-16257150D01*
X6922444Y-16257150D02*
X6912920Y-16266674D01*
X6912920Y-16266674D02*
X6893872Y-16276198D01*
X6893872Y-16276198D02*
X6855777Y-16276198D01*
X6855777Y-16276198D02*
X6836729Y-16285722D01*
X6836729Y-16285722D02*
X6827206Y-16295246D01*
X6827206Y-16295246D02*
X6817682Y-16314293D01*
X6817682Y-16314293D02*
X6817682Y-16352388D01*
X6817682Y-16352388D02*
X6827206Y-16371436D01*
X6827206Y-16371436D02*
X6836729Y-16380960D01*
X6836729Y-16380960D02*
X6855777Y-16390484D01*
X6855777Y-16390484D02*
X6893872Y-16390484D01*
X6893872Y-16390484D02*
X6912920Y-16380960D01*
X6912920Y-16380960D02*
X6922444Y-16371436D01*
X6922444Y-16371436D02*
X6931967Y-16352388D01*
X6931967Y-16352388D02*
X6931967Y-16314293D01*
X6931967Y-16314293D02*
X6922444Y-16295246D01*
X6922444Y-16295246D02*
X6912920Y-16285722D01*
X6912920Y-16285722D02*
X6893872Y-16276198D01*
X7122444Y-16390484D02*
X7008158Y-16390484D01*
X7065301Y-16390484D02*
X7065301Y-16190484D01*
X7065301Y-16190484D02*
X7046253Y-16219055D01*
X7046253Y-16219055D02*
X7027206Y-16238103D01*
X7027206Y-16238103D02*
X7008158Y-16247627D01*
X7198634Y-16190484D02*
X7198634Y-16228579D01*
X7274825Y-16190484D02*
X7274825Y-16228579D01*
X7570063Y-16466674D02*
X7560539Y-16457150D01*
X7560539Y-16457150D02*
X7541491Y-16428579D01*
X7541491Y-16428579D02*
X7531968Y-16409531D01*
X7531968Y-16409531D02*
X7522444Y-16380960D01*
X7522444Y-16380960D02*
X7512920Y-16333341D01*
X7512920Y-16333341D02*
X7512920Y-16295246D01*
X7512920Y-16295246D02*
X7522444Y-16247627D01*
X7522444Y-16247627D02*
X7531968Y-16219055D01*
X7531968Y-16219055D02*
X7541491Y-16200008D01*
X7541491Y-16200008D02*
X7560539Y-16171436D01*
X7560539Y-16171436D02*
X7570063Y-16161912D01*
X7741491Y-16190484D02*
X7646253Y-16190484D01*
X7646253Y-16190484D02*
X7636729Y-16285722D01*
X7636729Y-16285722D02*
X7646253Y-16276198D01*
X7646253Y-16276198D02*
X7665301Y-16266674D01*
X7665301Y-16266674D02*
X7712920Y-16266674D01*
X7712920Y-16266674D02*
X7731968Y-16276198D01*
X7731968Y-16276198D02*
X7741491Y-16285722D01*
X7741491Y-16285722D02*
X7751015Y-16304769D01*
X7751015Y-16304769D02*
X7751015Y-16352388D01*
X7751015Y-16352388D02*
X7741491Y-16371436D01*
X7741491Y-16371436D02*
X7731968Y-16380960D01*
X7731968Y-16380960D02*
X7712920Y-16390484D01*
X7712920Y-16390484D02*
X7665301Y-16390484D01*
X7665301Y-16390484D02*
X7646253Y-16380960D01*
X7646253Y-16380960D02*
X7636729Y-16371436D01*
X7989110Y-16390484D02*
X7989110Y-16190484D01*
X8074825Y-16390484D02*
X8074825Y-16285722D01*
X8074825Y-16285722D02*
X8065301Y-16266674D01*
X8065301Y-16266674D02*
X8046253Y-16257150D01*
X8046253Y-16257150D02*
X8017682Y-16257150D01*
X8017682Y-16257150D02*
X7998634Y-16266674D01*
X7998634Y-16266674D02*
X7989110Y-16276198D01*
X8198634Y-16390484D02*
X8179587Y-16380960D01*
X8179587Y-16380960D02*
X8170063Y-16371436D01*
X8170063Y-16371436D02*
X8160539Y-16352388D01*
X8160539Y-16352388D02*
X8160539Y-16295246D01*
X8160539Y-16295246D02*
X8170063Y-16276198D01*
X8170063Y-16276198D02*
X8179587Y-16266674D01*
X8179587Y-16266674D02*
X8198634Y-16257150D01*
X8198634Y-16257150D02*
X8227206Y-16257150D01*
X8227206Y-16257150D02*
X8246253Y-16266674D01*
X8246253Y-16266674D02*
X8255777Y-16276198D01*
X8255777Y-16276198D02*
X8265301Y-16295246D01*
X8265301Y-16295246D02*
X8265301Y-16352388D01*
X8265301Y-16352388D02*
X8255777Y-16371436D01*
X8255777Y-16371436D02*
X8246253Y-16380960D01*
X8246253Y-16380960D02*
X8227206Y-16390484D01*
X8227206Y-16390484D02*
X8198634Y-16390484D01*
X8379587Y-16390484D02*
X8360539Y-16380960D01*
X8360539Y-16380960D02*
X8351015Y-16361912D01*
X8351015Y-16361912D02*
X8351015Y-16190484D01*
X8531968Y-16380960D02*
X8512920Y-16390484D01*
X8512920Y-16390484D02*
X8474825Y-16390484D01*
X8474825Y-16390484D02*
X8455777Y-16380960D01*
X8455777Y-16380960D02*
X8446253Y-16361912D01*
X8446253Y-16361912D02*
X8446253Y-16285722D01*
X8446253Y-16285722D02*
X8455777Y-16266674D01*
X8455777Y-16266674D02*
X8474825Y-16257150D01*
X8474825Y-16257150D02*
X8512920Y-16257150D01*
X8512920Y-16257150D02*
X8531968Y-16266674D01*
X8531968Y-16266674D02*
X8541492Y-16285722D01*
X8541492Y-16285722D02*
X8541492Y-16304769D01*
X8541492Y-16304769D02*
X8446253Y-16323817D01*
X8617682Y-16380960D02*
X8636730Y-16390484D01*
X8636730Y-16390484D02*
X8674825Y-16390484D01*
X8674825Y-16390484D02*
X8693873Y-16380960D01*
X8693873Y-16380960D02*
X8703396Y-16361912D01*
X8703396Y-16361912D02*
X8703396Y-16352388D01*
X8703396Y-16352388D02*
X8693873Y-16333341D01*
X8693873Y-16333341D02*
X8674825Y-16323817D01*
X8674825Y-16323817D02*
X8646253Y-16323817D01*
X8646253Y-16323817D02*
X8627206Y-16314293D01*
X8627206Y-16314293D02*
X8617682Y-16295246D01*
X8617682Y-16295246D02*
X8617682Y-16285722D01*
X8617682Y-16285722D02*
X8627206Y-16266674D01*
X8627206Y-16266674D02*
X8646253Y-16257150D01*
X8646253Y-16257150D02*
X8674825Y-16257150D01*
X8674825Y-16257150D02*
X8693873Y-16266674D01*
X8770063Y-16466674D02*
X8779587Y-16457150D01*
X8779587Y-16457150D02*
X8798634Y-16428579D01*
X8798634Y-16428579D02*
X8808158Y-16409531D01*
X8808158Y-16409531D02*
X8817682Y-16380960D01*
X8817682Y-16380960D02*
X8827206Y-16333341D01*
X8827206Y-16333341D02*
X8827206Y-16295246D01*
X8827206Y-16295246D02*
X8817682Y-16247627D01*
X8817682Y-16247627D02*
X8808158Y-16219055D01*
X8808158Y-16219055D02*
X8798634Y-16200008D01*
X8798634Y-16200008D02*
X8779587Y-16171436D01*
X8779587Y-16171436D02*
X8770063Y-16161912D01*
X9131968Y-16466674D02*
X9122444Y-16457150D01*
X9122444Y-16457150D02*
X9103396Y-16428579D01*
X9103396Y-16428579D02*
X9093873Y-16409531D01*
X9093873Y-16409531D02*
X9084349Y-16380960D01*
X9084349Y-16380960D02*
X9074825Y-16333341D01*
X9074825Y-16333341D02*
X9074825Y-16295246D01*
X9074825Y-16295246D02*
X9084349Y-16247627D01*
X9084349Y-16247627D02*
X9093873Y-16219055D01*
X9093873Y-16219055D02*
X9103396Y-16200008D01*
X9103396Y-16200008D02*
X9122444Y-16171436D01*
X9122444Y-16171436D02*
X9131968Y-16161912D01*
X9208158Y-16257150D02*
X9208158Y-16390484D01*
X9208158Y-16276198D02*
X9217682Y-16266674D01*
X9217682Y-16266674D02*
X9236730Y-16257150D01*
X9236730Y-16257150D02*
X9265301Y-16257150D01*
X9265301Y-16257150D02*
X9284349Y-16266674D01*
X9284349Y-16266674D02*
X9293873Y-16285722D01*
X9293873Y-16285722D02*
X9293873Y-16390484D01*
X9417682Y-16390484D02*
X9398634Y-16380960D01*
X9398634Y-16380960D02*
X9389111Y-16371436D01*
X9389111Y-16371436D02*
X9379587Y-16352388D01*
X9379587Y-16352388D02*
X9379587Y-16295246D01*
X9379587Y-16295246D02*
X9389111Y-16276198D01*
X9389111Y-16276198D02*
X9398634Y-16266674D01*
X9398634Y-16266674D02*
X9417682Y-16257150D01*
X9417682Y-16257150D02*
X9446254Y-16257150D01*
X9446254Y-16257150D02*
X9465301Y-16266674D01*
X9465301Y-16266674D02*
X9474825Y-16276198D01*
X9474825Y-16276198D02*
X9484349Y-16295246D01*
X9484349Y-16295246D02*
X9484349Y-16352388D01*
X9484349Y-16352388D02*
X9474825Y-16371436D01*
X9474825Y-16371436D02*
X9465301Y-16380960D01*
X9465301Y-16380960D02*
X9446254Y-16390484D01*
X9446254Y-16390484D02*
X9417682Y-16390484D01*
X9541492Y-16257150D02*
X9617682Y-16257150D01*
X9570063Y-16190484D02*
X9570063Y-16361912D01*
X9570063Y-16361912D02*
X9579587Y-16380960D01*
X9579587Y-16380960D02*
X9598634Y-16390484D01*
X9598634Y-16390484D02*
X9617682Y-16390484D01*
X9836730Y-16257150D02*
X9836730Y-16457150D01*
X9836730Y-16266674D02*
X9855777Y-16257150D01*
X9855777Y-16257150D02*
X9893873Y-16257150D01*
X9893873Y-16257150D02*
X9912920Y-16266674D01*
X9912920Y-16266674D02*
X9922444Y-16276198D01*
X9922444Y-16276198D02*
X9931968Y-16295246D01*
X9931968Y-16295246D02*
X9931968Y-16352388D01*
X9931968Y-16352388D02*
X9922444Y-16371436D01*
X9922444Y-16371436D02*
X9912920Y-16380960D01*
X9912920Y-16380960D02*
X9893873Y-16390484D01*
X9893873Y-16390484D02*
X9855777Y-16390484D01*
X9855777Y-16390484D02*
X9836730Y-16380960D01*
X10046254Y-16390484D02*
X10027206Y-16380960D01*
X10027206Y-16380960D02*
X10017682Y-16361912D01*
X10017682Y-16361912D02*
X10017682Y-16190484D01*
X10208158Y-16390484D02*
X10208158Y-16285722D01*
X10208158Y-16285722D02*
X10198635Y-16266674D01*
X10198635Y-16266674D02*
X10179587Y-16257150D01*
X10179587Y-16257150D02*
X10141492Y-16257150D01*
X10141492Y-16257150D02*
X10122444Y-16266674D01*
X10208158Y-16380960D02*
X10189111Y-16390484D01*
X10189111Y-16390484D02*
X10141492Y-16390484D01*
X10141492Y-16390484D02*
X10122444Y-16380960D01*
X10122444Y-16380960D02*
X10112920Y-16361912D01*
X10112920Y-16361912D02*
X10112920Y-16342865D01*
X10112920Y-16342865D02*
X10122444Y-16323817D01*
X10122444Y-16323817D02*
X10141492Y-16314293D01*
X10141492Y-16314293D02*
X10189111Y-16314293D01*
X10189111Y-16314293D02*
X10208158Y-16304769D01*
X10274825Y-16257150D02*
X10351015Y-16257150D01*
X10303396Y-16190484D02*
X10303396Y-16361912D01*
X10303396Y-16361912D02*
X10312920Y-16380960D01*
X10312920Y-16380960D02*
X10331968Y-16390484D01*
X10331968Y-16390484D02*
X10351015Y-16390484D01*
X10493873Y-16380960D02*
X10474825Y-16390484D01*
X10474825Y-16390484D02*
X10436730Y-16390484D01*
X10436730Y-16390484D02*
X10417682Y-16380960D01*
X10417682Y-16380960D02*
X10408158Y-16361912D01*
X10408158Y-16361912D02*
X10408158Y-16285722D01*
X10408158Y-16285722D02*
X10417682Y-16266674D01*
X10417682Y-16266674D02*
X10436730Y-16257150D01*
X10436730Y-16257150D02*
X10474825Y-16257150D01*
X10474825Y-16257150D02*
X10493873Y-16266674D01*
X10493873Y-16266674D02*
X10503396Y-16285722D01*
X10503396Y-16285722D02*
X10503396Y-16304769D01*
X10503396Y-16304769D02*
X10408158Y-16323817D01*
X10674825Y-16390484D02*
X10674825Y-16190484D01*
X10674825Y-16380960D02*
X10655777Y-16390484D01*
X10655777Y-16390484D02*
X10617682Y-16390484D01*
X10617682Y-16390484D02*
X10598635Y-16380960D01*
X10598635Y-16380960D02*
X10589111Y-16371436D01*
X10589111Y-16371436D02*
X10579587Y-16352388D01*
X10579587Y-16352388D02*
X10579587Y-16295246D01*
X10579587Y-16295246D02*
X10589111Y-16276198D01*
X10589111Y-16276198D02*
X10598635Y-16266674D01*
X10598635Y-16266674D02*
X10617682Y-16257150D01*
X10617682Y-16257150D02*
X10655777Y-16257150D01*
X10655777Y-16257150D02*
X10674825Y-16266674D01*
X10751016Y-16466674D02*
X10760539Y-16457150D01*
X10760539Y-16457150D02*
X10779587Y-16428579D01*
X10779587Y-16428579D02*
X10789111Y-16409531D01*
X10789111Y-16409531D02*
X10798635Y-16380960D01*
X10798635Y-16380960D02*
X10808158Y-16333341D01*
X10808158Y-16333341D02*
X10808158Y-16295246D01*
X10808158Y-16295246D02*
X10798635Y-16247627D01*
X10798635Y-16247627D02*
X10789111Y-16219055D01*
X10789111Y-16219055D02*
X10779587Y-16200008D01*
X10779587Y-16200008D02*
X10760539Y-16171436D01*
X10760539Y-16171436D02*
X10751016Y-16161912D01*
M02*
