M48
; DRILL file {KiCad 7.0.10} date Sunday, March 03, 2024 at 10:32:22 AM
; FORMAT={-:-/ absolute / inch / decimal}
; #@! TF.CreationDate,2024-03-03T10:32:22-06:00
; #@! TF.GenerationSoftware,Kicad,Pcbnew,7.0.10
; #@! TF.FileFunction,Plated,1,2,PTH
FMAT,2
INCH
; #@! TA.AperFunction,Plated,PTH,ComponentDrill
T1C0.0295
; #@! TA.AperFunction,Plated,PTH,ComponentDrill
T2C0.0315
; #@! TA.AperFunction,Plated,PTH,ComponentDrill
T3C0.0354
; #@! TA.AperFunction,Plated,PTH,ComponentDrill
T4C0.0394
; #@! TA.AperFunction,Plated,PTH,ComponentDrill
T5C0.0402
; #@! TA.AperFunction,Plated,PTH,ComponentDrill
T6C0.0433
; #@! TA.AperFunction,Plated,PTH,ComponentDrill
T7C0.0472
; #@! TA.AperFunction,Plated,PTH,ComponentDrill
T8C0.0550
%
G90
G05
T1
X1.7717Y-3.3858
X1.7717Y-3.4646
X1.7717Y-3.5433
X1.7717Y-3.622
X1.7717Y-3.878
X1.7717Y-3.9567
X1.7717Y-4.0354
X1.7717Y-4.1142
X1.7717Y-4.3701
X1.7717Y-4.4488
X1.7717Y-4.5276
X1.811Y-4.8622
X1.861Y-4.8122
X1.911Y-4.8622
X2.2244Y-5.5138
X2.3031Y-5.5138
X2.4016Y-4.8622
X2.4516Y-4.8122
X2.5016Y-4.8622
X2.5559Y-2.6181
X2.5559Y-2.9181
X2.6181Y-5.5118
X2.6969Y-5.5118
X2.9921Y-4.8622
X3.0118Y-5.5118
X3.0421Y-4.8122
X3.0906Y-5.5118
X3.0921Y-4.8622
X3.4134Y-5.5118
X3.4921Y-5.5118
X3.5827Y-4.8622
X3.6327Y-4.8122
X3.6827Y-4.8622
X3.7992Y-5.5118
X3.878Y-5.5118
X4.1732Y-4.8622
X4.2232Y-4.8122
X4.2732Y-4.8622
T2
X2.1654Y-3.3449
X2.1654Y-3.4449
X2.1654Y-3.5449
X2.1654Y-3.837
X2.1654Y-3.937
X2.1654Y-4.037
X2.3559Y-2.5559
X2.3559Y-2.9559
X2.6591Y-3.6354
X2.6591Y-3.7949
X2.7559Y-2.6559
X2.7559Y-2.7559
X2.7559Y-2.8559
X3.0559Y-2.6559
X3.0559Y-2.7559
X3.0559Y-2.8559
X3.0591Y-3.6354
X3.0591Y-3.7949
X3.2559Y-2.5559
X3.2559Y-2.9559
X3.5701Y-4.0488
X3.5701Y-4.4488
X3.7701Y-4.0488
X3.7701Y-4.4488
X3.9701Y-4.0488
X3.9701Y-4.4488
X4.1701Y-4.0488
X4.1701Y-4.4488
X4.3701Y-4.0488
X4.3701Y-4.4488
T3
X2.3035Y-1.5209
X2.3437Y-1.6209
X2.3839Y-1.5209
X2.424Y-1.6209
T4
X1.7717Y-2.6512
X1.7717Y-2.7512
X1.7717Y-2.8512
X1.7717Y-2.9512
X1.7717Y-3.0512
T5
X3.65Y-1.25
X3.65Y-1.35
X3.65Y-1.45
X3.65Y-1.55
X3.65Y-1.65
X3.65Y-1.75
X3.65Y-1.85
X3.65Y-1.95
X3.65Y-2.05
X3.65Y-2.15
X3.65Y-2.25
X3.65Y-2.35
X3.65Y-2.45
X3.65Y-2.55
X3.65Y-2.65
X3.65Y-2.75
X3.65Y-2.85
X3.65Y-2.95
X3.65Y-3.05
X3.65Y-3.15
X3.9Y-3.1409
X4.0Y-3.1409
X4.1Y-3.1409
X4.35Y-1.25
X4.35Y-1.35
X4.35Y-1.45
X4.35Y-1.55
X4.35Y-1.65
X4.35Y-1.75
X4.35Y-1.85
X4.35Y-1.95
X4.35Y-2.05
X4.35Y-2.15
X4.35Y-2.25
X4.35Y-2.35
X4.35Y-2.45
X4.35Y-2.55
X4.35Y-2.65
X4.35Y-2.75
X4.35Y-2.85
X4.35Y-2.95
X4.35Y-3.05
X4.35Y-3.15
T6
X1.6669Y-5.1575
X2.0669Y-5.1575
X2.2606Y-5.1575
X2.6606Y-5.1575
X2.8512Y-5.1575
X3.2512Y-5.1575
X3.4386Y-5.1575
X3.8386Y-5.1575
X4.0291Y-5.1575
X4.4291Y-5.1575
T7
X2.5591Y-3.3949
X2.5591Y-4.0354
X3.1591Y-3.3949
X3.1591Y-4.0354
T8
X2.7767Y-1.6685
X2.8752Y-1.767
X3.0719Y-1.6686
X3.2686Y-1.767
X3.3671Y-1.6685
T4
G00X1.636Y-1.6522
M15
G01X1.636Y-1.5656
M16
G05
G00X1.8683Y-1.475
M15
G01X1.7817Y-1.475
M16
G05
G00X1.8762Y-1.723
M15
G01X1.7738Y-1.723
M16
G05
M30
