%TF.GenerationSoftware,KiCad,Pcbnew,7.0.10*%
%TF.CreationDate,2024-03-03T10:32:23-06:00*%
%TF.ProjectId,Zimbelstern,5a696d62-656c-4737-9465-726e2e6b6963,rev?*%
%TF.SameCoordinates,Original*%
%TF.FileFunction,Drillmap*%
%TF.FilePolarity,Positive*%
%FSLAX45Y45*%
G04 Gerber Fmt 4.5, Leading zero omitted, Abs format (unit mm)*
G04 Created by KiCad (PCBNEW 7.0.10) date 2024-03-03 10:32:23*
%MOMM*%
%LPD*%
G01*
G04 APERTURE LIST*
%ADD10C,0.100000*%
%ADD11C,0.200000*%
%ADD12C,0.102000*%
%ADD13C,0.110000*%
%ADD14C,0.120000*%
%ADD15C,0.139700*%
G04 APERTURE END LIST*
D10*
X11500000Y-14500000D02*
X4000000Y-14500000D01*
X4000000Y-3000000D01*
X11500000Y-3000000D01*
X11500000Y-14500000D01*
D11*
D10*
X4462500Y-8562500D02*
X4537500Y-8637500D01*
X4537500Y-8562500D02*
X4462500Y-8637500D01*
X4462500Y-8762500D02*
X4537500Y-8837500D01*
X4537500Y-8762500D02*
X4462500Y-8837500D01*
X4462500Y-8962500D02*
X4537500Y-9037500D01*
X4537500Y-8962500D02*
X4462500Y-9037500D01*
X4462500Y-9162500D02*
X4537500Y-9237500D01*
X4537500Y-9162500D02*
X4462500Y-9237500D01*
X4462500Y-9812500D02*
X4537500Y-9887500D01*
X4537500Y-9812500D02*
X4462500Y-9887500D01*
X4462500Y-10012500D02*
X4537500Y-10087500D01*
X4537500Y-10012500D02*
X4462500Y-10087500D01*
X4462500Y-10212500D02*
X4537500Y-10287500D01*
X4537500Y-10212500D02*
X4462500Y-10287500D01*
X4462500Y-10412500D02*
X4537500Y-10487500D01*
X4537500Y-10412500D02*
X4462500Y-10487500D01*
X4462500Y-11062500D02*
X4537500Y-11137500D01*
X4537500Y-11062500D02*
X4462500Y-11137500D01*
X4462500Y-11262500D02*
X4537500Y-11337500D01*
X4537500Y-11262500D02*
X4462500Y-11337500D01*
X4462500Y-11462500D02*
X4537500Y-11537500D01*
X4537500Y-11462500D02*
X4462500Y-11537500D01*
X4562500Y-12312500D02*
X4637500Y-12387500D01*
X4637500Y-12312500D02*
X4562500Y-12387500D01*
X4689500Y-12185500D02*
X4764500Y-12260500D01*
X4764500Y-12185500D02*
X4689500Y-12260500D01*
X4816500Y-12312500D02*
X4891500Y-12387500D01*
X4891500Y-12312500D02*
X4816500Y-12387500D01*
X5612500Y-13967500D02*
X5687500Y-14042500D01*
X5687500Y-13967500D02*
X5612500Y-14042500D01*
X5812500Y-13967500D02*
X5887500Y-14042500D01*
X5887500Y-13967500D02*
X5812500Y-14042500D01*
X6062500Y-12312500D02*
X6137500Y-12387500D01*
X6137500Y-12312500D02*
X6062500Y-12387500D01*
X6189500Y-12185500D02*
X6264500Y-12260500D01*
X6264500Y-12185500D02*
X6189500Y-12260500D01*
X6316500Y-12312500D02*
X6391500Y-12387500D01*
X6391500Y-12312500D02*
X6316500Y-12387500D01*
X6454500Y-6612500D02*
X6529500Y-6687500D01*
X6529500Y-6612500D02*
X6454500Y-6687500D01*
X6454500Y-7374500D02*
X6529500Y-7449500D01*
X6529500Y-7374500D02*
X6454500Y-7449500D01*
X6612500Y-13962500D02*
X6687500Y-14037500D01*
X6687500Y-13962500D02*
X6612500Y-14037500D01*
X6812500Y-13962500D02*
X6887500Y-14037500D01*
X6887500Y-13962500D02*
X6812500Y-14037500D01*
X7562500Y-12312500D02*
X7637500Y-12387500D01*
X7637500Y-12312500D02*
X7562500Y-12387500D01*
X7612500Y-13962500D02*
X7687500Y-14037500D01*
X7687500Y-13962500D02*
X7612500Y-14037500D01*
X7689500Y-12185500D02*
X7764500Y-12260500D01*
X7764500Y-12185500D02*
X7689500Y-12260500D01*
X7812500Y-13962500D02*
X7887500Y-14037500D01*
X7887500Y-13962500D02*
X7812500Y-14037500D01*
X7816500Y-12312500D02*
X7891500Y-12387500D01*
X7891500Y-12312500D02*
X7816500Y-12387500D01*
X8632500Y-13962500D02*
X8707500Y-14037500D01*
X8707500Y-13962500D02*
X8632500Y-14037500D01*
X8832500Y-13962500D02*
X8907500Y-14037500D01*
X8907500Y-13962500D02*
X8832500Y-14037500D01*
X9062500Y-12312500D02*
X9137500Y-12387500D01*
X9137500Y-12312500D02*
X9062500Y-12387500D01*
X9189500Y-12185500D02*
X9264500Y-12260500D01*
X9264500Y-12185500D02*
X9189500Y-12260500D01*
X9316500Y-12312500D02*
X9391500Y-12387500D01*
X9391500Y-12312500D02*
X9316500Y-12387500D01*
X9612500Y-13962500D02*
X9687500Y-14037500D01*
X9687500Y-13962500D02*
X9612500Y-14037500D01*
X9812500Y-13962500D02*
X9887500Y-14037500D01*
X9887500Y-13962500D02*
X9812500Y-14037500D01*
X10562500Y-12312500D02*
X10637500Y-12387500D01*
X10637500Y-12312500D02*
X10562500Y-12387500D01*
X10689500Y-12185500D02*
X10764500Y-12260500D01*
X10764500Y-12185500D02*
X10689500Y-12260500D01*
X10816500Y-12312500D02*
X10891500Y-12387500D01*
X10891500Y-12312500D02*
X10816500Y-12387500D01*
X5540000Y-8496000D02*
G75*
G03*
X5460000Y-8496000I-40000J0D01*
G01*
X5460000Y-8496000D02*
G75*
G03*
X5540000Y-8496000I40000J0D01*
G01*
X5540000Y-8750000D02*
G75*
G03*
X5460000Y-8750000I-40000J0D01*
G01*
X5460000Y-8750000D02*
G75*
G03*
X5540000Y-8750000I40000J0D01*
G01*
X5540000Y-9004000D02*
G75*
G03*
X5460000Y-9004000I-40000J0D01*
G01*
X5460000Y-9004000D02*
G75*
G03*
X5540000Y-9004000I40000J0D01*
G01*
X5540000Y-9746000D02*
G75*
G03*
X5460000Y-9746000I-40000J0D01*
G01*
X5460000Y-9746000D02*
G75*
G03*
X5540000Y-9746000I40000J0D01*
G01*
X5540000Y-10000000D02*
G75*
G03*
X5460000Y-10000000I-40000J0D01*
G01*
X5460000Y-10000000D02*
G75*
G03*
X5540000Y-10000000I40000J0D01*
G01*
X5540000Y-10254000D02*
G75*
G03*
X5460000Y-10254000I-40000J0D01*
G01*
X5460000Y-10254000D02*
G75*
G03*
X5540000Y-10254000I40000J0D01*
G01*
X6024000Y-6492000D02*
G75*
G03*
X5944000Y-6492000I-40000J0D01*
G01*
X5944000Y-6492000D02*
G75*
G03*
X6024000Y-6492000I40000J0D01*
G01*
X6024000Y-7508000D02*
G75*
G03*
X5944000Y-7508000I-40000J0D01*
G01*
X5944000Y-7508000D02*
G75*
G03*
X6024000Y-7508000I40000J0D01*
G01*
X6794000Y-9234000D02*
G75*
G03*
X6714000Y-9234000I-40000J0D01*
G01*
X6714000Y-9234000D02*
G75*
G03*
X6794000Y-9234000I40000J0D01*
G01*
X6794000Y-9639000D02*
G75*
G03*
X6714000Y-9639000I-40000J0D01*
G01*
X6714000Y-9639000D02*
G75*
G03*
X6794000Y-9639000I40000J0D01*
G01*
X7040000Y-6746000D02*
G75*
G03*
X6960000Y-6746000I-40000J0D01*
G01*
X6960000Y-6746000D02*
G75*
G03*
X7040000Y-6746000I40000J0D01*
G01*
X7040000Y-7000000D02*
G75*
G03*
X6960000Y-7000000I-40000J0D01*
G01*
X6960000Y-7000000D02*
G75*
G03*
X7040000Y-7000000I40000J0D01*
G01*
X7040000Y-7254000D02*
G75*
G03*
X6960000Y-7254000I-40000J0D01*
G01*
X6960000Y-7254000D02*
G75*
G03*
X7040000Y-7254000I40000J0D01*
G01*
X7802000Y-6746000D02*
G75*
G03*
X7722000Y-6746000I-40000J0D01*
G01*
X7722000Y-6746000D02*
G75*
G03*
X7802000Y-6746000I40000J0D01*
G01*
X7802000Y-7000000D02*
G75*
G03*
X7722000Y-7000000I-40000J0D01*
G01*
X7722000Y-7000000D02*
G75*
G03*
X7802000Y-7000000I40000J0D01*
G01*
X7802000Y-7254000D02*
G75*
G03*
X7722000Y-7254000I-40000J0D01*
G01*
X7722000Y-7254000D02*
G75*
G03*
X7802000Y-7254000I40000J0D01*
G01*
X7810000Y-9234000D02*
G75*
G03*
X7730000Y-9234000I-40000J0D01*
G01*
X7730000Y-9234000D02*
G75*
G03*
X7810000Y-9234000I40000J0D01*
G01*
X7810000Y-9639000D02*
G75*
G03*
X7730000Y-9639000I-40000J0D01*
G01*
X7730000Y-9639000D02*
G75*
G03*
X7810000Y-9639000I40000J0D01*
G01*
X8310000Y-6492000D02*
G75*
G03*
X8230000Y-6492000I-40000J0D01*
G01*
X8230000Y-6492000D02*
G75*
G03*
X8310000Y-6492000I40000J0D01*
G01*
X8310000Y-7508000D02*
G75*
G03*
X8230000Y-7508000I-40000J0D01*
G01*
X8230000Y-7508000D02*
G75*
G03*
X8310000Y-7508000I40000J0D01*
G01*
X9108000Y-10284000D02*
G75*
G03*
X9028000Y-10284000I-40000J0D01*
G01*
X9028000Y-10284000D02*
G75*
G03*
X9108000Y-10284000I40000J0D01*
G01*
X9108000Y-11300000D02*
G75*
G03*
X9028000Y-11300000I-40000J0D01*
G01*
X9028000Y-11300000D02*
G75*
G03*
X9108000Y-11300000I40000J0D01*
G01*
X9616000Y-10284000D02*
G75*
G03*
X9536000Y-10284000I-40000J0D01*
G01*
X9536000Y-10284000D02*
G75*
G03*
X9616000Y-10284000I40000J0D01*
G01*
X9616000Y-11300000D02*
G75*
G03*
X9536000Y-11300000I-40000J0D01*
G01*
X9536000Y-11300000D02*
G75*
G03*
X9616000Y-11300000I40000J0D01*
G01*
X10124000Y-10284000D02*
G75*
G03*
X10044000Y-10284000I-40000J0D01*
G01*
X10044000Y-10284000D02*
G75*
G03*
X10124000Y-10284000I40000J0D01*
G01*
X10124000Y-11300000D02*
G75*
G03*
X10044000Y-11300000I-40000J0D01*
G01*
X10044000Y-11300000D02*
G75*
G03*
X10124000Y-11300000I40000J0D01*
G01*
X10632000Y-10284000D02*
G75*
G03*
X10552000Y-10284000I-40000J0D01*
G01*
X10552000Y-10284000D02*
G75*
G03*
X10632000Y-10284000I40000J0D01*
G01*
X10632000Y-11300000D02*
G75*
G03*
X10552000Y-11300000I-40000J0D01*
G01*
X10552000Y-11300000D02*
G75*
G03*
X10632000Y-11300000I40000J0D01*
G01*
X11140000Y-10284000D02*
G75*
G03*
X11060000Y-10284000I-40000J0D01*
G01*
X11060000Y-10284000D02*
G75*
G03*
X11140000Y-10284000I40000J0D01*
G01*
X11140000Y-11300000D02*
G75*
G03*
X11060000Y-11300000I-40000J0D01*
G01*
X11060000Y-11300000D02*
G75*
G03*
X11140000Y-11300000I40000J0D01*
G01*
X5851000Y-3818000D02*
X5851000Y-3908000D01*
X5806000Y-3863000D02*
X5896000Y-3863000D01*
X5953000Y-4072000D02*
X5953000Y-4162000D01*
X5908000Y-4117000D02*
X5998000Y-4117000D01*
X6055000Y-3818000D02*
X6055000Y-3908000D01*
X6010000Y-3863000D02*
X6100000Y-3863000D01*
X6157000Y-4072000D02*
X6157000Y-4162000D01*
X6112000Y-4117000D02*
X6202000Y-4117000D01*
X4190856Y-4121856D02*
X4190856Y-4051144D01*
X4120144Y-4051144D01*
X4120144Y-4121856D01*
X4190856Y-4121856D01*
X4205500Y-4196500D02*
X4205500Y-3976500D01*
X4205500Y-3976500D02*
G75*
G03*
X4105500Y-3976500I-50000J0D01*
G01*
X4105500Y-3976500D02*
X4105500Y-4196500D01*
X4105500Y-4196500D02*
G75*
G03*
X4205500Y-4196500I50000J0D01*
G01*
X4535356Y-6769356D02*
X4535356Y-6698644D01*
X4464644Y-6698644D01*
X4464644Y-6769356D01*
X4535356Y-6769356D01*
X4535356Y-7023356D02*
X4535356Y-6952644D01*
X4464644Y-6952644D01*
X4464644Y-7023356D01*
X4535356Y-7023356D01*
X4535356Y-7277356D02*
X4535356Y-7206644D01*
X4464644Y-7206644D01*
X4464644Y-7277356D01*
X4535356Y-7277356D01*
X4535356Y-7531356D02*
X4535356Y-7460644D01*
X4464644Y-7460644D01*
X4464644Y-7531356D01*
X4535356Y-7531356D01*
X4535356Y-7785356D02*
X4535356Y-7714644D01*
X4464644Y-7714644D01*
X4464644Y-7785356D01*
X4535356Y-7785356D01*
X4670856Y-3781856D02*
X4670856Y-3711144D01*
X4600144Y-3711144D01*
X4600144Y-3781856D01*
X4670856Y-3781856D01*
X4745500Y-3696500D02*
X4525500Y-3696500D01*
X4525500Y-3696500D02*
G75*
G03*
X4525500Y-3796500I0J-50000D01*
G01*
X4525500Y-3796500D02*
X4745500Y-3796500D01*
X4745500Y-3796500D02*
G75*
G03*
X4745500Y-3696500I0J50000D01*
G01*
X4670856Y-4411856D02*
X4670856Y-4341144D01*
X4600144Y-4341144D01*
X4600144Y-4411856D01*
X4670856Y-4411856D01*
X4765500Y-4326500D02*
X4505500Y-4326500D01*
X4505500Y-4326500D02*
G75*
G03*
X4505500Y-4426500I0J-50000D01*
G01*
X4505500Y-4426500D02*
X4765500Y-4426500D01*
X4765500Y-4426500D02*
G75*
G03*
X4765500Y-4326500I0J50000D01*
G01*
D12*
X9271000Y-3226000D02*
X9322000Y-3175000D01*
X9271000Y-3124000D01*
X9220000Y-3175000D01*
X9271000Y-3226000D01*
X9271000Y-3480000D02*
X9322000Y-3429000D01*
X9271000Y-3378000D01*
X9220000Y-3429000D01*
X9271000Y-3480000D01*
X9271000Y-3734000D02*
X9322000Y-3683000D01*
X9271000Y-3632000D01*
X9220000Y-3683000D01*
X9271000Y-3734000D01*
X9271000Y-3988000D02*
X9322000Y-3937000D01*
X9271000Y-3886000D01*
X9220000Y-3937000D01*
X9271000Y-3988000D01*
X9271000Y-4242000D02*
X9322000Y-4191000D01*
X9271000Y-4140000D01*
X9220000Y-4191000D01*
X9271000Y-4242000D01*
X9271000Y-4496000D02*
X9322000Y-4445000D01*
X9271000Y-4394000D01*
X9220000Y-4445000D01*
X9271000Y-4496000D01*
X9271000Y-4750000D02*
X9322000Y-4699000D01*
X9271000Y-4648000D01*
X9220000Y-4699000D01*
X9271000Y-4750000D01*
X9271000Y-5004000D02*
X9322000Y-4953000D01*
X9271000Y-4902000D01*
X9220000Y-4953000D01*
X9271000Y-5004000D01*
X9271000Y-5258000D02*
X9322000Y-5207000D01*
X9271000Y-5156000D01*
X9220000Y-5207000D01*
X9271000Y-5258000D01*
X9271000Y-5512000D02*
X9322000Y-5461000D01*
X9271000Y-5410000D01*
X9220000Y-5461000D01*
X9271000Y-5512000D01*
X9271000Y-5766000D02*
X9322000Y-5715000D01*
X9271000Y-5664000D01*
X9220000Y-5715000D01*
X9271000Y-5766000D01*
X9271000Y-6020000D02*
X9322000Y-5969000D01*
X9271000Y-5918000D01*
X9220000Y-5969000D01*
X9271000Y-6020000D01*
X9271000Y-6274000D02*
X9322000Y-6223000D01*
X9271000Y-6172000D01*
X9220000Y-6223000D01*
X9271000Y-6274000D01*
X9271000Y-6528000D02*
X9322000Y-6477000D01*
X9271000Y-6426000D01*
X9220000Y-6477000D01*
X9271000Y-6528000D01*
X9271000Y-6782000D02*
X9322000Y-6731000D01*
X9271000Y-6680000D01*
X9220000Y-6731000D01*
X9271000Y-6782000D01*
X9271000Y-7036000D02*
X9322000Y-6985000D01*
X9271000Y-6934000D01*
X9220000Y-6985000D01*
X9271000Y-7036000D01*
X9271000Y-7290000D02*
X9322000Y-7239000D01*
X9271000Y-7188000D01*
X9220000Y-7239000D01*
X9271000Y-7290000D01*
X9271000Y-7544000D02*
X9322000Y-7493000D01*
X9271000Y-7442000D01*
X9220000Y-7493000D01*
X9271000Y-7544000D01*
X9271000Y-7798000D02*
X9322000Y-7747000D01*
X9271000Y-7696000D01*
X9220000Y-7747000D01*
X9271000Y-7798000D01*
X9271000Y-8052000D02*
X9322000Y-8001000D01*
X9271000Y-7950000D01*
X9220000Y-8001000D01*
X9271000Y-8052000D01*
X9906000Y-8029000D02*
X9957000Y-7978000D01*
X9906000Y-7927000D01*
X9855000Y-7978000D01*
X9906000Y-8029000D01*
X10160000Y-8029000D02*
X10211000Y-7978000D01*
X10160000Y-7927000D01*
X10109000Y-7978000D01*
X10160000Y-8029000D01*
X10414000Y-8029000D02*
X10465000Y-7978000D01*
X10414000Y-7927000D01*
X10363000Y-7978000D01*
X10414000Y-8029000D01*
X11049000Y-3226000D02*
X11100000Y-3175000D01*
X11049000Y-3124000D01*
X10998000Y-3175000D01*
X11049000Y-3226000D01*
X11049000Y-3480000D02*
X11100000Y-3429000D01*
X11049000Y-3378000D01*
X10998000Y-3429000D01*
X11049000Y-3480000D01*
X11049000Y-3734000D02*
X11100000Y-3683000D01*
X11049000Y-3632000D01*
X10998000Y-3683000D01*
X11049000Y-3734000D01*
X11049000Y-3988000D02*
X11100000Y-3937000D01*
X11049000Y-3886000D01*
X10998000Y-3937000D01*
X11049000Y-3988000D01*
X11049000Y-4242000D02*
X11100000Y-4191000D01*
X11049000Y-4140000D01*
X10998000Y-4191000D01*
X11049000Y-4242000D01*
X11049000Y-4496000D02*
X11100000Y-4445000D01*
X11049000Y-4394000D01*
X10998000Y-4445000D01*
X11049000Y-4496000D01*
X11049000Y-4750000D02*
X11100000Y-4699000D01*
X11049000Y-4648000D01*
X10998000Y-4699000D01*
X11049000Y-4750000D01*
X11049000Y-5004000D02*
X11100000Y-4953000D01*
X11049000Y-4902000D01*
X10998000Y-4953000D01*
X11049000Y-5004000D01*
X11049000Y-5258000D02*
X11100000Y-5207000D01*
X11049000Y-5156000D01*
X10998000Y-5207000D01*
X11049000Y-5258000D01*
X11049000Y-5512000D02*
X11100000Y-5461000D01*
X11049000Y-5410000D01*
X10998000Y-5461000D01*
X11049000Y-5512000D01*
X11049000Y-5766000D02*
X11100000Y-5715000D01*
X11049000Y-5664000D01*
X10998000Y-5715000D01*
X11049000Y-5766000D01*
X11049000Y-6020000D02*
X11100000Y-5969000D01*
X11049000Y-5918000D01*
X10998000Y-5969000D01*
X11049000Y-6020000D01*
X11049000Y-6274000D02*
X11100000Y-6223000D01*
X11049000Y-6172000D01*
X10998000Y-6223000D01*
X11049000Y-6274000D01*
X11049000Y-6528000D02*
X11100000Y-6477000D01*
X11049000Y-6426000D01*
X10998000Y-6477000D01*
X11049000Y-6528000D01*
X11049000Y-6782000D02*
X11100000Y-6731000D01*
X11049000Y-6680000D01*
X10998000Y-6731000D01*
X11049000Y-6782000D01*
X11049000Y-7036000D02*
X11100000Y-6985000D01*
X11049000Y-6934000D01*
X10998000Y-6985000D01*
X11049000Y-7036000D01*
X11049000Y-7290000D02*
X11100000Y-7239000D01*
X11049000Y-7188000D01*
X10998000Y-7239000D01*
X11049000Y-7290000D01*
X11049000Y-7544000D02*
X11100000Y-7493000D01*
X11049000Y-7442000D01*
X10998000Y-7493000D01*
X11049000Y-7544000D01*
X11049000Y-7798000D02*
X11100000Y-7747000D01*
X11049000Y-7696000D01*
X10998000Y-7747000D01*
X11049000Y-7798000D01*
X11049000Y-8052000D02*
X11100000Y-8001000D01*
X11049000Y-7950000D01*
X10998000Y-8001000D01*
X11049000Y-8052000D01*
D13*
X4179000Y-13045000D02*
X4289000Y-13155000D01*
X4289000Y-13045000D02*
X4179000Y-13155000D01*
X4289000Y-13100000D02*
G75*
G03*
X4179000Y-13100000I-55000J0D01*
G01*
X4179000Y-13100000D02*
G75*
G03*
X4289000Y-13100000I55000J0D01*
G01*
X5195000Y-13045000D02*
X5305000Y-13155000D01*
X5305000Y-13045000D02*
X5195000Y-13155000D01*
X5305000Y-13100000D02*
G75*
G03*
X5195000Y-13100000I-55000J0D01*
G01*
X5195000Y-13100000D02*
G75*
G03*
X5305000Y-13100000I55000J0D01*
G01*
X5687000Y-13045000D02*
X5797000Y-13155000D01*
X5797000Y-13045000D02*
X5687000Y-13155000D01*
X5797000Y-13100000D02*
G75*
G03*
X5687000Y-13100000I-55000J0D01*
G01*
X5687000Y-13100000D02*
G75*
G03*
X5797000Y-13100000I55000J0D01*
G01*
X6703000Y-13045000D02*
X6813000Y-13155000D01*
X6813000Y-13045000D02*
X6703000Y-13155000D01*
X6813000Y-13100000D02*
G75*
G03*
X6703000Y-13100000I-55000J0D01*
G01*
X6703000Y-13100000D02*
G75*
G03*
X6813000Y-13100000I55000J0D01*
G01*
X7187000Y-13045000D02*
X7297000Y-13155000D01*
X7297000Y-13045000D02*
X7187000Y-13155000D01*
X7297000Y-13100000D02*
G75*
G03*
X7187000Y-13100000I-55000J0D01*
G01*
X7187000Y-13100000D02*
G75*
G03*
X7297000Y-13100000I55000J0D01*
G01*
X8203000Y-13045000D02*
X8313000Y-13155000D01*
X8313000Y-13045000D02*
X8203000Y-13155000D01*
X8313000Y-13100000D02*
G75*
G03*
X8203000Y-13100000I-55000J0D01*
G01*
X8203000Y-13100000D02*
G75*
G03*
X8313000Y-13100000I55000J0D01*
G01*
X8679000Y-13045000D02*
X8789000Y-13155000D01*
X8789000Y-13045000D02*
X8679000Y-13155000D01*
X8789000Y-13100000D02*
G75*
G03*
X8679000Y-13100000I-55000J0D01*
G01*
X8679000Y-13100000D02*
G75*
G03*
X8789000Y-13100000I55000J0D01*
G01*
X9695000Y-13045000D02*
X9805000Y-13155000D01*
X9805000Y-13045000D02*
X9695000Y-13155000D01*
X9805000Y-13100000D02*
G75*
G03*
X9695000Y-13100000I-55000J0D01*
G01*
X9695000Y-13100000D02*
G75*
G03*
X9805000Y-13100000I55000J0D01*
G01*
X10179000Y-13045000D02*
X10289000Y-13155000D01*
X10289000Y-13045000D02*
X10179000Y-13155000D01*
X10289000Y-13100000D02*
G75*
G03*
X10179000Y-13100000I-55000J0D01*
G01*
X10179000Y-13100000D02*
G75*
G03*
X10289000Y-13100000I55000J0D01*
G01*
X11195000Y-13045000D02*
X11305000Y-13155000D01*
X11305000Y-13045000D02*
X11195000Y-13155000D01*
X11305000Y-13100000D02*
G75*
G03*
X11195000Y-13100000I-55000J0D01*
G01*
X11195000Y-13100000D02*
G75*
G03*
X11305000Y-13100000I55000J0D01*
G01*
D14*
X6440000Y-8563000D02*
X6560000Y-8683000D01*
X6560000Y-8563000D02*
X6440000Y-8683000D01*
X6500000Y-8563000D02*
X6500000Y-8683000D01*
X6440000Y-8623000D02*
X6560000Y-8623000D01*
X6440000Y-10190000D02*
X6560000Y-10310000D01*
X6560000Y-10190000D02*
X6440000Y-10310000D01*
X6500000Y-10190000D02*
X6500000Y-10310000D01*
X6440000Y-10250000D02*
X6560000Y-10250000D01*
X7964000Y-8563000D02*
X8084000Y-8683000D01*
X8084000Y-8563000D02*
X7964000Y-8683000D01*
X8024000Y-8563000D02*
X8024000Y-8683000D01*
X7964000Y-8623000D02*
X8084000Y-8623000D01*
X7964000Y-10190000D02*
X8084000Y-10310000D01*
X8084000Y-10190000D02*
X7964000Y-10310000D01*
X8024000Y-10190000D02*
X8024000Y-10310000D01*
X7964000Y-10250000D02*
X8084000Y-10250000D01*
D15*
X6982968Y-4168140D02*
X7122668Y-4307840D01*
X7122668Y-4168140D02*
X6982968Y-4307840D01*
X7102210Y-4287382D02*
X7102210Y-4188598D01*
X7003426Y-4188598D01*
X7003426Y-4287382D01*
X7102210Y-4287382D01*
X7233158Y-4418330D02*
X7372858Y-4558030D01*
X7372858Y-4418330D02*
X7233158Y-4558030D01*
X7352400Y-4537572D02*
X7352400Y-4438788D01*
X7253616Y-4438788D01*
X7253616Y-4537572D01*
X7352400Y-4537572D01*
X7732776Y-4168394D02*
X7872476Y-4308094D01*
X7872476Y-4168394D02*
X7732776Y-4308094D01*
X7852018Y-4287636D02*
X7852018Y-4188852D01*
X7753234Y-4188852D01*
X7753234Y-4287636D01*
X7852018Y-4287636D01*
X8232394Y-4418330D02*
X8372094Y-4558030D01*
X8372094Y-4418330D02*
X8232394Y-4558030D01*
X8351636Y-4537572D02*
X8351636Y-4438788D01*
X8252852Y-4438788D01*
X8252852Y-4537572D01*
X8351636Y-4537572D01*
X8482584Y-4168140D02*
X8622284Y-4307840D01*
X8622284Y-4168140D02*
X8482584Y-4307840D01*
X8601826Y-4287382D02*
X8601826Y-4188598D01*
X8503042Y-4188598D01*
X8503042Y-4287382D01*
X8601826Y-4287382D01*
D11*
X4255777Y-14816484D02*
X4255777Y-14616484D01*
X4255777Y-14616484D02*
X4303396Y-14616484D01*
X4303396Y-14616484D02*
X4331967Y-14626008D01*
X4331967Y-14626008D02*
X4351015Y-14645055D01*
X4351015Y-14645055D02*
X4360539Y-14664103D01*
X4360539Y-14664103D02*
X4370063Y-14702198D01*
X4370063Y-14702198D02*
X4370063Y-14730769D01*
X4370063Y-14730769D02*
X4360539Y-14768865D01*
X4360539Y-14768865D02*
X4351015Y-14787912D01*
X4351015Y-14787912D02*
X4331967Y-14806960D01*
X4331967Y-14806960D02*
X4303396Y-14816484D01*
X4303396Y-14816484D02*
X4255777Y-14816484D01*
X4455777Y-14816484D02*
X4455777Y-14683150D01*
X4455777Y-14721246D02*
X4465301Y-14702198D01*
X4465301Y-14702198D02*
X4474824Y-14692674D01*
X4474824Y-14692674D02*
X4493872Y-14683150D01*
X4493872Y-14683150D02*
X4512920Y-14683150D01*
X4579586Y-14816484D02*
X4579586Y-14683150D01*
X4579586Y-14616484D02*
X4570063Y-14626008D01*
X4570063Y-14626008D02*
X4579586Y-14635531D01*
X4579586Y-14635531D02*
X4589110Y-14626008D01*
X4589110Y-14626008D02*
X4579586Y-14616484D01*
X4579586Y-14616484D02*
X4579586Y-14635531D01*
X4703396Y-14816484D02*
X4684348Y-14806960D01*
X4684348Y-14806960D02*
X4674824Y-14787912D01*
X4674824Y-14787912D02*
X4674824Y-14616484D01*
X4808158Y-14816484D02*
X4789110Y-14806960D01*
X4789110Y-14806960D02*
X4779586Y-14787912D01*
X4779586Y-14787912D02*
X4779586Y-14616484D01*
X5036729Y-14816484D02*
X5036729Y-14616484D01*
X5036729Y-14616484D02*
X5103396Y-14759341D01*
X5103396Y-14759341D02*
X5170063Y-14616484D01*
X5170063Y-14616484D02*
X5170063Y-14816484D01*
X5351015Y-14816484D02*
X5351015Y-14711722D01*
X5351015Y-14711722D02*
X5341491Y-14692674D01*
X5341491Y-14692674D02*
X5322444Y-14683150D01*
X5322444Y-14683150D02*
X5284348Y-14683150D01*
X5284348Y-14683150D02*
X5265301Y-14692674D01*
X5351015Y-14806960D02*
X5331967Y-14816484D01*
X5331967Y-14816484D02*
X5284348Y-14816484D01*
X5284348Y-14816484D02*
X5265301Y-14806960D01*
X5265301Y-14806960D02*
X5255777Y-14787912D01*
X5255777Y-14787912D02*
X5255777Y-14768865D01*
X5255777Y-14768865D02*
X5265301Y-14749817D01*
X5265301Y-14749817D02*
X5284348Y-14740293D01*
X5284348Y-14740293D02*
X5331967Y-14740293D01*
X5331967Y-14740293D02*
X5351015Y-14730769D01*
X5446253Y-14683150D02*
X5446253Y-14883150D01*
X5446253Y-14692674D02*
X5465301Y-14683150D01*
X5465301Y-14683150D02*
X5503396Y-14683150D01*
X5503396Y-14683150D02*
X5522444Y-14692674D01*
X5522444Y-14692674D02*
X5531967Y-14702198D01*
X5531967Y-14702198D02*
X5541491Y-14721246D01*
X5541491Y-14721246D02*
X5541491Y-14778388D01*
X5541491Y-14778388D02*
X5531967Y-14797436D01*
X5531967Y-14797436D02*
X5522444Y-14806960D01*
X5522444Y-14806960D02*
X5503396Y-14816484D01*
X5503396Y-14816484D02*
X5465301Y-14816484D01*
X5465301Y-14816484D02*
X5446253Y-14806960D01*
X5627205Y-14797436D02*
X5636729Y-14806960D01*
X5636729Y-14806960D02*
X5627205Y-14816484D01*
X5627205Y-14816484D02*
X5617682Y-14806960D01*
X5617682Y-14806960D02*
X5627205Y-14797436D01*
X5627205Y-14797436D02*
X5627205Y-14816484D01*
X5627205Y-14692674D02*
X5636729Y-14702198D01*
X5636729Y-14702198D02*
X5627205Y-14711722D01*
X5627205Y-14711722D02*
X5617682Y-14702198D01*
X5617682Y-14702198D02*
X5627205Y-14692674D01*
X5627205Y-14692674D02*
X5627205Y-14711722D01*
D10*
X3920000Y-15107500D02*
X3995000Y-15182500D01*
X3995000Y-15107500D02*
X3920000Y-15182500D01*
D11*
X4293872Y-15036484D02*
X4312920Y-15036484D01*
X4312920Y-15036484D02*
X4331967Y-15046008D01*
X4331967Y-15046008D02*
X4341491Y-15055531D01*
X4341491Y-15055531D02*
X4351015Y-15074579D01*
X4351015Y-15074579D02*
X4360539Y-15112674D01*
X4360539Y-15112674D02*
X4360539Y-15160293D01*
X4360539Y-15160293D02*
X4351015Y-15198388D01*
X4351015Y-15198388D02*
X4341491Y-15217436D01*
X4341491Y-15217436D02*
X4331967Y-15226960D01*
X4331967Y-15226960D02*
X4312920Y-15236484D01*
X4312920Y-15236484D02*
X4293872Y-15236484D01*
X4293872Y-15236484D02*
X4274824Y-15226960D01*
X4274824Y-15226960D02*
X4265301Y-15217436D01*
X4265301Y-15217436D02*
X4255777Y-15198388D01*
X4255777Y-15198388D02*
X4246253Y-15160293D01*
X4246253Y-15160293D02*
X4246253Y-15112674D01*
X4246253Y-15112674D02*
X4255777Y-15074579D01*
X4255777Y-15074579D02*
X4265301Y-15055531D01*
X4265301Y-15055531D02*
X4274824Y-15046008D01*
X4274824Y-15046008D02*
X4293872Y-15036484D01*
X4446253Y-15217436D02*
X4455777Y-15226960D01*
X4455777Y-15226960D02*
X4446253Y-15236484D01*
X4446253Y-15236484D02*
X4436729Y-15226960D01*
X4436729Y-15226960D02*
X4446253Y-15217436D01*
X4446253Y-15217436D02*
X4446253Y-15236484D01*
X4522444Y-15036484D02*
X4655777Y-15036484D01*
X4655777Y-15036484D02*
X4570063Y-15236484D01*
X4827205Y-15036484D02*
X4731967Y-15036484D01*
X4731967Y-15036484D02*
X4722444Y-15131722D01*
X4722444Y-15131722D02*
X4731967Y-15122198D01*
X4731967Y-15122198D02*
X4751015Y-15112674D01*
X4751015Y-15112674D02*
X4798634Y-15112674D01*
X4798634Y-15112674D02*
X4817682Y-15122198D01*
X4817682Y-15122198D02*
X4827205Y-15131722D01*
X4827205Y-15131722D02*
X4836729Y-15150769D01*
X4836729Y-15150769D02*
X4836729Y-15198388D01*
X4836729Y-15198388D02*
X4827205Y-15217436D01*
X4827205Y-15217436D02*
X4817682Y-15226960D01*
X4817682Y-15226960D02*
X4798634Y-15236484D01*
X4798634Y-15236484D02*
X4751015Y-15236484D01*
X4751015Y-15236484D02*
X4731967Y-15226960D01*
X4731967Y-15226960D02*
X4722444Y-15217436D01*
X4960539Y-15036484D02*
X4979586Y-15036484D01*
X4979586Y-15036484D02*
X4998634Y-15046008D01*
X4998634Y-15046008D02*
X5008158Y-15055531D01*
X5008158Y-15055531D02*
X5017682Y-15074579D01*
X5017682Y-15074579D02*
X5027205Y-15112674D01*
X5027205Y-15112674D02*
X5027205Y-15160293D01*
X5027205Y-15160293D02*
X5017682Y-15198388D01*
X5017682Y-15198388D02*
X5008158Y-15217436D01*
X5008158Y-15217436D02*
X4998634Y-15226960D01*
X4998634Y-15226960D02*
X4979586Y-15236484D01*
X4979586Y-15236484D02*
X4960539Y-15236484D01*
X4960539Y-15236484D02*
X4941491Y-15226960D01*
X4941491Y-15226960D02*
X4931967Y-15217436D01*
X4931967Y-15217436D02*
X4922444Y-15198388D01*
X4922444Y-15198388D02*
X4912920Y-15160293D01*
X4912920Y-15160293D02*
X4912920Y-15112674D01*
X4912920Y-15112674D02*
X4922444Y-15074579D01*
X4922444Y-15074579D02*
X4931967Y-15055531D01*
X4931967Y-15055531D02*
X4941491Y-15046008D01*
X4941491Y-15046008D02*
X4960539Y-15036484D01*
X5112920Y-15236484D02*
X5112920Y-15103150D01*
X5112920Y-15122198D02*
X5122444Y-15112674D01*
X5122444Y-15112674D02*
X5141491Y-15103150D01*
X5141491Y-15103150D02*
X5170063Y-15103150D01*
X5170063Y-15103150D02*
X5189110Y-15112674D01*
X5189110Y-15112674D02*
X5198634Y-15131722D01*
X5198634Y-15131722D02*
X5198634Y-15236484D01*
X5198634Y-15131722D02*
X5208158Y-15112674D01*
X5208158Y-15112674D02*
X5227205Y-15103150D01*
X5227205Y-15103150D02*
X5255777Y-15103150D01*
X5255777Y-15103150D02*
X5274825Y-15112674D01*
X5274825Y-15112674D02*
X5284348Y-15131722D01*
X5284348Y-15131722D02*
X5284348Y-15236484D01*
X5379586Y-15236484D02*
X5379586Y-15103150D01*
X5379586Y-15122198D02*
X5389110Y-15112674D01*
X5389110Y-15112674D02*
X5408158Y-15103150D01*
X5408158Y-15103150D02*
X5436729Y-15103150D01*
X5436729Y-15103150D02*
X5455777Y-15112674D01*
X5455777Y-15112674D02*
X5465301Y-15131722D01*
X5465301Y-15131722D02*
X5465301Y-15236484D01*
X5465301Y-15131722D02*
X5474825Y-15112674D01*
X5474825Y-15112674D02*
X5493872Y-15103150D01*
X5493872Y-15103150D02*
X5522444Y-15103150D01*
X5522444Y-15103150D02*
X5541491Y-15112674D01*
X5541491Y-15112674D02*
X5551015Y-15131722D01*
X5551015Y-15131722D02*
X5551015Y-15236484D01*
X5941491Y-15026960D02*
X5770063Y-15284103D01*
X6198634Y-15036484D02*
X6217682Y-15036484D01*
X6217682Y-15036484D02*
X6236729Y-15046008D01*
X6236729Y-15046008D02*
X6246253Y-15055531D01*
X6246253Y-15055531D02*
X6255777Y-15074579D01*
X6255777Y-15074579D02*
X6265301Y-15112674D01*
X6265301Y-15112674D02*
X6265301Y-15160293D01*
X6265301Y-15160293D02*
X6255777Y-15198388D01*
X6255777Y-15198388D02*
X6246253Y-15217436D01*
X6246253Y-15217436D02*
X6236729Y-15226960D01*
X6236729Y-15226960D02*
X6217682Y-15236484D01*
X6217682Y-15236484D02*
X6198634Y-15236484D01*
X6198634Y-15236484D02*
X6179586Y-15226960D01*
X6179586Y-15226960D02*
X6170063Y-15217436D01*
X6170063Y-15217436D02*
X6160539Y-15198388D01*
X6160539Y-15198388D02*
X6151015Y-15160293D01*
X6151015Y-15160293D02*
X6151015Y-15112674D01*
X6151015Y-15112674D02*
X6160539Y-15074579D01*
X6160539Y-15074579D02*
X6170063Y-15055531D01*
X6170063Y-15055531D02*
X6179586Y-15046008D01*
X6179586Y-15046008D02*
X6198634Y-15036484D01*
X6351015Y-15217436D02*
X6360539Y-15226960D01*
X6360539Y-15226960D02*
X6351015Y-15236484D01*
X6351015Y-15236484D02*
X6341491Y-15226960D01*
X6341491Y-15226960D02*
X6351015Y-15217436D01*
X6351015Y-15217436D02*
X6351015Y-15236484D01*
X6484348Y-15036484D02*
X6503396Y-15036484D01*
X6503396Y-15036484D02*
X6522444Y-15046008D01*
X6522444Y-15046008D02*
X6531967Y-15055531D01*
X6531967Y-15055531D02*
X6541491Y-15074579D01*
X6541491Y-15074579D02*
X6551015Y-15112674D01*
X6551015Y-15112674D02*
X6551015Y-15160293D01*
X6551015Y-15160293D02*
X6541491Y-15198388D01*
X6541491Y-15198388D02*
X6531967Y-15217436D01*
X6531967Y-15217436D02*
X6522444Y-15226960D01*
X6522444Y-15226960D02*
X6503396Y-15236484D01*
X6503396Y-15236484D02*
X6484348Y-15236484D01*
X6484348Y-15236484D02*
X6465301Y-15226960D01*
X6465301Y-15226960D02*
X6455777Y-15217436D01*
X6455777Y-15217436D02*
X6446253Y-15198388D01*
X6446253Y-15198388D02*
X6436729Y-15160293D01*
X6436729Y-15160293D02*
X6436729Y-15112674D01*
X6436729Y-15112674D02*
X6446253Y-15074579D01*
X6446253Y-15074579D02*
X6455777Y-15055531D01*
X6455777Y-15055531D02*
X6465301Y-15046008D01*
X6465301Y-15046008D02*
X6484348Y-15036484D01*
X6627206Y-15055531D02*
X6636729Y-15046008D01*
X6636729Y-15046008D02*
X6655777Y-15036484D01*
X6655777Y-15036484D02*
X6703396Y-15036484D01*
X6703396Y-15036484D02*
X6722444Y-15046008D01*
X6722444Y-15046008D02*
X6731967Y-15055531D01*
X6731967Y-15055531D02*
X6741491Y-15074579D01*
X6741491Y-15074579D02*
X6741491Y-15093627D01*
X6741491Y-15093627D02*
X6731967Y-15122198D01*
X6731967Y-15122198D02*
X6617682Y-15236484D01*
X6617682Y-15236484D02*
X6741491Y-15236484D01*
X6836729Y-15236484D02*
X6874825Y-15236484D01*
X6874825Y-15236484D02*
X6893872Y-15226960D01*
X6893872Y-15226960D02*
X6903396Y-15217436D01*
X6903396Y-15217436D02*
X6922444Y-15188865D01*
X6922444Y-15188865D02*
X6931967Y-15150769D01*
X6931967Y-15150769D02*
X6931967Y-15074579D01*
X6931967Y-15074579D02*
X6922444Y-15055531D01*
X6922444Y-15055531D02*
X6912920Y-15046008D01*
X6912920Y-15046008D02*
X6893872Y-15036484D01*
X6893872Y-15036484D02*
X6855777Y-15036484D01*
X6855777Y-15036484D02*
X6836729Y-15046008D01*
X6836729Y-15046008D02*
X6827206Y-15055531D01*
X6827206Y-15055531D02*
X6817682Y-15074579D01*
X6817682Y-15074579D02*
X6817682Y-15122198D01*
X6817682Y-15122198D02*
X6827206Y-15141246D01*
X6827206Y-15141246D02*
X6836729Y-15150769D01*
X6836729Y-15150769D02*
X6855777Y-15160293D01*
X6855777Y-15160293D02*
X6893872Y-15160293D01*
X6893872Y-15160293D02*
X6912920Y-15150769D01*
X6912920Y-15150769D02*
X6922444Y-15141246D01*
X6922444Y-15141246D02*
X6931967Y-15122198D01*
X7112920Y-15036484D02*
X7017682Y-15036484D01*
X7017682Y-15036484D02*
X7008158Y-15131722D01*
X7008158Y-15131722D02*
X7017682Y-15122198D01*
X7017682Y-15122198D02*
X7036729Y-15112674D01*
X7036729Y-15112674D02*
X7084348Y-15112674D01*
X7084348Y-15112674D02*
X7103396Y-15122198D01*
X7103396Y-15122198D02*
X7112920Y-15131722D01*
X7112920Y-15131722D02*
X7122444Y-15150769D01*
X7122444Y-15150769D02*
X7122444Y-15198388D01*
X7122444Y-15198388D02*
X7112920Y-15217436D01*
X7112920Y-15217436D02*
X7103396Y-15226960D01*
X7103396Y-15226960D02*
X7084348Y-15236484D01*
X7084348Y-15236484D02*
X7036729Y-15236484D01*
X7036729Y-15236484D02*
X7017682Y-15226960D01*
X7017682Y-15226960D02*
X7008158Y-15217436D01*
X7198634Y-15036484D02*
X7198634Y-15074579D01*
X7274825Y-15036484D02*
X7274825Y-15074579D01*
X7570063Y-15312674D02*
X7560539Y-15303150D01*
X7560539Y-15303150D02*
X7541491Y-15274579D01*
X7541491Y-15274579D02*
X7531968Y-15255531D01*
X7531968Y-15255531D02*
X7522444Y-15226960D01*
X7522444Y-15226960D02*
X7512920Y-15179341D01*
X7512920Y-15179341D02*
X7512920Y-15141246D01*
X7512920Y-15141246D02*
X7522444Y-15093627D01*
X7522444Y-15093627D02*
X7531968Y-15065055D01*
X7531968Y-15065055D02*
X7541491Y-15046008D01*
X7541491Y-15046008D02*
X7560539Y-15017436D01*
X7560539Y-15017436D02*
X7570063Y-15007912D01*
X7627206Y-15036484D02*
X7751015Y-15036484D01*
X7751015Y-15036484D02*
X7684348Y-15112674D01*
X7684348Y-15112674D02*
X7712920Y-15112674D01*
X7712920Y-15112674D02*
X7731968Y-15122198D01*
X7731968Y-15122198D02*
X7741491Y-15131722D01*
X7741491Y-15131722D02*
X7751015Y-15150769D01*
X7751015Y-15150769D02*
X7751015Y-15198388D01*
X7751015Y-15198388D02*
X7741491Y-15217436D01*
X7741491Y-15217436D02*
X7731968Y-15226960D01*
X7731968Y-15226960D02*
X7712920Y-15236484D01*
X7712920Y-15236484D02*
X7655777Y-15236484D01*
X7655777Y-15236484D02*
X7636729Y-15226960D01*
X7636729Y-15226960D02*
X7627206Y-15217436D01*
X7865301Y-15122198D02*
X7846253Y-15112674D01*
X7846253Y-15112674D02*
X7836729Y-15103150D01*
X7836729Y-15103150D02*
X7827206Y-15084103D01*
X7827206Y-15084103D02*
X7827206Y-15074579D01*
X7827206Y-15074579D02*
X7836729Y-15055531D01*
X7836729Y-15055531D02*
X7846253Y-15046008D01*
X7846253Y-15046008D02*
X7865301Y-15036484D01*
X7865301Y-15036484D02*
X7903396Y-15036484D01*
X7903396Y-15036484D02*
X7922444Y-15046008D01*
X7922444Y-15046008D02*
X7931968Y-15055531D01*
X7931968Y-15055531D02*
X7941491Y-15074579D01*
X7941491Y-15074579D02*
X7941491Y-15084103D01*
X7941491Y-15084103D02*
X7931968Y-15103150D01*
X7931968Y-15103150D02*
X7922444Y-15112674D01*
X7922444Y-15112674D02*
X7903396Y-15122198D01*
X7903396Y-15122198D02*
X7865301Y-15122198D01*
X7865301Y-15122198D02*
X7846253Y-15131722D01*
X7846253Y-15131722D02*
X7836729Y-15141246D01*
X7836729Y-15141246D02*
X7827206Y-15160293D01*
X7827206Y-15160293D02*
X7827206Y-15198388D01*
X7827206Y-15198388D02*
X7836729Y-15217436D01*
X7836729Y-15217436D02*
X7846253Y-15226960D01*
X7846253Y-15226960D02*
X7865301Y-15236484D01*
X7865301Y-15236484D02*
X7903396Y-15236484D01*
X7903396Y-15236484D02*
X7922444Y-15226960D01*
X7922444Y-15226960D02*
X7931968Y-15217436D01*
X7931968Y-15217436D02*
X7941491Y-15198388D01*
X7941491Y-15198388D02*
X7941491Y-15160293D01*
X7941491Y-15160293D02*
X7931968Y-15141246D01*
X7931968Y-15141246D02*
X7922444Y-15131722D01*
X7922444Y-15131722D02*
X7903396Y-15122198D01*
X8179587Y-15236484D02*
X8179587Y-15036484D01*
X8265301Y-15236484D02*
X8265301Y-15131722D01*
X8265301Y-15131722D02*
X8255777Y-15112674D01*
X8255777Y-15112674D02*
X8236730Y-15103150D01*
X8236730Y-15103150D02*
X8208158Y-15103150D01*
X8208158Y-15103150D02*
X8189110Y-15112674D01*
X8189110Y-15112674D02*
X8179587Y-15122198D01*
X8389111Y-15236484D02*
X8370063Y-15226960D01*
X8370063Y-15226960D02*
X8360539Y-15217436D01*
X8360539Y-15217436D02*
X8351015Y-15198388D01*
X8351015Y-15198388D02*
X8351015Y-15141246D01*
X8351015Y-15141246D02*
X8360539Y-15122198D01*
X8360539Y-15122198D02*
X8370063Y-15112674D01*
X8370063Y-15112674D02*
X8389111Y-15103150D01*
X8389111Y-15103150D02*
X8417682Y-15103150D01*
X8417682Y-15103150D02*
X8436730Y-15112674D01*
X8436730Y-15112674D02*
X8446253Y-15122198D01*
X8446253Y-15122198D02*
X8455777Y-15141246D01*
X8455777Y-15141246D02*
X8455777Y-15198388D01*
X8455777Y-15198388D02*
X8446253Y-15217436D01*
X8446253Y-15217436D02*
X8436730Y-15226960D01*
X8436730Y-15226960D02*
X8417682Y-15236484D01*
X8417682Y-15236484D02*
X8389111Y-15236484D01*
X8570063Y-15236484D02*
X8551015Y-15226960D01*
X8551015Y-15226960D02*
X8541492Y-15207912D01*
X8541492Y-15207912D02*
X8541492Y-15036484D01*
X8722444Y-15226960D02*
X8703396Y-15236484D01*
X8703396Y-15236484D02*
X8665301Y-15236484D01*
X8665301Y-15236484D02*
X8646253Y-15226960D01*
X8646253Y-15226960D02*
X8636730Y-15207912D01*
X8636730Y-15207912D02*
X8636730Y-15131722D01*
X8636730Y-15131722D02*
X8646253Y-15112674D01*
X8646253Y-15112674D02*
X8665301Y-15103150D01*
X8665301Y-15103150D02*
X8703396Y-15103150D01*
X8703396Y-15103150D02*
X8722444Y-15112674D01*
X8722444Y-15112674D02*
X8731968Y-15131722D01*
X8731968Y-15131722D02*
X8731968Y-15150769D01*
X8731968Y-15150769D02*
X8636730Y-15169817D01*
X8808158Y-15226960D02*
X8827206Y-15236484D01*
X8827206Y-15236484D02*
X8865301Y-15236484D01*
X8865301Y-15236484D02*
X8884349Y-15226960D01*
X8884349Y-15226960D02*
X8893873Y-15207912D01*
X8893873Y-15207912D02*
X8893873Y-15198388D01*
X8893873Y-15198388D02*
X8884349Y-15179341D01*
X8884349Y-15179341D02*
X8865301Y-15169817D01*
X8865301Y-15169817D02*
X8836730Y-15169817D01*
X8836730Y-15169817D02*
X8817682Y-15160293D01*
X8817682Y-15160293D02*
X8808158Y-15141246D01*
X8808158Y-15141246D02*
X8808158Y-15131722D01*
X8808158Y-15131722D02*
X8817682Y-15112674D01*
X8817682Y-15112674D02*
X8836730Y-15103150D01*
X8836730Y-15103150D02*
X8865301Y-15103150D01*
X8865301Y-15103150D02*
X8884349Y-15112674D01*
X8960539Y-15312674D02*
X8970063Y-15303150D01*
X8970063Y-15303150D02*
X8989111Y-15274579D01*
X8989111Y-15274579D02*
X8998634Y-15255531D01*
X8998634Y-15255531D02*
X9008158Y-15226960D01*
X9008158Y-15226960D02*
X9017682Y-15179341D01*
X9017682Y-15179341D02*
X9017682Y-15141246D01*
X9017682Y-15141246D02*
X9008158Y-15093627D01*
X9008158Y-15093627D02*
X8998634Y-15065055D01*
X8998634Y-15065055D02*
X8989111Y-15046008D01*
X8989111Y-15046008D02*
X8970063Y-15017436D01*
X8970063Y-15017436D02*
X8960539Y-15007912D01*
D10*
X3995000Y-15409000D02*
G75*
G03*
X3915000Y-15409000I-40000J0D01*
G01*
X3915000Y-15409000D02*
G75*
G03*
X3995000Y-15409000I40000J0D01*
G01*
D11*
X4293872Y-15300484D02*
X4312920Y-15300484D01*
X4312920Y-15300484D02*
X4331967Y-15310008D01*
X4331967Y-15310008D02*
X4341491Y-15319531D01*
X4341491Y-15319531D02*
X4351015Y-15338579D01*
X4351015Y-15338579D02*
X4360539Y-15376674D01*
X4360539Y-15376674D02*
X4360539Y-15424293D01*
X4360539Y-15424293D02*
X4351015Y-15462388D01*
X4351015Y-15462388D02*
X4341491Y-15481436D01*
X4341491Y-15481436D02*
X4331967Y-15490960D01*
X4331967Y-15490960D02*
X4312920Y-15500484D01*
X4312920Y-15500484D02*
X4293872Y-15500484D01*
X4293872Y-15500484D02*
X4274824Y-15490960D01*
X4274824Y-15490960D02*
X4265301Y-15481436D01*
X4265301Y-15481436D02*
X4255777Y-15462388D01*
X4255777Y-15462388D02*
X4246253Y-15424293D01*
X4246253Y-15424293D02*
X4246253Y-15376674D01*
X4246253Y-15376674D02*
X4255777Y-15338579D01*
X4255777Y-15338579D02*
X4265301Y-15319531D01*
X4265301Y-15319531D02*
X4274824Y-15310008D01*
X4274824Y-15310008D02*
X4293872Y-15300484D01*
X4446253Y-15481436D02*
X4455777Y-15490960D01*
X4455777Y-15490960D02*
X4446253Y-15500484D01*
X4446253Y-15500484D02*
X4436729Y-15490960D01*
X4436729Y-15490960D02*
X4446253Y-15481436D01*
X4446253Y-15481436D02*
X4446253Y-15500484D01*
X4570063Y-15386198D02*
X4551015Y-15376674D01*
X4551015Y-15376674D02*
X4541491Y-15367150D01*
X4541491Y-15367150D02*
X4531967Y-15348103D01*
X4531967Y-15348103D02*
X4531967Y-15338579D01*
X4531967Y-15338579D02*
X4541491Y-15319531D01*
X4541491Y-15319531D02*
X4551015Y-15310008D01*
X4551015Y-15310008D02*
X4570063Y-15300484D01*
X4570063Y-15300484D02*
X4608158Y-15300484D01*
X4608158Y-15300484D02*
X4627205Y-15310008D01*
X4627205Y-15310008D02*
X4636729Y-15319531D01*
X4636729Y-15319531D02*
X4646253Y-15338579D01*
X4646253Y-15338579D02*
X4646253Y-15348103D01*
X4646253Y-15348103D02*
X4636729Y-15367150D01*
X4636729Y-15367150D02*
X4627205Y-15376674D01*
X4627205Y-15376674D02*
X4608158Y-15386198D01*
X4608158Y-15386198D02*
X4570063Y-15386198D01*
X4570063Y-15386198D02*
X4551015Y-15395722D01*
X4551015Y-15395722D02*
X4541491Y-15405246D01*
X4541491Y-15405246D02*
X4531967Y-15424293D01*
X4531967Y-15424293D02*
X4531967Y-15462388D01*
X4531967Y-15462388D02*
X4541491Y-15481436D01*
X4541491Y-15481436D02*
X4551015Y-15490960D01*
X4551015Y-15490960D02*
X4570063Y-15500484D01*
X4570063Y-15500484D02*
X4608158Y-15500484D01*
X4608158Y-15500484D02*
X4627205Y-15490960D01*
X4627205Y-15490960D02*
X4636729Y-15481436D01*
X4636729Y-15481436D02*
X4646253Y-15462388D01*
X4646253Y-15462388D02*
X4646253Y-15424293D01*
X4646253Y-15424293D02*
X4636729Y-15405246D01*
X4636729Y-15405246D02*
X4627205Y-15395722D01*
X4627205Y-15395722D02*
X4608158Y-15386198D01*
X4770063Y-15300484D02*
X4789110Y-15300484D01*
X4789110Y-15300484D02*
X4808158Y-15310008D01*
X4808158Y-15310008D02*
X4817682Y-15319531D01*
X4817682Y-15319531D02*
X4827205Y-15338579D01*
X4827205Y-15338579D02*
X4836729Y-15376674D01*
X4836729Y-15376674D02*
X4836729Y-15424293D01*
X4836729Y-15424293D02*
X4827205Y-15462388D01*
X4827205Y-15462388D02*
X4817682Y-15481436D01*
X4817682Y-15481436D02*
X4808158Y-15490960D01*
X4808158Y-15490960D02*
X4789110Y-15500484D01*
X4789110Y-15500484D02*
X4770063Y-15500484D01*
X4770063Y-15500484D02*
X4751015Y-15490960D01*
X4751015Y-15490960D02*
X4741491Y-15481436D01*
X4741491Y-15481436D02*
X4731967Y-15462388D01*
X4731967Y-15462388D02*
X4722444Y-15424293D01*
X4722444Y-15424293D02*
X4722444Y-15376674D01*
X4722444Y-15376674D02*
X4731967Y-15338579D01*
X4731967Y-15338579D02*
X4741491Y-15319531D01*
X4741491Y-15319531D02*
X4751015Y-15310008D01*
X4751015Y-15310008D02*
X4770063Y-15300484D01*
X4960539Y-15300484D02*
X4979586Y-15300484D01*
X4979586Y-15300484D02*
X4998634Y-15310008D01*
X4998634Y-15310008D02*
X5008158Y-15319531D01*
X5008158Y-15319531D02*
X5017682Y-15338579D01*
X5017682Y-15338579D02*
X5027205Y-15376674D01*
X5027205Y-15376674D02*
X5027205Y-15424293D01*
X5027205Y-15424293D02*
X5017682Y-15462388D01*
X5017682Y-15462388D02*
X5008158Y-15481436D01*
X5008158Y-15481436D02*
X4998634Y-15490960D01*
X4998634Y-15490960D02*
X4979586Y-15500484D01*
X4979586Y-15500484D02*
X4960539Y-15500484D01*
X4960539Y-15500484D02*
X4941491Y-15490960D01*
X4941491Y-15490960D02*
X4931967Y-15481436D01*
X4931967Y-15481436D02*
X4922444Y-15462388D01*
X4922444Y-15462388D02*
X4912920Y-15424293D01*
X4912920Y-15424293D02*
X4912920Y-15376674D01*
X4912920Y-15376674D02*
X4922444Y-15338579D01*
X4922444Y-15338579D02*
X4931967Y-15319531D01*
X4931967Y-15319531D02*
X4941491Y-15310008D01*
X4941491Y-15310008D02*
X4960539Y-15300484D01*
X5112920Y-15500484D02*
X5112920Y-15367150D01*
X5112920Y-15386198D02*
X5122444Y-15376674D01*
X5122444Y-15376674D02*
X5141491Y-15367150D01*
X5141491Y-15367150D02*
X5170063Y-15367150D01*
X5170063Y-15367150D02*
X5189110Y-15376674D01*
X5189110Y-15376674D02*
X5198634Y-15395722D01*
X5198634Y-15395722D02*
X5198634Y-15500484D01*
X5198634Y-15395722D02*
X5208158Y-15376674D01*
X5208158Y-15376674D02*
X5227205Y-15367150D01*
X5227205Y-15367150D02*
X5255777Y-15367150D01*
X5255777Y-15367150D02*
X5274825Y-15376674D01*
X5274825Y-15376674D02*
X5284348Y-15395722D01*
X5284348Y-15395722D02*
X5284348Y-15500484D01*
X5379586Y-15500484D02*
X5379586Y-15367150D01*
X5379586Y-15386198D02*
X5389110Y-15376674D01*
X5389110Y-15376674D02*
X5408158Y-15367150D01*
X5408158Y-15367150D02*
X5436729Y-15367150D01*
X5436729Y-15367150D02*
X5455777Y-15376674D01*
X5455777Y-15376674D02*
X5465301Y-15395722D01*
X5465301Y-15395722D02*
X5465301Y-15500484D01*
X5465301Y-15395722D02*
X5474825Y-15376674D01*
X5474825Y-15376674D02*
X5493872Y-15367150D01*
X5493872Y-15367150D02*
X5522444Y-15367150D01*
X5522444Y-15367150D02*
X5541491Y-15376674D01*
X5541491Y-15376674D02*
X5551015Y-15395722D01*
X5551015Y-15395722D02*
X5551015Y-15500484D01*
X5941491Y-15290960D02*
X5770063Y-15548103D01*
X6198634Y-15300484D02*
X6217682Y-15300484D01*
X6217682Y-15300484D02*
X6236729Y-15310008D01*
X6236729Y-15310008D02*
X6246253Y-15319531D01*
X6246253Y-15319531D02*
X6255777Y-15338579D01*
X6255777Y-15338579D02*
X6265301Y-15376674D01*
X6265301Y-15376674D02*
X6265301Y-15424293D01*
X6265301Y-15424293D02*
X6255777Y-15462388D01*
X6255777Y-15462388D02*
X6246253Y-15481436D01*
X6246253Y-15481436D02*
X6236729Y-15490960D01*
X6236729Y-15490960D02*
X6217682Y-15500484D01*
X6217682Y-15500484D02*
X6198634Y-15500484D01*
X6198634Y-15500484D02*
X6179586Y-15490960D01*
X6179586Y-15490960D02*
X6170063Y-15481436D01*
X6170063Y-15481436D02*
X6160539Y-15462388D01*
X6160539Y-15462388D02*
X6151015Y-15424293D01*
X6151015Y-15424293D02*
X6151015Y-15376674D01*
X6151015Y-15376674D02*
X6160539Y-15338579D01*
X6160539Y-15338579D02*
X6170063Y-15319531D01*
X6170063Y-15319531D02*
X6179586Y-15310008D01*
X6179586Y-15310008D02*
X6198634Y-15300484D01*
X6351015Y-15481436D02*
X6360539Y-15490960D01*
X6360539Y-15490960D02*
X6351015Y-15500484D01*
X6351015Y-15500484D02*
X6341491Y-15490960D01*
X6341491Y-15490960D02*
X6351015Y-15481436D01*
X6351015Y-15481436D02*
X6351015Y-15500484D01*
X6484348Y-15300484D02*
X6503396Y-15300484D01*
X6503396Y-15300484D02*
X6522444Y-15310008D01*
X6522444Y-15310008D02*
X6531967Y-15319531D01*
X6531967Y-15319531D02*
X6541491Y-15338579D01*
X6541491Y-15338579D02*
X6551015Y-15376674D01*
X6551015Y-15376674D02*
X6551015Y-15424293D01*
X6551015Y-15424293D02*
X6541491Y-15462388D01*
X6541491Y-15462388D02*
X6531967Y-15481436D01*
X6531967Y-15481436D02*
X6522444Y-15490960D01*
X6522444Y-15490960D02*
X6503396Y-15500484D01*
X6503396Y-15500484D02*
X6484348Y-15500484D01*
X6484348Y-15500484D02*
X6465301Y-15490960D01*
X6465301Y-15490960D02*
X6455777Y-15481436D01*
X6455777Y-15481436D02*
X6446253Y-15462388D01*
X6446253Y-15462388D02*
X6436729Y-15424293D01*
X6436729Y-15424293D02*
X6436729Y-15376674D01*
X6436729Y-15376674D02*
X6446253Y-15338579D01*
X6446253Y-15338579D02*
X6455777Y-15319531D01*
X6455777Y-15319531D02*
X6465301Y-15310008D01*
X6465301Y-15310008D02*
X6484348Y-15300484D01*
X6617682Y-15300484D02*
X6741491Y-15300484D01*
X6741491Y-15300484D02*
X6674825Y-15376674D01*
X6674825Y-15376674D02*
X6703396Y-15376674D01*
X6703396Y-15376674D02*
X6722444Y-15386198D01*
X6722444Y-15386198D02*
X6731967Y-15395722D01*
X6731967Y-15395722D02*
X6741491Y-15414769D01*
X6741491Y-15414769D02*
X6741491Y-15462388D01*
X6741491Y-15462388D02*
X6731967Y-15481436D01*
X6731967Y-15481436D02*
X6722444Y-15490960D01*
X6722444Y-15490960D02*
X6703396Y-15500484D01*
X6703396Y-15500484D02*
X6646253Y-15500484D01*
X6646253Y-15500484D02*
X6627206Y-15490960D01*
X6627206Y-15490960D02*
X6617682Y-15481436D01*
X6931967Y-15500484D02*
X6817682Y-15500484D01*
X6874825Y-15500484D02*
X6874825Y-15300484D01*
X6874825Y-15300484D02*
X6855777Y-15329055D01*
X6855777Y-15329055D02*
X6836729Y-15348103D01*
X6836729Y-15348103D02*
X6817682Y-15357627D01*
X7112920Y-15300484D02*
X7017682Y-15300484D01*
X7017682Y-15300484D02*
X7008158Y-15395722D01*
X7008158Y-15395722D02*
X7017682Y-15386198D01*
X7017682Y-15386198D02*
X7036729Y-15376674D01*
X7036729Y-15376674D02*
X7084348Y-15376674D01*
X7084348Y-15376674D02*
X7103396Y-15386198D01*
X7103396Y-15386198D02*
X7112920Y-15395722D01*
X7112920Y-15395722D02*
X7122444Y-15414769D01*
X7122444Y-15414769D02*
X7122444Y-15462388D01*
X7122444Y-15462388D02*
X7112920Y-15481436D01*
X7112920Y-15481436D02*
X7103396Y-15490960D01*
X7103396Y-15490960D02*
X7084348Y-15500484D01*
X7084348Y-15500484D02*
X7036729Y-15500484D01*
X7036729Y-15500484D02*
X7017682Y-15490960D01*
X7017682Y-15490960D02*
X7008158Y-15481436D01*
X7198634Y-15300484D02*
X7198634Y-15338579D01*
X7274825Y-15300484D02*
X7274825Y-15338579D01*
X7570063Y-15576674D02*
X7560539Y-15567150D01*
X7560539Y-15567150D02*
X7541491Y-15538579D01*
X7541491Y-15538579D02*
X7531968Y-15519531D01*
X7531968Y-15519531D02*
X7522444Y-15490960D01*
X7522444Y-15490960D02*
X7512920Y-15443341D01*
X7512920Y-15443341D02*
X7512920Y-15405246D01*
X7512920Y-15405246D02*
X7522444Y-15357627D01*
X7522444Y-15357627D02*
X7531968Y-15329055D01*
X7531968Y-15329055D02*
X7541491Y-15310008D01*
X7541491Y-15310008D02*
X7560539Y-15281436D01*
X7560539Y-15281436D02*
X7570063Y-15271912D01*
X7627206Y-15300484D02*
X7751015Y-15300484D01*
X7751015Y-15300484D02*
X7684348Y-15376674D01*
X7684348Y-15376674D02*
X7712920Y-15376674D01*
X7712920Y-15376674D02*
X7731968Y-15386198D01*
X7731968Y-15386198D02*
X7741491Y-15395722D01*
X7741491Y-15395722D02*
X7751015Y-15414769D01*
X7751015Y-15414769D02*
X7751015Y-15462388D01*
X7751015Y-15462388D02*
X7741491Y-15481436D01*
X7741491Y-15481436D02*
X7731968Y-15490960D01*
X7731968Y-15490960D02*
X7712920Y-15500484D01*
X7712920Y-15500484D02*
X7655777Y-15500484D01*
X7655777Y-15500484D02*
X7636729Y-15490960D01*
X7636729Y-15490960D02*
X7627206Y-15481436D01*
X7874825Y-15300484D02*
X7893872Y-15300484D01*
X7893872Y-15300484D02*
X7912920Y-15310008D01*
X7912920Y-15310008D02*
X7922444Y-15319531D01*
X7922444Y-15319531D02*
X7931968Y-15338579D01*
X7931968Y-15338579D02*
X7941491Y-15376674D01*
X7941491Y-15376674D02*
X7941491Y-15424293D01*
X7941491Y-15424293D02*
X7931968Y-15462388D01*
X7931968Y-15462388D02*
X7922444Y-15481436D01*
X7922444Y-15481436D02*
X7912920Y-15490960D01*
X7912920Y-15490960D02*
X7893872Y-15500484D01*
X7893872Y-15500484D02*
X7874825Y-15500484D01*
X7874825Y-15500484D02*
X7855777Y-15490960D01*
X7855777Y-15490960D02*
X7846253Y-15481436D01*
X7846253Y-15481436D02*
X7836729Y-15462388D01*
X7836729Y-15462388D02*
X7827206Y-15424293D01*
X7827206Y-15424293D02*
X7827206Y-15376674D01*
X7827206Y-15376674D02*
X7836729Y-15338579D01*
X7836729Y-15338579D02*
X7846253Y-15319531D01*
X7846253Y-15319531D02*
X7855777Y-15310008D01*
X7855777Y-15310008D02*
X7874825Y-15300484D01*
X8179587Y-15500484D02*
X8179587Y-15300484D01*
X8265301Y-15500484D02*
X8265301Y-15395722D01*
X8265301Y-15395722D02*
X8255777Y-15376674D01*
X8255777Y-15376674D02*
X8236730Y-15367150D01*
X8236730Y-15367150D02*
X8208158Y-15367150D01*
X8208158Y-15367150D02*
X8189110Y-15376674D01*
X8189110Y-15376674D02*
X8179587Y-15386198D01*
X8389111Y-15500484D02*
X8370063Y-15490960D01*
X8370063Y-15490960D02*
X8360539Y-15481436D01*
X8360539Y-15481436D02*
X8351015Y-15462388D01*
X8351015Y-15462388D02*
X8351015Y-15405246D01*
X8351015Y-15405246D02*
X8360539Y-15386198D01*
X8360539Y-15386198D02*
X8370063Y-15376674D01*
X8370063Y-15376674D02*
X8389111Y-15367150D01*
X8389111Y-15367150D02*
X8417682Y-15367150D01*
X8417682Y-15367150D02*
X8436730Y-15376674D01*
X8436730Y-15376674D02*
X8446253Y-15386198D01*
X8446253Y-15386198D02*
X8455777Y-15405246D01*
X8455777Y-15405246D02*
X8455777Y-15462388D01*
X8455777Y-15462388D02*
X8446253Y-15481436D01*
X8446253Y-15481436D02*
X8436730Y-15490960D01*
X8436730Y-15490960D02*
X8417682Y-15500484D01*
X8417682Y-15500484D02*
X8389111Y-15500484D01*
X8570063Y-15500484D02*
X8551015Y-15490960D01*
X8551015Y-15490960D02*
X8541492Y-15471912D01*
X8541492Y-15471912D02*
X8541492Y-15300484D01*
X8722444Y-15490960D02*
X8703396Y-15500484D01*
X8703396Y-15500484D02*
X8665301Y-15500484D01*
X8665301Y-15500484D02*
X8646253Y-15490960D01*
X8646253Y-15490960D02*
X8636730Y-15471912D01*
X8636730Y-15471912D02*
X8636730Y-15395722D01*
X8636730Y-15395722D02*
X8646253Y-15376674D01*
X8646253Y-15376674D02*
X8665301Y-15367150D01*
X8665301Y-15367150D02*
X8703396Y-15367150D01*
X8703396Y-15367150D02*
X8722444Y-15376674D01*
X8722444Y-15376674D02*
X8731968Y-15395722D01*
X8731968Y-15395722D02*
X8731968Y-15414769D01*
X8731968Y-15414769D02*
X8636730Y-15433817D01*
X8808158Y-15490960D02*
X8827206Y-15500484D01*
X8827206Y-15500484D02*
X8865301Y-15500484D01*
X8865301Y-15500484D02*
X8884349Y-15490960D01*
X8884349Y-15490960D02*
X8893873Y-15471912D01*
X8893873Y-15471912D02*
X8893873Y-15462388D01*
X8893873Y-15462388D02*
X8884349Y-15443341D01*
X8884349Y-15443341D02*
X8865301Y-15433817D01*
X8865301Y-15433817D02*
X8836730Y-15433817D01*
X8836730Y-15433817D02*
X8817682Y-15424293D01*
X8817682Y-15424293D02*
X8808158Y-15405246D01*
X8808158Y-15405246D02*
X8808158Y-15395722D01*
X8808158Y-15395722D02*
X8817682Y-15376674D01*
X8817682Y-15376674D02*
X8836730Y-15367150D01*
X8836730Y-15367150D02*
X8865301Y-15367150D01*
X8865301Y-15367150D02*
X8884349Y-15376674D01*
X8960539Y-15576674D02*
X8970063Y-15567150D01*
X8970063Y-15567150D02*
X8989111Y-15538579D01*
X8989111Y-15538579D02*
X8998634Y-15519531D01*
X8998634Y-15519531D02*
X9008158Y-15490960D01*
X9008158Y-15490960D02*
X9017682Y-15443341D01*
X9017682Y-15443341D02*
X9017682Y-15405246D01*
X9017682Y-15405246D02*
X9008158Y-15357627D01*
X9008158Y-15357627D02*
X8998634Y-15329055D01*
X8998634Y-15329055D02*
X8989111Y-15310008D01*
X8989111Y-15310008D02*
X8970063Y-15281436D01*
X8970063Y-15281436D02*
X8960539Y-15271912D01*
D10*
X3950000Y-15628000D02*
X3950000Y-15718000D01*
X3905000Y-15673000D02*
X3995000Y-15673000D01*
D11*
X4293872Y-15564484D02*
X4312920Y-15564484D01*
X4312920Y-15564484D02*
X4331967Y-15574008D01*
X4331967Y-15574008D02*
X4341491Y-15583531D01*
X4341491Y-15583531D02*
X4351015Y-15602579D01*
X4351015Y-15602579D02*
X4360539Y-15640674D01*
X4360539Y-15640674D02*
X4360539Y-15688293D01*
X4360539Y-15688293D02*
X4351015Y-15726388D01*
X4351015Y-15726388D02*
X4341491Y-15745436D01*
X4341491Y-15745436D02*
X4331967Y-15754960D01*
X4331967Y-15754960D02*
X4312920Y-15764484D01*
X4312920Y-15764484D02*
X4293872Y-15764484D01*
X4293872Y-15764484D02*
X4274824Y-15754960D01*
X4274824Y-15754960D02*
X4265301Y-15745436D01*
X4265301Y-15745436D02*
X4255777Y-15726388D01*
X4255777Y-15726388D02*
X4246253Y-15688293D01*
X4246253Y-15688293D02*
X4246253Y-15640674D01*
X4246253Y-15640674D02*
X4255777Y-15602579D01*
X4255777Y-15602579D02*
X4265301Y-15583531D01*
X4265301Y-15583531D02*
X4274824Y-15574008D01*
X4274824Y-15574008D02*
X4293872Y-15564484D01*
X4446253Y-15745436D02*
X4455777Y-15754960D01*
X4455777Y-15754960D02*
X4446253Y-15764484D01*
X4446253Y-15764484D02*
X4436729Y-15754960D01*
X4436729Y-15754960D02*
X4446253Y-15745436D01*
X4446253Y-15745436D02*
X4446253Y-15764484D01*
X4551015Y-15764484D02*
X4589110Y-15764484D01*
X4589110Y-15764484D02*
X4608158Y-15754960D01*
X4608158Y-15754960D02*
X4617682Y-15745436D01*
X4617682Y-15745436D02*
X4636729Y-15716865D01*
X4636729Y-15716865D02*
X4646253Y-15678769D01*
X4646253Y-15678769D02*
X4646253Y-15602579D01*
X4646253Y-15602579D02*
X4636729Y-15583531D01*
X4636729Y-15583531D02*
X4627205Y-15574008D01*
X4627205Y-15574008D02*
X4608158Y-15564484D01*
X4608158Y-15564484D02*
X4570063Y-15564484D01*
X4570063Y-15564484D02*
X4551015Y-15574008D01*
X4551015Y-15574008D02*
X4541491Y-15583531D01*
X4541491Y-15583531D02*
X4531967Y-15602579D01*
X4531967Y-15602579D02*
X4531967Y-15650198D01*
X4531967Y-15650198D02*
X4541491Y-15669246D01*
X4541491Y-15669246D02*
X4551015Y-15678769D01*
X4551015Y-15678769D02*
X4570063Y-15688293D01*
X4570063Y-15688293D02*
X4608158Y-15688293D01*
X4608158Y-15688293D02*
X4627205Y-15678769D01*
X4627205Y-15678769D02*
X4636729Y-15669246D01*
X4636729Y-15669246D02*
X4646253Y-15650198D01*
X4770063Y-15564484D02*
X4789110Y-15564484D01*
X4789110Y-15564484D02*
X4808158Y-15574008D01*
X4808158Y-15574008D02*
X4817682Y-15583531D01*
X4817682Y-15583531D02*
X4827205Y-15602579D01*
X4827205Y-15602579D02*
X4836729Y-15640674D01*
X4836729Y-15640674D02*
X4836729Y-15688293D01*
X4836729Y-15688293D02*
X4827205Y-15726388D01*
X4827205Y-15726388D02*
X4817682Y-15745436D01*
X4817682Y-15745436D02*
X4808158Y-15754960D01*
X4808158Y-15754960D02*
X4789110Y-15764484D01*
X4789110Y-15764484D02*
X4770063Y-15764484D01*
X4770063Y-15764484D02*
X4751015Y-15754960D01*
X4751015Y-15754960D02*
X4741491Y-15745436D01*
X4741491Y-15745436D02*
X4731967Y-15726388D01*
X4731967Y-15726388D02*
X4722444Y-15688293D01*
X4722444Y-15688293D02*
X4722444Y-15640674D01*
X4722444Y-15640674D02*
X4731967Y-15602579D01*
X4731967Y-15602579D02*
X4741491Y-15583531D01*
X4741491Y-15583531D02*
X4751015Y-15574008D01*
X4751015Y-15574008D02*
X4770063Y-15564484D01*
X4960539Y-15564484D02*
X4979586Y-15564484D01*
X4979586Y-15564484D02*
X4998634Y-15574008D01*
X4998634Y-15574008D02*
X5008158Y-15583531D01*
X5008158Y-15583531D02*
X5017682Y-15602579D01*
X5017682Y-15602579D02*
X5027205Y-15640674D01*
X5027205Y-15640674D02*
X5027205Y-15688293D01*
X5027205Y-15688293D02*
X5017682Y-15726388D01*
X5017682Y-15726388D02*
X5008158Y-15745436D01*
X5008158Y-15745436D02*
X4998634Y-15754960D01*
X4998634Y-15754960D02*
X4979586Y-15764484D01*
X4979586Y-15764484D02*
X4960539Y-15764484D01*
X4960539Y-15764484D02*
X4941491Y-15754960D01*
X4941491Y-15754960D02*
X4931967Y-15745436D01*
X4931967Y-15745436D02*
X4922444Y-15726388D01*
X4922444Y-15726388D02*
X4912920Y-15688293D01*
X4912920Y-15688293D02*
X4912920Y-15640674D01*
X4912920Y-15640674D02*
X4922444Y-15602579D01*
X4922444Y-15602579D02*
X4931967Y-15583531D01*
X4931967Y-15583531D02*
X4941491Y-15574008D01*
X4941491Y-15574008D02*
X4960539Y-15564484D01*
X5112920Y-15764484D02*
X5112920Y-15631150D01*
X5112920Y-15650198D02*
X5122444Y-15640674D01*
X5122444Y-15640674D02*
X5141491Y-15631150D01*
X5141491Y-15631150D02*
X5170063Y-15631150D01*
X5170063Y-15631150D02*
X5189110Y-15640674D01*
X5189110Y-15640674D02*
X5198634Y-15659722D01*
X5198634Y-15659722D02*
X5198634Y-15764484D01*
X5198634Y-15659722D02*
X5208158Y-15640674D01*
X5208158Y-15640674D02*
X5227205Y-15631150D01*
X5227205Y-15631150D02*
X5255777Y-15631150D01*
X5255777Y-15631150D02*
X5274825Y-15640674D01*
X5274825Y-15640674D02*
X5284348Y-15659722D01*
X5284348Y-15659722D02*
X5284348Y-15764484D01*
X5379586Y-15764484D02*
X5379586Y-15631150D01*
X5379586Y-15650198D02*
X5389110Y-15640674D01*
X5389110Y-15640674D02*
X5408158Y-15631150D01*
X5408158Y-15631150D02*
X5436729Y-15631150D01*
X5436729Y-15631150D02*
X5455777Y-15640674D01*
X5455777Y-15640674D02*
X5465301Y-15659722D01*
X5465301Y-15659722D02*
X5465301Y-15764484D01*
X5465301Y-15659722D02*
X5474825Y-15640674D01*
X5474825Y-15640674D02*
X5493872Y-15631150D01*
X5493872Y-15631150D02*
X5522444Y-15631150D01*
X5522444Y-15631150D02*
X5541491Y-15640674D01*
X5541491Y-15640674D02*
X5551015Y-15659722D01*
X5551015Y-15659722D02*
X5551015Y-15764484D01*
X5941491Y-15554960D02*
X5770063Y-15812103D01*
X6198634Y-15564484D02*
X6217682Y-15564484D01*
X6217682Y-15564484D02*
X6236729Y-15574008D01*
X6236729Y-15574008D02*
X6246253Y-15583531D01*
X6246253Y-15583531D02*
X6255777Y-15602579D01*
X6255777Y-15602579D02*
X6265301Y-15640674D01*
X6265301Y-15640674D02*
X6265301Y-15688293D01*
X6265301Y-15688293D02*
X6255777Y-15726388D01*
X6255777Y-15726388D02*
X6246253Y-15745436D01*
X6246253Y-15745436D02*
X6236729Y-15754960D01*
X6236729Y-15754960D02*
X6217682Y-15764484D01*
X6217682Y-15764484D02*
X6198634Y-15764484D01*
X6198634Y-15764484D02*
X6179586Y-15754960D01*
X6179586Y-15754960D02*
X6170063Y-15745436D01*
X6170063Y-15745436D02*
X6160539Y-15726388D01*
X6160539Y-15726388D02*
X6151015Y-15688293D01*
X6151015Y-15688293D02*
X6151015Y-15640674D01*
X6151015Y-15640674D02*
X6160539Y-15602579D01*
X6160539Y-15602579D02*
X6170063Y-15583531D01*
X6170063Y-15583531D02*
X6179586Y-15574008D01*
X6179586Y-15574008D02*
X6198634Y-15564484D01*
X6351015Y-15745436D02*
X6360539Y-15754960D01*
X6360539Y-15754960D02*
X6351015Y-15764484D01*
X6351015Y-15764484D02*
X6341491Y-15754960D01*
X6341491Y-15754960D02*
X6351015Y-15745436D01*
X6351015Y-15745436D02*
X6351015Y-15764484D01*
X6484348Y-15564484D02*
X6503396Y-15564484D01*
X6503396Y-15564484D02*
X6522444Y-15574008D01*
X6522444Y-15574008D02*
X6531967Y-15583531D01*
X6531967Y-15583531D02*
X6541491Y-15602579D01*
X6541491Y-15602579D02*
X6551015Y-15640674D01*
X6551015Y-15640674D02*
X6551015Y-15688293D01*
X6551015Y-15688293D02*
X6541491Y-15726388D01*
X6541491Y-15726388D02*
X6531967Y-15745436D01*
X6531967Y-15745436D02*
X6522444Y-15754960D01*
X6522444Y-15754960D02*
X6503396Y-15764484D01*
X6503396Y-15764484D02*
X6484348Y-15764484D01*
X6484348Y-15764484D02*
X6465301Y-15754960D01*
X6465301Y-15754960D02*
X6455777Y-15745436D01*
X6455777Y-15745436D02*
X6446253Y-15726388D01*
X6446253Y-15726388D02*
X6436729Y-15688293D01*
X6436729Y-15688293D02*
X6436729Y-15640674D01*
X6436729Y-15640674D02*
X6446253Y-15602579D01*
X6446253Y-15602579D02*
X6455777Y-15583531D01*
X6455777Y-15583531D02*
X6465301Y-15574008D01*
X6465301Y-15574008D02*
X6484348Y-15564484D01*
X6617682Y-15564484D02*
X6741491Y-15564484D01*
X6741491Y-15564484D02*
X6674825Y-15640674D01*
X6674825Y-15640674D02*
X6703396Y-15640674D01*
X6703396Y-15640674D02*
X6722444Y-15650198D01*
X6722444Y-15650198D02*
X6731967Y-15659722D01*
X6731967Y-15659722D02*
X6741491Y-15678769D01*
X6741491Y-15678769D02*
X6741491Y-15726388D01*
X6741491Y-15726388D02*
X6731967Y-15745436D01*
X6731967Y-15745436D02*
X6722444Y-15754960D01*
X6722444Y-15754960D02*
X6703396Y-15764484D01*
X6703396Y-15764484D02*
X6646253Y-15764484D01*
X6646253Y-15764484D02*
X6627206Y-15754960D01*
X6627206Y-15754960D02*
X6617682Y-15745436D01*
X6922444Y-15564484D02*
X6827206Y-15564484D01*
X6827206Y-15564484D02*
X6817682Y-15659722D01*
X6817682Y-15659722D02*
X6827206Y-15650198D01*
X6827206Y-15650198D02*
X6846253Y-15640674D01*
X6846253Y-15640674D02*
X6893872Y-15640674D01*
X6893872Y-15640674D02*
X6912920Y-15650198D01*
X6912920Y-15650198D02*
X6922444Y-15659722D01*
X6922444Y-15659722D02*
X6931967Y-15678769D01*
X6931967Y-15678769D02*
X6931967Y-15726388D01*
X6931967Y-15726388D02*
X6922444Y-15745436D01*
X6922444Y-15745436D02*
X6912920Y-15754960D01*
X6912920Y-15754960D02*
X6893872Y-15764484D01*
X6893872Y-15764484D02*
X6846253Y-15764484D01*
X6846253Y-15764484D02*
X6827206Y-15754960D01*
X6827206Y-15754960D02*
X6817682Y-15745436D01*
X7103396Y-15631150D02*
X7103396Y-15764484D01*
X7055777Y-15554960D02*
X7008158Y-15697817D01*
X7008158Y-15697817D02*
X7131967Y-15697817D01*
X7198634Y-15564484D02*
X7198634Y-15602579D01*
X7274825Y-15564484D02*
X7274825Y-15602579D01*
X7570063Y-15840674D02*
X7560539Y-15831150D01*
X7560539Y-15831150D02*
X7541491Y-15802579D01*
X7541491Y-15802579D02*
X7531968Y-15783531D01*
X7531968Y-15783531D02*
X7522444Y-15754960D01*
X7522444Y-15754960D02*
X7512920Y-15707341D01*
X7512920Y-15707341D02*
X7512920Y-15669246D01*
X7512920Y-15669246D02*
X7522444Y-15621627D01*
X7522444Y-15621627D02*
X7531968Y-15593055D01*
X7531968Y-15593055D02*
X7541491Y-15574008D01*
X7541491Y-15574008D02*
X7560539Y-15545436D01*
X7560539Y-15545436D02*
X7570063Y-15535912D01*
X7731968Y-15631150D02*
X7731968Y-15764484D01*
X7684348Y-15554960D02*
X7636729Y-15697817D01*
X7636729Y-15697817D02*
X7760539Y-15697817D01*
X7989110Y-15764484D02*
X7989110Y-15564484D01*
X8074825Y-15764484D02*
X8074825Y-15659722D01*
X8074825Y-15659722D02*
X8065301Y-15640674D01*
X8065301Y-15640674D02*
X8046253Y-15631150D01*
X8046253Y-15631150D02*
X8017682Y-15631150D01*
X8017682Y-15631150D02*
X7998634Y-15640674D01*
X7998634Y-15640674D02*
X7989110Y-15650198D01*
X8198634Y-15764484D02*
X8179587Y-15754960D01*
X8179587Y-15754960D02*
X8170063Y-15745436D01*
X8170063Y-15745436D02*
X8160539Y-15726388D01*
X8160539Y-15726388D02*
X8160539Y-15669246D01*
X8160539Y-15669246D02*
X8170063Y-15650198D01*
X8170063Y-15650198D02*
X8179587Y-15640674D01*
X8179587Y-15640674D02*
X8198634Y-15631150D01*
X8198634Y-15631150D02*
X8227206Y-15631150D01*
X8227206Y-15631150D02*
X8246253Y-15640674D01*
X8246253Y-15640674D02*
X8255777Y-15650198D01*
X8255777Y-15650198D02*
X8265301Y-15669246D01*
X8265301Y-15669246D02*
X8265301Y-15726388D01*
X8265301Y-15726388D02*
X8255777Y-15745436D01*
X8255777Y-15745436D02*
X8246253Y-15754960D01*
X8246253Y-15754960D02*
X8227206Y-15764484D01*
X8227206Y-15764484D02*
X8198634Y-15764484D01*
X8379587Y-15764484D02*
X8360539Y-15754960D01*
X8360539Y-15754960D02*
X8351015Y-15735912D01*
X8351015Y-15735912D02*
X8351015Y-15564484D01*
X8531968Y-15754960D02*
X8512920Y-15764484D01*
X8512920Y-15764484D02*
X8474825Y-15764484D01*
X8474825Y-15764484D02*
X8455777Y-15754960D01*
X8455777Y-15754960D02*
X8446253Y-15735912D01*
X8446253Y-15735912D02*
X8446253Y-15659722D01*
X8446253Y-15659722D02*
X8455777Y-15640674D01*
X8455777Y-15640674D02*
X8474825Y-15631150D01*
X8474825Y-15631150D02*
X8512920Y-15631150D01*
X8512920Y-15631150D02*
X8531968Y-15640674D01*
X8531968Y-15640674D02*
X8541492Y-15659722D01*
X8541492Y-15659722D02*
X8541492Y-15678769D01*
X8541492Y-15678769D02*
X8446253Y-15697817D01*
X8617682Y-15754960D02*
X8636730Y-15764484D01*
X8636730Y-15764484D02*
X8674825Y-15764484D01*
X8674825Y-15764484D02*
X8693873Y-15754960D01*
X8693873Y-15754960D02*
X8703396Y-15735912D01*
X8703396Y-15735912D02*
X8703396Y-15726388D01*
X8703396Y-15726388D02*
X8693873Y-15707341D01*
X8693873Y-15707341D02*
X8674825Y-15697817D01*
X8674825Y-15697817D02*
X8646253Y-15697817D01*
X8646253Y-15697817D02*
X8627206Y-15688293D01*
X8627206Y-15688293D02*
X8617682Y-15669246D01*
X8617682Y-15669246D02*
X8617682Y-15659722D01*
X8617682Y-15659722D02*
X8627206Y-15640674D01*
X8627206Y-15640674D02*
X8646253Y-15631150D01*
X8646253Y-15631150D02*
X8674825Y-15631150D01*
X8674825Y-15631150D02*
X8693873Y-15640674D01*
X8770063Y-15840674D02*
X8779587Y-15831150D01*
X8779587Y-15831150D02*
X8798634Y-15802579D01*
X8798634Y-15802579D02*
X8808158Y-15783531D01*
X8808158Y-15783531D02*
X8817682Y-15754960D01*
X8817682Y-15754960D02*
X8827206Y-15707341D01*
X8827206Y-15707341D02*
X8827206Y-15669246D01*
X8827206Y-15669246D02*
X8817682Y-15621627D01*
X8817682Y-15621627D02*
X8808158Y-15593055D01*
X8808158Y-15593055D02*
X8798634Y-15574008D01*
X8798634Y-15574008D02*
X8779587Y-15545436D01*
X8779587Y-15545436D02*
X8770063Y-15535912D01*
D10*
X3980356Y-15972356D02*
X3980356Y-15901644D01*
X3909644Y-15901644D01*
X3909644Y-15972356D01*
X3980356Y-15972356D01*
D11*
X4360539Y-16028484D02*
X4246253Y-16028484D01*
X4303396Y-16028484D02*
X4303396Y-15828484D01*
X4303396Y-15828484D02*
X4284348Y-15857055D01*
X4284348Y-15857055D02*
X4265301Y-15876103D01*
X4265301Y-15876103D02*
X4246253Y-15885627D01*
X4446253Y-16009436D02*
X4455777Y-16018960D01*
X4455777Y-16018960D02*
X4446253Y-16028484D01*
X4446253Y-16028484D02*
X4436729Y-16018960D01*
X4436729Y-16018960D02*
X4446253Y-16009436D01*
X4446253Y-16009436D02*
X4446253Y-16028484D01*
X4579586Y-15828484D02*
X4598634Y-15828484D01*
X4598634Y-15828484D02*
X4617682Y-15838008D01*
X4617682Y-15838008D02*
X4627205Y-15847531D01*
X4627205Y-15847531D02*
X4636729Y-15866579D01*
X4636729Y-15866579D02*
X4646253Y-15904674D01*
X4646253Y-15904674D02*
X4646253Y-15952293D01*
X4646253Y-15952293D02*
X4636729Y-15990388D01*
X4636729Y-15990388D02*
X4627205Y-16009436D01*
X4627205Y-16009436D02*
X4617682Y-16018960D01*
X4617682Y-16018960D02*
X4598634Y-16028484D01*
X4598634Y-16028484D02*
X4579586Y-16028484D01*
X4579586Y-16028484D02*
X4560539Y-16018960D01*
X4560539Y-16018960D02*
X4551015Y-16009436D01*
X4551015Y-16009436D02*
X4541491Y-15990388D01*
X4541491Y-15990388D02*
X4531967Y-15952293D01*
X4531967Y-15952293D02*
X4531967Y-15904674D01*
X4531967Y-15904674D02*
X4541491Y-15866579D01*
X4541491Y-15866579D02*
X4551015Y-15847531D01*
X4551015Y-15847531D02*
X4560539Y-15838008D01*
X4560539Y-15838008D02*
X4579586Y-15828484D01*
X4770063Y-15828484D02*
X4789110Y-15828484D01*
X4789110Y-15828484D02*
X4808158Y-15838008D01*
X4808158Y-15838008D02*
X4817682Y-15847531D01*
X4817682Y-15847531D02*
X4827205Y-15866579D01*
X4827205Y-15866579D02*
X4836729Y-15904674D01*
X4836729Y-15904674D02*
X4836729Y-15952293D01*
X4836729Y-15952293D02*
X4827205Y-15990388D01*
X4827205Y-15990388D02*
X4817682Y-16009436D01*
X4817682Y-16009436D02*
X4808158Y-16018960D01*
X4808158Y-16018960D02*
X4789110Y-16028484D01*
X4789110Y-16028484D02*
X4770063Y-16028484D01*
X4770063Y-16028484D02*
X4751015Y-16018960D01*
X4751015Y-16018960D02*
X4741491Y-16009436D01*
X4741491Y-16009436D02*
X4731967Y-15990388D01*
X4731967Y-15990388D02*
X4722444Y-15952293D01*
X4722444Y-15952293D02*
X4722444Y-15904674D01*
X4722444Y-15904674D02*
X4731967Y-15866579D01*
X4731967Y-15866579D02*
X4741491Y-15847531D01*
X4741491Y-15847531D02*
X4751015Y-15838008D01*
X4751015Y-15838008D02*
X4770063Y-15828484D01*
X4960539Y-15828484D02*
X4979586Y-15828484D01*
X4979586Y-15828484D02*
X4998634Y-15838008D01*
X4998634Y-15838008D02*
X5008158Y-15847531D01*
X5008158Y-15847531D02*
X5017682Y-15866579D01*
X5017682Y-15866579D02*
X5027205Y-15904674D01*
X5027205Y-15904674D02*
X5027205Y-15952293D01*
X5027205Y-15952293D02*
X5017682Y-15990388D01*
X5017682Y-15990388D02*
X5008158Y-16009436D01*
X5008158Y-16009436D02*
X4998634Y-16018960D01*
X4998634Y-16018960D02*
X4979586Y-16028484D01*
X4979586Y-16028484D02*
X4960539Y-16028484D01*
X4960539Y-16028484D02*
X4941491Y-16018960D01*
X4941491Y-16018960D02*
X4931967Y-16009436D01*
X4931967Y-16009436D02*
X4922444Y-15990388D01*
X4922444Y-15990388D02*
X4912920Y-15952293D01*
X4912920Y-15952293D02*
X4912920Y-15904674D01*
X4912920Y-15904674D02*
X4922444Y-15866579D01*
X4922444Y-15866579D02*
X4931967Y-15847531D01*
X4931967Y-15847531D02*
X4941491Y-15838008D01*
X4941491Y-15838008D02*
X4960539Y-15828484D01*
X5112920Y-16028484D02*
X5112920Y-15895150D01*
X5112920Y-15914198D02*
X5122444Y-15904674D01*
X5122444Y-15904674D02*
X5141491Y-15895150D01*
X5141491Y-15895150D02*
X5170063Y-15895150D01*
X5170063Y-15895150D02*
X5189110Y-15904674D01*
X5189110Y-15904674D02*
X5198634Y-15923722D01*
X5198634Y-15923722D02*
X5198634Y-16028484D01*
X5198634Y-15923722D02*
X5208158Y-15904674D01*
X5208158Y-15904674D02*
X5227205Y-15895150D01*
X5227205Y-15895150D02*
X5255777Y-15895150D01*
X5255777Y-15895150D02*
X5274825Y-15904674D01*
X5274825Y-15904674D02*
X5284348Y-15923722D01*
X5284348Y-15923722D02*
X5284348Y-16028484D01*
X5379586Y-16028484D02*
X5379586Y-15895150D01*
X5379586Y-15914198D02*
X5389110Y-15904674D01*
X5389110Y-15904674D02*
X5408158Y-15895150D01*
X5408158Y-15895150D02*
X5436729Y-15895150D01*
X5436729Y-15895150D02*
X5455777Y-15904674D01*
X5455777Y-15904674D02*
X5465301Y-15923722D01*
X5465301Y-15923722D02*
X5465301Y-16028484D01*
X5465301Y-15923722D02*
X5474825Y-15904674D01*
X5474825Y-15904674D02*
X5493872Y-15895150D01*
X5493872Y-15895150D02*
X5522444Y-15895150D01*
X5522444Y-15895150D02*
X5541491Y-15904674D01*
X5541491Y-15904674D02*
X5551015Y-15923722D01*
X5551015Y-15923722D02*
X5551015Y-16028484D01*
X5941491Y-15818960D02*
X5770063Y-16076103D01*
X6198634Y-15828484D02*
X6217682Y-15828484D01*
X6217682Y-15828484D02*
X6236729Y-15838008D01*
X6236729Y-15838008D02*
X6246253Y-15847531D01*
X6246253Y-15847531D02*
X6255777Y-15866579D01*
X6255777Y-15866579D02*
X6265301Y-15904674D01*
X6265301Y-15904674D02*
X6265301Y-15952293D01*
X6265301Y-15952293D02*
X6255777Y-15990388D01*
X6255777Y-15990388D02*
X6246253Y-16009436D01*
X6246253Y-16009436D02*
X6236729Y-16018960D01*
X6236729Y-16018960D02*
X6217682Y-16028484D01*
X6217682Y-16028484D02*
X6198634Y-16028484D01*
X6198634Y-16028484D02*
X6179586Y-16018960D01*
X6179586Y-16018960D02*
X6170063Y-16009436D01*
X6170063Y-16009436D02*
X6160539Y-15990388D01*
X6160539Y-15990388D02*
X6151015Y-15952293D01*
X6151015Y-15952293D02*
X6151015Y-15904674D01*
X6151015Y-15904674D02*
X6160539Y-15866579D01*
X6160539Y-15866579D02*
X6170063Y-15847531D01*
X6170063Y-15847531D02*
X6179586Y-15838008D01*
X6179586Y-15838008D02*
X6198634Y-15828484D01*
X6351015Y-16009436D02*
X6360539Y-16018960D01*
X6360539Y-16018960D02*
X6351015Y-16028484D01*
X6351015Y-16028484D02*
X6341491Y-16018960D01*
X6341491Y-16018960D02*
X6351015Y-16009436D01*
X6351015Y-16009436D02*
X6351015Y-16028484D01*
X6484348Y-15828484D02*
X6503396Y-15828484D01*
X6503396Y-15828484D02*
X6522444Y-15838008D01*
X6522444Y-15838008D02*
X6531967Y-15847531D01*
X6531967Y-15847531D02*
X6541491Y-15866579D01*
X6541491Y-15866579D02*
X6551015Y-15904674D01*
X6551015Y-15904674D02*
X6551015Y-15952293D01*
X6551015Y-15952293D02*
X6541491Y-15990388D01*
X6541491Y-15990388D02*
X6531967Y-16009436D01*
X6531967Y-16009436D02*
X6522444Y-16018960D01*
X6522444Y-16018960D02*
X6503396Y-16028484D01*
X6503396Y-16028484D02*
X6484348Y-16028484D01*
X6484348Y-16028484D02*
X6465301Y-16018960D01*
X6465301Y-16018960D02*
X6455777Y-16009436D01*
X6455777Y-16009436D02*
X6446253Y-15990388D01*
X6446253Y-15990388D02*
X6436729Y-15952293D01*
X6436729Y-15952293D02*
X6436729Y-15904674D01*
X6436729Y-15904674D02*
X6446253Y-15866579D01*
X6446253Y-15866579D02*
X6455777Y-15847531D01*
X6455777Y-15847531D02*
X6465301Y-15838008D01*
X6465301Y-15838008D02*
X6484348Y-15828484D01*
X6617682Y-15828484D02*
X6741491Y-15828484D01*
X6741491Y-15828484D02*
X6674825Y-15904674D01*
X6674825Y-15904674D02*
X6703396Y-15904674D01*
X6703396Y-15904674D02*
X6722444Y-15914198D01*
X6722444Y-15914198D02*
X6731967Y-15923722D01*
X6731967Y-15923722D02*
X6741491Y-15942769D01*
X6741491Y-15942769D02*
X6741491Y-15990388D01*
X6741491Y-15990388D02*
X6731967Y-16009436D01*
X6731967Y-16009436D02*
X6722444Y-16018960D01*
X6722444Y-16018960D02*
X6703396Y-16028484D01*
X6703396Y-16028484D02*
X6646253Y-16028484D01*
X6646253Y-16028484D02*
X6627206Y-16018960D01*
X6627206Y-16018960D02*
X6617682Y-16009436D01*
X6836729Y-16028484D02*
X6874825Y-16028484D01*
X6874825Y-16028484D02*
X6893872Y-16018960D01*
X6893872Y-16018960D02*
X6903396Y-16009436D01*
X6903396Y-16009436D02*
X6922444Y-15980865D01*
X6922444Y-15980865D02*
X6931967Y-15942769D01*
X6931967Y-15942769D02*
X6931967Y-15866579D01*
X6931967Y-15866579D02*
X6922444Y-15847531D01*
X6922444Y-15847531D02*
X6912920Y-15838008D01*
X6912920Y-15838008D02*
X6893872Y-15828484D01*
X6893872Y-15828484D02*
X6855777Y-15828484D01*
X6855777Y-15828484D02*
X6836729Y-15838008D01*
X6836729Y-15838008D02*
X6827206Y-15847531D01*
X6827206Y-15847531D02*
X6817682Y-15866579D01*
X6817682Y-15866579D02*
X6817682Y-15914198D01*
X6817682Y-15914198D02*
X6827206Y-15933246D01*
X6827206Y-15933246D02*
X6836729Y-15942769D01*
X6836729Y-15942769D02*
X6855777Y-15952293D01*
X6855777Y-15952293D02*
X6893872Y-15952293D01*
X6893872Y-15952293D02*
X6912920Y-15942769D01*
X6912920Y-15942769D02*
X6922444Y-15933246D01*
X6922444Y-15933246D02*
X6931967Y-15914198D01*
X7103396Y-15895150D02*
X7103396Y-16028484D01*
X7055777Y-15818960D02*
X7008158Y-15961817D01*
X7008158Y-15961817D02*
X7131967Y-15961817D01*
X7198634Y-15828484D02*
X7198634Y-15866579D01*
X7274825Y-15828484D02*
X7274825Y-15866579D01*
X7570063Y-16104674D02*
X7560539Y-16095150D01*
X7560539Y-16095150D02*
X7541491Y-16066579D01*
X7541491Y-16066579D02*
X7531968Y-16047531D01*
X7531968Y-16047531D02*
X7522444Y-16018960D01*
X7522444Y-16018960D02*
X7512920Y-15971341D01*
X7512920Y-15971341D02*
X7512920Y-15933246D01*
X7512920Y-15933246D02*
X7522444Y-15885627D01*
X7522444Y-15885627D02*
X7531968Y-15857055D01*
X7531968Y-15857055D02*
X7541491Y-15838008D01*
X7541491Y-15838008D02*
X7560539Y-15809436D01*
X7560539Y-15809436D02*
X7570063Y-15799912D01*
X7741491Y-15828484D02*
X7646253Y-15828484D01*
X7646253Y-15828484D02*
X7636729Y-15923722D01*
X7636729Y-15923722D02*
X7646253Y-15914198D01*
X7646253Y-15914198D02*
X7665301Y-15904674D01*
X7665301Y-15904674D02*
X7712920Y-15904674D01*
X7712920Y-15904674D02*
X7731968Y-15914198D01*
X7731968Y-15914198D02*
X7741491Y-15923722D01*
X7741491Y-15923722D02*
X7751015Y-15942769D01*
X7751015Y-15942769D02*
X7751015Y-15990388D01*
X7751015Y-15990388D02*
X7741491Y-16009436D01*
X7741491Y-16009436D02*
X7731968Y-16018960D01*
X7731968Y-16018960D02*
X7712920Y-16028484D01*
X7712920Y-16028484D02*
X7665301Y-16028484D01*
X7665301Y-16028484D02*
X7646253Y-16018960D01*
X7646253Y-16018960D02*
X7636729Y-16009436D01*
X7989110Y-16028484D02*
X7989110Y-15828484D01*
X8074825Y-16028484D02*
X8074825Y-15923722D01*
X8074825Y-15923722D02*
X8065301Y-15904674D01*
X8065301Y-15904674D02*
X8046253Y-15895150D01*
X8046253Y-15895150D02*
X8017682Y-15895150D01*
X8017682Y-15895150D02*
X7998634Y-15904674D01*
X7998634Y-15904674D02*
X7989110Y-15914198D01*
X8198634Y-16028484D02*
X8179587Y-16018960D01*
X8179587Y-16018960D02*
X8170063Y-16009436D01*
X8170063Y-16009436D02*
X8160539Y-15990388D01*
X8160539Y-15990388D02*
X8160539Y-15933246D01*
X8160539Y-15933246D02*
X8170063Y-15914198D01*
X8170063Y-15914198D02*
X8179587Y-15904674D01*
X8179587Y-15904674D02*
X8198634Y-15895150D01*
X8198634Y-15895150D02*
X8227206Y-15895150D01*
X8227206Y-15895150D02*
X8246253Y-15904674D01*
X8246253Y-15904674D02*
X8255777Y-15914198D01*
X8255777Y-15914198D02*
X8265301Y-15933246D01*
X8265301Y-15933246D02*
X8265301Y-15990388D01*
X8265301Y-15990388D02*
X8255777Y-16009436D01*
X8255777Y-16009436D02*
X8246253Y-16018960D01*
X8246253Y-16018960D02*
X8227206Y-16028484D01*
X8227206Y-16028484D02*
X8198634Y-16028484D01*
X8379587Y-16028484D02*
X8360539Y-16018960D01*
X8360539Y-16018960D02*
X8351015Y-15999912D01*
X8351015Y-15999912D02*
X8351015Y-15828484D01*
X8531968Y-16018960D02*
X8512920Y-16028484D01*
X8512920Y-16028484D02*
X8474825Y-16028484D01*
X8474825Y-16028484D02*
X8455777Y-16018960D01*
X8455777Y-16018960D02*
X8446253Y-15999912D01*
X8446253Y-15999912D02*
X8446253Y-15923722D01*
X8446253Y-15923722D02*
X8455777Y-15904674D01*
X8455777Y-15904674D02*
X8474825Y-15895150D01*
X8474825Y-15895150D02*
X8512920Y-15895150D01*
X8512920Y-15895150D02*
X8531968Y-15904674D01*
X8531968Y-15904674D02*
X8541492Y-15923722D01*
X8541492Y-15923722D02*
X8541492Y-15942769D01*
X8541492Y-15942769D02*
X8446253Y-15961817D01*
X8617682Y-16018960D02*
X8636730Y-16028484D01*
X8636730Y-16028484D02*
X8674825Y-16028484D01*
X8674825Y-16028484D02*
X8693873Y-16018960D01*
X8693873Y-16018960D02*
X8703396Y-15999912D01*
X8703396Y-15999912D02*
X8703396Y-15990388D01*
X8703396Y-15990388D02*
X8693873Y-15971341D01*
X8693873Y-15971341D02*
X8674825Y-15961817D01*
X8674825Y-15961817D02*
X8646253Y-15961817D01*
X8646253Y-15961817D02*
X8627206Y-15952293D01*
X8627206Y-15952293D02*
X8617682Y-15933246D01*
X8617682Y-15933246D02*
X8617682Y-15923722D01*
X8617682Y-15923722D02*
X8627206Y-15904674D01*
X8627206Y-15904674D02*
X8646253Y-15895150D01*
X8646253Y-15895150D02*
X8674825Y-15895150D01*
X8674825Y-15895150D02*
X8693873Y-15904674D01*
X8941492Y-15952293D02*
X9093873Y-15952293D01*
X9017682Y-16028484D02*
X9017682Y-15876103D01*
X9322444Y-15828484D02*
X9446254Y-15828484D01*
X9446254Y-15828484D02*
X9379587Y-15904674D01*
X9379587Y-15904674D02*
X9408158Y-15904674D01*
X9408158Y-15904674D02*
X9427206Y-15914198D01*
X9427206Y-15914198D02*
X9436730Y-15923722D01*
X9436730Y-15923722D02*
X9446254Y-15942769D01*
X9446254Y-15942769D02*
X9446254Y-15990388D01*
X9446254Y-15990388D02*
X9436730Y-16009436D01*
X9436730Y-16009436D02*
X9427206Y-16018960D01*
X9427206Y-16018960D02*
X9408158Y-16028484D01*
X9408158Y-16028484D02*
X9351015Y-16028484D01*
X9351015Y-16028484D02*
X9331968Y-16018960D01*
X9331968Y-16018960D02*
X9322444Y-16009436D01*
X9674825Y-16018960D02*
X9693873Y-16028484D01*
X9693873Y-16028484D02*
X9731968Y-16028484D01*
X9731968Y-16028484D02*
X9751016Y-16018960D01*
X9751016Y-16018960D02*
X9760539Y-15999912D01*
X9760539Y-15999912D02*
X9760539Y-15990388D01*
X9760539Y-15990388D02*
X9751016Y-15971341D01*
X9751016Y-15971341D02*
X9731968Y-15961817D01*
X9731968Y-15961817D02*
X9703396Y-15961817D01*
X9703396Y-15961817D02*
X9684349Y-15952293D01*
X9684349Y-15952293D02*
X9674825Y-15933246D01*
X9674825Y-15933246D02*
X9674825Y-15923722D01*
X9674825Y-15923722D02*
X9684349Y-15904674D01*
X9684349Y-15904674D02*
X9703396Y-15895150D01*
X9703396Y-15895150D02*
X9731968Y-15895150D01*
X9731968Y-15895150D02*
X9751016Y-15904674D01*
X9874825Y-16028484D02*
X9855777Y-16018960D01*
X9855777Y-16018960D02*
X9846254Y-15999912D01*
X9846254Y-15999912D02*
X9846254Y-15828484D01*
X9979587Y-16028484D02*
X9960539Y-16018960D01*
X9960539Y-16018960D02*
X9951016Y-16009436D01*
X9951016Y-16009436D02*
X9941492Y-15990388D01*
X9941492Y-15990388D02*
X9941492Y-15933246D01*
X9941492Y-15933246D02*
X9951016Y-15914198D01*
X9951016Y-15914198D02*
X9960539Y-15904674D01*
X9960539Y-15904674D02*
X9979587Y-15895150D01*
X9979587Y-15895150D02*
X10008158Y-15895150D01*
X10008158Y-15895150D02*
X10027206Y-15904674D01*
X10027206Y-15904674D02*
X10036730Y-15914198D01*
X10036730Y-15914198D02*
X10046254Y-15933246D01*
X10046254Y-15933246D02*
X10046254Y-15990388D01*
X10046254Y-15990388D02*
X10036730Y-16009436D01*
X10036730Y-16009436D02*
X10027206Y-16018960D01*
X10027206Y-16018960D02*
X10008158Y-16028484D01*
X10008158Y-16028484D02*
X9979587Y-16028484D01*
X10103397Y-15895150D02*
X10179587Y-15895150D01*
X10131968Y-15828484D02*
X10131968Y-15999912D01*
X10131968Y-15999912D02*
X10141492Y-16018960D01*
X10141492Y-16018960D02*
X10160539Y-16028484D01*
X10160539Y-16028484D02*
X10179587Y-16028484D01*
X10236730Y-16018960D02*
X10255777Y-16028484D01*
X10255777Y-16028484D02*
X10293873Y-16028484D01*
X10293873Y-16028484D02*
X10312920Y-16018960D01*
X10312920Y-16018960D02*
X10322444Y-15999912D01*
X10322444Y-15999912D02*
X10322444Y-15990388D01*
X10322444Y-15990388D02*
X10312920Y-15971341D01*
X10312920Y-15971341D02*
X10293873Y-15961817D01*
X10293873Y-15961817D02*
X10265301Y-15961817D01*
X10265301Y-15961817D02*
X10246254Y-15952293D01*
X10246254Y-15952293D02*
X10236730Y-15933246D01*
X10236730Y-15933246D02*
X10236730Y-15923722D01*
X10236730Y-15923722D02*
X10246254Y-15904674D01*
X10246254Y-15904674D02*
X10265301Y-15895150D01*
X10265301Y-15895150D02*
X10293873Y-15895150D01*
X10293873Y-15895150D02*
X10312920Y-15904674D01*
X10389111Y-16104674D02*
X10398635Y-16095150D01*
X10398635Y-16095150D02*
X10417682Y-16066579D01*
X10417682Y-16066579D02*
X10427206Y-16047531D01*
X10427206Y-16047531D02*
X10436730Y-16018960D01*
X10436730Y-16018960D02*
X10446254Y-15971341D01*
X10446254Y-15971341D02*
X10446254Y-15933246D01*
X10446254Y-15933246D02*
X10436730Y-15885627D01*
X10436730Y-15885627D02*
X10427206Y-15857055D01*
X10427206Y-15857055D02*
X10417682Y-15838008D01*
X10417682Y-15838008D02*
X10398635Y-15809436D01*
X10398635Y-15809436D02*
X10389111Y-15799912D01*
D12*
X3944000Y-16252000D02*
X3995000Y-16201000D01*
X3944000Y-16150000D01*
X3893000Y-16201000D01*
X3944000Y-16252000D01*
D11*
X4360539Y-16292484D02*
X4246253Y-16292484D01*
X4303396Y-16292484D02*
X4303396Y-16092484D01*
X4303396Y-16092484D02*
X4284348Y-16121055D01*
X4284348Y-16121055D02*
X4265301Y-16140103D01*
X4265301Y-16140103D02*
X4246253Y-16149627D01*
X4446253Y-16273436D02*
X4455777Y-16282960D01*
X4455777Y-16282960D02*
X4446253Y-16292484D01*
X4446253Y-16292484D02*
X4436729Y-16282960D01*
X4436729Y-16282960D02*
X4446253Y-16273436D01*
X4446253Y-16273436D02*
X4446253Y-16292484D01*
X4579586Y-16092484D02*
X4598634Y-16092484D01*
X4598634Y-16092484D02*
X4617682Y-16102008D01*
X4617682Y-16102008D02*
X4627205Y-16111531D01*
X4627205Y-16111531D02*
X4636729Y-16130579D01*
X4636729Y-16130579D02*
X4646253Y-16168674D01*
X4646253Y-16168674D02*
X4646253Y-16216293D01*
X4646253Y-16216293D02*
X4636729Y-16254388D01*
X4636729Y-16254388D02*
X4627205Y-16273436D01*
X4627205Y-16273436D02*
X4617682Y-16282960D01*
X4617682Y-16282960D02*
X4598634Y-16292484D01*
X4598634Y-16292484D02*
X4579586Y-16292484D01*
X4579586Y-16292484D02*
X4560539Y-16282960D01*
X4560539Y-16282960D02*
X4551015Y-16273436D01*
X4551015Y-16273436D02*
X4541491Y-16254388D01*
X4541491Y-16254388D02*
X4531967Y-16216293D01*
X4531967Y-16216293D02*
X4531967Y-16168674D01*
X4531967Y-16168674D02*
X4541491Y-16130579D01*
X4541491Y-16130579D02*
X4551015Y-16111531D01*
X4551015Y-16111531D02*
X4560539Y-16102008D01*
X4560539Y-16102008D02*
X4579586Y-16092484D01*
X4722444Y-16111531D02*
X4731967Y-16102008D01*
X4731967Y-16102008D02*
X4751015Y-16092484D01*
X4751015Y-16092484D02*
X4798634Y-16092484D01*
X4798634Y-16092484D02*
X4817682Y-16102008D01*
X4817682Y-16102008D02*
X4827205Y-16111531D01*
X4827205Y-16111531D02*
X4836729Y-16130579D01*
X4836729Y-16130579D02*
X4836729Y-16149627D01*
X4836729Y-16149627D02*
X4827205Y-16178198D01*
X4827205Y-16178198D02*
X4712920Y-16292484D01*
X4712920Y-16292484D02*
X4836729Y-16292484D01*
X4960539Y-16092484D02*
X4979586Y-16092484D01*
X4979586Y-16092484D02*
X4998634Y-16102008D01*
X4998634Y-16102008D02*
X5008158Y-16111531D01*
X5008158Y-16111531D02*
X5017682Y-16130579D01*
X5017682Y-16130579D02*
X5027205Y-16168674D01*
X5027205Y-16168674D02*
X5027205Y-16216293D01*
X5027205Y-16216293D02*
X5017682Y-16254388D01*
X5017682Y-16254388D02*
X5008158Y-16273436D01*
X5008158Y-16273436D02*
X4998634Y-16282960D01*
X4998634Y-16282960D02*
X4979586Y-16292484D01*
X4979586Y-16292484D02*
X4960539Y-16292484D01*
X4960539Y-16292484D02*
X4941491Y-16282960D01*
X4941491Y-16282960D02*
X4931967Y-16273436D01*
X4931967Y-16273436D02*
X4922444Y-16254388D01*
X4922444Y-16254388D02*
X4912920Y-16216293D01*
X4912920Y-16216293D02*
X4912920Y-16168674D01*
X4912920Y-16168674D02*
X4922444Y-16130579D01*
X4922444Y-16130579D02*
X4931967Y-16111531D01*
X4931967Y-16111531D02*
X4941491Y-16102008D01*
X4941491Y-16102008D02*
X4960539Y-16092484D01*
X5112920Y-16292484D02*
X5112920Y-16159150D01*
X5112920Y-16178198D02*
X5122444Y-16168674D01*
X5122444Y-16168674D02*
X5141491Y-16159150D01*
X5141491Y-16159150D02*
X5170063Y-16159150D01*
X5170063Y-16159150D02*
X5189110Y-16168674D01*
X5189110Y-16168674D02*
X5198634Y-16187722D01*
X5198634Y-16187722D02*
X5198634Y-16292484D01*
X5198634Y-16187722D02*
X5208158Y-16168674D01*
X5208158Y-16168674D02*
X5227205Y-16159150D01*
X5227205Y-16159150D02*
X5255777Y-16159150D01*
X5255777Y-16159150D02*
X5274825Y-16168674D01*
X5274825Y-16168674D02*
X5284348Y-16187722D01*
X5284348Y-16187722D02*
X5284348Y-16292484D01*
X5379586Y-16292484D02*
X5379586Y-16159150D01*
X5379586Y-16178198D02*
X5389110Y-16168674D01*
X5389110Y-16168674D02*
X5408158Y-16159150D01*
X5408158Y-16159150D02*
X5436729Y-16159150D01*
X5436729Y-16159150D02*
X5455777Y-16168674D01*
X5455777Y-16168674D02*
X5465301Y-16187722D01*
X5465301Y-16187722D02*
X5465301Y-16292484D01*
X5465301Y-16187722D02*
X5474825Y-16168674D01*
X5474825Y-16168674D02*
X5493872Y-16159150D01*
X5493872Y-16159150D02*
X5522444Y-16159150D01*
X5522444Y-16159150D02*
X5541491Y-16168674D01*
X5541491Y-16168674D02*
X5551015Y-16187722D01*
X5551015Y-16187722D02*
X5551015Y-16292484D01*
X5941491Y-16082960D02*
X5770063Y-16340103D01*
X6198634Y-16092484D02*
X6217682Y-16092484D01*
X6217682Y-16092484D02*
X6236729Y-16102008D01*
X6236729Y-16102008D02*
X6246253Y-16111531D01*
X6246253Y-16111531D02*
X6255777Y-16130579D01*
X6255777Y-16130579D02*
X6265301Y-16168674D01*
X6265301Y-16168674D02*
X6265301Y-16216293D01*
X6265301Y-16216293D02*
X6255777Y-16254388D01*
X6255777Y-16254388D02*
X6246253Y-16273436D01*
X6246253Y-16273436D02*
X6236729Y-16282960D01*
X6236729Y-16282960D02*
X6217682Y-16292484D01*
X6217682Y-16292484D02*
X6198634Y-16292484D01*
X6198634Y-16292484D02*
X6179586Y-16282960D01*
X6179586Y-16282960D02*
X6170063Y-16273436D01*
X6170063Y-16273436D02*
X6160539Y-16254388D01*
X6160539Y-16254388D02*
X6151015Y-16216293D01*
X6151015Y-16216293D02*
X6151015Y-16168674D01*
X6151015Y-16168674D02*
X6160539Y-16130579D01*
X6160539Y-16130579D02*
X6170063Y-16111531D01*
X6170063Y-16111531D02*
X6179586Y-16102008D01*
X6179586Y-16102008D02*
X6198634Y-16092484D01*
X6351015Y-16273436D02*
X6360539Y-16282960D01*
X6360539Y-16282960D02*
X6351015Y-16292484D01*
X6351015Y-16292484D02*
X6341491Y-16282960D01*
X6341491Y-16282960D02*
X6351015Y-16273436D01*
X6351015Y-16273436D02*
X6351015Y-16292484D01*
X6484348Y-16092484D02*
X6503396Y-16092484D01*
X6503396Y-16092484D02*
X6522444Y-16102008D01*
X6522444Y-16102008D02*
X6531967Y-16111531D01*
X6531967Y-16111531D02*
X6541491Y-16130579D01*
X6541491Y-16130579D02*
X6551015Y-16168674D01*
X6551015Y-16168674D02*
X6551015Y-16216293D01*
X6551015Y-16216293D02*
X6541491Y-16254388D01*
X6541491Y-16254388D02*
X6531967Y-16273436D01*
X6531967Y-16273436D02*
X6522444Y-16282960D01*
X6522444Y-16282960D02*
X6503396Y-16292484D01*
X6503396Y-16292484D02*
X6484348Y-16292484D01*
X6484348Y-16292484D02*
X6465301Y-16282960D01*
X6465301Y-16282960D02*
X6455777Y-16273436D01*
X6455777Y-16273436D02*
X6446253Y-16254388D01*
X6446253Y-16254388D02*
X6436729Y-16216293D01*
X6436729Y-16216293D02*
X6436729Y-16168674D01*
X6436729Y-16168674D02*
X6446253Y-16130579D01*
X6446253Y-16130579D02*
X6455777Y-16111531D01*
X6455777Y-16111531D02*
X6465301Y-16102008D01*
X6465301Y-16102008D02*
X6484348Y-16092484D01*
X6722444Y-16159150D02*
X6722444Y-16292484D01*
X6674825Y-16082960D02*
X6627206Y-16225817D01*
X6627206Y-16225817D02*
X6751015Y-16225817D01*
X6865301Y-16092484D02*
X6884348Y-16092484D01*
X6884348Y-16092484D02*
X6903396Y-16102008D01*
X6903396Y-16102008D02*
X6912920Y-16111531D01*
X6912920Y-16111531D02*
X6922444Y-16130579D01*
X6922444Y-16130579D02*
X6931967Y-16168674D01*
X6931967Y-16168674D02*
X6931967Y-16216293D01*
X6931967Y-16216293D02*
X6922444Y-16254388D01*
X6922444Y-16254388D02*
X6912920Y-16273436D01*
X6912920Y-16273436D02*
X6903396Y-16282960D01*
X6903396Y-16282960D02*
X6884348Y-16292484D01*
X6884348Y-16292484D02*
X6865301Y-16292484D01*
X6865301Y-16292484D02*
X6846253Y-16282960D01*
X6846253Y-16282960D02*
X6836729Y-16273436D01*
X6836729Y-16273436D02*
X6827206Y-16254388D01*
X6827206Y-16254388D02*
X6817682Y-16216293D01*
X6817682Y-16216293D02*
X6817682Y-16168674D01*
X6817682Y-16168674D02*
X6827206Y-16130579D01*
X6827206Y-16130579D02*
X6836729Y-16111531D01*
X6836729Y-16111531D02*
X6846253Y-16102008D01*
X6846253Y-16102008D02*
X6865301Y-16092484D01*
X7008158Y-16111531D02*
X7017682Y-16102008D01*
X7017682Y-16102008D02*
X7036729Y-16092484D01*
X7036729Y-16092484D02*
X7084348Y-16092484D01*
X7084348Y-16092484D02*
X7103396Y-16102008D01*
X7103396Y-16102008D02*
X7112920Y-16111531D01*
X7112920Y-16111531D02*
X7122444Y-16130579D01*
X7122444Y-16130579D02*
X7122444Y-16149627D01*
X7122444Y-16149627D02*
X7112920Y-16178198D01*
X7112920Y-16178198D02*
X6998634Y-16292484D01*
X6998634Y-16292484D02*
X7122444Y-16292484D01*
X7198634Y-16092484D02*
X7198634Y-16130579D01*
X7274825Y-16092484D02*
X7274825Y-16130579D01*
X7570063Y-16368674D02*
X7560539Y-16359150D01*
X7560539Y-16359150D02*
X7541491Y-16330579D01*
X7541491Y-16330579D02*
X7531968Y-16311531D01*
X7531968Y-16311531D02*
X7522444Y-16282960D01*
X7522444Y-16282960D02*
X7512920Y-16235341D01*
X7512920Y-16235341D02*
X7512920Y-16197246D01*
X7512920Y-16197246D02*
X7522444Y-16149627D01*
X7522444Y-16149627D02*
X7531968Y-16121055D01*
X7531968Y-16121055D02*
X7541491Y-16102008D01*
X7541491Y-16102008D02*
X7560539Y-16073436D01*
X7560539Y-16073436D02*
X7570063Y-16063912D01*
X7731968Y-16159150D02*
X7731968Y-16292484D01*
X7684348Y-16082960D02*
X7636729Y-16225817D01*
X7636729Y-16225817D02*
X7760539Y-16225817D01*
X7817682Y-16092484D02*
X7941491Y-16092484D01*
X7941491Y-16092484D02*
X7874825Y-16168674D01*
X7874825Y-16168674D02*
X7903396Y-16168674D01*
X7903396Y-16168674D02*
X7922444Y-16178198D01*
X7922444Y-16178198D02*
X7931968Y-16187722D01*
X7931968Y-16187722D02*
X7941491Y-16206769D01*
X7941491Y-16206769D02*
X7941491Y-16254388D01*
X7941491Y-16254388D02*
X7931968Y-16273436D01*
X7931968Y-16273436D02*
X7922444Y-16282960D01*
X7922444Y-16282960D02*
X7903396Y-16292484D01*
X7903396Y-16292484D02*
X7846253Y-16292484D01*
X7846253Y-16292484D02*
X7827206Y-16282960D01*
X7827206Y-16282960D02*
X7817682Y-16273436D01*
X8179587Y-16292484D02*
X8179587Y-16092484D01*
X8265301Y-16292484D02*
X8265301Y-16187722D01*
X8265301Y-16187722D02*
X8255777Y-16168674D01*
X8255777Y-16168674D02*
X8236730Y-16159150D01*
X8236730Y-16159150D02*
X8208158Y-16159150D01*
X8208158Y-16159150D02*
X8189110Y-16168674D01*
X8189110Y-16168674D02*
X8179587Y-16178198D01*
X8389111Y-16292484D02*
X8370063Y-16282960D01*
X8370063Y-16282960D02*
X8360539Y-16273436D01*
X8360539Y-16273436D02*
X8351015Y-16254388D01*
X8351015Y-16254388D02*
X8351015Y-16197246D01*
X8351015Y-16197246D02*
X8360539Y-16178198D01*
X8360539Y-16178198D02*
X8370063Y-16168674D01*
X8370063Y-16168674D02*
X8389111Y-16159150D01*
X8389111Y-16159150D02*
X8417682Y-16159150D01*
X8417682Y-16159150D02*
X8436730Y-16168674D01*
X8436730Y-16168674D02*
X8446253Y-16178198D01*
X8446253Y-16178198D02*
X8455777Y-16197246D01*
X8455777Y-16197246D02*
X8455777Y-16254388D01*
X8455777Y-16254388D02*
X8446253Y-16273436D01*
X8446253Y-16273436D02*
X8436730Y-16282960D01*
X8436730Y-16282960D02*
X8417682Y-16292484D01*
X8417682Y-16292484D02*
X8389111Y-16292484D01*
X8570063Y-16292484D02*
X8551015Y-16282960D01*
X8551015Y-16282960D02*
X8541492Y-16263912D01*
X8541492Y-16263912D02*
X8541492Y-16092484D01*
X8722444Y-16282960D02*
X8703396Y-16292484D01*
X8703396Y-16292484D02*
X8665301Y-16292484D01*
X8665301Y-16292484D02*
X8646253Y-16282960D01*
X8646253Y-16282960D02*
X8636730Y-16263912D01*
X8636730Y-16263912D02*
X8636730Y-16187722D01*
X8636730Y-16187722D02*
X8646253Y-16168674D01*
X8646253Y-16168674D02*
X8665301Y-16159150D01*
X8665301Y-16159150D02*
X8703396Y-16159150D01*
X8703396Y-16159150D02*
X8722444Y-16168674D01*
X8722444Y-16168674D02*
X8731968Y-16187722D01*
X8731968Y-16187722D02*
X8731968Y-16206769D01*
X8731968Y-16206769D02*
X8636730Y-16225817D01*
X8808158Y-16282960D02*
X8827206Y-16292484D01*
X8827206Y-16292484D02*
X8865301Y-16292484D01*
X8865301Y-16292484D02*
X8884349Y-16282960D01*
X8884349Y-16282960D02*
X8893873Y-16263912D01*
X8893873Y-16263912D02*
X8893873Y-16254388D01*
X8893873Y-16254388D02*
X8884349Y-16235341D01*
X8884349Y-16235341D02*
X8865301Y-16225817D01*
X8865301Y-16225817D02*
X8836730Y-16225817D01*
X8836730Y-16225817D02*
X8817682Y-16216293D01*
X8817682Y-16216293D02*
X8808158Y-16197246D01*
X8808158Y-16197246D02*
X8808158Y-16187722D01*
X8808158Y-16187722D02*
X8817682Y-16168674D01*
X8817682Y-16168674D02*
X8836730Y-16159150D01*
X8836730Y-16159150D02*
X8865301Y-16159150D01*
X8865301Y-16159150D02*
X8884349Y-16168674D01*
X8960539Y-16368674D02*
X8970063Y-16359150D01*
X8970063Y-16359150D02*
X8989111Y-16330579D01*
X8989111Y-16330579D02*
X8998634Y-16311531D01*
X8998634Y-16311531D02*
X9008158Y-16282960D01*
X9008158Y-16282960D02*
X9017682Y-16235341D01*
X9017682Y-16235341D02*
X9017682Y-16197246D01*
X9017682Y-16197246D02*
X9008158Y-16149627D01*
X9008158Y-16149627D02*
X8998634Y-16121055D01*
X8998634Y-16121055D02*
X8989111Y-16102008D01*
X8989111Y-16102008D02*
X8970063Y-16073436D01*
X8970063Y-16073436D02*
X8960539Y-16063912D01*
D13*
X3885000Y-16410000D02*
X3995000Y-16520000D01*
X3995000Y-16410000D02*
X3885000Y-16520000D01*
X3995000Y-16465000D02*
G75*
G03*
X3885000Y-16465000I-55000J0D01*
G01*
X3885000Y-16465000D02*
G75*
G03*
X3995000Y-16465000I55000J0D01*
G01*
D11*
X4360539Y-16556484D02*
X4246253Y-16556484D01*
X4303396Y-16556484D02*
X4303396Y-16356484D01*
X4303396Y-16356484D02*
X4284348Y-16385055D01*
X4284348Y-16385055D02*
X4265301Y-16404103D01*
X4265301Y-16404103D02*
X4246253Y-16413627D01*
X4446253Y-16537436D02*
X4455777Y-16546960D01*
X4455777Y-16546960D02*
X4446253Y-16556484D01*
X4446253Y-16556484D02*
X4436729Y-16546960D01*
X4436729Y-16546960D02*
X4446253Y-16537436D01*
X4446253Y-16537436D02*
X4446253Y-16556484D01*
X4646253Y-16556484D02*
X4531967Y-16556484D01*
X4589110Y-16556484D02*
X4589110Y-16356484D01*
X4589110Y-16356484D02*
X4570063Y-16385055D01*
X4570063Y-16385055D02*
X4551015Y-16404103D01*
X4551015Y-16404103D02*
X4531967Y-16413627D01*
X4770063Y-16356484D02*
X4789110Y-16356484D01*
X4789110Y-16356484D02*
X4808158Y-16366008D01*
X4808158Y-16366008D02*
X4817682Y-16375531D01*
X4817682Y-16375531D02*
X4827205Y-16394579D01*
X4827205Y-16394579D02*
X4836729Y-16432674D01*
X4836729Y-16432674D02*
X4836729Y-16480293D01*
X4836729Y-16480293D02*
X4827205Y-16518388D01*
X4827205Y-16518388D02*
X4817682Y-16537436D01*
X4817682Y-16537436D02*
X4808158Y-16546960D01*
X4808158Y-16546960D02*
X4789110Y-16556484D01*
X4789110Y-16556484D02*
X4770063Y-16556484D01*
X4770063Y-16556484D02*
X4751015Y-16546960D01*
X4751015Y-16546960D02*
X4741491Y-16537436D01*
X4741491Y-16537436D02*
X4731967Y-16518388D01*
X4731967Y-16518388D02*
X4722444Y-16480293D01*
X4722444Y-16480293D02*
X4722444Y-16432674D01*
X4722444Y-16432674D02*
X4731967Y-16394579D01*
X4731967Y-16394579D02*
X4741491Y-16375531D01*
X4741491Y-16375531D02*
X4751015Y-16366008D01*
X4751015Y-16366008D02*
X4770063Y-16356484D01*
X4960539Y-16356484D02*
X4979586Y-16356484D01*
X4979586Y-16356484D02*
X4998634Y-16366008D01*
X4998634Y-16366008D02*
X5008158Y-16375531D01*
X5008158Y-16375531D02*
X5017682Y-16394579D01*
X5017682Y-16394579D02*
X5027205Y-16432674D01*
X5027205Y-16432674D02*
X5027205Y-16480293D01*
X5027205Y-16480293D02*
X5017682Y-16518388D01*
X5017682Y-16518388D02*
X5008158Y-16537436D01*
X5008158Y-16537436D02*
X4998634Y-16546960D01*
X4998634Y-16546960D02*
X4979586Y-16556484D01*
X4979586Y-16556484D02*
X4960539Y-16556484D01*
X4960539Y-16556484D02*
X4941491Y-16546960D01*
X4941491Y-16546960D02*
X4931967Y-16537436D01*
X4931967Y-16537436D02*
X4922444Y-16518388D01*
X4922444Y-16518388D02*
X4912920Y-16480293D01*
X4912920Y-16480293D02*
X4912920Y-16432674D01*
X4912920Y-16432674D02*
X4922444Y-16394579D01*
X4922444Y-16394579D02*
X4931967Y-16375531D01*
X4931967Y-16375531D02*
X4941491Y-16366008D01*
X4941491Y-16366008D02*
X4960539Y-16356484D01*
X5112920Y-16556484D02*
X5112920Y-16423150D01*
X5112920Y-16442198D02*
X5122444Y-16432674D01*
X5122444Y-16432674D02*
X5141491Y-16423150D01*
X5141491Y-16423150D02*
X5170063Y-16423150D01*
X5170063Y-16423150D02*
X5189110Y-16432674D01*
X5189110Y-16432674D02*
X5198634Y-16451722D01*
X5198634Y-16451722D02*
X5198634Y-16556484D01*
X5198634Y-16451722D02*
X5208158Y-16432674D01*
X5208158Y-16432674D02*
X5227205Y-16423150D01*
X5227205Y-16423150D02*
X5255777Y-16423150D01*
X5255777Y-16423150D02*
X5274825Y-16432674D01*
X5274825Y-16432674D02*
X5284348Y-16451722D01*
X5284348Y-16451722D02*
X5284348Y-16556484D01*
X5379586Y-16556484D02*
X5379586Y-16423150D01*
X5379586Y-16442198D02*
X5389110Y-16432674D01*
X5389110Y-16432674D02*
X5408158Y-16423150D01*
X5408158Y-16423150D02*
X5436729Y-16423150D01*
X5436729Y-16423150D02*
X5455777Y-16432674D01*
X5455777Y-16432674D02*
X5465301Y-16451722D01*
X5465301Y-16451722D02*
X5465301Y-16556484D01*
X5465301Y-16451722D02*
X5474825Y-16432674D01*
X5474825Y-16432674D02*
X5493872Y-16423150D01*
X5493872Y-16423150D02*
X5522444Y-16423150D01*
X5522444Y-16423150D02*
X5541491Y-16432674D01*
X5541491Y-16432674D02*
X5551015Y-16451722D01*
X5551015Y-16451722D02*
X5551015Y-16556484D01*
X5941491Y-16346960D02*
X5770063Y-16604103D01*
X6198634Y-16356484D02*
X6217682Y-16356484D01*
X6217682Y-16356484D02*
X6236729Y-16366008D01*
X6236729Y-16366008D02*
X6246253Y-16375531D01*
X6246253Y-16375531D02*
X6255777Y-16394579D01*
X6255777Y-16394579D02*
X6265301Y-16432674D01*
X6265301Y-16432674D02*
X6265301Y-16480293D01*
X6265301Y-16480293D02*
X6255777Y-16518388D01*
X6255777Y-16518388D02*
X6246253Y-16537436D01*
X6246253Y-16537436D02*
X6236729Y-16546960D01*
X6236729Y-16546960D02*
X6217682Y-16556484D01*
X6217682Y-16556484D02*
X6198634Y-16556484D01*
X6198634Y-16556484D02*
X6179586Y-16546960D01*
X6179586Y-16546960D02*
X6170063Y-16537436D01*
X6170063Y-16537436D02*
X6160539Y-16518388D01*
X6160539Y-16518388D02*
X6151015Y-16480293D01*
X6151015Y-16480293D02*
X6151015Y-16432674D01*
X6151015Y-16432674D02*
X6160539Y-16394579D01*
X6160539Y-16394579D02*
X6170063Y-16375531D01*
X6170063Y-16375531D02*
X6179586Y-16366008D01*
X6179586Y-16366008D02*
X6198634Y-16356484D01*
X6351015Y-16537436D02*
X6360539Y-16546960D01*
X6360539Y-16546960D02*
X6351015Y-16556484D01*
X6351015Y-16556484D02*
X6341491Y-16546960D01*
X6341491Y-16546960D02*
X6351015Y-16537436D01*
X6351015Y-16537436D02*
X6351015Y-16556484D01*
X6484348Y-16356484D02*
X6503396Y-16356484D01*
X6503396Y-16356484D02*
X6522444Y-16366008D01*
X6522444Y-16366008D02*
X6531967Y-16375531D01*
X6531967Y-16375531D02*
X6541491Y-16394579D01*
X6541491Y-16394579D02*
X6551015Y-16432674D01*
X6551015Y-16432674D02*
X6551015Y-16480293D01*
X6551015Y-16480293D02*
X6541491Y-16518388D01*
X6541491Y-16518388D02*
X6531967Y-16537436D01*
X6531967Y-16537436D02*
X6522444Y-16546960D01*
X6522444Y-16546960D02*
X6503396Y-16556484D01*
X6503396Y-16556484D02*
X6484348Y-16556484D01*
X6484348Y-16556484D02*
X6465301Y-16546960D01*
X6465301Y-16546960D02*
X6455777Y-16537436D01*
X6455777Y-16537436D02*
X6446253Y-16518388D01*
X6446253Y-16518388D02*
X6436729Y-16480293D01*
X6436729Y-16480293D02*
X6436729Y-16432674D01*
X6436729Y-16432674D02*
X6446253Y-16394579D01*
X6446253Y-16394579D02*
X6455777Y-16375531D01*
X6455777Y-16375531D02*
X6465301Y-16366008D01*
X6465301Y-16366008D02*
X6484348Y-16356484D01*
X6722444Y-16423150D02*
X6722444Y-16556484D01*
X6674825Y-16346960D02*
X6627206Y-16489817D01*
X6627206Y-16489817D02*
X6751015Y-16489817D01*
X6808158Y-16356484D02*
X6931967Y-16356484D01*
X6931967Y-16356484D02*
X6865301Y-16432674D01*
X6865301Y-16432674D02*
X6893872Y-16432674D01*
X6893872Y-16432674D02*
X6912920Y-16442198D01*
X6912920Y-16442198D02*
X6922444Y-16451722D01*
X6922444Y-16451722D02*
X6931967Y-16470769D01*
X6931967Y-16470769D02*
X6931967Y-16518388D01*
X6931967Y-16518388D02*
X6922444Y-16537436D01*
X6922444Y-16537436D02*
X6912920Y-16546960D01*
X6912920Y-16546960D02*
X6893872Y-16556484D01*
X6893872Y-16556484D02*
X6836729Y-16556484D01*
X6836729Y-16556484D02*
X6817682Y-16546960D01*
X6817682Y-16546960D02*
X6808158Y-16537436D01*
X6998634Y-16356484D02*
X7122444Y-16356484D01*
X7122444Y-16356484D02*
X7055777Y-16432674D01*
X7055777Y-16432674D02*
X7084348Y-16432674D01*
X7084348Y-16432674D02*
X7103396Y-16442198D01*
X7103396Y-16442198D02*
X7112920Y-16451722D01*
X7112920Y-16451722D02*
X7122444Y-16470769D01*
X7122444Y-16470769D02*
X7122444Y-16518388D01*
X7122444Y-16518388D02*
X7112920Y-16537436D01*
X7112920Y-16537436D02*
X7103396Y-16546960D01*
X7103396Y-16546960D02*
X7084348Y-16556484D01*
X7084348Y-16556484D02*
X7027206Y-16556484D01*
X7027206Y-16556484D02*
X7008158Y-16546960D01*
X7008158Y-16546960D02*
X6998634Y-16537436D01*
X7198634Y-16356484D02*
X7198634Y-16394579D01*
X7274825Y-16356484D02*
X7274825Y-16394579D01*
X7570063Y-16632674D02*
X7560539Y-16623150D01*
X7560539Y-16623150D02*
X7541491Y-16594579D01*
X7541491Y-16594579D02*
X7531968Y-16575531D01*
X7531968Y-16575531D02*
X7522444Y-16546960D01*
X7522444Y-16546960D02*
X7512920Y-16499341D01*
X7512920Y-16499341D02*
X7512920Y-16461246D01*
X7512920Y-16461246D02*
X7522444Y-16413627D01*
X7522444Y-16413627D02*
X7531968Y-16385055D01*
X7531968Y-16385055D02*
X7541491Y-16366008D01*
X7541491Y-16366008D02*
X7560539Y-16337436D01*
X7560539Y-16337436D02*
X7570063Y-16327912D01*
X7751015Y-16556484D02*
X7636729Y-16556484D01*
X7693872Y-16556484D02*
X7693872Y-16356484D01*
X7693872Y-16356484D02*
X7674825Y-16385055D01*
X7674825Y-16385055D02*
X7655777Y-16404103D01*
X7655777Y-16404103D02*
X7636729Y-16413627D01*
X7874825Y-16356484D02*
X7893872Y-16356484D01*
X7893872Y-16356484D02*
X7912920Y-16366008D01*
X7912920Y-16366008D02*
X7922444Y-16375531D01*
X7922444Y-16375531D02*
X7931968Y-16394579D01*
X7931968Y-16394579D02*
X7941491Y-16432674D01*
X7941491Y-16432674D02*
X7941491Y-16480293D01*
X7941491Y-16480293D02*
X7931968Y-16518388D01*
X7931968Y-16518388D02*
X7922444Y-16537436D01*
X7922444Y-16537436D02*
X7912920Y-16546960D01*
X7912920Y-16546960D02*
X7893872Y-16556484D01*
X7893872Y-16556484D02*
X7874825Y-16556484D01*
X7874825Y-16556484D02*
X7855777Y-16546960D01*
X7855777Y-16546960D02*
X7846253Y-16537436D01*
X7846253Y-16537436D02*
X7836729Y-16518388D01*
X7836729Y-16518388D02*
X7827206Y-16480293D01*
X7827206Y-16480293D02*
X7827206Y-16432674D01*
X7827206Y-16432674D02*
X7836729Y-16394579D01*
X7836729Y-16394579D02*
X7846253Y-16375531D01*
X7846253Y-16375531D02*
X7855777Y-16366008D01*
X7855777Y-16366008D02*
X7874825Y-16356484D01*
X8179587Y-16556484D02*
X8179587Y-16356484D01*
X8265301Y-16556484D02*
X8265301Y-16451722D01*
X8265301Y-16451722D02*
X8255777Y-16432674D01*
X8255777Y-16432674D02*
X8236730Y-16423150D01*
X8236730Y-16423150D02*
X8208158Y-16423150D01*
X8208158Y-16423150D02*
X8189110Y-16432674D01*
X8189110Y-16432674D02*
X8179587Y-16442198D01*
X8389111Y-16556484D02*
X8370063Y-16546960D01*
X8370063Y-16546960D02*
X8360539Y-16537436D01*
X8360539Y-16537436D02*
X8351015Y-16518388D01*
X8351015Y-16518388D02*
X8351015Y-16461246D01*
X8351015Y-16461246D02*
X8360539Y-16442198D01*
X8360539Y-16442198D02*
X8370063Y-16432674D01*
X8370063Y-16432674D02*
X8389111Y-16423150D01*
X8389111Y-16423150D02*
X8417682Y-16423150D01*
X8417682Y-16423150D02*
X8436730Y-16432674D01*
X8436730Y-16432674D02*
X8446253Y-16442198D01*
X8446253Y-16442198D02*
X8455777Y-16461246D01*
X8455777Y-16461246D02*
X8455777Y-16518388D01*
X8455777Y-16518388D02*
X8446253Y-16537436D01*
X8446253Y-16537436D02*
X8436730Y-16546960D01*
X8436730Y-16546960D02*
X8417682Y-16556484D01*
X8417682Y-16556484D02*
X8389111Y-16556484D01*
X8570063Y-16556484D02*
X8551015Y-16546960D01*
X8551015Y-16546960D02*
X8541492Y-16527912D01*
X8541492Y-16527912D02*
X8541492Y-16356484D01*
X8722444Y-16546960D02*
X8703396Y-16556484D01*
X8703396Y-16556484D02*
X8665301Y-16556484D01*
X8665301Y-16556484D02*
X8646253Y-16546960D01*
X8646253Y-16546960D02*
X8636730Y-16527912D01*
X8636730Y-16527912D02*
X8636730Y-16451722D01*
X8636730Y-16451722D02*
X8646253Y-16432674D01*
X8646253Y-16432674D02*
X8665301Y-16423150D01*
X8665301Y-16423150D02*
X8703396Y-16423150D01*
X8703396Y-16423150D02*
X8722444Y-16432674D01*
X8722444Y-16432674D02*
X8731968Y-16451722D01*
X8731968Y-16451722D02*
X8731968Y-16470769D01*
X8731968Y-16470769D02*
X8636730Y-16489817D01*
X8808158Y-16546960D02*
X8827206Y-16556484D01*
X8827206Y-16556484D02*
X8865301Y-16556484D01*
X8865301Y-16556484D02*
X8884349Y-16546960D01*
X8884349Y-16546960D02*
X8893873Y-16527912D01*
X8893873Y-16527912D02*
X8893873Y-16518388D01*
X8893873Y-16518388D02*
X8884349Y-16499341D01*
X8884349Y-16499341D02*
X8865301Y-16489817D01*
X8865301Y-16489817D02*
X8836730Y-16489817D01*
X8836730Y-16489817D02*
X8817682Y-16480293D01*
X8817682Y-16480293D02*
X8808158Y-16461246D01*
X8808158Y-16461246D02*
X8808158Y-16451722D01*
X8808158Y-16451722D02*
X8817682Y-16432674D01*
X8817682Y-16432674D02*
X8836730Y-16423150D01*
X8836730Y-16423150D02*
X8865301Y-16423150D01*
X8865301Y-16423150D02*
X8884349Y-16432674D01*
X8960539Y-16632674D02*
X8970063Y-16623150D01*
X8970063Y-16623150D02*
X8989111Y-16594579D01*
X8989111Y-16594579D02*
X8998634Y-16575531D01*
X8998634Y-16575531D02*
X9008158Y-16546960D01*
X9008158Y-16546960D02*
X9017682Y-16499341D01*
X9017682Y-16499341D02*
X9017682Y-16461246D01*
X9017682Y-16461246D02*
X9008158Y-16413627D01*
X9008158Y-16413627D02*
X8998634Y-16385055D01*
X8998634Y-16385055D02*
X8989111Y-16366008D01*
X8989111Y-16366008D02*
X8970063Y-16337436D01*
X8970063Y-16337436D02*
X8960539Y-16327912D01*
D14*
X3875000Y-16669000D02*
X3995000Y-16789000D01*
X3995000Y-16669000D02*
X3875000Y-16789000D01*
X3935000Y-16669000D02*
X3935000Y-16789000D01*
X3875000Y-16729000D02*
X3995000Y-16729000D01*
D11*
X4360539Y-16820484D02*
X4246253Y-16820484D01*
X4303396Y-16820484D02*
X4303396Y-16620484D01*
X4303396Y-16620484D02*
X4284348Y-16649055D01*
X4284348Y-16649055D02*
X4265301Y-16668103D01*
X4265301Y-16668103D02*
X4246253Y-16677627D01*
X4446253Y-16801436D02*
X4455777Y-16810960D01*
X4455777Y-16810960D02*
X4446253Y-16820484D01*
X4446253Y-16820484D02*
X4436729Y-16810960D01*
X4436729Y-16810960D02*
X4446253Y-16801436D01*
X4446253Y-16801436D02*
X4446253Y-16820484D01*
X4531967Y-16639531D02*
X4541491Y-16630008D01*
X4541491Y-16630008D02*
X4560539Y-16620484D01*
X4560539Y-16620484D02*
X4608158Y-16620484D01*
X4608158Y-16620484D02*
X4627205Y-16630008D01*
X4627205Y-16630008D02*
X4636729Y-16639531D01*
X4636729Y-16639531D02*
X4646253Y-16658579D01*
X4646253Y-16658579D02*
X4646253Y-16677627D01*
X4646253Y-16677627D02*
X4636729Y-16706198D01*
X4636729Y-16706198D02*
X4522444Y-16820484D01*
X4522444Y-16820484D02*
X4646253Y-16820484D01*
X4770063Y-16620484D02*
X4789110Y-16620484D01*
X4789110Y-16620484D02*
X4808158Y-16630008D01*
X4808158Y-16630008D02*
X4817682Y-16639531D01*
X4817682Y-16639531D02*
X4827205Y-16658579D01*
X4827205Y-16658579D02*
X4836729Y-16696674D01*
X4836729Y-16696674D02*
X4836729Y-16744293D01*
X4836729Y-16744293D02*
X4827205Y-16782389D01*
X4827205Y-16782389D02*
X4817682Y-16801436D01*
X4817682Y-16801436D02*
X4808158Y-16810960D01*
X4808158Y-16810960D02*
X4789110Y-16820484D01*
X4789110Y-16820484D02*
X4770063Y-16820484D01*
X4770063Y-16820484D02*
X4751015Y-16810960D01*
X4751015Y-16810960D02*
X4741491Y-16801436D01*
X4741491Y-16801436D02*
X4731967Y-16782389D01*
X4731967Y-16782389D02*
X4722444Y-16744293D01*
X4722444Y-16744293D02*
X4722444Y-16696674D01*
X4722444Y-16696674D02*
X4731967Y-16658579D01*
X4731967Y-16658579D02*
X4741491Y-16639531D01*
X4741491Y-16639531D02*
X4751015Y-16630008D01*
X4751015Y-16630008D02*
X4770063Y-16620484D01*
X4960539Y-16620484D02*
X4979586Y-16620484D01*
X4979586Y-16620484D02*
X4998634Y-16630008D01*
X4998634Y-16630008D02*
X5008158Y-16639531D01*
X5008158Y-16639531D02*
X5017682Y-16658579D01*
X5017682Y-16658579D02*
X5027205Y-16696674D01*
X5027205Y-16696674D02*
X5027205Y-16744293D01*
X5027205Y-16744293D02*
X5017682Y-16782389D01*
X5017682Y-16782389D02*
X5008158Y-16801436D01*
X5008158Y-16801436D02*
X4998634Y-16810960D01*
X4998634Y-16810960D02*
X4979586Y-16820484D01*
X4979586Y-16820484D02*
X4960539Y-16820484D01*
X4960539Y-16820484D02*
X4941491Y-16810960D01*
X4941491Y-16810960D02*
X4931967Y-16801436D01*
X4931967Y-16801436D02*
X4922444Y-16782389D01*
X4922444Y-16782389D02*
X4912920Y-16744293D01*
X4912920Y-16744293D02*
X4912920Y-16696674D01*
X4912920Y-16696674D02*
X4922444Y-16658579D01*
X4922444Y-16658579D02*
X4931967Y-16639531D01*
X4931967Y-16639531D02*
X4941491Y-16630008D01*
X4941491Y-16630008D02*
X4960539Y-16620484D01*
X5112920Y-16820484D02*
X5112920Y-16687150D01*
X5112920Y-16706198D02*
X5122444Y-16696674D01*
X5122444Y-16696674D02*
X5141491Y-16687150D01*
X5141491Y-16687150D02*
X5170063Y-16687150D01*
X5170063Y-16687150D02*
X5189110Y-16696674D01*
X5189110Y-16696674D02*
X5198634Y-16715722D01*
X5198634Y-16715722D02*
X5198634Y-16820484D01*
X5198634Y-16715722D02*
X5208158Y-16696674D01*
X5208158Y-16696674D02*
X5227205Y-16687150D01*
X5227205Y-16687150D02*
X5255777Y-16687150D01*
X5255777Y-16687150D02*
X5274825Y-16696674D01*
X5274825Y-16696674D02*
X5284348Y-16715722D01*
X5284348Y-16715722D02*
X5284348Y-16820484D01*
X5379586Y-16820484D02*
X5379586Y-16687150D01*
X5379586Y-16706198D02*
X5389110Y-16696674D01*
X5389110Y-16696674D02*
X5408158Y-16687150D01*
X5408158Y-16687150D02*
X5436729Y-16687150D01*
X5436729Y-16687150D02*
X5455777Y-16696674D01*
X5455777Y-16696674D02*
X5465301Y-16715722D01*
X5465301Y-16715722D02*
X5465301Y-16820484D01*
X5465301Y-16715722D02*
X5474825Y-16696674D01*
X5474825Y-16696674D02*
X5493872Y-16687150D01*
X5493872Y-16687150D02*
X5522444Y-16687150D01*
X5522444Y-16687150D02*
X5541491Y-16696674D01*
X5541491Y-16696674D02*
X5551015Y-16715722D01*
X5551015Y-16715722D02*
X5551015Y-16820484D01*
X5941491Y-16610960D02*
X5770063Y-16868103D01*
X6198634Y-16620484D02*
X6217682Y-16620484D01*
X6217682Y-16620484D02*
X6236729Y-16630008D01*
X6236729Y-16630008D02*
X6246253Y-16639531D01*
X6246253Y-16639531D02*
X6255777Y-16658579D01*
X6255777Y-16658579D02*
X6265301Y-16696674D01*
X6265301Y-16696674D02*
X6265301Y-16744293D01*
X6265301Y-16744293D02*
X6255777Y-16782389D01*
X6255777Y-16782389D02*
X6246253Y-16801436D01*
X6246253Y-16801436D02*
X6236729Y-16810960D01*
X6236729Y-16810960D02*
X6217682Y-16820484D01*
X6217682Y-16820484D02*
X6198634Y-16820484D01*
X6198634Y-16820484D02*
X6179586Y-16810960D01*
X6179586Y-16810960D02*
X6170063Y-16801436D01*
X6170063Y-16801436D02*
X6160539Y-16782389D01*
X6160539Y-16782389D02*
X6151015Y-16744293D01*
X6151015Y-16744293D02*
X6151015Y-16696674D01*
X6151015Y-16696674D02*
X6160539Y-16658579D01*
X6160539Y-16658579D02*
X6170063Y-16639531D01*
X6170063Y-16639531D02*
X6179586Y-16630008D01*
X6179586Y-16630008D02*
X6198634Y-16620484D01*
X6351015Y-16801436D02*
X6360539Y-16810960D01*
X6360539Y-16810960D02*
X6351015Y-16820484D01*
X6351015Y-16820484D02*
X6341491Y-16810960D01*
X6341491Y-16810960D02*
X6351015Y-16801436D01*
X6351015Y-16801436D02*
X6351015Y-16820484D01*
X6484348Y-16620484D02*
X6503396Y-16620484D01*
X6503396Y-16620484D02*
X6522444Y-16630008D01*
X6522444Y-16630008D02*
X6531967Y-16639531D01*
X6531967Y-16639531D02*
X6541491Y-16658579D01*
X6541491Y-16658579D02*
X6551015Y-16696674D01*
X6551015Y-16696674D02*
X6551015Y-16744293D01*
X6551015Y-16744293D02*
X6541491Y-16782389D01*
X6541491Y-16782389D02*
X6531967Y-16801436D01*
X6531967Y-16801436D02*
X6522444Y-16810960D01*
X6522444Y-16810960D02*
X6503396Y-16820484D01*
X6503396Y-16820484D02*
X6484348Y-16820484D01*
X6484348Y-16820484D02*
X6465301Y-16810960D01*
X6465301Y-16810960D02*
X6455777Y-16801436D01*
X6455777Y-16801436D02*
X6446253Y-16782389D01*
X6446253Y-16782389D02*
X6436729Y-16744293D01*
X6436729Y-16744293D02*
X6436729Y-16696674D01*
X6436729Y-16696674D02*
X6446253Y-16658579D01*
X6446253Y-16658579D02*
X6455777Y-16639531D01*
X6455777Y-16639531D02*
X6465301Y-16630008D01*
X6465301Y-16630008D02*
X6484348Y-16620484D01*
X6722444Y-16687150D02*
X6722444Y-16820484D01*
X6674825Y-16610960D02*
X6627206Y-16753817D01*
X6627206Y-16753817D02*
X6751015Y-16753817D01*
X6808158Y-16620484D02*
X6941491Y-16620484D01*
X6941491Y-16620484D02*
X6855777Y-16820484D01*
X7008158Y-16639531D02*
X7017682Y-16630008D01*
X7017682Y-16630008D02*
X7036729Y-16620484D01*
X7036729Y-16620484D02*
X7084348Y-16620484D01*
X7084348Y-16620484D02*
X7103396Y-16630008D01*
X7103396Y-16630008D02*
X7112920Y-16639531D01*
X7112920Y-16639531D02*
X7122444Y-16658579D01*
X7122444Y-16658579D02*
X7122444Y-16677627D01*
X7122444Y-16677627D02*
X7112920Y-16706198D01*
X7112920Y-16706198D02*
X6998634Y-16820484D01*
X6998634Y-16820484D02*
X7122444Y-16820484D01*
X7198634Y-16620484D02*
X7198634Y-16658579D01*
X7274825Y-16620484D02*
X7274825Y-16658579D01*
X7570063Y-16896674D02*
X7560539Y-16887150D01*
X7560539Y-16887150D02*
X7541491Y-16858579D01*
X7541491Y-16858579D02*
X7531968Y-16839531D01*
X7531968Y-16839531D02*
X7522444Y-16810960D01*
X7522444Y-16810960D02*
X7512920Y-16763341D01*
X7512920Y-16763341D02*
X7512920Y-16725246D01*
X7512920Y-16725246D02*
X7522444Y-16677627D01*
X7522444Y-16677627D02*
X7531968Y-16649055D01*
X7531968Y-16649055D02*
X7541491Y-16630008D01*
X7541491Y-16630008D02*
X7560539Y-16601436D01*
X7560539Y-16601436D02*
X7570063Y-16591912D01*
X7731968Y-16687150D02*
X7731968Y-16820484D01*
X7684348Y-16610960D02*
X7636729Y-16753817D01*
X7636729Y-16753817D02*
X7760539Y-16753817D01*
X7989110Y-16820484D02*
X7989110Y-16620484D01*
X8074825Y-16820484D02*
X8074825Y-16715722D01*
X8074825Y-16715722D02*
X8065301Y-16696674D01*
X8065301Y-16696674D02*
X8046253Y-16687150D01*
X8046253Y-16687150D02*
X8017682Y-16687150D01*
X8017682Y-16687150D02*
X7998634Y-16696674D01*
X7998634Y-16696674D02*
X7989110Y-16706198D01*
X8198634Y-16820484D02*
X8179587Y-16810960D01*
X8179587Y-16810960D02*
X8170063Y-16801436D01*
X8170063Y-16801436D02*
X8160539Y-16782389D01*
X8160539Y-16782389D02*
X8160539Y-16725246D01*
X8160539Y-16725246D02*
X8170063Y-16706198D01*
X8170063Y-16706198D02*
X8179587Y-16696674D01*
X8179587Y-16696674D02*
X8198634Y-16687150D01*
X8198634Y-16687150D02*
X8227206Y-16687150D01*
X8227206Y-16687150D02*
X8246253Y-16696674D01*
X8246253Y-16696674D02*
X8255777Y-16706198D01*
X8255777Y-16706198D02*
X8265301Y-16725246D01*
X8265301Y-16725246D02*
X8265301Y-16782389D01*
X8265301Y-16782389D02*
X8255777Y-16801436D01*
X8255777Y-16801436D02*
X8246253Y-16810960D01*
X8246253Y-16810960D02*
X8227206Y-16820484D01*
X8227206Y-16820484D02*
X8198634Y-16820484D01*
X8379587Y-16820484D02*
X8360539Y-16810960D01*
X8360539Y-16810960D02*
X8351015Y-16791912D01*
X8351015Y-16791912D02*
X8351015Y-16620484D01*
X8531968Y-16810960D02*
X8512920Y-16820484D01*
X8512920Y-16820484D02*
X8474825Y-16820484D01*
X8474825Y-16820484D02*
X8455777Y-16810960D01*
X8455777Y-16810960D02*
X8446253Y-16791912D01*
X8446253Y-16791912D02*
X8446253Y-16715722D01*
X8446253Y-16715722D02*
X8455777Y-16696674D01*
X8455777Y-16696674D02*
X8474825Y-16687150D01*
X8474825Y-16687150D02*
X8512920Y-16687150D01*
X8512920Y-16687150D02*
X8531968Y-16696674D01*
X8531968Y-16696674D02*
X8541492Y-16715722D01*
X8541492Y-16715722D02*
X8541492Y-16734769D01*
X8541492Y-16734769D02*
X8446253Y-16753817D01*
X8617682Y-16810960D02*
X8636730Y-16820484D01*
X8636730Y-16820484D02*
X8674825Y-16820484D01*
X8674825Y-16820484D02*
X8693873Y-16810960D01*
X8693873Y-16810960D02*
X8703396Y-16791912D01*
X8703396Y-16791912D02*
X8703396Y-16782389D01*
X8703396Y-16782389D02*
X8693873Y-16763341D01*
X8693873Y-16763341D02*
X8674825Y-16753817D01*
X8674825Y-16753817D02*
X8646253Y-16753817D01*
X8646253Y-16753817D02*
X8627206Y-16744293D01*
X8627206Y-16744293D02*
X8617682Y-16725246D01*
X8617682Y-16725246D02*
X8617682Y-16715722D01*
X8617682Y-16715722D02*
X8627206Y-16696674D01*
X8627206Y-16696674D02*
X8646253Y-16687150D01*
X8646253Y-16687150D02*
X8674825Y-16687150D01*
X8674825Y-16687150D02*
X8693873Y-16696674D01*
X8770063Y-16896674D02*
X8779587Y-16887150D01*
X8779587Y-16887150D02*
X8798634Y-16858579D01*
X8798634Y-16858579D02*
X8808158Y-16839531D01*
X8808158Y-16839531D02*
X8817682Y-16810960D01*
X8817682Y-16810960D02*
X8827206Y-16763341D01*
X8827206Y-16763341D02*
X8827206Y-16725246D01*
X8827206Y-16725246D02*
X8817682Y-16677627D01*
X8817682Y-16677627D02*
X8808158Y-16649055D01*
X8808158Y-16649055D02*
X8798634Y-16630008D01*
X8798634Y-16630008D02*
X8779587Y-16601436D01*
X8779587Y-16601436D02*
X8770063Y-16591912D01*
D15*
X3855300Y-16923150D02*
X3995000Y-17062850D01*
X3995000Y-16923150D02*
X3855300Y-17062850D01*
X3974542Y-17042392D02*
X3974542Y-16943608D01*
X3875758Y-16943608D01*
X3875758Y-17042392D01*
X3974542Y-17042392D01*
D11*
X4360539Y-17084484D02*
X4246253Y-17084484D01*
X4303396Y-17084484D02*
X4303396Y-16884484D01*
X4303396Y-16884484D02*
X4284348Y-16913055D01*
X4284348Y-16913055D02*
X4265301Y-16932103D01*
X4265301Y-16932103D02*
X4246253Y-16941627D01*
X4446253Y-17065436D02*
X4455777Y-17074960D01*
X4455777Y-17074960D02*
X4446253Y-17084484D01*
X4446253Y-17084484D02*
X4436729Y-17074960D01*
X4436729Y-17074960D02*
X4446253Y-17065436D01*
X4446253Y-17065436D02*
X4446253Y-17084484D01*
X4522444Y-16884484D02*
X4646253Y-16884484D01*
X4646253Y-16884484D02*
X4579586Y-16960674D01*
X4579586Y-16960674D02*
X4608158Y-16960674D01*
X4608158Y-16960674D02*
X4627205Y-16970198D01*
X4627205Y-16970198D02*
X4636729Y-16979722D01*
X4636729Y-16979722D02*
X4646253Y-16998770D01*
X4646253Y-16998770D02*
X4646253Y-17046389D01*
X4646253Y-17046389D02*
X4636729Y-17065436D01*
X4636729Y-17065436D02*
X4627205Y-17074960D01*
X4627205Y-17074960D02*
X4608158Y-17084484D01*
X4608158Y-17084484D02*
X4551015Y-17084484D01*
X4551015Y-17084484D02*
X4531967Y-17074960D01*
X4531967Y-17074960D02*
X4522444Y-17065436D01*
X4741491Y-17084484D02*
X4779586Y-17084484D01*
X4779586Y-17084484D02*
X4798634Y-17074960D01*
X4798634Y-17074960D02*
X4808158Y-17065436D01*
X4808158Y-17065436D02*
X4827205Y-17036865D01*
X4827205Y-17036865D02*
X4836729Y-16998770D01*
X4836729Y-16998770D02*
X4836729Y-16922579D01*
X4836729Y-16922579D02*
X4827205Y-16903531D01*
X4827205Y-16903531D02*
X4817682Y-16894008D01*
X4817682Y-16894008D02*
X4798634Y-16884484D01*
X4798634Y-16884484D02*
X4760539Y-16884484D01*
X4760539Y-16884484D02*
X4741491Y-16894008D01*
X4741491Y-16894008D02*
X4731967Y-16903531D01*
X4731967Y-16903531D02*
X4722444Y-16922579D01*
X4722444Y-16922579D02*
X4722444Y-16970198D01*
X4722444Y-16970198D02*
X4731967Y-16989246D01*
X4731967Y-16989246D02*
X4741491Y-16998770D01*
X4741491Y-16998770D02*
X4760539Y-17008293D01*
X4760539Y-17008293D02*
X4798634Y-17008293D01*
X4798634Y-17008293D02*
X4817682Y-16998770D01*
X4817682Y-16998770D02*
X4827205Y-16989246D01*
X4827205Y-16989246D02*
X4836729Y-16970198D01*
X4903396Y-16884484D02*
X5036729Y-16884484D01*
X5036729Y-16884484D02*
X4951015Y-17084484D01*
X5112920Y-17084484D02*
X5112920Y-16951150D01*
X5112920Y-16970198D02*
X5122444Y-16960674D01*
X5122444Y-16960674D02*
X5141491Y-16951150D01*
X5141491Y-16951150D02*
X5170063Y-16951150D01*
X5170063Y-16951150D02*
X5189110Y-16960674D01*
X5189110Y-16960674D02*
X5198634Y-16979722D01*
X5198634Y-16979722D02*
X5198634Y-17084484D01*
X5198634Y-16979722D02*
X5208158Y-16960674D01*
X5208158Y-16960674D02*
X5227205Y-16951150D01*
X5227205Y-16951150D02*
X5255777Y-16951150D01*
X5255777Y-16951150D02*
X5274825Y-16960674D01*
X5274825Y-16960674D02*
X5284348Y-16979722D01*
X5284348Y-16979722D02*
X5284348Y-17084484D01*
X5379586Y-17084484D02*
X5379586Y-16951150D01*
X5379586Y-16970198D02*
X5389110Y-16960674D01*
X5389110Y-16960674D02*
X5408158Y-16951150D01*
X5408158Y-16951150D02*
X5436729Y-16951150D01*
X5436729Y-16951150D02*
X5455777Y-16960674D01*
X5455777Y-16960674D02*
X5465301Y-16979722D01*
X5465301Y-16979722D02*
X5465301Y-17084484D01*
X5465301Y-16979722D02*
X5474825Y-16960674D01*
X5474825Y-16960674D02*
X5493872Y-16951150D01*
X5493872Y-16951150D02*
X5522444Y-16951150D01*
X5522444Y-16951150D02*
X5541491Y-16960674D01*
X5541491Y-16960674D02*
X5551015Y-16979722D01*
X5551015Y-16979722D02*
X5551015Y-17084484D01*
X5941491Y-16874960D02*
X5770063Y-17132103D01*
X6198634Y-16884484D02*
X6217682Y-16884484D01*
X6217682Y-16884484D02*
X6236729Y-16894008D01*
X6236729Y-16894008D02*
X6246253Y-16903531D01*
X6246253Y-16903531D02*
X6255777Y-16922579D01*
X6255777Y-16922579D02*
X6265301Y-16960674D01*
X6265301Y-16960674D02*
X6265301Y-17008293D01*
X6265301Y-17008293D02*
X6255777Y-17046389D01*
X6255777Y-17046389D02*
X6246253Y-17065436D01*
X6246253Y-17065436D02*
X6236729Y-17074960D01*
X6236729Y-17074960D02*
X6217682Y-17084484D01*
X6217682Y-17084484D02*
X6198634Y-17084484D01*
X6198634Y-17084484D02*
X6179586Y-17074960D01*
X6179586Y-17074960D02*
X6170063Y-17065436D01*
X6170063Y-17065436D02*
X6160539Y-17046389D01*
X6160539Y-17046389D02*
X6151015Y-17008293D01*
X6151015Y-17008293D02*
X6151015Y-16960674D01*
X6151015Y-16960674D02*
X6160539Y-16922579D01*
X6160539Y-16922579D02*
X6170063Y-16903531D01*
X6170063Y-16903531D02*
X6179586Y-16894008D01*
X6179586Y-16894008D02*
X6198634Y-16884484D01*
X6351015Y-17065436D02*
X6360539Y-17074960D01*
X6360539Y-17074960D02*
X6351015Y-17084484D01*
X6351015Y-17084484D02*
X6341491Y-17074960D01*
X6341491Y-17074960D02*
X6351015Y-17065436D01*
X6351015Y-17065436D02*
X6351015Y-17084484D01*
X6484348Y-16884484D02*
X6503396Y-16884484D01*
X6503396Y-16884484D02*
X6522444Y-16894008D01*
X6522444Y-16894008D02*
X6531967Y-16903531D01*
X6531967Y-16903531D02*
X6541491Y-16922579D01*
X6541491Y-16922579D02*
X6551015Y-16960674D01*
X6551015Y-16960674D02*
X6551015Y-17008293D01*
X6551015Y-17008293D02*
X6541491Y-17046389D01*
X6541491Y-17046389D02*
X6531967Y-17065436D01*
X6531967Y-17065436D02*
X6522444Y-17074960D01*
X6522444Y-17074960D02*
X6503396Y-17084484D01*
X6503396Y-17084484D02*
X6484348Y-17084484D01*
X6484348Y-17084484D02*
X6465301Y-17074960D01*
X6465301Y-17074960D02*
X6455777Y-17065436D01*
X6455777Y-17065436D02*
X6446253Y-17046389D01*
X6446253Y-17046389D02*
X6436729Y-17008293D01*
X6436729Y-17008293D02*
X6436729Y-16960674D01*
X6436729Y-16960674D02*
X6446253Y-16922579D01*
X6446253Y-16922579D02*
X6455777Y-16903531D01*
X6455777Y-16903531D02*
X6465301Y-16894008D01*
X6465301Y-16894008D02*
X6484348Y-16884484D01*
X6731967Y-16884484D02*
X6636729Y-16884484D01*
X6636729Y-16884484D02*
X6627206Y-16979722D01*
X6627206Y-16979722D02*
X6636729Y-16970198D01*
X6636729Y-16970198D02*
X6655777Y-16960674D01*
X6655777Y-16960674D02*
X6703396Y-16960674D01*
X6703396Y-16960674D02*
X6722444Y-16970198D01*
X6722444Y-16970198D02*
X6731967Y-16979722D01*
X6731967Y-16979722D02*
X6741491Y-16998770D01*
X6741491Y-16998770D02*
X6741491Y-17046389D01*
X6741491Y-17046389D02*
X6731967Y-17065436D01*
X6731967Y-17065436D02*
X6722444Y-17074960D01*
X6722444Y-17074960D02*
X6703396Y-17084484D01*
X6703396Y-17084484D02*
X6655777Y-17084484D01*
X6655777Y-17084484D02*
X6636729Y-17074960D01*
X6636729Y-17074960D02*
X6627206Y-17065436D01*
X6922444Y-16884484D02*
X6827206Y-16884484D01*
X6827206Y-16884484D02*
X6817682Y-16979722D01*
X6817682Y-16979722D02*
X6827206Y-16970198D01*
X6827206Y-16970198D02*
X6846253Y-16960674D01*
X6846253Y-16960674D02*
X6893872Y-16960674D01*
X6893872Y-16960674D02*
X6912920Y-16970198D01*
X6912920Y-16970198D02*
X6922444Y-16979722D01*
X6922444Y-16979722D02*
X6931967Y-16998770D01*
X6931967Y-16998770D02*
X6931967Y-17046389D01*
X6931967Y-17046389D02*
X6922444Y-17065436D01*
X6922444Y-17065436D02*
X6912920Y-17074960D01*
X6912920Y-17074960D02*
X6893872Y-17084484D01*
X6893872Y-17084484D02*
X6846253Y-17084484D01*
X6846253Y-17084484D02*
X6827206Y-17074960D01*
X6827206Y-17074960D02*
X6817682Y-17065436D01*
X7055777Y-16884484D02*
X7074825Y-16884484D01*
X7074825Y-16884484D02*
X7093872Y-16894008D01*
X7093872Y-16894008D02*
X7103396Y-16903531D01*
X7103396Y-16903531D02*
X7112920Y-16922579D01*
X7112920Y-16922579D02*
X7122444Y-16960674D01*
X7122444Y-16960674D02*
X7122444Y-17008293D01*
X7122444Y-17008293D02*
X7112920Y-17046389D01*
X7112920Y-17046389D02*
X7103396Y-17065436D01*
X7103396Y-17065436D02*
X7093872Y-17074960D01*
X7093872Y-17074960D02*
X7074825Y-17084484D01*
X7074825Y-17084484D02*
X7055777Y-17084484D01*
X7055777Y-17084484D02*
X7036729Y-17074960D01*
X7036729Y-17074960D02*
X7027206Y-17065436D01*
X7027206Y-17065436D02*
X7017682Y-17046389D01*
X7017682Y-17046389D02*
X7008158Y-17008293D01*
X7008158Y-17008293D02*
X7008158Y-16960674D01*
X7008158Y-16960674D02*
X7017682Y-16922579D01*
X7017682Y-16922579D02*
X7027206Y-16903531D01*
X7027206Y-16903531D02*
X7036729Y-16894008D01*
X7036729Y-16894008D02*
X7055777Y-16884484D01*
X7198634Y-16884484D02*
X7198634Y-16922579D01*
X7274825Y-16884484D02*
X7274825Y-16922579D01*
X7570063Y-17160674D02*
X7560539Y-17151150D01*
X7560539Y-17151150D02*
X7541491Y-17122579D01*
X7541491Y-17122579D02*
X7531968Y-17103531D01*
X7531968Y-17103531D02*
X7522444Y-17074960D01*
X7522444Y-17074960D02*
X7512920Y-17027341D01*
X7512920Y-17027341D02*
X7512920Y-16989246D01*
X7512920Y-16989246D02*
X7522444Y-16941627D01*
X7522444Y-16941627D02*
X7531968Y-16913055D01*
X7531968Y-16913055D02*
X7541491Y-16894008D01*
X7541491Y-16894008D02*
X7560539Y-16865436D01*
X7560539Y-16865436D02*
X7570063Y-16855912D01*
X7741491Y-16884484D02*
X7646253Y-16884484D01*
X7646253Y-16884484D02*
X7636729Y-16979722D01*
X7636729Y-16979722D02*
X7646253Y-16970198D01*
X7646253Y-16970198D02*
X7665301Y-16960674D01*
X7665301Y-16960674D02*
X7712920Y-16960674D01*
X7712920Y-16960674D02*
X7731968Y-16970198D01*
X7731968Y-16970198D02*
X7741491Y-16979722D01*
X7741491Y-16979722D02*
X7751015Y-16998770D01*
X7751015Y-16998770D02*
X7751015Y-17046389D01*
X7751015Y-17046389D02*
X7741491Y-17065436D01*
X7741491Y-17065436D02*
X7731968Y-17074960D01*
X7731968Y-17074960D02*
X7712920Y-17084484D01*
X7712920Y-17084484D02*
X7665301Y-17084484D01*
X7665301Y-17084484D02*
X7646253Y-17074960D01*
X7646253Y-17074960D02*
X7636729Y-17065436D01*
X7989110Y-17084484D02*
X7989110Y-16884484D01*
X8074825Y-17084484D02*
X8074825Y-16979722D01*
X8074825Y-16979722D02*
X8065301Y-16960674D01*
X8065301Y-16960674D02*
X8046253Y-16951150D01*
X8046253Y-16951150D02*
X8017682Y-16951150D01*
X8017682Y-16951150D02*
X7998634Y-16960674D01*
X7998634Y-16960674D02*
X7989110Y-16970198D01*
X8198634Y-17084484D02*
X8179587Y-17074960D01*
X8179587Y-17074960D02*
X8170063Y-17065436D01*
X8170063Y-17065436D02*
X8160539Y-17046389D01*
X8160539Y-17046389D02*
X8160539Y-16989246D01*
X8160539Y-16989246D02*
X8170063Y-16970198D01*
X8170063Y-16970198D02*
X8179587Y-16960674D01*
X8179587Y-16960674D02*
X8198634Y-16951150D01*
X8198634Y-16951150D02*
X8227206Y-16951150D01*
X8227206Y-16951150D02*
X8246253Y-16960674D01*
X8246253Y-16960674D02*
X8255777Y-16970198D01*
X8255777Y-16970198D02*
X8265301Y-16989246D01*
X8265301Y-16989246D02*
X8265301Y-17046389D01*
X8265301Y-17046389D02*
X8255777Y-17065436D01*
X8255777Y-17065436D02*
X8246253Y-17074960D01*
X8246253Y-17074960D02*
X8227206Y-17084484D01*
X8227206Y-17084484D02*
X8198634Y-17084484D01*
X8379587Y-17084484D02*
X8360539Y-17074960D01*
X8360539Y-17074960D02*
X8351015Y-17055912D01*
X8351015Y-17055912D02*
X8351015Y-16884484D01*
X8531968Y-17074960D02*
X8512920Y-17084484D01*
X8512920Y-17084484D02*
X8474825Y-17084484D01*
X8474825Y-17084484D02*
X8455777Y-17074960D01*
X8455777Y-17074960D02*
X8446253Y-17055912D01*
X8446253Y-17055912D02*
X8446253Y-16979722D01*
X8446253Y-16979722D02*
X8455777Y-16960674D01*
X8455777Y-16960674D02*
X8474825Y-16951150D01*
X8474825Y-16951150D02*
X8512920Y-16951150D01*
X8512920Y-16951150D02*
X8531968Y-16960674D01*
X8531968Y-16960674D02*
X8541492Y-16979722D01*
X8541492Y-16979722D02*
X8541492Y-16998770D01*
X8541492Y-16998770D02*
X8446253Y-17017817D01*
X8617682Y-17074960D02*
X8636730Y-17084484D01*
X8636730Y-17084484D02*
X8674825Y-17084484D01*
X8674825Y-17084484D02*
X8693873Y-17074960D01*
X8693873Y-17074960D02*
X8703396Y-17055912D01*
X8703396Y-17055912D02*
X8703396Y-17046389D01*
X8703396Y-17046389D02*
X8693873Y-17027341D01*
X8693873Y-17027341D02*
X8674825Y-17017817D01*
X8674825Y-17017817D02*
X8646253Y-17017817D01*
X8646253Y-17017817D02*
X8627206Y-17008293D01*
X8627206Y-17008293D02*
X8617682Y-16989246D01*
X8617682Y-16989246D02*
X8617682Y-16979722D01*
X8617682Y-16979722D02*
X8627206Y-16960674D01*
X8627206Y-16960674D02*
X8646253Y-16951150D01*
X8646253Y-16951150D02*
X8674825Y-16951150D01*
X8674825Y-16951150D02*
X8693873Y-16960674D01*
X8770063Y-17160674D02*
X8779587Y-17151150D01*
X8779587Y-17151150D02*
X8798634Y-17122579D01*
X8798634Y-17122579D02*
X8808158Y-17103531D01*
X8808158Y-17103531D02*
X8817682Y-17074960D01*
X8817682Y-17074960D02*
X8827206Y-17027341D01*
X8827206Y-17027341D02*
X8827206Y-16989246D01*
X8827206Y-16989246D02*
X8817682Y-16941627D01*
X8817682Y-16941627D02*
X8808158Y-16913055D01*
X8808158Y-16913055D02*
X8798634Y-16894008D01*
X8798634Y-16894008D02*
X8779587Y-16865436D01*
X8779587Y-16865436D02*
X8770063Y-16855912D01*
M02*
