%TF.GenerationSoftware,KiCad,Pcbnew,7.0.10*%
%TF.CreationDate,2024-03-03T10:32:20-06:00*%
%TF.ProjectId,Zimbelstern,5a696d62-656c-4737-9465-726e2e6b6963,rev?*%
%TF.SameCoordinates,Original*%
%TF.FileFunction,Legend,Top*%
%TF.FilePolarity,Positive*%
%FSLAX46Y46*%
G04 Gerber Fmt 4.6, Leading zero omitted, Abs format (unit mm)*
G04 Created by KiCad (PCBNEW 7.0.10) date 2024-03-03 10:32:20*
%MOMM*%
%LPD*%
G01*
G04 APERTURE LIST*
%ADD10C,0.150000*%
%ADD11C,0.304800*%
%ADD12C,0.120000*%
%ADD13C,2.499360*%
G04 APERTURE END LIST*
D10*
X77166666Y-142354819D02*
X77166666Y-143069104D01*
X77166666Y-143069104D02*
X77119047Y-143211961D01*
X77119047Y-143211961D02*
X77023809Y-143307200D01*
X77023809Y-143307200D02*
X76880952Y-143354819D01*
X76880952Y-143354819D02*
X76785714Y-143354819D01*
X78119047Y-142354819D02*
X77642857Y-142354819D01*
X77642857Y-142354819D02*
X77595238Y-142831009D01*
X77595238Y-142831009D02*
X77642857Y-142783390D01*
X77642857Y-142783390D02*
X77738095Y-142735771D01*
X77738095Y-142735771D02*
X77976190Y-142735771D01*
X77976190Y-142735771D02*
X78071428Y-142783390D01*
X78071428Y-142783390D02*
X78119047Y-142831009D01*
X78119047Y-142831009D02*
X78166666Y-142926247D01*
X78166666Y-142926247D02*
X78166666Y-143164342D01*
X78166666Y-143164342D02*
X78119047Y-143259580D01*
X78119047Y-143259580D02*
X78071428Y-143307200D01*
X78071428Y-143307200D02*
X77976190Y-143354819D01*
X77976190Y-143354819D02*
X77738095Y-143354819D01*
X77738095Y-143354819D02*
X77642857Y-143307200D01*
X77642857Y-143307200D02*
X77595238Y-143259580D01*
X75261904Y-135931009D02*
X75404761Y-135978628D01*
X75404761Y-135978628D02*
X75452380Y-136026247D01*
X75452380Y-136026247D02*
X75499999Y-136121485D01*
X75499999Y-136121485D02*
X75499999Y-136264342D01*
X75499999Y-136264342D02*
X75452380Y-136359580D01*
X75452380Y-136359580D02*
X75404761Y-136407200D01*
X75404761Y-136407200D02*
X75309523Y-136454819D01*
X75309523Y-136454819D02*
X74928571Y-136454819D01*
X74928571Y-136454819D02*
X74928571Y-135454819D01*
X74928571Y-135454819D02*
X75261904Y-135454819D01*
X75261904Y-135454819D02*
X75357142Y-135502438D01*
X75357142Y-135502438D02*
X75404761Y-135550057D01*
X75404761Y-135550057D02*
X75452380Y-135645295D01*
X75452380Y-135645295D02*
X75452380Y-135740533D01*
X75452380Y-135740533D02*
X75404761Y-135835771D01*
X75404761Y-135835771D02*
X75357142Y-135883390D01*
X75357142Y-135883390D02*
X75261904Y-135931009D01*
X75261904Y-135931009D02*
X74928571Y-135931009D01*
X76309523Y-136407200D02*
X76214285Y-136454819D01*
X76214285Y-136454819D02*
X76023809Y-136454819D01*
X76023809Y-136454819D02*
X75928571Y-136407200D01*
X75928571Y-136407200D02*
X75880952Y-136311961D01*
X75880952Y-136311961D02*
X75880952Y-135931009D01*
X75880952Y-135931009D02*
X75928571Y-135835771D01*
X75928571Y-135835771D02*
X76023809Y-135788152D01*
X76023809Y-135788152D02*
X76214285Y-135788152D01*
X76214285Y-135788152D02*
X76309523Y-135835771D01*
X76309523Y-135835771D02*
X76357142Y-135931009D01*
X76357142Y-135931009D02*
X76357142Y-136026247D01*
X76357142Y-136026247D02*
X75880952Y-136121485D01*
X76928571Y-136454819D02*
X76833333Y-136407200D01*
X76833333Y-136407200D02*
X76785714Y-136311961D01*
X76785714Y-136311961D02*
X76785714Y-135454819D01*
X77452381Y-136454819D02*
X77357143Y-136407200D01*
X77357143Y-136407200D02*
X77309524Y-136311961D01*
X77309524Y-136311961D02*
X77309524Y-135454819D01*
X79119048Y-135502438D02*
X79023810Y-135454819D01*
X79023810Y-135454819D02*
X78880953Y-135454819D01*
X78880953Y-135454819D02*
X78738096Y-135502438D01*
X78738096Y-135502438D02*
X78642858Y-135597676D01*
X78642858Y-135597676D02*
X78595239Y-135692914D01*
X78595239Y-135692914D02*
X78547620Y-135883390D01*
X78547620Y-135883390D02*
X78547620Y-136026247D01*
X78547620Y-136026247D02*
X78595239Y-136216723D01*
X78595239Y-136216723D02*
X78642858Y-136311961D01*
X78642858Y-136311961D02*
X78738096Y-136407200D01*
X78738096Y-136407200D02*
X78880953Y-136454819D01*
X78880953Y-136454819D02*
X78976191Y-136454819D01*
X78976191Y-136454819D02*
X79119048Y-136407200D01*
X79119048Y-136407200D02*
X79166667Y-136359580D01*
X79166667Y-136359580D02*
X79166667Y-136026247D01*
X79166667Y-136026247D02*
X78976191Y-136026247D01*
X79500001Y-135454819D02*
X80166667Y-135454819D01*
X80166667Y-135454819D02*
X79738096Y-136454819D01*
X69574761Y8089942D02*
X69479523Y8137561D01*
X69479523Y8137561D02*
X69384285Y8232800D01*
X69384285Y8232800D02*
X69241428Y8375657D01*
X69241428Y8375657D02*
X69146190Y8423276D01*
X69146190Y8423276D02*
X69050952Y8423276D01*
X69098571Y8185180D02*
X69003333Y8232800D01*
X69003333Y8232800D02*
X68908095Y8328038D01*
X68908095Y8328038D02*
X68860476Y8518514D01*
X68860476Y8518514D02*
X68860476Y8851847D01*
X68860476Y8851847D02*
X68908095Y9042323D01*
X68908095Y9042323D02*
X69003333Y9137561D01*
X69003333Y9137561D02*
X69098571Y9185180D01*
X69098571Y9185180D02*
X69289047Y9185180D01*
X69289047Y9185180D02*
X69384285Y9137561D01*
X69384285Y9137561D02*
X69479523Y9042323D01*
X69479523Y9042323D02*
X69527142Y8851847D01*
X69527142Y8851847D02*
X69527142Y8518514D01*
X69527142Y8518514D02*
X69479523Y8328038D01*
X69479523Y8328038D02*
X69384285Y8232800D01*
X69384285Y8232800D02*
X69289047Y8185180D01*
X69289047Y8185180D02*
X69098571Y8185180D01*
X69860476Y9185180D02*
X70527142Y9185180D01*
X70527142Y9185180D02*
X70098571Y8185180D01*
X53153157Y-84857571D02*
X53110300Y-84814714D01*
X53110300Y-84814714D02*
X53067442Y-84686142D01*
X53067442Y-84686142D02*
X53067442Y-84600428D01*
X53067442Y-84600428D02*
X53110300Y-84471857D01*
X53110300Y-84471857D02*
X53196014Y-84386142D01*
X53196014Y-84386142D02*
X53281728Y-84343285D01*
X53281728Y-84343285D02*
X53453157Y-84300428D01*
X53453157Y-84300428D02*
X53581728Y-84300428D01*
X53581728Y-84300428D02*
X53753157Y-84343285D01*
X53753157Y-84343285D02*
X53838871Y-84386142D01*
X53838871Y-84386142D02*
X53924585Y-84471857D01*
X53924585Y-84471857D02*
X53967442Y-84600428D01*
X53967442Y-84600428D02*
X53967442Y-84686142D01*
X53967442Y-84686142D02*
X53924585Y-84814714D01*
X53924585Y-84814714D02*
X53881728Y-84857571D01*
X53538871Y-87564285D02*
X53496014Y-87692857D01*
X53496014Y-87692857D02*
X53453157Y-87735714D01*
X53453157Y-87735714D02*
X53367442Y-87778571D01*
X53367442Y-87778571D02*
X53238871Y-87778571D01*
X53238871Y-87778571D02*
X53153157Y-87735714D01*
X53153157Y-87735714D02*
X53110300Y-87692857D01*
X53110300Y-87692857D02*
X53067442Y-87607142D01*
X53067442Y-87607142D02*
X53067442Y-87264285D01*
X53067442Y-87264285D02*
X53967442Y-87264285D01*
X53967442Y-87264285D02*
X53967442Y-87564285D01*
X53967442Y-87564285D02*
X53924585Y-87650000D01*
X53924585Y-87650000D02*
X53881728Y-87692857D01*
X53881728Y-87692857D02*
X53796014Y-87735714D01*
X53796014Y-87735714D02*
X53710300Y-87735714D01*
X53710300Y-87735714D02*
X53624585Y-87692857D01*
X53624585Y-87692857D02*
X53581728Y-87650000D01*
X53581728Y-87650000D02*
X53538871Y-87564285D01*
X53538871Y-87564285D02*
X53538871Y-87264285D01*
X53538871Y-90228142D02*
X53538871Y-90528142D01*
X53067442Y-90656714D02*
X53067442Y-90228142D01*
X53067442Y-90228142D02*
X53967442Y-90228142D01*
X53967442Y-90228142D02*
X53967442Y-90656714D01*
X67166666Y-142354819D02*
X67166666Y-143069104D01*
X67166666Y-143069104D02*
X67119047Y-143211961D01*
X67119047Y-143211961D02*
X67023809Y-143307200D01*
X67023809Y-143307200D02*
X66880952Y-143354819D01*
X66880952Y-143354819D02*
X66785714Y-143354819D01*
X68071428Y-142354819D02*
X67880952Y-142354819D01*
X67880952Y-142354819D02*
X67785714Y-142402438D01*
X67785714Y-142402438D02*
X67738095Y-142450057D01*
X67738095Y-142450057D02*
X67642857Y-142592914D01*
X67642857Y-142592914D02*
X67595238Y-142783390D01*
X67595238Y-142783390D02*
X67595238Y-143164342D01*
X67595238Y-143164342D02*
X67642857Y-143259580D01*
X67642857Y-143259580D02*
X67690476Y-143307200D01*
X67690476Y-143307200D02*
X67785714Y-143354819D01*
X67785714Y-143354819D02*
X67976190Y-143354819D01*
X67976190Y-143354819D02*
X68071428Y-143307200D01*
X68071428Y-143307200D02*
X68119047Y-143259580D01*
X68119047Y-143259580D02*
X68166666Y-143164342D01*
X68166666Y-143164342D02*
X68166666Y-142926247D01*
X68166666Y-142926247D02*
X68119047Y-142831009D01*
X68119047Y-142831009D02*
X68071428Y-142783390D01*
X68071428Y-142783390D02*
X67976190Y-142735771D01*
X67976190Y-142735771D02*
X67785714Y-142735771D01*
X67785714Y-142735771D02*
X67690476Y-142783390D01*
X67690476Y-142783390D02*
X67642857Y-142831009D01*
X67642857Y-142831009D02*
X67595238Y-142926247D01*
X65333332Y-135931009D02*
X65476189Y-135978628D01*
X65476189Y-135978628D02*
X65523808Y-136026247D01*
X65523808Y-136026247D02*
X65571427Y-136121485D01*
X65571427Y-136121485D02*
X65571427Y-136264342D01*
X65571427Y-136264342D02*
X65523808Y-136359580D01*
X65523808Y-136359580D02*
X65476189Y-136407200D01*
X65476189Y-136407200D02*
X65380951Y-136454819D01*
X65380951Y-136454819D02*
X64999999Y-136454819D01*
X64999999Y-136454819D02*
X64999999Y-135454819D01*
X64999999Y-135454819D02*
X65333332Y-135454819D01*
X65333332Y-135454819D02*
X65428570Y-135502438D01*
X65428570Y-135502438D02*
X65476189Y-135550057D01*
X65476189Y-135550057D02*
X65523808Y-135645295D01*
X65523808Y-135645295D02*
X65523808Y-135740533D01*
X65523808Y-135740533D02*
X65476189Y-135835771D01*
X65476189Y-135835771D02*
X65428570Y-135883390D01*
X65428570Y-135883390D02*
X65333332Y-135931009D01*
X65333332Y-135931009D02*
X64999999Y-135931009D01*
X66380951Y-136407200D02*
X66285713Y-136454819D01*
X66285713Y-136454819D02*
X66095237Y-136454819D01*
X66095237Y-136454819D02*
X65999999Y-136407200D01*
X65999999Y-136407200D02*
X65952380Y-136311961D01*
X65952380Y-136311961D02*
X65952380Y-135931009D01*
X65952380Y-135931009D02*
X65999999Y-135835771D01*
X65999999Y-135835771D02*
X66095237Y-135788152D01*
X66095237Y-135788152D02*
X66285713Y-135788152D01*
X66285713Y-135788152D02*
X66380951Y-135835771D01*
X66380951Y-135835771D02*
X66428570Y-135931009D01*
X66428570Y-135931009D02*
X66428570Y-136026247D01*
X66428570Y-136026247D02*
X65952380Y-136121485D01*
X66999999Y-136454819D02*
X66904761Y-136407200D01*
X66904761Y-136407200D02*
X66857142Y-136311961D01*
X66857142Y-136311961D02*
X66857142Y-135454819D01*
X67523809Y-136454819D02*
X67428571Y-136407200D01*
X67428571Y-136407200D02*
X67380952Y-136311961D01*
X67380952Y-136311961D02*
X67380952Y-135454819D01*
X69000000Y-135931009D02*
X68666667Y-135931009D01*
X68666667Y-136454819D02*
X68666667Y-135454819D01*
X68666667Y-135454819D02*
X69142857Y-135454819D01*
X69428572Y-135454819D02*
X70095238Y-135454819D01*
X70095238Y-135454819D02*
X69666667Y-136454819D01*
X41554819Y-113809523D02*
X42269104Y-113809523D01*
X42269104Y-113809523D02*
X42411961Y-113857142D01*
X42411961Y-113857142D02*
X42507200Y-113952380D01*
X42507200Y-113952380D02*
X42554819Y-114095237D01*
X42554819Y-114095237D02*
X42554819Y-114190475D01*
X42554819Y-112809523D02*
X42554819Y-113380951D01*
X42554819Y-113095237D02*
X41554819Y-113095237D01*
X41554819Y-113095237D02*
X41697676Y-113190475D01*
X41697676Y-113190475D02*
X41792914Y-113285713D01*
X41792914Y-113285713D02*
X41840533Y-113380951D01*
X41554819Y-112190475D02*
X41554819Y-112095237D01*
X41554819Y-112095237D02*
X41602438Y-111999999D01*
X41602438Y-111999999D02*
X41650057Y-111952380D01*
X41650057Y-111952380D02*
X41745295Y-111904761D01*
X41745295Y-111904761D02*
X41935771Y-111857142D01*
X41935771Y-111857142D02*
X42173866Y-111857142D01*
X42173866Y-111857142D02*
X42364342Y-111904761D01*
X42364342Y-111904761D02*
X42459580Y-111952380D01*
X42459580Y-111952380D02*
X42507200Y-111999999D01*
X42507200Y-111999999D02*
X42554819Y-112095237D01*
X42554819Y-112095237D02*
X42554819Y-112190475D01*
X42554819Y-112190475D02*
X42507200Y-112285713D01*
X42507200Y-112285713D02*
X42459580Y-112333332D01*
X42459580Y-112333332D02*
X42364342Y-112380951D01*
X42364342Y-112380951D02*
X42173866Y-112428570D01*
X42173866Y-112428570D02*
X41935771Y-112428570D01*
X41935771Y-112428570D02*
X41745295Y-112380951D01*
X41745295Y-112380951D02*
X41650057Y-112333332D01*
X41650057Y-112333332D02*
X41602438Y-112285713D01*
X41602438Y-112285713D02*
X41554819Y-112190475D01*
X48454819Y-115595237D02*
X49454819Y-115261904D01*
X49454819Y-115261904D02*
X48454819Y-114928571D01*
X49454819Y-114452380D02*
X49407200Y-114547618D01*
X49407200Y-114547618D02*
X49359580Y-114595237D01*
X49359580Y-114595237D02*
X49264342Y-114642856D01*
X49264342Y-114642856D02*
X48978628Y-114642856D01*
X48978628Y-114642856D02*
X48883390Y-114595237D01*
X48883390Y-114595237D02*
X48835771Y-114547618D01*
X48835771Y-114547618D02*
X48788152Y-114452380D01*
X48788152Y-114452380D02*
X48788152Y-114309523D01*
X48788152Y-114309523D02*
X48835771Y-114214285D01*
X48835771Y-114214285D02*
X48883390Y-114166666D01*
X48883390Y-114166666D02*
X48978628Y-114119047D01*
X48978628Y-114119047D02*
X49264342Y-114119047D01*
X49264342Y-114119047D02*
X49359580Y-114166666D01*
X49359580Y-114166666D02*
X49407200Y-114214285D01*
X49407200Y-114214285D02*
X49454819Y-114309523D01*
X49454819Y-114309523D02*
X49454819Y-114452380D01*
X49454819Y-113547618D02*
X49407200Y-113642856D01*
X49407200Y-113642856D02*
X49311961Y-113690475D01*
X49311961Y-113690475D02*
X48454819Y-113690475D01*
X48788152Y-112738094D02*
X49454819Y-112738094D01*
X48788152Y-113166665D02*
X49311961Y-113166665D01*
X49311961Y-113166665D02*
X49407200Y-113119046D01*
X49407200Y-113119046D02*
X49454819Y-113023808D01*
X49454819Y-113023808D02*
X49454819Y-112880951D01*
X49454819Y-112880951D02*
X49407200Y-112785713D01*
X49407200Y-112785713D02*
X49359580Y-112738094D01*
X49454819Y-112261903D02*
X48788152Y-112261903D01*
X48883390Y-112261903D02*
X48835771Y-112214284D01*
X48835771Y-112214284D02*
X48788152Y-112119046D01*
X48788152Y-112119046D02*
X48788152Y-111976189D01*
X48788152Y-111976189D02*
X48835771Y-111880951D01*
X48835771Y-111880951D02*
X48931009Y-111833332D01*
X48931009Y-111833332D02*
X49454819Y-111833332D01*
X48931009Y-111833332D02*
X48835771Y-111785713D01*
X48835771Y-111785713D02*
X48788152Y-111690475D01*
X48788152Y-111690475D02*
X48788152Y-111547618D01*
X48788152Y-111547618D02*
X48835771Y-111452379D01*
X48835771Y-111452379D02*
X48931009Y-111404760D01*
X48931009Y-111404760D02*
X49454819Y-111404760D01*
X49407200Y-110547618D02*
X49454819Y-110642856D01*
X49454819Y-110642856D02*
X49454819Y-110833332D01*
X49454819Y-110833332D02*
X49407200Y-110928570D01*
X49407200Y-110928570D02*
X49311961Y-110976189D01*
X49311961Y-110976189D02*
X48931009Y-110976189D01*
X48931009Y-110976189D02*
X48835771Y-110928570D01*
X48835771Y-110928570D02*
X48788152Y-110833332D01*
X48788152Y-110833332D02*
X48788152Y-110642856D01*
X48788152Y-110642856D02*
X48835771Y-110547618D01*
X48835771Y-110547618D02*
X48931009Y-110499999D01*
X48931009Y-110499999D02*
X49026247Y-110499999D01*
X49026247Y-110499999D02*
X49121485Y-110976189D01*
X46681905Y-133924819D02*
X46681905Y-132924819D01*
X46681905Y-132924819D02*
X46920000Y-132924819D01*
X46920000Y-132924819D02*
X47062857Y-132972438D01*
X47062857Y-132972438D02*
X47158095Y-133067676D01*
X47158095Y-133067676D02*
X47205714Y-133162914D01*
X47205714Y-133162914D02*
X47253333Y-133353390D01*
X47253333Y-133353390D02*
X47253333Y-133496247D01*
X47253333Y-133496247D02*
X47205714Y-133686723D01*
X47205714Y-133686723D02*
X47158095Y-133781961D01*
X47158095Y-133781961D02*
X47062857Y-133877200D01*
X47062857Y-133877200D02*
X46920000Y-133924819D01*
X46920000Y-133924819D02*
X46681905Y-133924819D01*
X48158095Y-132924819D02*
X47681905Y-132924819D01*
X47681905Y-132924819D02*
X47634286Y-133401009D01*
X47634286Y-133401009D02*
X47681905Y-133353390D01*
X47681905Y-133353390D02*
X47777143Y-133305771D01*
X47777143Y-133305771D02*
X48015238Y-133305771D01*
X48015238Y-133305771D02*
X48110476Y-133353390D01*
X48110476Y-133353390D02*
X48158095Y-133401009D01*
X48158095Y-133401009D02*
X48205714Y-133496247D01*
X48205714Y-133496247D02*
X48205714Y-133734342D01*
X48205714Y-133734342D02*
X48158095Y-133829580D01*
X48158095Y-133829580D02*
X48110476Y-133877200D01*
X48110476Y-133877200D02*
X48015238Y-133924819D01*
X48015238Y-133924819D02*
X47777143Y-133924819D01*
X47777143Y-133924819D02*
X47681905Y-133877200D01*
X47681905Y-133877200D02*
X47634286Y-133829580D01*
X52238095Y-133554819D02*
X52238095Y-132554819D01*
X52809523Y-133554819D02*
X52380952Y-132983390D01*
X52809523Y-132554819D02*
X52238095Y-133126247D01*
X73048095Y-64584819D02*
X73048095Y-65394342D01*
X73048095Y-65394342D02*
X73095714Y-65489580D01*
X73095714Y-65489580D02*
X73143333Y-65537200D01*
X73143333Y-65537200D02*
X73238571Y-65584819D01*
X73238571Y-65584819D02*
X73429047Y-65584819D01*
X73429047Y-65584819D02*
X73524285Y-65537200D01*
X73524285Y-65537200D02*
X73571904Y-65489580D01*
X73571904Y-65489580D02*
X73619523Y-65394342D01*
X73619523Y-65394342D02*
X73619523Y-64584819D01*
X74048095Y-64680057D02*
X74095714Y-64632438D01*
X74095714Y-64632438D02*
X74190952Y-64584819D01*
X74190952Y-64584819D02*
X74429047Y-64584819D01*
X74429047Y-64584819D02*
X74524285Y-64632438D01*
X74524285Y-64632438D02*
X74571904Y-64680057D01*
X74571904Y-64680057D02*
X74619523Y-64775295D01*
X74619523Y-64775295D02*
X74619523Y-64870533D01*
X74619523Y-64870533D02*
X74571904Y-65013390D01*
X74571904Y-65013390D02*
X74000476Y-65584819D01*
X74000476Y-65584819D02*
X74619523Y-65584819D01*
X85524819Y-70166666D02*
X85048628Y-70499999D01*
X85524819Y-70738094D02*
X84524819Y-70738094D01*
X84524819Y-70738094D02*
X84524819Y-70357142D01*
X84524819Y-70357142D02*
X84572438Y-70261904D01*
X84572438Y-70261904D02*
X84620057Y-70214285D01*
X84620057Y-70214285D02*
X84715295Y-70166666D01*
X84715295Y-70166666D02*
X84858152Y-70166666D01*
X84858152Y-70166666D02*
X84953390Y-70214285D01*
X84953390Y-70214285D02*
X85001009Y-70261904D01*
X85001009Y-70261904D02*
X85048628Y-70357142D01*
X85048628Y-70357142D02*
X85048628Y-70738094D01*
X84524819Y-69833332D02*
X84524819Y-69166666D01*
X84524819Y-69166666D02*
X85524819Y-69595237D01*
X72453333Y-106324819D02*
X72120000Y-105848628D01*
X71881905Y-106324819D02*
X71881905Y-105324819D01*
X71881905Y-105324819D02*
X72262857Y-105324819D01*
X72262857Y-105324819D02*
X72358095Y-105372438D01*
X72358095Y-105372438D02*
X72405714Y-105420057D01*
X72405714Y-105420057D02*
X72453333Y-105515295D01*
X72453333Y-105515295D02*
X72453333Y-105658152D01*
X72453333Y-105658152D02*
X72405714Y-105753390D01*
X72405714Y-105753390D02*
X72358095Y-105801009D01*
X72358095Y-105801009D02*
X72262857Y-105848628D01*
X72262857Y-105848628D02*
X71881905Y-105848628D01*
X72929524Y-106324819D02*
X73120000Y-106324819D01*
X73120000Y-106324819D02*
X73215238Y-106277200D01*
X73215238Y-106277200D02*
X73262857Y-106229580D01*
X73262857Y-106229580D02*
X73358095Y-106086723D01*
X73358095Y-106086723D02*
X73405714Y-105896247D01*
X73405714Y-105896247D02*
X73405714Y-105515295D01*
X73405714Y-105515295D02*
X73358095Y-105420057D01*
X73358095Y-105420057D02*
X73310476Y-105372438D01*
X73310476Y-105372438D02*
X73215238Y-105324819D01*
X73215238Y-105324819D02*
X73024762Y-105324819D01*
X73024762Y-105324819D02*
X72929524Y-105372438D01*
X72929524Y-105372438D02*
X72881905Y-105420057D01*
X72881905Y-105420057D02*
X72834286Y-105515295D01*
X72834286Y-105515295D02*
X72834286Y-105753390D01*
X72834286Y-105753390D02*
X72881905Y-105848628D01*
X72881905Y-105848628D02*
X72929524Y-105896247D01*
X72929524Y-105896247D02*
X73024762Y-105943866D01*
X73024762Y-105943866D02*
X73215238Y-105943866D01*
X73215238Y-105943866D02*
X73310476Y-105896247D01*
X73310476Y-105896247D02*
X73358095Y-105848628D01*
X73358095Y-105848628D02*
X73405714Y-105753390D01*
X71977142Y-92734819D02*
X71643809Y-92258628D01*
X71405714Y-92734819D02*
X71405714Y-91734819D01*
X71405714Y-91734819D02*
X71786666Y-91734819D01*
X71786666Y-91734819D02*
X71881904Y-91782438D01*
X71881904Y-91782438D02*
X71929523Y-91830057D01*
X71929523Y-91830057D02*
X71977142Y-91925295D01*
X71977142Y-91925295D02*
X71977142Y-92068152D01*
X71977142Y-92068152D02*
X71929523Y-92163390D01*
X71929523Y-92163390D02*
X71881904Y-92211009D01*
X71881904Y-92211009D02*
X71786666Y-92258628D01*
X71786666Y-92258628D02*
X71405714Y-92258628D01*
X72929523Y-92734819D02*
X72358095Y-92734819D01*
X72643809Y-92734819D02*
X72643809Y-91734819D01*
X72643809Y-91734819D02*
X72548571Y-91877676D01*
X72548571Y-91877676D02*
X72453333Y-91972914D01*
X72453333Y-91972914D02*
X72358095Y-92020533D01*
X73881904Y-92734819D02*
X73310476Y-92734819D01*
X73596190Y-92734819D02*
X73596190Y-91734819D01*
X73596190Y-91734819D02*
X73500952Y-91877676D01*
X73500952Y-91877676D02*
X73405714Y-91972914D01*
X73405714Y-91972914D02*
X73310476Y-92020533D01*
X76761905Y-133924819D02*
X76761905Y-132924819D01*
X76761905Y-132924819D02*
X77000000Y-132924819D01*
X77000000Y-132924819D02*
X77142857Y-132972438D01*
X77142857Y-132972438D02*
X77238095Y-133067676D01*
X77238095Y-133067676D02*
X77285714Y-133162914D01*
X77285714Y-133162914D02*
X77333333Y-133353390D01*
X77333333Y-133353390D02*
X77333333Y-133496247D01*
X77333333Y-133496247D02*
X77285714Y-133686723D01*
X77285714Y-133686723D02*
X77238095Y-133781961D01*
X77238095Y-133781961D02*
X77142857Y-133877200D01*
X77142857Y-133877200D02*
X77000000Y-133924819D01*
X77000000Y-133924819D02*
X76761905Y-133924819D01*
X77666667Y-132924819D02*
X78285714Y-132924819D01*
X78285714Y-132924819D02*
X77952381Y-133305771D01*
X77952381Y-133305771D02*
X78095238Y-133305771D01*
X78095238Y-133305771D02*
X78190476Y-133353390D01*
X78190476Y-133353390D02*
X78238095Y-133401009D01*
X78238095Y-133401009D02*
X78285714Y-133496247D01*
X78285714Y-133496247D02*
X78285714Y-133734342D01*
X78285714Y-133734342D02*
X78238095Y-133829580D01*
X78238095Y-133829580D02*
X78190476Y-133877200D01*
X78190476Y-133877200D02*
X78095238Y-133924819D01*
X78095238Y-133924819D02*
X77809524Y-133924819D01*
X77809524Y-133924819D02*
X77714286Y-133877200D01*
X77714286Y-133877200D02*
X77666667Y-133829580D01*
X82318095Y-133554819D02*
X82318095Y-132554819D01*
X82889523Y-133554819D02*
X82460952Y-132983390D01*
X82889523Y-132554819D02*
X82318095Y-133126247D01*
X91681905Y-133924819D02*
X91681905Y-132924819D01*
X91681905Y-132924819D02*
X91920000Y-132924819D01*
X91920000Y-132924819D02*
X92062857Y-132972438D01*
X92062857Y-132972438D02*
X92158095Y-133067676D01*
X92158095Y-133067676D02*
X92205714Y-133162914D01*
X92205714Y-133162914D02*
X92253333Y-133353390D01*
X92253333Y-133353390D02*
X92253333Y-133496247D01*
X92253333Y-133496247D02*
X92205714Y-133686723D01*
X92205714Y-133686723D02*
X92158095Y-133781961D01*
X92158095Y-133781961D02*
X92062857Y-133877200D01*
X92062857Y-133877200D02*
X91920000Y-133924819D01*
X91920000Y-133924819D02*
X91681905Y-133924819D01*
X92634286Y-133020057D02*
X92681905Y-132972438D01*
X92681905Y-132972438D02*
X92777143Y-132924819D01*
X92777143Y-132924819D02*
X93015238Y-132924819D01*
X93015238Y-132924819D02*
X93110476Y-132972438D01*
X93110476Y-132972438D02*
X93158095Y-133020057D01*
X93158095Y-133020057D02*
X93205714Y-133115295D01*
X93205714Y-133115295D02*
X93205714Y-133210533D01*
X93205714Y-133210533D02*
X93158095Y-133353390D01*
X93158095Y-133353390D02*
X92586667Y-133924819D01*
X92586667Y-133924819D02*
X93205714Y-133924819D01*
X97238095Y-133554819D02*
X97238095Y-132554819D01*
X97809523Y-133554819D02*
X97380952Y-132983390D01*
X97809523Y-132554819D02*
X97238095Y-133126247D01*
X98584819Y-108086666D02*
X98108628Y-108419999D01*
X98584819Y-108658094D02*
X97584819Y-108658094D01*
X97584819Y-108658094D02*
X97584819Y-108277142D01*
X97584819Y-108277142D02*
X97632438Y-108181904D01*
X97632438Y-108181904D02*
X97680057Y-108134285D01*
X97680057Y-108134285D02*
X97775295Y-108086666D01*
X97775295Y-108086666D02*
X97918152Y-108086666D01*
X97918152Y-108086666D02*
X98013390Y-108134285D01*
X98013390Y-108134285D02*
X98061009Y-108181904D01*
X98061009Y-108181904D02*
X98108628Y-108277142D01*
X98108628Y-108277142D02*
X98108628Y-108658094D01*
X97918152Y-107229523D02*
X98584819Y-107229523D01*
X97537200Y-107467618D02*
X98251485Y-107705713D01*
X98251485Y-107705713D02*
X98251485Y-107086666D01*
X87366666Y-142354819D02*
X87366666Y-143069104D01*
X87366666Y-143069104D02*
X87319047Y-143211961D01*
X87319047Y-143211961D02*
X87223809Y-143307200D01*
X87223809Y-143307200D02*
X87080952Y-143354819D01*
X87080952Y-143354819D02*
X86985714Y-143354819D01*
X88271428Y-142688152D02*
X88271428Y-143354819D01*
X88033333Y-142307200D02*
X87795238Y-143021485D01*
X87795238Y-143021485D02*
X88414285Y-143021485D01*
X85533332Y-135931009D02*
X85676189Y-135978628D01*
X85676189Y-135978628D02*
X85723808Y-136026247D01*
X85723808Y-136026247D02*
X85771427Y-136121485D01*
X85771427Y-136121485D02*
X85771427Y-136264342D01*
X85771427Y-136264342D02*
X85723808Y-136359580D01*
X85723808Y-136359580D02*
X85676189Y-136407200D01*
X85676189Y-136407200D02*
X85580951Y-136454819D01*
X85580951Y-136454819D02*
X85199999Y-136454819D01*
X85199999Y-136454819D02*
X85199999Y-135454819D01*
X85199999Y-135454819D02*
X85533332Y-135454819D01*
X85533332Y-135454819D02*
X85628570Y-135502438D01*
X85628570Y-135502438D02*
X85676189Y-135550057D01*
X85676189Y-135550057D02*
X85723808Y-135645295D01*
X85723808Y-135645295D02*
X85723808Y-135740533D01*
X85723808Y-135740533D02*
X85676189Y-135835771D01*
X85676189Y-135835771D02*
X85628570Y-135883390D01*
X85628570Y-135883390D02*
X85533332Y-135931009D01*
X85533332Y-135931009D02*
X85199999Y-135931009D01*
X86580951Y-136407200D02*
X86485713Y-136454819D01*
X86485713Y-136454819D02*
X86295237Y-136454819D01*
X86295237Y-136454819D02*
X86199999Y-136407200D01*
X86199999Y-136407200D02*
X86152380Y-136311961D01*
X86152380Y-136311961D02*
X86152380Y-135931009D01*
X86152380Y-135931009D02*
X86199999Y-135835771D01*
X86199999Y-135835771D02*
X86295237Y-135788152D01*
X86295237Y-135788152D02*
X86485713Y-135788152D01*
X86485713Y-135788152D02*
X86580951Y-135835771D01*
X86580951Y-135835771D02*
X86628570Y-135931009D01*
X86628570Y-135931009D02*
X86628570Y-136026247D01*
X86628570Y-136026247D02*
X86152380Y-136121485D01*
X87199999Y-136454819D02*
X87104761Y-136407200D01*
X87104761Y-136407200D02*
X87057142Y-136311961D01*
X87057142Y-136311961D02*
X87057142Y-135454819D01*
X87723809Y-136454819D02*
X87628571Y-136407200D01*
X87628571Y-136407200D02*
X87580952Y-136311961D01*
X87580952Y-136311961D02*
X87580952Y-135454819D01*
X88819048Y-136169104D02*
X89295238Y-136169104D01*
X88723810Y-136454819D02*
X89057143Y-135454819D01*
X89057143Y-135454819D02*
X89390476Y-136454819D01*
X89628572Y-135454819D02*
X90295238Y-135454819D01*
X90295238Y-135454819D02*
X89866667Y-136454819D01*
X44666666Y-79724819D02*
X44666666Y-80439104D01*
X44666666Y-80439104D02*
X44619047Y-80581961D01*
X44619047Y-80581961D02*
X44523809Y-80677200D01*
X44523809Y-80677200D02*
X44380952Y-80724819D01*
X44380952Y-80724819D02*
X44285714Y-80724819D01*
X45047619Y-79724819D02*
X45666666Y-79724819D01*
X45666666Y-79724819D02*
X45333333Y-80105771D01*
X45333333Y-80105771D02*
X45476190Y-80105771D01*
X45476190Y-80105771D02*
X45571428Y-80153390D01*
X45571428Y-80153390D02*
X45619047Y-80201009D01*
X45619047Y-80201009D02*
X45666666Y-80296247D01*
X45666666Y-80296247D02*
X45666666Y-80534342D01*
X45666666Y-80534342D02*
X45619047Y-80629580D01*
X45619047Y-80629580D02*
X45571428Y-80677200D01*
X45571428Y-80677200D02*
X45476190Y-80724819D01*
X45476190Y-80724819D02*
X45190476Y-80724819D01*
X45190476Y-80724819D02*
X45095238Y-80677200D01*
X45095238Y-80677200D02*
X45047619Y-80629580D01*
X47454819Y-79142858D02*
X48454819Y-78809525D01*
X48454819Y-78809525D02*
X47454819Y-78476192D01*
X48454819Y-78000001D02*
X48407200Y-78095239D01*
X48407200Y-78095239D02*
X48359580Y-78142858D01*
X48359580Y-78142858D02*
X48264342Y-78190477D01*
X48264342Y-78190477D02*
X47978628Y-78190477D01*
X47978628Y-78190477D02*
X47883390Y-78142858D01*
X47883390Y-78142858D02*
X47835771Y-78095239D01*
X47835771Y-78095239D02*
X47788152Y-78000001D01*
X47788152Y-78000001D02*
X47788152Y-77857144D01*
X47788152Y-77857144D02*
X47835771Y-77761906D01*
X47835771Y-77761906D02*
X47883390Y-77714287D01*
X47883390Y-77714287D02*
X47978628Y-77666668D01*
X47978628Y-77666668D02*
X48264342Y-77666668D01*
X48264342Y-77666668D02*
X48359580Y-77714287D01*
X48359580Y-77714287D02*
X48407200Y-77761906D01*
X48407200Y-77761906D02*
X48454819Y-77857144D01*
X48454819Y-77857144D02*
X48454819Y-78000001D01*
X48454819Y-77095239D02*
X48407200Y-77190477D01*
X48407200Y-77190477D02*
X48311961Y-77238096D01*
X48311961Y-77238096D02*
X47454819Y-77238096D01*
X47788152Y-76857143D02*
X47788152Y-76476191D01*
X47454819Y-76714286D02*
X48311961Y-76714286D01*
X48311961Y-76714286D02*
X48407200Y-76666667D01*
X48407200Y-76666667D02*
X48454819Y-76571429D01*
X48454819Y-76571429D02*
X48454819Y-76476191D01*
X48454819Y-75714286D02*
X47931009Y-75714286D01*
X47931009Y-75714286D02*
X47835771Y-75761905D01*
X47835771Y-75761905D02*
X47788152Y-75857143D01*
X47788152Y-75857143D02*
X47788152Y-76047619D01*
X47788152Y-76047619D02*
X47835771Y-76142857D01*
X48407200Y-75714286D02*
X48454819Y-75809524D01*
X48454819Y-75809524D02*
X48454819Y-76047619D01*
X48454819Y-76047619D02*
X48407200Y-76142857D01*
X48407200Y-76142857D02*
X48311961Y-76190476D01*
X48311961Y-76190476D02*
X48216723Y-76190476D01*
X48216723Y-76190476D02*
X48121485Y-76142857D01*
X48121485Y-76142857D02*
X48073866Y-76047619D01*
X48073866Y-76047619D02*
X48073866Y-75809524D01*
X48073866Y-75809524D02*
X48026247Y-75714286D01*
X47788152Y-74809524D02*
X48597676Y-74809524D01*
X48597676Y-74809524D02*
X48692914Y-74857143D01*
X48692914Y-74857143D02*
X48740533Y-74904762D01*
X48740533Y-74904762D02*
X48788152Y-75000000D01*
X48788152Y-75000000D02*
X48788152Y-75142857D01*
X48788152Y-75142857D02*
X48740533Y-75238095D01*
X48407200Y-74809524D02*
X48454819Y-74904762D01*
X48454819Y-74904762D02*
X48454819Y-75095238D01*
X48454819Y-75095238D02*
X48407200Y-75190476D01*
X48407200Y-75190476D02*
X48359580Y-75238095D01*
X48359580Y-75238095D02*
X48264342Y-75285714D01*
X48264342Y-75285714D02*
X47978628Y-75285714D01*
X47978628Y-75285714D02*
X47883390Y-75238095D01*
X47883390Y-75238095D02*
X47835771Y-75190476D01*
X47835771Y-75190476D02*
X47788152Y-75095238D01*
X47788152Y-75095238D02*
X47788152Y-74904762D01*
X47788152Y-74904762D02*
X47835771Y-74809524D01*
X48407200Y-73952381D02*
X48454819Y-74047619D01*
X48454819Y-74047619D02*
X48454819Y-74238095D01*
X48454819Y-74238095D02*
X48407200Y-74333333D01*
X48407200Y-74333333D02*
X48311961Y-74380952D01*
X48311961Y-74380952D02*
X47931009Y-74380952D01*
X47931009Y-74380952D02*
X47835771Y-74333333D01*
X47835771Y-74333333D02*
X47788152Y-74238095D01*
X47788152Y-74238095D02*
X47788152Y-74047619D01*
X47788152Y-74047619D02*
X47835771Y-73952381D01*
X47835771Y-73952381D02*
X47931009Y-73904762D01*
X47931009Y-73904762D02*
X48026247Y-73904762D01*
X48026247Y-73904762D02*
X48121485Y-74380952D01*
X48454819Y-72142857D02*
X47978628Y-72476190D01*
X48454819Y-72714285D02*
X47454819Y-72714285D01*
X47454819Y-72714285D02*
X47454819Y-72333333D01*
X47454819Y-72333333D02*
X47502438Y-72238095D01*
X47502438Y-72238095D02*
X47550057Y-72190476D01*
X47550057Y-72190476D02*
X47645295Y-72142857D01*
X47645295Y-72142857D02*
X47788152Y-72142857D01*
X47788152Y-72142857D02*
X47883390Y-72190476D01*
X47883390Y-72190476D02*
X47931009Y-72238095D01*
X47931009Y-72238095D02*
X47978628Y-72333333D01*
X47978628Y-72333333D02*
X47978628Y-72714285D01*
X48407200Y-71333333D02*
X48454819Y-71428571D01*
X48454819Y-71428571D02*
X48454819Y-71619047D01*
X48454819Y-71619047D02*
X48407200Y-71714285D01*
X48407200Y-71714285D02*
X48311961Y-71761904D01*
X48311961Y-71761904D02*
X47931009Y-71761904D01*
X47931009Y-71761904D02*
X47835771Y-71714285D01*
X47835771Y-71714285D02*
X47788152Y-71619047D01*
X47788152Y-71619047D02*
X47788152Y-71428571D01*
X47788152Y-71428571D02*
X47835771Y-71333333D01*
X47835771Y-71333333D02*
X47931009Y-71285714D01*
X47931009Y-71285714D02*
X48026247Y-71285714D01*
X48026247Y-71285714D02*
X48121485Y-71761904D01*
X47788152Y-70428571D02*
X48597676Y-70428571D01*
X48597676Y-70428571D02*
X48692914Y-70476190D01*
X48692914Y-70476190D02*
X48740533Y-70523809D01*
X48740533Y-70523809D02*
X48788152Y-70619047D01*
X48788152Y-70619047D02*
X48788152Y-70761904D01*
X48788152Y-70761904D02*
X48740533Y-70857142D01*
X48407200Y-70428571D02*
X48454819Y-70523809D01*
X48454819Y-70523809D02*
X48454819Y-70714285D01*
X48454819Y-70714285D02*
X48407200Y-70809523D01*
X48407200Y-70809523D02*
X48359580Y-70857142D01*
X48359580Y-70857142D02*
X48264342Y-70904761D01*
X48264342Y-70904761D02*
X47978628Y-70904761D01*
X47978628Y-70904761D02*
X47883390Y-70857142D01*
X47883390Y-70857142D02*
X47835771Y-70809523D01*
X47835771Y-70809523D02*
X47788152Y-70714285D01*
X47788152Y-70714285D02*
X47788152Y-70523809D01*
X47788152Y-70523809D02*
X47835771Y-70428571D01*
X47788152Y-69523809D02*
X48454819Y-69523809D01*
X47788152Y-69952380D02*
X48311961Y-69952380D01*
X48311961Y-69952380D02*
X48407200Y-69904761D01*
X48407200Y-69904761D02*
X48454819Y-69809523D01*
X48454819Y-69809523D02*
X48454819Y-69666666D01*
X48454819Y-69666666D02*
X48407200Y-69571428D01*
X48407200Y-69571428D02*
X48359580Y-69523809D01*
X48454819Y-68904761D02*
X48407200Y-68999999D01*
X48407200Y-68999999D02*
X48311961Y-69047618D01*
X48311961Y-69047618D02*
X47454819Y-69047618D01*
X48454819Y-68095237D02*
X47931009Y-68095237D01*
X47931009Y-68095237D02*
X47835771Y-68142856D01*
X47835771Y-68142856D02*
X47788152Y-68238094D01*
X47788152Y-68238094D02*
X47788152Y-68428570D01*
X47788152Y-68428570D02*
X47835771Y-68523808D01*
X48407200Y-68095237D02*
X48454819Y-68190475D01*
X48454819Y-68190475D02*
X48454819Y-68428570D01*
X48454819Y-68428570D02*
X48407200Y-68523808D01*
X48407200Y-68523808D02*
X48311961Y-68571427D01*
X48311961Y-68571427D02*
X48216723Y-68571427D01*
X48216723Y-68571427D02*
X48121485Y-68523808D01*
X48121485Y-68523808D02*
X48073866Y-68428570D01*
X48073866Y-68428570D02*
X48073866Y-68190475D01*
X48073866Y-68190475D02*
X48026247Y-68095237D01*
X47788152Y-67761903D02*
X47788152Y-67380951D01*
X47454819Y-67619046D02*
X48311961Y-67619046D01*
X48311961Y-67619046D02*
X48407200Y-67571427D01*
X48407200Y-67571427D02*
X48454819Y-67476189D01*
X48454819Y-67476189D02*
X48454819Y-67380951D01*
X48454819Y-66904760D02*
X48407200Y-66999998D01*
X48407200Y-66999998D02*
X48359580Y-67047617D01*
X48359580Y-67047617D02*
X48264342Y-67095236D01*
X48264342Y-67095236D02*
X47978628Y-67095236D01*
X47978628Y-67095236D02*
X47883390Y-67047617D01*
X47883390Y-67047617D02*
X47835771Y-66999998D01*
X47835771Y-66999998D02*
X47788152Y-66904760D01*
X47788152Y-66904760D02*
X47788152Y-66761903D01*
X47788152Y-66761903D02*
X47835771Y-66666665D01*
X47835771Y-66666665D02*
X47883390Y-66619046D01*
X47883390Y-66619046D02*
X47978628Y-66571427D01*
X47978628Y-66571427D02*
X48264342Y-66571427D01*
X48264342Y-66571427D02*
X48359580Y-66619046D01*
X48359580Y-66619046D02*
X48407200Y-66666665D01*
X48407200Y-66666665D02*
X48454819Y-66761903D01*
X48454819Y-66761903D02*
X48454819Y-66904760D01*
X48454819Y-66142855D02*
X47788152Y-66142855D01*
X47978628Y-66142855D02*
X47883390Y-66095236D01*
X47883390Y-66095236D02*
X47835771Y-66047617D01*
X47835771Y-66047617D02*
X47788152Y-65952379D01*
X47788152Y-65952379D02*
X47788152Y-65857141D01*
X72453333Y-96734819D02*
X72120000Y-96258628D01*
X71881905Y-96734819D02*
X71881905Y-95734819D01*
X71881905Y-95734819D02*
X72262857Y-95734819D01*
X72262857Y-95734819D02*
X72358095Y-95782438D01*
X72358095Y-95782438D02*
X72405714Y-95830057D01*
X72405714Y-95830057D02*
X72453333Y-95925295D01*
X72453333Y-95925295D02*
X72453333Y-96068152D01*
X72453333Y-96068152D02*
X72405714Y-96163390D01*
X72405714Y-96163390D02*
X72358095Y-96211009D01*
X72358095Y-96211009D02*
X72262857Y-96258628D01*
X72262857Y-96258628D02*
X71881905Y-96258628D01*
X73024762Y-96163390D02*
X72929524Y-96115771D01*
X72929524Y-96115771D02*
X72881905Y-96068152D01*
X72881905Y-96068152D02*
X72834286Y-95972914D01*
X72834286Y-95972914D02*
X72834286Y-95925295D01*
X72834286Y-95925295D02*
X72881905Y-95830057D01*
X72881905Y-95830057D02*
X72929524Y-95782438D01*
X72929524Y-95782438D02*
X73024762Y-95734819D01*
X73024762Y-95734819D02*
X73215238Y-95734819D01*
X73215238Y-95734819D02*
X73310476Y-95782438D01*
X73310476Y-95782438D02*
X73358095Y-95830057D01*
X73358095Y-95830057D02*
X73405714Y-95925295D01*
X73405714Y-95925295D02*
X73405714Y-95972914D01*
X73405714Y-95972914D02*
X73358095Y-96068152D01*
X73358095Y-96068152D02*
X73310476Y-96115771D01*
X73310476Y-96115771D02*
X73215238Y-96163390D01*
X73215238Y-96163390D02*
X73024762Y-96163390D01*
X73024762Y-96163390D02*
X72929524Y-96211009D01*
X72929524Y-96211009D02*
X72881905Y-96258628D01*
X72881905Y-96258628D02*
X72834286Y-96353866D01*
X72834286Y-96353866D02*
X72834286Y-96544342D01*
X72834286Y-96544342D02*
X72881905Y-96639580D01*
X72881905Y-96639580D02*
X72929524Y-96687200D01*
X72929524Y-96687200D02*
X73024762Y-96734819D01*
X73024762Y-96734819D02*
X73215238Y-96734819D01*
X73215238Y-96734819D02*
X73310476Y-96687200D01*
X73310476Y-96687200D02*
X73358095Y-96639580D01*
X73358095Y-96639580D02*
X73405714Y-96544342D01*
X73405714Y-96544342D02*
X73405714Y-96353866D01*
X73405714Y-96353866D02*
X73358095Y-96258628D01*
X73358095Y-96258628D02*
X73310476Y-96211009D01*
X73310476Y-96211009D02*
X73215238Y-96163390D01*
X47714761Y-119650057D02*
X47619523Y-119602438D01*
X47619523Y-119602438D02*
X47524285Y-119507200D01*
X47524285Y-119507200D02*
X47381428Y-119364342D01*
X47381428Y-119364342D02*
X47286190Y-119316723D01*
X47286190Y-119316723D02*
X47190952Y-119316723D01*
X47238571Y-119554819D02*
X47143333Y-119507200D01*
X47143333Y-119507200D02*
X47048095Y-119411961D01*
X47048095Y-119411961D02*
X47000476Y-119221485D01*
X47000476Y-119221485D02*
X47000476Y-118888152D01*
X47000476Y-118888152D02*
X47048095Y-118697676D01*
X47048095Y-118697676D02*
X47143333Y-118602438D01*
X47143333Y-118602438D02*
X47238571Y-118554819D01*
X47238571Y-118554819D02*
X47429047Y-118554819D01*
X47429047Y-118554819D02*
X47524285Y-118602438D01*
X47524285Y-118602438D02*
X47619523Y-118697676D01*
X47619523Y-118697676D02*
X47667142Y-118888152D01*
X47667142Y-118888152D02*
X47667142Y-119221485D01*
X47667142Y-119221485D02*
X47619523Y-119411961D01*
X47619523Y-119411961D02*
X47524285Y-119507200D01*
X47524285Y-119507200D02*
X47429047Y-119554819D01*
X47429047Y-119554819D02*
X47238571Y-119554819D01*
X48571904Y-118554819D02*
X48095714Y-118554819D01*
X48095714Y-118554819D02*
X48048095Y-119031009D01*
X48048095Y-119031009D02*
X48095714Y-118983390D01*
X48095714Y-118983390D02*
X48190952Y-118935771D01*
X48190952Y-118935771D02*
X48429047Y-118935771D01*
X48429047Y-118935771D02*
X48524285Y-118983390D01*
X48524285Y-118983390D02*
X48571904Y-119031009D01*
X48571904Y-119031009D02*
X48619523Y-119126247D01*
X48619523Y-119126247D02*
X48619523Y-119364342D01*
X48619523Y-119364342D02*
X48571904Y-119459580D01*
X48571904Y-119459580D02*
X48524285Y-119507200D01*
X48524285Y-119507200D02*
X48429047Y-119554819D01*
X48429047Y-119554819D02*
X48190952Y-119554819D01*
X48190952Y-119554819D02*
X48095714Y-119507200D01*
X48095714Y-119507200D02*
X48048095Y-119459580D01*
X61761905Y-133924819D02*
X61761905Y-132924819D01*
X61761905Y-132924819D02*
X62000000Y-132924819D01*
X62000000Y-132924819D02*
X62142857Y-132972438D01*
X62142857Y-132972438D02*
X62238095Y-133067676D01*
X62238095Y-133067676D02*
X62285714Y-133162914D01*
X62285714Y-133162914D02*
X62333333Y-133353390D01*
X62333333Y-133353390D02*
X62333333Y-133496247D01*
X62333333Y-133496247D02*
X62285714Y-133686723D01*
X62285714Y-133686723D02*
X62238095Y-133781961D01*
X62238095Y-133781961D02*
X62142857Y-133877200D01*
X62142857Y-133877200D02*
X62000000Y-133924819D01*
X62000000Y-133924819D02*
X61761905Y-133924819D01*
X63190476Y-133258152D02*
X63190476Y-133924819D01*
X62952381Y-132877200D02*
X62714286Y-133591485D01*
X62714286Y-133591485D02*
X63333333Y-133591485D01*
X67318095Y-133554819D02*
X67318095Y-132554819D01*
X67889523Y-133554819D02*
X67460952Y-132983390D01*
X67889523Y-132554819D02*
X67318095Y-133126247D01*
X92714761Y-119650057D02*
X92619523Y-119602438D01*
X92619523Y-119602438D02*
X92524285Y-119507200D01*
X92524285Y-119507200D02*
X92381428Y-119364342D01*
X92381428Y-119364342D02*
X92286190Y-119316723D01*
X92286190Y-119316723D02*
X92190952Y-119316723D01*
X92238571Y-119554819D02*
X92143333Y-119507200D01*
X92143333Y-119507200D02*
X92048095Y-119411961D01*
X92048095Y-119411961D02*
X92000476Y-119221485D01*
X92000476Y-119221485D02*
X92000476Y-118888152D01*
X92000476Y-118888152D02*
X92048095Y-118697676D01*
X92048095Y-118697676D02*
X92143333Y-118602438D01*
X92143333Y-118602438D02*
X92238571Y-118554819D01*
X92238571Y-118554819D02*
X92429047Y-118554819D01*
X92429047Y-118554819D02*
X92524285Y-118602438D01*
X92524285Y-118602438D02*
X92619523Y-118697676D01*
X92619523Y-118697676D02*
X92667142Y-118888152D01*
X92667142Y-118888152D02*
X92667142Y-119221485D01*
X92667142Y-119221485D02*
X92619523Y-119411961D01*
X92619523Y-119411961D02*
X92524285Y-119507200D01*
X92524285Y-119507200D02*
X92429047Y-119554819D01*
X92429047Y-119554819D02*
X92238571Y-119554819D01*
X93048095Y-118650057D02*
X93095714Y-118602438D01*
X93095714Y-118602438D02*
X93190952Y-118554819D01*
X93190952Y-118554819D02*
X93429047Y-118554819D01*
X93429047Y-118554819D02*
X93524285Y-118602438D01*
X93524285Y-118602438D02*
X93571904Y-118650057D01*
X93571904Y-118650057D02*
X93619523Y-118745295D01*
X93619523Y-118745295D02*
X93619523Y-118840533D01*
X93619523Y-118840533D02*
X93571904Y-118983390D01*
X93571904Y-118983390D02*
X93000476Y-119554819D01*
X93000476Y-119554819D02*
X93619523Y-119554819D01*
X93504819Y-108086666D02*
X93028628Y-108419999D01*
X93504819Y-108658094D02*
X92504819Y-108658094D01*
X92504819Y-108658094D02*
X92504819Y-108277142D01*
X92504819Y-108277142D02*
X92552438Y-108181904D01*
X92552438Y-108181904D02*
X92600057Y-108134285D01*
X92600057Y-108134285D02*
X92695295Y-108086666D01*
X92695295Y-108086666D02*
X92838152Y-108086666D01*
X92838152Y-108086666D02*
X92933390Y-108134285D01*
X92933390Y-108134285D02*
X92981009Y-108181904D01*
X92981009Y-108181904D02*
X93028628Y-108277142D01*
X93028628Y-108277142D02*
X93028628Y-108658094D01*
X92504819Y-107181904D02*
X92504819Y-107658094D01*
X92504819Y-107658094D02*
X92981009Y-107705713D01*
X92981009Y-107705713D02*
X92933390Y-107658094D01*
X92933390Y-107658094D02*
X92885771Y-107562856D01*
X92885771Y-107562856D02*
X92885771Y-107324761D01*
X92885771Y-107324761D02*
X92933390Y-107229523D01*
X92933390Y-107229523D02*
X92981009Y-107181904D01*
X92981009Y-107181904D02*
X93076247Y-107134285D01*
X93076247Y-107134285D02*
X93314342Y-107134285D01*
X93314342Y-107134285D02*
X93409580Y-107181904D01*
X93409580Y-107181904D02*
X93457200Y-107229523D01*
X93457200Y-107229523D02*
X93504819Y-107324761D01*
X93504819Y-107324761D02*
X93504819Y-107562856D01*
X93504819Y-107562856D02*
X93457200Y-107658094D01*
X93457200Y-107658094D02*
X93409580Y-107705713D01*
X71977142Y-83234819D02*
X71643809Y-82758628D01*
X71405714Y-83234819D02*
X71405714Y-82234819D01*
X71405714Y-82234819D02*
X71786666Y-82234819D01*
X71786666Y-82234819D02*
X71881904Y-82282438D01*
X71881904Y-82282438D02*
X71929523Y-82330057D01*
X71929523Y-82330057D02*
X71977142Y-82425295D01*
X71977142Y-82425295D02*
X71977142Y-82568152D01*
X71977142Y-82568152D02*
X71929523Y-82663390D01*
X71929523Y-82663390D02*
X71881904Y-82711009D01*
X71881904Y-82711009D02*
X71786666Y-82758628D01*
X71786666Y-82758628D02*
X71405714Y-82758628D01*
X72929523Y-83234819D02*
X72358095Y-83234819D01*
X72643809Y-83234819D02*
X72643809Y-82234819D01*
X72643809Y-82234819D02*
X72548571Y-82377676D01*
X72548571Y-82377676D02*
X72453333Y-82472914D01*
X72453333Y-82472914D02*
X72358095Y-82520533D01*
X73548571Y-82234819D02*
X73643809Y-82234819D01*
X73643809Y-82234819D02*
X73739047Y-82282438D01*
X73739047Y-82282438D02*
X73786666Y-82330057D01*
X73786666Y-82330057D02*
X73834285Y-82425295D01*
X73834285Y-82425295D02*
X73881904Y-82615771D01*
X73881904Y-82615771D02*
X73881904Y-82853866D01*
X73881904Y-82853866D02*
X73834285Y-83044342D01*
X73834285Y-83044342D02*
X73786666Y-83139580D01*
X73786666Y-83139580D02*
X73739047Y-83187200D01*
X73739047Y-83187200D02*
X73643809Y-83234819D01*
X73643809Y-83234819D02*
X73548571Y-83234819D01*
X73548571Y-83234819D02*
X73453333Y-83187200D01*
X73453333Y-83187200D02*
X73405714Y-83139580D01*
X73405714Y-83139580D02*
X73358095Y-83044342D01*
X73358095Y-83044342D02*
X73310476Y-82853866D01*
X73310476Y-82853866D02*
X73310476Y-82615771D01*
X73310476Y-82615771D02*
X73358095Y-82425295D01*
X73358095Y-82425295D02*
X73405714Y-82330057D01*
X73405714Y-82330057D02*
X73453333Y-82282438D01*
X73453333Y-82282438D02*
X73548571Y-82234819D01*
D11*
X77518259Y-34165181D02*
X77518259Y-35253752D01*
X77518259Y-35253752D02*
X77445688Y-35471467D01*
X77445688Y-35471467D02*
X77300545Y-35616610D01*
X77300545Y-35616610D02*
X77082831Y-35689181D01*
X77082831Y-35689181D02*
X76937688Y-35689181D01*
X78461688Y-34818324D02*
X78316545Y-34745752D01*
X78316545Y-34745752D02*
X78243974Y-34673181D01*
X78243974Y-34673181D02*
X78171402Y-34528038D01*
X78171402Y-34528038D02*
X78171402Y-34455467D01*
X78171402Y-34455467D02*
X78243974Y-34310324D01*
X78243974Y-34310324D02*
X78316545Y-34237752D01*
X78316545Y-34237752D02*
X78461688Y-34165181D01*
X78461688Y-34165181D02*
X78751974Y-34165181D01*
X78751974Y-34165181D02*
X78897117Y-34237752D01*
X78897117Y-34237752D02*
X78969688Y-34310324D01*
X78969688Y-34310324D02*
X79042259Y-34455467D01*
X79042259Y-34455467D02*
X79042259Y-34528038D01*
X79042259Y-34528038D02*
X78969688Y-34673181D01*
X78969688Y-34673181D02*
X78897117Y-34745752D01*
X78897117Y-34745752D02*
X78751974Y-34818324D01*
X78751974Y-34818324D02*
X78461688Y-34818324D01*
X78461688Y-34818324D02*
X78316545Y-34890895D01*
X78316545Y-34890895D02*
X78243974Y-34963467D01*
X78243974Y-34963467D02*
X78171402Y-35108610D01*
X78171402Y-35108610D02*
X78171402Y-35398895D01*
X78171402Y-35398895D02*
X78243974Y-35544038D01*
X78243974Y-35544038D02*
X78316545Y-35616610D01*
X78316545Y-35616610D02*
X78461688Y-35689181D01*
X78461688Y-35689181D02*
X78751974Y-35689181D01*
X78751974Y-35689181D02*
X78897117Y-35616610D01*
X78897117Y-35616610D02*
X78969688Y-35544038D01*
X78969688Y-35544038D02*
X79042259Y-35398895D01*
X79042259Y-35398895D02*
X79042259Y-35108610D01*
X79042259Y-35108610D02*
X78969688Y-34963467D01*
X78969688Y-34963467D02*
X78897117Y-34890895D01*
X78897117Y-34890895D02*
X78751974Y-34818324D01*
X73262572Y-51689181D02*
X73262572Y-50165181D01*
X73262572Y-50165181D02*
X73770572Y-51253752D01*
X73770572Y-51253752D02*
X74278572Y-50165181D01*
X74278572Y-50165181D02*
X74278572Y-51689181D01*
X75004286Y-51689181D02*
X75004286Y-50165181D01*
X75730000Y-51689181D02*
X75730000Y-50165181D01*
X75730000Y-50165181D02*
X76092857Y-50165181D01*
X76092857Y-50165181D02*
X76310571Y-50237752D01*
X76310571Y-50237752D02*
X76455714Y-50382895D01*
X76455714Y-50382895D02*
X76528285Y-50528038D01*
X76528285Y-50528038D02*
X76600857Y-50818324D01*
X76600857Y-50818324D02*
X76600857Y-51036038D01*
X76600857Y-51036038D02*
X76528285Y-51326324D01*
X76528285Y-51326324D02*
X76455714Y-51471467D01*
X76455714Y-51471467D02*
X76310571Y-51616610D01*
X76310571Y-51616610D02*
X76092857Y-51689181D01*
X76092857Y-51689181D02*
X75730000Y-51689181D01*
X77254000Y-51689181D02*
X77254000Y-50165181D01*
X79140857Y-51689181D02*
X79140857Y-50165181D01*
X79866571Y-51689181D02*
X79866571Y-50165181D01*
X79866571Y-50165181D02*
X80737428Y-51689181D01*
X80737428Y-51689181D02*
X80737428Y-50165181D01*
D10*
X107714761Y-119650057D02*
X107619523Y-119602438D01*
X107619523Y-119602438D02*
X107524285Y-119507200D01*
X107524285Y-119507200D02*
X107381428Y-119364342D01*
X107381428Y-119364342D02*
X107286190Y-119316723D01*
X107286190Y-119316723D02*
X107190952Y-119316723D01*
X107238571Y-119554819D02*
X107143333Y-119507200D01*
X107143333Y-119507200D02*
X107048095Y-119411961D01*
X107048095Y-119411961D02*
X107000476Y-119221485D01*
X107000476Y-119221485D02*
X107000476Y-118888152D01*
X107000476Y-118888152D02*
X107048095Y-118697676D01*
X107048095Y-118697676D02*
X107143333Y-118602438D01*
X107143333Y-118602438D02*
X107238571Y-118554819D01*
X107238571Y-118554819D02*
X107429047Y-118554819D01*
X107429047Y-118554819D02*
X107524285Y-118602438D01*
X107524285Y-118602438D02*
X107619523Y-118697676D01*
X107619523Y-118697676D02*
X107667142Y-118888152D01*
X107667142Y-118888152D02*
X107667142Y-119221485D01*
X107667142Y-119221485D02*
X107619523Y-119411961D01*
X107619523Y-119411961D02*
X107524285Y-119507200D01*
X107524285Y-119507200D02*
X107429047Y-119554819D01*
X107429047Y-119554819D02*
X107238571Y-119554819D01*
X108619523Y-119554819D02*
X108048095Y-119554819D01*
X108333809Y-119554819D02*
X108333809Y-118554819D01*
X108333809Y-118554819D02*
X108238571Y-118697676D01*
X108238571Y-118697676D02*
X108143333Y-118792914D01*
X108143333Y-118792914D02*
X108048095Y-118840533D01*
X41554819Y-89809523D02*
X42269104Y-89809523D01*
X42269104Y-89809523D02*
X42411961Y-89857142D01*
X42411961Y-89857142D02*
X42507200Y-89952380D01*
X42507200Y-89952380D02*
X42554819Y-90095237D01*
X42554819Y-90095237D02*
X42554819Y-90190475D01*
X42554819Y-88809523D02*
X42554819Y-89380951D01*
X42554819Y-89095237D02*
X41554819Y-89095237D01*
X41554819Y-89095237D02*
X41697676Y-89190475D01*
X41697676Y-89190475D02*
X41792914Y-89285713D01*
X41792914Y-89285713D02*
X41840533Y-89380951D01*
X42554819Y-87857142D02*
X42554819Y-88428570D01*
X42554819Y-88142856D02*
X41554819Y-88142856D01*
X41554819Y-88142856D02*
X41697676Y-88238094D01*
X41697676Y-88238094D02*
X41792914Y-88333332D01*
X41792914Y-88333332D02*
X41840533Y-88428570D01*
X49454819Y-91642857D02*
X48454819Y-91642857D01*
X48454819Y-91642857D02*
X48454819Y-91261905D01*
X48454819Y-91261905D02*
X48502438Y-91166667D01*
X48502438Y-91166667D02*
X48550057Y-91119048D01*
X48550057Y-91119048D02*
X48645295Y-91071429D01*
X48645295Y-91071429D02*
X48788152Y-91071429D01*
X48788152Y-91071429D02*
X48883390Y-91119048D01*
X48883390Y-91119048D02*
X48931009Y-91166667D01*
X48931009Y-91166667D02*
X48978628Y-91261905D01*
X48978628Y-91261905D02*
X48978628Y-91642857D01*
X49454819Y-90642857D02*
X48788152Y-90642857D01*
X48978628Y-90642857D02*
X48883390Y-90595238D01*
X48883390Y-90595238D02*
X48835771Y-90547619D01*
X48835771Y-90547619D02*
X48788152Y-90452381D01*
X48788152Y-90452381D02*
X48788152Y-90357143D01*
X49407200Y-89642857D02*
X49454819Y-89738095D01*
X49454819Y-89738095D02*
X49454819Y-89928571D01*
X49454819Y-89928571D02*
X49407200Y-90023809D01*
X49407200Y-90023809D02*
X49311961Y-90071428D01*
X49311961Y-90071428D02*
X48931009Y-90071428D01*
X48931009Y-90071428D02*
X48835771Y-90023809D01*
X48835771Y-90023809D02*
X48788152Y-89928571D01*
X48788152Y-89928571D02*
X48788152Y-89738095D01*
X48788152Y-89738095D02*
X48835771Y-89642857D01*
X48835771Y-89642857D02*
X48931009Y-89595238D01*
X48931009Y-89595238D02*
X49026247Y-89595238D01*
X49026247Y-89595238D02*
X49121485Y-90071428D01*
X48788152Y-89166666D02*
X49788152Y-89166666D01*
X48835771Y-89166666D02*
X48788152Y-89071428D01*
X48788152Y-89071428D02*
X48788152Y-88880952D01*
X48788152Y-88880952D02*
X48835771Y-88785714D01*
X48835771Y-88785714D02*
X48883390Y-88738095D01*
X48883390Y-88738095D02*
X48978628Y-88690476D01*
X48978628Y-88690476D02*
X49264342Y-88690476D01*
X49264342Y-88690476D02*
X49359580Y-88738095D01*
X49359580Y-88738095D02*
X49407200Y-88785714D01*
X49407200Y-88785714D02*
X49454819Y-88880952D01*
X49454819Y-88880952D02*
X49454819Y-89071428D01*
X49454819Y-89071428D02*
X49407200Y-89166666D01*
X49454819Y-87833333D02*
X48931009Y-87833333D01*
X48931009Y-87833333D02*
X48835771Y-87880952D01*
X48835771Y-87880952D02*
X48788152Y-87976190D01*
X48788152Y-87976190D02*
X48788152Y-88166666D01*
X48788152Y-88166666D02*
X48835771Y-88261904D01*
X49407200Y-87833333D02*
X49454819Y-87928571D01*
X49454819Y-87928571D02*
X49454819Y-88166666D01*
X49454819Y-88166666D02*
X49407200Y-88261904D01*
X49407200Y-88261904D02*
X49311961Y-88309523D01*
X49311961Y-88309523D02*
X49216723Y-88309523D01*
X49216723Y-88309523D02*
X49121485Y-88261904D01*
X49121485Y-88261904D02*
X49073866Y-88166666D01*
X49073866Y-88166666D02*
X49073866Y-87928571D01*
X49073866Y-87928571D02*
X49026247Y-87833333D01*
X49454819Y-87357142D02*
X48788152Y-87357142D01*
X48978628Y-87357142D02*
X48883390Y-87309523D01*
X48883390Y-87309523D02*
X48835771Y-87261904D01*
X48835771Y-87261904D02*
X48788152Y-87166666D01*
X48788152Y-87166666D02*
X48788152Y-87071428D01*
X49407200Y-86357142D02*
X49454819Y-86452380D01*
X49454819Y-86452380D02*
X49454819Y-86642856D01*
X49454819Y-86642856D02*
X49407200Y-86738094D01*
X49407200Y-86738094D02*
X49311961Y-86785713D01*
X49311961Y-86785713D02*
X48931009Y-86785713D01*
X48931009Y-86785713D02*
X48835771Y-86738094D01*
X48835771Y-86738094D02*
X48788152Y-86642856D01*
X48788152Y-86642856D02*
X48788152Y-86452380D01*
X48788152Y-86452380D02*
X48835771Y-86357142D01*
X48835771Y-86357142D02*
X48931009Y-86309523D01*
X48931009Y-86309523D02*
X49026247Y-86309523D01*
X49026247Y-86309523D02*
X49121485Y-86785713D01*
X106681905Y-133924819D02*
X106681905Y-132924819D01*
X106681905Y-132924819D02*
X106920000Y-132924819D01*
X106920000Y-132924819D02*
X107062857Y-132972438D01*
X107062857Y-132972438D02*
X107158095Y-133067676D01*
X107158095Y-133067676D02*
X107205714Y-133162914D01*
X107205714Y-133162914D02*
X107253333Y-133353390D01*
X107253333Y-133353390D02*
X107253333Y-133496247D01*
X107253333Y-133496247D02*
X107205714Y-133686723D01*
X107205714Y-133686723D02*
X107158095Y-133781961D01*
X107158095Y-133781961D02*
X107062857Y-133877200D01*
X107062857Y-133877200D02*
X106920000Y-133924819D01*
X106920000Y-133924819D02*
X106681905Y-133924819D01*
X108205714Y-133924819D02*
X107634286Y-133924819D01*
X107920000Y-133924819D02*
X107920000Y-132924819D01*
X107920000Y-132924819D02*
X107824762Y-133067676D01*
X107824762Y-133067676D02*
X107729524Y-133162914D01*
X107729524Y-133162914D02*
X107634286Y-133210533D01*
X112238095Y-133554819D02*
X112238095Y-132554819D01*
X112809523Y-133554819D02*
X112380952Y-132983390D01*
X112809523Y-132554819D02*
X112238095Y-133126247D01*
X103664819Y-108086666D02*
X103188628Y-108419999D01*
X103664819Y-108658094D02*
X102664819Y-108658094D01*
X102664819Y-108658094D02*
X102664819Y-108277142D01*
X102664819Y-108277142D02*
X102712438Y-108181904D01*
X102712438Y-108181904D02*
X102760057Y-108134285D01*
X102760057Y-108134285D02*
X102855295Y-108086666D01*
X102855295Y-108086666D02*
X102998152Y-108086666D01*
X102998152Y-108086666D02*
X103093390Y-108134285D01*
X103093390Y-108134285D02*
X103141009Y-108181904D01*
X103141009Y-108181904D02*
X103188628Y-108277142D01*
X103188628Y-108277142D02*
X103188628Y-108658094D01*
X102664819Y-107753332D02*
X102664819Y-107134285D01*
X102664819Y-107134285D02*
X103045771Y-107467618D01*
X103045771Y-107467618D02*
X103045771Y-107324761D01*
X103045771Y-107324761D02*
X103093390Y-107229523D01*
X103093390Y-107229523D02*
X103141009Y-107181904D01*
X103141009Y-107181904D02*
X103236247Y-107134285D01*
X103236247Y-107134285D02*
X103474342Y-107134285D01*
X103474342Y-107134285D02*
X103569580Y-107181904D01*
X103569580Y-107181904D02*
X103617200Y-107229523D01*
X103617200Y-107229523D02*
X103664819Y-107324761D01*
X103664819Y-107324761D02*
X103664819Y-107610475D01*
X103664819Y-107610475D02*
X103617200Y-107705713D01*
X103617200Y-107705713D02*
X103569580Y-107753332D01*
X62664819Y-70166666D02*
X62188628Y-70499999D01*
X62664819Y-70738094D02*
X61664819Y-70738094D01*
X61664819Y-70738094D02*
X61664819Y-70357142D01*
X61664819Y-70357142D02*
X61712438Y-70261904D01*
X61712438Y-70261904D02*
X61760057Y-70214285D01*
X61760057Y-70214285D02*
X61855295Y-70166666D01*
X61855295Y-70166666D02*
X61998152Y-70166666D01*
X61998152Y-70166666D02*
X62093390Y-70214285D01*
X62093390Y-70214285D02*
X62141009Y-70261904D01*
X62141009Y-70261904D02*
X62188628Y-70357142D01*
X62188628Y-70357142D02*
X62188628Y-70738094D01*
X61664819Y-69309523D02*
X61664819Y-69499999D01*
X61664819Y-69499999D02*
X61712438Y-69595237D01*
X61712438Y-69595237D02*
X61760057Y-69642856D01*
X61760057Y-69642856D02*
X61902914Y-69738094D01*
X61902914Y-69738094D02*
X62093390Y-69785713D01*
X62093390Y-69785713D02*
X62474342Y-69785713D01*
X62474342Y-69785713D02*
X62569580Y-69738094D01*
X62569580Y-69738094D02*
X62617200Y-69690475D01*
X62617200Y-69690475D02*
X62664819Y-69595237D01*
X62664819Y-69595237D02*
X62664819Y-69404761D01*
X62664819Y-69404761D02*
X62617200Y-69309523D01*
X62617200Y-69309523D02*
X62569580Y-69261904D01*
X62569580Y-69261904D02*
X62474342Y-69214285D01*
X62474342Y-69214285D02*
X62236247Y-69214285D01*
X62236247Y-69214285D02*
X62141009Y-69261904D01*
X62141009Y-69261904D02*
X62093390Y-69309523D01*
X62093390Y-69309523D02*
X62045771Y-69404761D01*
X62045771Y-69404761D02*
X62045771Y-69595237D01*
X62045771Y-69595237D02*
X62093390Y-69690475D01*
X62093390Y-69690475D02*
X62141009Y-69738094D01*
X62141009Y-69738094D02*
X62236247Y-69785713D01*
X59666666Y-34454819D02*
X59666666Y-35169104D01*
X59666666Y-35169104D02*
X59619047Y-35311961D01*
X59619047Y-35311961D02*
X59523809Y-35407200D01*
X59523809Y-35407200D02*
X59380952Y-35454819D01*
X59380952Y-35454819D02*
X59285714Y-35454819D01*
X60190476Y-35454819D02*
X60380952Y-35454819D01*
X60380952Y-35454819D02*
X60476190Y-35407200D01*
X60476190Y-35407200D02*
X60523809Y-35359580D01*
X60523809Y-35359580D02*
X60619047Y-35216723D01*
X60619047Y-35216723D02*
X60666666Y-35026247D01*
X60666666Y-35026247D02*
X60666666Y-34645295D01*
X60666666Y-34645295D02*
X60619047Y-34550057D01*
X60619047Y-34550057D02*
X60571428Y-34502438D01*
X60571428Y-34502438D02*
X60476190Y-34454819D01*
X60476190Y-34454819D02*
X60285714Y-34454819D01*
X60285714Y-34454819D02*
X60190476Y-34502438D01*
X60190476Y-34502438D02*
X60142857Y-34550057D01*
X60142857Y-34550057D02*
X60095238Y-34645295D01*
X60095238Y-34645295D02*
X60095238Y-34883390D01*
X60095238Y-34883390D02*
X60142857Y-34978628D01*
X60142857Y-34978628D02*
X60190476Y-35026247D01*
X60190476Y-35026247D02*
X60285714Y-35073866D01*
X60285714Y-35073866D02*
X60476190Y-35073866D01*
X60476190Y-35073866D02*
X60571428Y-35026247D01*
X60571428Y-35026247D02*
X60619047Y-34978628D01*
X60619047Y-34978628D02*
X60666666Y-34883390D01*
X57986666Y-45387200D02*
X58129523Y-45434819D01*
X58129523Y-45434819D02*
X58367618Y-45434819D01*
X58367618Y-45434819D02*
X58462856Y-45387200D01*
X58462856Y-45387200D02*
X58510475Y-45339580D01*
X58510475Y-45339580D02*
X58558094Y-45244342D01*
X58558094Y-45244342D02*
X58558094Y-45149104D01*
X58558094Y-45149104D02*
X58510475Y-45053866D01*
X58510475Y-45053866D02*
X58462856Y-45006247D01*
X58462856Y-45006247D02*
X58367618Y-44958628D01*
X58367618Y-44958628D02*
X58177142Y-44911009D01*
X58177142Y-44911009D02*
X58081904Y-44863390D01*
X58081904Y-44863390D02*
X58034285Y-44815771D01*
X58034285Y-44815771D02*
X57986666Y-44720533D01*
X57986666Y-44720533D02*
X57986666Y-44625295D01*
X57986666Y-44625295D02*
X58034285Y-44530057D01*
X58034285Y-44530057D02*
X58081904Y-44482438D01*
X58081904Y-44482438D02*
X58177142Y-44434819D01*
X58177142Y-44434819D02*
X58415237Y-44434819D01*
X58415237Y-44434819D02*
X58558094Y-44482438D01*
X58843809Y-44768152D02*
X59224761Y-44768152D01*
X58986666Y-44434819D02*
X58986666Y-45291961D01*
X58986666Y-45291961D02*
X59034285Y-45387200D01*
X59034285Y-45387200D02*
X59129523Y-45434819D01*
X59129523Y-45434819D02*
X59224761Y-45434819D01*
X59986666Y-45434819D02*
X59986666Y-44911009D01*
X59986666Y-44911009D02*
X59939047Y-44815771D01*
X59939047Y-44815771D02*
X59843809Y-44768152D01*
X59843809Y-44768152D02*
X59653333Y-44768152D01*
X59653333Y-44768152D02*
X59558095Y-44815771D01*
X59986666Y-45387200D02*
X59891428Y-45434819D01*
X59891428Y-45434819D02*
X59653333Y-45434819D01*
X59653333Y-45434819D02*
X59558095Y-45387200D01*
X59558095Y-45387200D02*
X59510476Y-45291961D01*
X59510476Y-45291961D02*
X59510476Y-45196723D01*
X59510476Y-45196723D02*
X59558095Y-45101485D01*
X59558095Y-45101485D02*
X59653333Y-45053866D01*
X59653333Y-45053866D02*
X59891428Y-45053866D01*
X59891428Y-45053866D02*
X59986666Y-45006247D01*
X60462857Y-45434819D02*
X60462857Y-44768152D01*
X60462857Y-44958628D02*
X60510476Y-44863390D01*
X60510476Y-44863390D02*
X60558095Y-44815771D01*
X60558095Y-44815771D02*
X60653333Y-44768152D01*
X60653333Y-44768152D02*
X60748571Y-44768152D01*
X56874761Y8289942D02*
X56779523Y8337561D01*
X56779523Y8337561D02*
X56684285Y8432800D01*
X56684285Y8432800D02*
X56541428Y8575657D01*
X56541428Y8575657D02*
X56446190Y8623276D01*
X56446190Y8623276D02*
X56350952Y8623276D01*
X56398571Y8385180D02*
X56303333Y8432800D01*
X56303333Y8432800D02*
X56208095Y8528038D01*
X56208095Y8528038D02*
X56160476Y8718514D01*
X56160476Y8718514D02*
X56160476Y9051847D01*
X56160476Y9051847D02*
X56208095Y9242323D01*
X56208095Y9242323D02*
X56303333Y9337561D01*
X56303333Y9337561D02*
X56398571Y9385180D01*
X56398571Y9385180D02*
X56589047Y9385180D01*
X56589047Y9385180D02*
X56684285Y9337561D01*
X56684285Y9337561D02*
X56779523Y9242323D01*
X56779523Y9242323D02*
X56827142Y9051847D01*
X56827142Y9051847D02*
X56827142Y8718514D01*
X56827142Y8718514D02*
X56779523Y8528038D01*
X56779523Y8528038D02*
X56684285Y8432800D01*
X56684285Y8432800D02*
X56589047Y8385180D01*
X56589047Y8385180D02*
X56398571Y8385180D01*
X57684285Y9385180D02*
X57493809Y9385180D01*
X57493809Y9385180D02*
X57398571Y9337561D01*
X57398571Y9337561D02*
X57350952Y9289942D01*
X57350952Y9289942D02*
X57255714Y9147085D01*
X57255714Y9147085D02*
X57208095Y8956609D01*
X57208095Y8956609D02*
X57208095Y8575657D01*
X57208095Y8575657D02*
X57255714Y8480419D01*
X57255714Y8480419D02*
X57303333Y8432800D01*
X57303333Y8432800D02*
X57398571Y8385180D01*
X57398571Y8385180D02*
X57589047Y8385180D01*
X57589047Y8385180D02*
X57684285Y8432800D01*
X57684285Y8432800D02*
X57731904Y8480419D01*
X57731904Y8480419D02*
X57779523Y8575657D01*
X57779523Y8575657D02*
X57779523Y8813752D01*
X57779523Y8813752D02*
X57731904Y8908990D01*
X57731904Y8908990D02*
X57684285Y8956609D01*
X57684285Y8956609D02*
X57589047Y9004228D01*
X57589047Y9004228D02*
X57398571Y9004228D01*
X57398571Y9004228D02*
X57303333Y8956609D01*
X57303333Y8956609D02*
X57255714Y8908990D01*
X57255714Y8908990D02*
X57208095Y8813752D01*
X53538871Y-102728142D02*
X53538871Y-103028142D01*
X53067442Y-103156714D02*
X53067442Y-102728142D01*
X53067442Y-102728142D02*
X53967442Y-102728142D01*
X53967442Y-102728142D02*
X53967442Y-103156714D01*
X53153157Y-97357571D02*
X53110300Y-97314714D01*
X53110300Y-97314714D02*
X53067442Y-97186142D01*
X53067442Y-97186142D02*
X53067442Y-97100428D01*
X53067442Y-97100428D02*
X53110300Y-96971857D01*
X53110300Y-96971857D02*
X53196014Y-96886142D01*
X53196014Y-96886142D02*
X53281728Y-96843285D01*
X53281728Y-96843285D02*
X53453157Y-96800428D01*
X53453157Y-96800428D02*
X53581728Y-96800428D01*
X53581728Y-96800428D02*
X53753157Y-96843285D01*
X53753157Y-96843285D02*
X53838871Y-96886142D01*
X53838871Y-96886142D02*
X53924585Y-96971857D01*
X53924585Y-96971857D02*
X53967442Y-97100428D01*
X53967442Y-97100428D02*
X53967442Y-97186142D01*
X53967442Y-97186142D02*
X53924585Y-97314714D01*
X53924585Y-97314714D02*
X53881728Y-97357571D01*
X53538871Y-100064285D02*
X53496014Y-100192857D01*
X53496014Y-100192857D02*
X53453157Y-100235714D01*
X53453157Y-100235714D02*
X53367442Y-100278571D01*
X53367442Y-100278571D02*
X53238871Y-100278571D01*
X53238871Y-100278571D02*
X53153157Y-100235714D01*
X53153157Y-100235714D02*
X53110300Y-100192857D01*
X53110300Y-100192857D02*
X53067442Y-100107142D01*
X53067442Y-100107142D02*
X53067442Y-99764285D01*
X53067442Y-99764285D02*
X53967442Y-99764285D01*
X53967442Y-99764285D02*
X53967442Y-100064285D01*
X53967442Y-100064285D02*
X53924585Y-100150000D01*
X53924585Y-100150000D02*
X53881728Y-100192857D01*
X53881728Y-100192857D02*
X53796014Y-100235714D01*
X53796014Y-100235714D02*
X53710300Y-100235714D01*
X53710300Y-100235714D02*
X53624585Y-100192857D01*
X53624585Y-100192857D02*
X53581728Y-100150000D01*
X53581728Y-100150000D02*
X53538871Y-100064285D01*
X53538871Y-100064285D02*
X53538871Y-99764285D01*
X41554819Y-102309523D02*
X42269104Y-102309523D01*
X42269104Y-102309523D02*
X42411961Y-102357142D01*
X42411961Y-102357142D02*
X42507200Y-102452380D01*
X42507200Y-102452380D02*
X42554819Y-102595237D01*
X42554819Y-102595237D02*
X42554819Y-102690475D01*
X42554819Y-101309523D02*
X42554819Y-101880951D01*
X42554819Y-101595237D02*
X41554819Y-101595237D01*
X41554819Y-101595237D02*
X41697676Y-101690475D01*
X41697676Y-101690475D02*
X41792914Y-101785713D01*
X41792914Y-101785713D02*
X41840533Y-101880951D01*
X41650057Y-100928570D02*
X41602438Y-100880951D01*
X41602438Y-100880951D02*
X41554819Y-100785713D01*
X41554819Y-100785713D02*
X41554819Y-100547618D01*
X41554819Y-100547618D02*
X41602438Y-100452380D01*
X41602438Y-100452380D02*
X41650057Y-100404761D01*
X41650057Y-100404761D02*
X41745295Y-100357142D01*
X41745295Y-100357142D02*
X41840533Y-100357142D01*
X41840533Y-100357142D02*
X41983390Y-100404761D01*
X41983390Y-100404761D02*
X42554819Y-100976189D01*
X42554819Y-100976189D02*
X42554819Y-100357142D01*
X48454819Y-103880951D02*
X48454819Y-103214285D01*
X48454819Y-103214285D02*
X49454819Y-103880951D01*
X49454819Y-103880951D02*
X49454819Y-103214285D01*
X49454819Y-102833332D02*
X48788152Y-102833332D01*
X48454819Y-102833332D02*
X48502438Y-102880951D01*
X48502438Y-102880951D02*
X48550057Y-102833332D01*
X48550057Y-102833332D02*
X48502438Y-102785713D01*
X48502438Y-102785713D02*
X48454819Y-102833332D01*
X48454819Y-102833332D02*
X48550057Y-102833332D01*
X49454819Y-102357142D02*
X48788152Y-102357142D01*
X48883390Y-102357142D02*
X48835771Y-102309523D01*
X48835771Y-102309523D02*
X48788152Y-102214285D01*
X48788152Y-102214285D02*
X48788152Y-102071428D01*
X48788152Y-102071428D02*
X48835771Y-101976190D01*
X48835771Y-101976190D02*
X48931009Y-101928571D01*
X48931009Y-101928571D02*
X49454819Y-101928571D01*
X48931009Y-101928571D02*
X48835771Y-101880952D01*
X48835771Y-101880952D02*
X48788152Y-101785714D01*
X48788152Y-101785714D02*
X48788152Y-101642857D01*
X48788152Y-101642857D02*
X48835771Y-101547618D01*
X48835771Y-101547618D02*
X48931009Y-101499999D01*
X48931009Y-101499999D02*
X49454819Y-101499999D01*
X49454819Y-101023809D02*
X48454819Y-101023809D01*
X48835771Y-101023809D02*
X48788152Y-100928571D01*
X48788152Y-100928571D02*
X48788152Y-100738095D01*
X48788152Y-100738095D02*
X48835771Y-100642857D01*
X48835771Y-100642857D02*
X48883390Y-100595238D01*
X48883390Y-100595238D02*
X48978628Y-100547619D01*
X48978628Y-100547619D02*
X49264342Y-100547619D01*
X49264342Y-100547619D02*
X49359580Y-100595238D01*
X49359580Y-100595238D02*
X49407200Y-100642857D01*
X49407200Y-100642857D02*
X49454819Y-100738095D01*
X49454819Y-100738095D02*
X49454819Y-100928571D01*
X49454819Y-100928571D02*
X49407200Y-101023809D01*
X49454819Y-99976190D02*
X49407200Y-100071428D01*
X49407200Y-100071428D02*
X49311961Y-100119047D01*
X49311961Y-100119047D02*
X48454819Y-100119047D01*
X49407200Y-99214285D02*
X49454819Y-99309523D01*
X49454819Y-99309523D02*
X49454819Y-99499999D01*
X49454819Y-99499999D02*
X49407200Y-99595237D01*
X49407200Y-99595237D02*
X49311961Y-99642856D01*
X49311961Y-99642856D02*
X48931009Y-99642856D01*
X48931009Y-99642856D02*
X48835771Y-99595237D01*
X48835771Y-99595237D02*
X48788152Y-99499999D01*
X48788152Y-99499999D02*
X48788152Y-99309523D01*
X48788152Y-99309523D02*
X48835771Y-99214285D01*
X48835771Y-99214285D02*
X48931009Y-99166666D01*
X48931009Y-99166666D02*
X49026247Y-99166666D01*
X49026247Y-99166666D02*
X49121485Y-99642856D01*
X97166666Y-142354819D02*
X97166666Y-143069104D01*
X97166666Y-143069104D02*
X97119047Y-143211961D01*
X97119047Y-143211961D02*
X97023809Y-143307200D01*
X97023809Y-143307200D02*
X96880952Y-143354819D01*
X96880952Y-143354819D02*
X96785714Y-143354819D01*
X97595238Y-142450057D02*
X97642857Y-142402438D01*
X97642857Y-142402438D02*
X97738095Y-142354819D01*
X97738095Y-142354819D02*
X97976190Y-142354819D01*
X97976190Y-142354819D02*
X98071428Y-142402438D01*
X98071428Y-142402438D02*
X98119047Y-142450057D01*
X98119047Y-142450057D02*
X98166666Y-142545295D01*
X98166666Y-142545295D02*
X98166666Y-142640533D01*
X98166666Y-142640533D02*
X98119047Y-142783390D01*
X98119047Y-142783390D02*
X97547619Y-143354819D01*
X97547619Y-143354819D02*
X98166666Y-143354819D01*
X95261904Y-135931009D02*
X95404761Y-135978628D01*
X95404761Y-135978628D02*
X95452380Y-136026247D01*
X95452380Y-136026247D02*
X95499999Y-136121485D01*
X95499999Y-136121485D02*
X95499999Y-136264342D01*
X95499999Y-136264342D02*
X95452380Y-136359580D01*
X95452380Y-136359580D02*
X95404761Y-136407200D01*
X95404761Y-136407200D02*
X95309523Y-136454819D01*
X95309523Y-136454819D02*
X94928571Y-136454819D01*
X94928571Y-136454819D02*
X94928571Y-135454819D01*
X94928571Y-135454819D02*
X95261904Y-135454819D01*
X95261904Y-135454819D02*
X95357142Y-135502438D01*
X95357142Y-135502438D02*
X95404761Y-135550057D01*
X95404761Y-135550057D02*
X95452380Y-135645295D01*
X95452380Y-135645295D02*
X95452380Y-135740533D01*
X95452380Y-135740533D02*
X95404761Y-135835771D01*
X95404761Y-135835771D02*
X95357142Y-135883390D01*
X95357142Y-135883390D02*
X95261904Y-135931009D01*
X95261904Y-135931009D02*
X94928571Y-135931009D01*
X96309523Y-136407200D02*
X96214285Y-136454819D01*
X96214285Y-136454819D02*
X96023809Y-136454819D01*
X96023809Y-136454819D02*
X95928571Y-136407200D01*
X95928571Y-136407200D02*
X95880952Y-136311961D01*
X95880952Y-136311961D02*
X95880952Y-135931009D01*
X95880952Y-135931009D02*
X95928571Y-135835771D01*
X95928571Y-135835771D02*
X96023809Y-135788152D01*
X96023809Y-135788152D02*
X96214285Y-135788152D01*
X96214285Y-135788152D02*
X96309523Y-135835771D01*
X96309523Y-135835771D02*
X96357142Y-135931009D01*
X96357142Y-135931009D02*
X96357142Y-136026247D01*
X96357142Y-136026247D02*
X95880952Y-136121485D01*
X96928571Y-136454819D02*
X96833333Y-136407200D01*
X96833333Y-136407200D02*
X96785714Y-136311961D01*
X96785714Y-136311961D02*
X96785714Y-135454819D01*
X97452381Y-136454819D02*
X97357143Y-136407200D01*
X97357143Y-136407200D02*
X97309524Y-136311961D01*
X97309524Y-136311961D02*
X97309524Y-135454819D01*
X99166667Y-136359580D02*
X99119048Y-136407200D01*
X99119048Y-136407200D02*
X98976191Y-136454819D01*
X98976191Y-136454819D02*
X98880953Y-136454819D01*
X98880953Y-136454819D02*
X98738096Y-136407200D01*
X98738096Y-136407200D02*
X98642858Y-136311961D01*
X98642858Y-136311961D02*
X98595239Y-136216723D01*
X98595239Y-136216723D02*
X98547620Y-136026247D01*
X98547620Y-136026247D02*
X98547620Y-135883390D01*
X98547620Y-135883390D02*
X98595239Y-135692914D01*
X98595239Y-135692914D02*
X98642858Y-135597676D01*
X98642858Y-135597676D02*
X98738096Y-135502438D01*
X98738096Y-135502438D02*
X98880953Y-135454819D01*
X98880953Y-135454819D02*
X98976191Y-135454819D01*
X98976191Y-135454819D02*
X99119048Y-135502438D01*
X99119048Y-135502438D02*
X99166667Y-135550057D01*
X99738096Y-135883390D02*
X99642858Y-135835771D01*
X99642858Y-135835771D02*
X99595239Y-135788152D01*
X99595239Y-135788152D02*
X99547620Y-135692914D01*
X99547620Y-135692914D02*
X99547620Y-135645295D01*
X99547620Y-135645295D02*
X99595239Y-135550057D01*
X99595239Y-135550057D02*
X99642858Y-135502438D01*
X99642858Y-135502438D02*
X99738096Y-135454819D01*
X99738096Y-135454819D02*
X99928572Y-135454819D01*
X99928572Y-135454819D02*
X100023810Y-135502438D01*
X100023810Y-135502438D02*
X100071429Y-135550057D01*
X100071429Y-135550057D02*
X100119048Y-135645295D01*
X100119048Y-135645295D02*
X100119048Y-135692914D01*
X100119048Y-135692914D02*
X100071429Y-135788152D01*
X100071429Y-135788152D02*
X100023810Y-135835771D01*
X100023810Y-135835771D02*
X99928572Y-135883390D01*
X99928572Y-135883390D02*
X99738096Y-135883390D01*
X99738096Y-135883390D02*
X99642858Y-135931009D01*
X99642858Y-135931009D02*
X99595239Y-135978628D01*
X99595239Y-135978628D02*
X99547620Y-136073866D01*
X99547620Y-136073866D02*
X99547620Y-136264342D01*
X99547620Y-136264342D02*
X99595239Y-136359580D01*
X99595239Y-136359580D02*
X99642858Y-136407200D01*
X99642858Y-136407200D02*
X99738096Y-136454819D01*
X99738096Y-136454819D02*
X99928572Y-136454819D01*
X99928572Y-136454819D02*
X100023810Y-136407200D01*
X100023810Y-136407200D02*
X100071429Y-136359580D01*
X100071429Y-136359580D02*
X100119048Y-136264342D01*
X100119048Y-136264342D02*
X100119048Y-136073866D01*
X100119048Y-136073866D02*
X100071429Y-135978628D01*
X100071429Y-135978628D02*
X100023810Y-135931009D01*
X100023810Y-135931009D02*
X99928572Y-135883390D01*
X62714761Y-119650057D02*
X62619523Y-119602438D01*
X62619523Y-119602438D02*
X62524285Y-119507200D01*
X62524285Y-119507200D02*
X62381428Y-119364342D01*
X62381428Y-119364342D02*
X62286190Y-119316723D01*
X62286190Y-119316723D02*
X62190952Y-119316723D01*
X62238571Y-119554819D02*
X62143333Y-119507200D01*
X62143333Y-119507200D02*
X62048095Y-119411961D01*
X62048095Y-119411961D02*
X62000476Y-119221485D01*
X62000476Y-119221485D02*
X62000476Y-118888152D01*
X62000476Y-118888152D02*
X62048095Y-118697676D01*
X62048095Y-118697676D02*
X62143333Y-118602438D01*
X62143333Y-118602438D02*
X62238571Y-118554819D01*
X62238571Y-118554819D02*
X62429047Y-118554819D01*
X62429047Y-118554819D02*
X62524285Y-118602438D01*
X62524285Y-118602438D02*
X62619523Y-118697676D01*
X62619523Y-118697676D02*
X62667142Y-118888152D01*
X62667142Y-118888152D02*
X62667142Y-119221485D01*
X62667142Y-119221485D02*
X62619523Y-119411961D01*
X62619523Y-119411961D02*
X62524285Y-119507200D01*
X62524285Y-119507200D02*
X62429047Y-119554819D01*
X62429047Y-119554819D02*
X62238571Y-119554819D01*
X63524285Y-118888152D02*
X63524285Y-119554819D01*
X63286190Y-118507200D02*
X63048095Y-119221485D01*
X63048095Y-119221485D02*
X63667142Y-119221485D01*
X114734819Y-56866666D02*
X114258628Y-57199999D01*
X114734819Y-57438094D02*
X113734819Y-57438094D01*
X113734819Y-57438094D02*
X113734819Y-57057142D01*
X113734819Y-57057142D02*
X113782438Y-56961904D01*
X113782438Y-56961904D02*
X113830057Y-56914285D01*
X113830057Y-56914285D02*
X113925295Y-56866666D01*
X113925295Y-56866666D02*
X114068152Y-56866666D01*
X114068152Y-56866666D02*
X114163390Y-56914285D01*
X114163390Y-56914285D02*
X114211009Y-56961904D01*
X114211009Y-56961904D02*
X114258628Y-57057142D01*
X114258628Y-57057142D02*
X114258628Y-57438094D01*
X114734819Y-55914285D02*
X114734819Y-56485713D01*
X114734819Y-56199999D02*
X113734819Y-56199999D01*
X113734819Y-56199999D02*
X113877676Y-56295237D01*
X113877676Y-56295237D02*
X113972914Y-56390475D01*
X113972914Y-56390475D02*
X114020533Y-56485713D01*
X77714761Y-119650057D02*
X77619523Y-119602438D01*
X77619523Y-119602438D02*
X77524285Y-119507200D01*
X77524285Y-119507200D02*
X77381428Y-119364342D01*
X77381428Y-119364342D02*
X77286190Y-119316723D01*
X77286190Y-119316723D02*
X77190952Y-119316723D01*
X77238571Y-119554819D02*
X77143333Y-119507200D01*
X77143333Y-119507200D02*
X77048095Y-119411961D01*
X77048095Y-119411961D02*
X77000476Y-119221485D01*
X77000476Y-119221485D02*
X77000476Y-118888152D01*
X77000476Y-118888152D02*
X77048095Y-118697676D01*
X77048095Y-118697676D02*
X77143333Y-118602438D01*
X77143333Y-118602438D02*
X77238571Y-118554819D01*
X77238571Y-118554819D02*
X77429047Y-118554819D01*
X77429047Y-118554819D02*
X77524285Y-118602438D01*
X77524285Y-118602438D02*
X77619523Y-118697676D01*
X77619523Y-118697676D02*
X77667142Y-118888152D01*
X77667142Y-118888152D02*
X77667142Y-119221485D01*
X77667142Y-119221485D02*
X77619523Y-119411961D01*
X77619523Y-119411961D02*
X77524285Y-119507200D01*
X77524285Y-119507200D02*
X77429047Y-119554819D01*
X77429047Y-119554819D02*
X77238571Y-119554819D01*
X78000476Y-118554819D02*
X78619523Y-118554819D01*
X78619523Y-118554819D02*
X78286190Y-118935771D01*
X78286190Y-118935771D02*
X78429047Y-118935771D01*
X78429047Y-118935771D02*
X78524285Y-118983390D01*
X78524285Y-118983390D02*
X78571904Y-119031009D01*
X78571904Y-119031009D02*
X78619523Y-119126247D01*
X78619523Y-119126247D02*
X78619523Y-119364342D01*
X78619523Y-119364342D02*
X78571904Y-119459580D01*
X78571904Y-119459580D02*
X78524285Y-119507200D01*
X78524285Y-119507200D02*
X78429047Y-119554819D01*
X78429047Y-119554819D02*
X78143333Y-119554819D01*
X78143333Y-119554819D02*
X78048095Y-119507200D01*
X78048095Y-119507200D02*
X78000476Y-119459580D01*
X46021666Y-34454819D02*
X46021666Y-35169104D01*
X46021666Y-35169104D02*
X45974047Y-35311961D01*
X45974047Y-35311961D02*
X45878809Y-35407200D01*
X45878809Y-35407200D02*
X45735952Y-35454819D01*
X45735952Y-35454819D02*
X45640714Y-35454819D01*
X47021666Y-35454819D02*
X46450238Y-35454819D01*
X46735952Y-35454819D02*
X46735952Y-34454819D01*
X46735952Y-34454819D02*
X46640714Y-34597676D01*
X46640714Y-34597676D02*
X46545476Y-34692914D01*
X46545476Y-34692914D02*
X46450238Y-34740533D01*
X44378809Y-47454819D02*
X44378809Y-46454819D01*
X44378809Y-46454819D02*
X44759761Y-46454819D01*
X44759761Y-46454819D02*
X44854999Y-46502438D01*
X44854999Y-46502438D02*
X44902618Y-46550057D01*
X44902618Y-46550057D02*
X44950237Y-46645295D01*
X44950237Y-46645295D02*
X44950237Y-46788152D01*
X44950237Y-46788152D02*
X44902618Y-46883390D01*
X44902618Y-46883390D02*
X44854999Y-46931009D01*
X44854999Y-46931009D02*
X44759761Y-46978628D01*
X44759761Y-46978628D02*
X44378809Y-46978628D01*
X45521666Y-47454819D02*
X45426428Y-47407200D01*
X45426428Y-47407200D02*
X45378809Y-47359580D01*
X45378809Y-47359580D02*
X45331190Y-47264342D01*
X45331190Y-47264342D02*
X45331190Y-46978628D01*
X45331190Y-46978628D02*
X45378809Y-46883390D01*
X45378809Y-46883390D02*
X45426428Y-46835771D01*
X45426428Y-46835771D02*
X45521666Y-46788152D01*
X45521666Y-46788152D02*
X45664523Y-46788152D01*
X45664523Y-46788152D02*
X45759761Y-46835771D01*
X45759761Y-46835771D02*
X45807380Y-46883390D01*
X45807380Y-46883390D02*
X45854999Y-46978628D01*
X45854999Y-46978628D02*
X45854999Y-47264342D01*
X45854999Y-47264342D02*
X45807380Y-47359580D01*
X45807380Y-47359580D02*
X45759761Y-47407200D01*
X45759761Y-47407200D02*
X45664523Y-47454819D01*
X45664523Y-47454819D02*
X45521666Y-47454819D01*
X46188333Y-46788152D02*
X46378809Y-47454819D01*
X46378809Y-47454819D02*
X46569285Y-46978628D01*
X46569285Y-46978628D02*
X46759761Y-47454819D01*
X46759761Y-47454819D02*
X46950237Y-46788152D01*
X47712142Y-47407200D02*
X47616904Y-47454819D01*
X47616904Y-47454819D02*
X47426428Y-47454819D01*
X47426428Y-47454819D02*
X47331190Y-47407200D01*
X47331190Y-47407200D02*
X47283571Y-47311961D01*
X47283571Y-47311961D02*
X47283571Y-46931009D01*
X47283571Y-46931009D02*
X47331190Y-46835771D01*
X47331190Y-46835771D02*
X47426428Y-46788152D01*
X47426428Y-46788152D02*
X47616904Y-46788152D01*
X47616904Y-46788152D02*
X47712142Y-46835771D01*
X47712142Y-46835771D02*
X47759761Y-46931009D01*
X47759761Y-46931009D02*
X47759761Y-47026247D01*
X47759761Y-47026247D02*
X47283571Y-47121485D01*
X48188333Y-47454819D02*
X48188333Y-46788152D01*
X48188333Y-46978628D02*
X48235952Y-46883390D01*
X48235952Y-46883390D02*
X48283571Y-46835771D01*
X48283571Y-46835771D02*
X48378809Y-46788152D01*
X48378809Y-46788152D02*
X48474047Y-46788152D01*
X108914819Y-108086666D02*
X108438628Y-108419999D01*
X108914819Y-108658094D02*
X107914819Y-108658094D01*
X107914819Y-108658094D02*
X107914819Y-108277142D01*
X107914819Y-108277142D02*
X107962438Y-108181904D01*
X107962438Y-108181904D02*
X108010057Y-108134285D01*
X108010057Y-108134285D02*
X108105295Y-108086666D01*
X108105295Y-108086666D02*
X108248152Y-108086666D01*
X108248152Y-108086666D02*
X108343390Y-108134285D01*
X108343390Y-108134285D02*
X108391009Y-108181904D01*
X108391009Y-108181904D02*
X108438628Y-108277142D01*
X108438628Y-108277142D02*
X108438628Y-108658094D01*
X108010057Y-107705713D02*
X107962438Y-107658094D01*
X107962438Y-107658094D02*
X107914819Y-107562856D01*
X107914819Y-107562856D02*
X107914819Y-107324761D01*
X107914819Y-107324761D02*
X107962438Y-107229523D01*
X107962438Y-107229523D02*
X108010057Y-107181904D01*
X108010057Y-107181904D02*
X108105295Y-107134285D01*
X108105295Y-107134285D02*
X108200533Y-107134285D01*
X108200533Y-107134285D02*
X108343390Y-107181904D01*
X108343390Y-107181904D02*
X108914819Y-107753332D01*
X108914819Y-107753332D02*
X108914819Y-107134285D01*
X67294819Y-71048094D02*
X66294819Y-71048094D01*
X66294819Y-71048094D02*
X66294819Y-70809999D01*
X66294819Y-70809999D02*
X66342438Y-70667142D01*
X66342438Y-70667142D02*
X66437676Y-70571904D01*
X66437676Y-70571904D02*
X66532914Y-70524285D01*
X66532914Y-70524285D02*
X66723390Y-70476666D01*
X66723390Y-70476666D02*
X66866247Y-70476666D01*
X66866247Y-70476666D02*
X67056723Y-70524285D01*
X67056723Y-70524285D02*
X67151961Y-70571904D01*
X67151961Y-70571904D02*
X67247200Y-70667142D01*
X67247200Y-70667142D02*
X67294819Y-70809999D01*
X67294819Y-70809999D02*
X67294819Y-71048094D01*
X66294819Y-69619523D02*
X66294819Y-69809999D01*
X66294819Y-69809999D02*
X66342438Y-69905237D01*
X66342438Y-69905237D02*
X66390057Y-69952856D01*
X66390057Y-69952856D02*
X66532914Y-70048094D01*
X66532914Y-70048094D02*
X66723390Y-70095713D01*
X66723390Y-70095713D02*
X67104342Y-70095713D01*
X67104342Y-70095713D02*
X67199580Y-70048094D01*
X67199580Y-70048094D02*
X67247200Y-70000475D01*
X67247200Y-70000475D02*
X67294819Y-69905237D01*
X67294819Y-69905237D02*
X67294819Y-69714761D01*
X67294819Y-69714761D02*
X67247200Y-69619523D01*
X67247200Y-69619523D02*
X67199580Y-69571904D01*
X67199580Y-69571904D02*
X67104342Y-69524285D01*
X67104342Y-69524285D02*
X66866247Y-69524285D01*
X66866247Y-69524285D02*
X66771009Y-69571904D01*
X66771009Y-69571904D02*
X66723390Y-69619523D01*
X66723390Y-69619523D02*
X66675771Y-69714761D01*
X66675771Y-69714761D02*
X66675771Y-69905237D01*
X66675771Y-69905237D02*
X66723390Y-70000475D01*
X66723390Y-70000475D02*
X66771009Y-70048094D01*
X66771009Y-70048094D02*
X66866247Y-70095713D01*
X67124819Y-66761904D02*
X66124819Y-66761904D01*
X67124819Y-66190476D02*
X66553390Y-66619047D01*
X66124819Y-66190476D02*
X66696247Y-66761904D01*
X100838095Y-55334819D02*
X100838095Y-56144342D01*
X100838095Y-56144342D02*
X100885714Y-56239580D01*
X100885714Y-56239580D02*
X100933333Y-56287200D01*
X100933333Y-56287200D02*
X101028571Y-56334819D01*
X101028571Y-56334819D02*
X101219047Y-56334819D01*
X101219047Y-56334819D02*
X101314285Y-56287200D01*
X101314285Y-56287200D02*
X101361904Y-56239580D01*
X101361904Y-56239580D02*
X101409523Y-56144342D01*
X101409523Y-56144342D02*
X101409523Y-55334819D01*
X102409523Y-56334819D02*
X101838095Y-56334819D01*
X102123809Y-56334819D02*
X102123809Y-55334819D01*
X102123809Y-55334819D02*
X102028571Y-55477676D01*
X102028571Y-55477676D02*
X101933333Y-55572914D01*
X101933333Y-55572914D02*
X101838095Y-55620533D01*
X88113372Y-47111494D02*
X88032560Y-47138431D01*
X88032560Y-47138431D02*
X87951748Y-47219243D01*
X87951748Y-47219243D02*
X87897873Y-47326993D01*
X87897873Y-47326993D02*
X87897873Y-47434742D01*
X87897873Y-47434742D02*
X87924810Y-47515555D01*
X87924810Y-47515555D02*
X88005623Y-47650242D01*
X88005623Y-47650242D02*
X88086435Y-47731054D01*
X88086435Y-47731054D02*
X88221122Y-47811866D01*
X88221122Y-47811866D02*
X88301934Y-47838803D01*
X88301934Y-47838803D02*
X88409684Y-47838803D01*
X88409684Y-47838803D02*
X88517433Y-47784929D01*
X88517433Y-47784929D02*
X88571308Y-47731054D01*
X88571308Y-47731054D02*
X88625183Y-47623304D01*
X88625183Y-47623304D02*
X88625183Y-47569429D01*
X88625183Y-47569429D02*
X88436621Y-47380868D01*
X88436621Y-47380868D02*
X88328871Y-47488617D01*
X88921494Y-47380868D02*
X88355809Y-46815182D01*
X88355809Y-46815182D02*
X88571308Y-46599683D01*
X88571308Y-46599683D02*
X88652120Y-46572746D01*
X88652120Y-46572746D02*
X88705995Y-46572746D01*
X88705995Y-46572746D02*
X88786807Y-46599683D01*
X88786807Y-46599683D02*
X88867619Y-46680495D01*
X88867619Y-46680495D02*
X88894557Y-46761307D01*
X88894557Y-46761307D02*
X88894557Y-46815182D01*
X88894557Y-46815182D02*
X88867619Y-46895994D01*
X88867619Y-46895994D02*
X88652120Y-47111494D01*
X89190868Y-45980123D02*
X88921494Y-46249497D01*
X88921494Y-46249497D02*
X89163931Y-46545808D01*
X89163931Y-46545808D02*
X89163931Y-46491933D01*
X89163931Y-46491933D02*
X89190868Y-46411121D01*
X89190868Y-46411121D02*
X89325555Y-46276434D01*
X89325555Y-46276434D02*
X89406367Y-46249497D01*
X89406367Y-46249497D02*
X89460242Y-46249497D01*
X89460242Y-46249497D02*
X89541054Y-46276434D01*
X89541054Y-46276434D02*
X89675741Y-46411121D01*
X89675741Y-46411121D02*
X89702679Y-46491933D01*
X89702679Y-46491933D02*
X89702679Y-46545808D01*
X89702679Y-46545808D02*
X89675741Y-46626620D01*
X89675741Y-46626620D02*
X89541054Y-46761307D01*
X89541054Y-46761307D02*
X89460242Y-46788245D01*
X89460242Y-46788245D02*
X89406367Y-46788245D01*
X113490123Y-42370868D02*
X113840309Y-42020682D01*
X113840309Y-42020682D02*
X113867247Y-42424743D01*
X113867247Y-42424743D02*
X113948059Y-42343931D01*
X113948059Y-42343931D02*
X114028871Y-42316993D01*
X114028871Y-42316993D02*
X114082746Y-42316993D01*
X114082746Y-42316993D02*
X114163558Y-42343931D01*
X114163558Y-42343931D02*
X114298245Y-42478618D01*
X114298245Y-42478618D02*
X114325182Y-42559430D01*
X114325182Y-42559430D02*
X114325182Y-42613305D01*
X114325182Y-42613305D02*
X114298245Y-42694117D01*
X114298245Y-42694117D02*
X114136621Y-42855741D01*
X114136621Y-42855741D02*
X114055808Y-42882679D01*
X114055808Y-42882679D02*
X114001934Y-42882679D01*
X114001934Y-41859057D02*
X114756181Y-42236181D01*
X114756181Y-42236181D02*
X114379057Y-41481934D01*
X114513744Y-41347247D02*
X114863930Y-40997061D01*
X114863930Y-40997061D02*
X114890868Y-41401122D01*
X114890868Y-41401122D02*
X114971680Y-41320309D01*
X114971680Y-41320309D02*
X115052492Y-41293372D01*
X115052492Y-41293372D02*
X115106367Y-41293372D01*
X115106367Y-41293372D02*
X115187179Y-41320309D01*
X115187179Y-41320309D02*
X115321866Y-41454996D01*
X115321866Y-41454996D02*
X115348804Y-41535809D01*
X115348804Y-41535809D02*
X115348804Y-41589683D01*
X115348804Y-41589683D02*
X115321866Y-41670496D01*
X115321866Y-41670496D02*
X115160242Y-41832120D01*
X115160242Y-41832120D02*
X115079430Y-41859057D01*
X115079430Y-41859057D02*
X115025555Y-41859057D01*
X113520749Y-34950242D02*
X114274996Y-35327366D01*
X114274996Y-35327366D02*
X113897873Y-34573118D01*
X114598245Y-34950242D02*
X114705995Y-34896367D01*
X114705995Y-34896367D02*
X114840682Y-34761680D01*
X114840682Y-34761680D02*
X114867619Y-34680868D01*
X114867619Y-34680868D02*
X114867619Y-34626993D01*
X114867619Y-34626993D02*
X114840682Y-34546181D01*
X114840682Y-34546181D02*
X114786807Y-34492306D01*
X114786807Y-34492306D02*
X114705995Y-34465369D01*
X114705995Y-34465369D02*
X114652120Y-34465369D01*
X114652120Y-34465369D02*
X114571308Y-34492306D01*
X114571308Y-34492306D02*
X114436621Y-34573118D01*
X114436621Y-34573118D02*
X114355808Y-34600056D01*
X114355808Y-34600056D02*
X114301934Y-34600056D01*
X114301934Y-34600056D02*
X114221121Y-34573118D01*
X114221121Y-34573118D02*
X114167247Y-34519244D01*
X114167247Y-34519244D02*
X114140309Y-34438431D01*
X114140309Y-34438431D02*
X114140309Y-34384557D01*
X114140309Y-34384557D02*
X114167247Y-34303744D01*
X114167247Y-34303744D02*
X114301934Y-34169057D01*
X114301934Y-34169057D02*
X114409683Y-34115183D01*
X115029244Y-34034370D02*
X115298618Y-34303744D01*
X114544370Y-33926621D02*
X115029244Y-34034370D01*
X115029244Y-34034370D02*
X114921494Y-33549497D01*
X115621866Y-33926621D02*
X115729616Y-33872746D01*
X115729616Y-33872746D02*
X115864303Y-33738059D01*
X115864303Y-33738059D02*
X115891240Y-33657247D01*
X115891240Y-33657247D02*
X115891240Y-33603372D01*
X115891240Y-33603372D02*
X115864303Y-33522560D01*
X115864303Y-33522560D02*
X115810428Y-33468685D01*
X115810428Y-33468685D02*
X115729616Y-33441748D01*
X115729616Y-33441748D02*
X115675741Y-33441748D01*
X115675741Y-33441748D02*
X115594929Y-33468685D01*
X115594929Y-33468685D02*
X115460242Y-33549497D01*
X115460242Y-33549497D02*
X115379430Y-33576435D01*
X115379430Y-33576435D02*
X115325555Y-33576435D01*
X115325555Y-33576435D02*
X115244743Y-33549497D01*
X115244743Y-33549497D02*
X115190868Y-33495622D01*
X115190868Y-33495622D02*
X115163930Y-33414810D01*
X115163930Y-33414810D02*
X115163930Y-33360935D01*
X115163930Y-33360935D02*
X115190868Y-33280123D01*
X115190868Y-33280123D02*
X115325555Y-33145436D01*
X115325555Y-33145436D02*
X115433304Y-33091561D01*
X87589998Y-65160868D02*
X87509185Y-65187805D01*
X87509185Y-65187805D02*
X87428373Y-65268618D01*
X87428373Y-65268618D02*
X87374498Y-65376367D01*
X87374498Y-65376367D02*
X87374498Y-65484117D01*
X87374498Y-65484117D02*
X87401436Y-65564929D01*
X87401436Y-65564929D02*
X87482248Y-65699616D01*
X87482248Y-65699616D02*
X87563060Y-65780428D01*
X87563060Y-65780428D02*
X87697747Y-65861241D01*
X87697747Y-65861241D02*
X87778560Y-65888178D01*
X87778560Y-65888178D02*
X87886309Y-65888178D01*
X87886309Y-65888178D02*
X87994059Y-65834303D01*
X87994059Y-65834303D02*
X88047934Y-65780428D01*
X88047934Y-65780428D02*
X88101808Y-65672679D01*
X88101808Y-65672679D02*
X88101808Y-65618804D01*
X88101808Y-65618804D02*
X87913247Y-65430242D01*
X87913247Y-65430242D02*
X87805497Y-65537992D01*
X88398120Y-65430242D02*
X87832434Y-64864557D01*
X87832434Y-64864557D02*
X88047934Y-64649057D01*
X88047934Y-64649057D02*
X88128746Y-64622120D01*
X88128746Y-64622120D02*
X88182621Y-64622120D01*
X88182621Y-64622120D02*
X88263433Y-64649057D01*
X88263433Y-64649057D02*
X88344245Y-64729870D01*
X88344245Y-64729870D02*
X88371182Y-64810682D01*
X88371182Y-64810682D02*
X88371182Y-64864557D01*
X88371182Y-64864557D02*
X88344245Y-64945369D01*
X88344245Y-64945369D02*
X88128746Y-65160868D01*
X89260117Y-64568245D02*
X88936868Y-64891494D01*
X89098492Y-64729870D02*
X88532807Y-64164184D01*
X88532807Y-64164184D02*
X88559744Y-64298871D01*
X88559744Y-64298871D02*
X88559744Y-64406621D01*
X88559744Y-64406621D02*
X88532807Y-64487433D01*
X89044618Y-63652373D02*
X89098492Y-63598499D01*
X89098492Y-63598499D02*
X89179305Y-63571561D01*
X89179305Y-63571561D02*
X89233179Y-63571561D01*
X89233179Y-63571561D02*
X89313992Y-63598499D01*
X89313992Y-63598499D02*
X89448679Y-63679311D01*
X89448679Y-63679311D02*
X89583366Y-63813998D01*
X89583366Y-63813998D02*
X89664178Y-63948685D01*
X89664178Y-63948685D02*
X89691115Y-64029497D01*
X89691115Y-64029497D02*
X89691115Y-64083372D01*
X89691115Y-64083372D02*
X89664178Y-64164184D01*
X89664178Y-64164184D02*
X89610303Y-64218059D01*
X89610303Y-64218059D02*
X89529491Y-64244996D01*
X89529491Y-64244996D02*
X89475616Y-64244996D01*
X89475616Y-64244996D02*
X89394804Y-64218059D01*
X89394804Y-64218059D02*
X89260117Y-64137247D01*
X89260117Y-64137247D02*
X89125430Y-64002560D01*
X89125430Y-64002560D02*
X89044618Y-63867873D01*
X89044618Y-63867873D02*
X89017680Y-63787060D01*
X89017680Y-63787060D02*
X89017680Y-63733186D01*
X89017680Y-63733186D02*
X89044618Y-63652373D01*
X94090475Y-82404200D02*
X94204761Y-82442295D01*
X94204761Y-82442295D02*
X94395237Y-82442295D01*
X94395237Y-82442295D02*
X94471428Y-82404200D01*
X94471428Y-82404200D02*
X94509523Y-82366104D01*
X94509523Y-82366104D02*
X94547618Y-82289914D01*
X94547618Y-82289914D02*
X94547618Y-82213723D01*
X94547618Y-82213723D02*
X94509523Y-82137533D01*
X94509523Y-82137533D02*
X94471428Y-82099438D01*
X94471428Y-82099438D02*
X94395237Y-82061342D01*
X94395237Y-82061342D02*
X94242856Y-82023247D01*
X94242856Y-82023247D02*
X94166666Y-81985152D01*
X94166666Y-81985152D02*
X94128571Y-81947057D01*
X94128571Y-81947057D02*
X94090475Y-81870866D01*
X94090475Y-81870866D02*
X94090475Y-81794676D01*
X94090475Y-81794676D02*
X94128571Y-81718485D01*
X94128571Y-81718485D02*
X94166666Y-81680390D01*
X94166666Y-81680390D02*
X94242856Y-81642295D01*
X94242856Y-81642295D02*
X94433333Y-81642295D01*
X94433333Y-81642295D02*
X94547618Y-81680390D01*
X94814285Y-81642295D02*
X95004761Y-82442295D01*
X95004761Y-82442295D02*
X95157142Y-81870866D01*
X95157142Y-81870866D02*
X95309523Y-82442295D01*
X95309523Y-82442295D02*
X95500000Y-81642295D01*
X96261905Y-82366104D02*
X96223809Y-82404200D01*
X96223809Y-82404200D02*
X96109524Y-82442295D01*
X96109524Y-82442295D02*
X96033333Y-82442295D01*
X96033333Y-82442295D02*
X95919047Y-82404200D01*
X95919047Y-82404200D02*
X95842857Y-82328009D01*
X95842857Y-82328009D02*
X95804762Y-82251819D01*
X95804762Y-82251819D02*
X95766666Y-82099438D01*
X95766666Y-82099438D02*
X95766666Y-81985152D01*
X95766666Y-81985152D02*
X95804762Y-81832771D01*
X95804762Y-81832771D02*
X95842857Y-81756580D01*
X95842857Y-81756580D02*
X95919047Y-81680390D01*
X95919047Y-81680390D02*
X96033333Y-81642295D01*
X96033333Y-81642295D02*
X96109524Y-81642295D01*
X96109524Y-81642295D02*
X96223809Y-81680390D01*
X96223809Y-81680390D02*
X96261905Y-81718485D01*
X96985714Y-82442295D02*
X96604762Y-82442295D01*
X96604762Y-82442295D02*
X96604762Y-81642295D01*
X97252381Y-82442295D02*
X97252381Y-81642295D01*
X97709524Y-82442295D02*
X97366666Y-81985152D01*
X97709524Y-81642295D02*
X97252381Y-82099438D01*
X113697998Y-47126868D02*
X113617185Y-47153805D01*
X113617185Y-47153805D02*
X113536373Y-47234618D01*
X113536373Y-47234618D02*
X113482498Y-47342367D01*
X113482498Y-47342367D02*
X113482498Y-47450117D01*
X113482498Y-47450117D02*
X113509436Y-47530929D01*
X113509436Y-47530929D02*
X113590248Y-47665616D01*
X113590248Y-47665616D02*
X113671060Y-47746428D01*
X113671060Y-47746428D02*
X113805747Y-47827241D01*
X113805747Y-47827241D02*
X113886560Y-47854178D01*
X113886560Y-47854178D02*
X113994309Y-47854178D01*
X113994309Y-47854178D02*
X114102059Y-47800303D01*
X114102059Y-47800303D02*
X114155934Y-47746428D01*
X114155934Y-47746428D02*
X114209808Y-47638679D01*
X114209808Y-47638679D02*
X114209808Y-47584804D01*
X114209808Y-47584804D02*
X114021247Y-47396242D01*
X114021247Y-47396242D02*
X113913497Y-47503992D01*
X114506120Y-47396242D02*
X113940434Y-46830557D01*
X113940434Y-46830557D02*
X114155934Y-46615057D01*
X114155934Y-46615057D02*
X114236746Y-46588120D01*
X114236746Y-46588120D02*
X114290621Y-46588120D01*
X114290621Y-46588120D02*
X114371433Y-46615057D01*
X114371433Y-46615057D02*
X114452245Y-46695870D01*
X114452245Y-46695870D02*
X114479182Y-46776682D01*
X114479182Y-46776682D02*
X114479182Y-46830557D01*
X114479182Y-46830557D02*
X114452245Y-46911369D01*
X114452245Y-46911369D02*
X114236746Y-47126868D01*
X114533057Y-46345683D02*
X114533057Y-46291809D01*
X114533057Y-46291809D02*
X114559995Y-46210996D01*
X114559995Y-46210996D02*
X114694682Y-46076309D01*
X114694682Y-46076309D02*
X114775494Y-46049372D01*
X114775494Y-46049372D02*
X114829369Y-46049372D01*
X114829369Y-46049372D02*
X114910181Y-46076309D01*
X114910181Y-46076309D02*
X114964056Y-46130184D01*
X114964056Y-46130184D02*
X115017930Y-46237934D01*
X115017930Y-46237934D02*
X115017930Y-46884431D01*
X115017930Y-46884431D02*
X115368117Y-46534245D01*
X115368117Y-45887747D02*
X115287305Y-45914685D01*
X115287305Y-45914685D02*
X115233430Y-45914685D01*
X115233430Y-45914685D02*
X115152618Y-45887747D01*
X115152618Y-45887747D02*
X115125680Y-45860810D01*
X115125680Y-45860810D02*
X115098743Y-45779998D01*
X115098743Y-45779998D02*
X115098743Y-45726123D01*
X115098743Y-45726123D02*
X115125680Y-45645311D01*
X115125680Y-45645311D02*
X115233430Y-45537561D01*
X115233430Y-45537561D02*
X115314242Y-45510624D01*
X115314242Y-45510624D02*
X115368117Y-45510624D01*
X115368117Y-45510624D02*
X115448929Y-45537561D01*
X115448929Y-45537561D02*
X115475866Y-45564499D01*
X115475866Y-45564499D02*
X115502804Y-45645311D01*
X115502804Y-45645311D02*
X115502804Y-45699186D01*
X115502804Y-45699186D02*
X115475866Y-45779998D01*
X115475866Y-45779998D02*
X115368117Y-45887747D01*
X115368117Y-45887747D02*
X115341179Y-45968560D01*
X115341179Y-45968560D02*
X115341179Y-46022434D01*
X115341179Y-46022434D02*
X115368117Y-46103247D01*
X115368117Y-46103247D02*
X115475866Y-46210996D01*
X115475866Y-46210996D02*
X115556679Y-46237934D01*
X115556679Y-46237934D02*
X115610553Y-46237934D01*
X115610553Y-46237934D02*
X115691366Y-46210996D01*
X115691366Y-46210996D02*
X115799115Y-46103247D01*
X115799115Y-46103247D02*
X115826053Y-46022434D01*
X115826053Y-46022434D02*
X115826053Y-45968560D01*
X115826053Y-45968560D02*
X115799115Y-45887747D01*
X115799115Y-45887747D02*
X115691366Y-45779998D01*
X115691366Y-45779998D02*
X115610553Y-45753060D01*
X115610553Y-45753060D02*
X115556679Y-45753060D01*
X115556679Y-45753060D02*
X115475866Y-45779998D01*
X113686435Y-75078431D02*
X113605623Y-75105368D01*
X113605623Y-75105368D02*
X113524811Y-75186180D01*
X113524811Y-75186180D02*
X113470936Y-75293930D01*
X113470936Y-75293930D02*
X113470936Y-75401680D01*
X113470936Y-75401680D02*
X113497873Y-75482492D01*
X113497873Y-75482492D02*
X113578685Y-75617179D01*
X113578685Y-75617179D02*
X113659498Y-75697991D01*
X113659498Y-75697991D02*
X113794185Y-75778803D01*
X113794185Y-75778803D02*
X113874997Y-75805741D01*
X113874997Y-75805741D02*
X113982746Y-75805741D01*
X113982746Y-75805741D02*
X114090496Y-75751866D01*
X114090496Y-75751866D02*
X114144371Y-75697991D01*
X114144371Y-75697991D02*
X114198246Y-75590241D01*
X114198246Y-75590241D02*
X114198246Y-75536367D01*
X114198246Y-75536367D02*
X114009684Y-75347805D01*
X114009684Y-75347805D02*
X113901934Y-75455554D01*
X114494557Y-75347805D02*
X113928872Y-74782119D01*
X113928872Y-74782119D02*
X114817806Y-75024556D01*
X114817806Y-75024556D02*
X114252120Y-74458871D01*
X115087180Y-74755182D02*
X114521494Y-74189497D01*
X114521494Y-74189497D02*
X114656181Y-74054810D01*
X114656181Y-74054810D02*
X114763931Y-74000935D01*
X114763931Y-74000935D02*
X114871680Y-74000935D01*
X114871680Y-74000935D02*
X114952493Y-74027872D01*
X114952493Y-74027872D02*
X115087180Y-74108685D01*
X115087180Y-74108685D02*
X115167992Y-74189497D01*
X115167992Y-74189497D02*
X115248804Y-74324184D01*
X115248804Y-74324184D02*
X115275741Y-74404996D01*
X115275741Y-74404996D02*
X115275741Y-74512746D01*
X115275741Y-74512746D02*
X115221867Y-74620495D01*
X115221867Y-74620495D02*
X115087180Y-74755182D01*
X113697998Y-80400868D02*
X113617185Y-80427805D01*
X113617185Y-80427805D02*
X113536373Y-80508618D01*
X113536373Y-80508618D02*
X113482498Y-80616367D01*
X113482498Y-80616367D02*
X113482498Y-80724117D01*
X113482498Y-80724117D02*
X113509436Y-80804929D01*
X113509436Y-80804929D02*
X113590248Y-80939616D01*
X113590248Y-80939616D02*
X113671060Y-81020428D01*
X113671060Y-81020428D02*
X113805747Y-81101241D01*
X113805747Y-81101241D02*
X113886560Y-81128178D01*
X113886560Y-81128178D02*
X113994309Y-81128178D01*
X113994309Y-81128178D02*
X114102059Y-81074303D01*
X114102059Y-81074303D02*
X114155934Y-81020428D01*
X114155934Y-81020428D02*
X114209808Y-80912679D01*
X114209808Y-80912679D02*
X114209808Y-80858804D01*
X114209808Y-80858804D02*
X114021247Y-80670242D01*
X114021247Y-80670242D02*
X113913497Y-80777992D01*
X114506120Y-80670242D02*
X113940434Y-80104557D01*
X113940434Y-80104557D02*
X114155934Y-79889057D01*
X114155934Y-79889057D02*
X114236746Y-79862120D01*
X114236746Y-79862120D02*
X114290621Y-79862120D01*
X114290621Y-79862120D02*
X114371433Y-79889057D01*
X114371433Y-79889057D02*
X114452245Y-79969870D01*
X114452245Y-79969870D02*
X114479182Y-80050682D01*
X114479182Y-80050682D02*
X114479182Y-80104557D01*
X114479182Y-80104557D02*
X114452245Y-80185369D01*
X114452245Y-80185369D02*
X114236746Y-80400868D01*
X115368117Y-79808245D02*
X115044868Y-80131494D01*
X115206492Y-79969870D02*
X114640807Y-79404184D01*
X114640807Y-79404184D02*
X114667744Y-79538871D01*
X114667744Y-79538871D02*
X114667744Y-79646621D01*
X114667744Y-79646621D02*
X114640807Y-79727433D01*
X115287305Y-78757686D02*
X115179555Y-78865436D01*
X115179555Y-78865436D02*
X115152618Y-78946248D01*
X115152618Y-78946248D02*
X115152618Y-79000123D01*
X115152618Y-79000123D02*
X115179555Y-79134810D01*
X115179555Y-79134810D02*
X115260367Y-79269497D01*
X115260367Y-79269497D02*
X115475866Y-79484996D01*
X115475866Y-79484996D02*
X115556679Y-79511934D01*
X115556679Y-79511934D02*
X115610553Y-79511934D01*
X115610553Y-79511934D02*
X115691366Y-79484996D01*
X115691366Y-79484996D02*
X115799115Y-79377247D01*
X115799115Y-79377247D02*
X115826053Y-79296434D01*
X115826053Y-79296434D02*
X115826053Y-79242560D01*
X115826053Y-79242560D02*
X115799115Y-79161747D01*
X115799115Y-79161747D02*
X115664428Y-79027060D01*
X115664428Y-79027060D02*
X115583616Y-79000123D01*
X115583616Y-79000123D02*
X115529741Y-79000123D01*
X115529741Y-79000123D02*
X115448929Y-79027060D01*
X115448929Y-79027060D02*
X115341179Y-79134810D01*
X115341179Y-79134810D02*
X115314242Y-79215622D01*
X115314242Y-79215622D02*
X115314242Y-79269497D01*
X115314242Y-79269497D02*
X115341179Y-79350309D01*
X113697998Y-72780868D02*
X113617185Y-72807805D01*
X113617185Y-72807805D02*
X113536373Y-72888618D01*
X113536373Y-72888618D02*
X113482498Y-72996367D01*
X113482498Y-72996367D02*
X113482498Y-73104117D01*
X113482498Y-73104117D02*
X113509436Y-73184929D01*
X113509436Y-73184929D02*
X113590248Y-73319616D01*
X113590248Y-73319616D02*
X113671060Y-73400428D01*
X113671060Y-73400428D02*
X113805747Y-73481241D01*
X113805747Y-73481241D02*
X113886560Y-73508178D01*
X113886560Y-73508178D02*
X113994309Y-73508178D01*
X113994309Y-73508178D02*
X114102059Y-73454303D01*
X114102059Y-73454303D02*
X114155934Y-73400428D01*
X114155934Y-73400428D02*
X114209808Y-73292679D01*
X114209808Y-73292679D02*
X114209808Y-73238804D01*
X114209808Y-73238804D02*
X114021247Y-73050242D01*
X114021247Y-73050242D02*
X113913497Y-73157992D01*
X114506120Y-73050242D02*
X113940434Y-72484557D01*
X113940434Y-72484557D02*
X114155934Y-72269057D01*
X114155934Y-72269057D02*
X114236746Y-72242120D01*
X114236746Y-72242120D02*
X114290621Y-72242120D01*
X114290621Y-72242120D02*
X114371433Y-72269057D01*
X114371433Y-72269057D02*
X114452245Y-72349870D01*
X114452245Y-72349870D02*
X114479182Y-72430682D01*
X114479182Y-72430682D02*
X114479182Y-72484557D01*
X114479182Y-72484557D02*
X114452245Y-72565369D01*
X114452245Y-72565369D02*
X114236746Y-72780868D01*
X115368117Y-72188245D02*
X115044868Y-72511494D01*
X115206492Y-72349870D02*
X114640807Y-71784184D01*
X114640807Y-71784184D02*
X114667744Y-71918871D01*
X114667744Y-71918871D02*
X114667744Y-72026621D01*
X114667744Y-72026621D02*
X114640807Y-72107433D01*
X115368117Y-71541747D02*
X115287305Y-71568685D01*
X115287305Y-71568685D02*
X115233430Y-71568685D01*
X115233430Y-71568685D02*
X115152618Y-71541747D01*
X115152618Y-71541747D02*
X115125680Y-71514810D01*
X115125680Y-71514810D02*
X115098743Y-71433998D01*
X115098743Y-71433998D02*
X115098743Y-71380123D01*
X115098743Y-71380123D02*
X115125680Y-71299311D01*
X115125680Y-71299311D02*
X115233430Y-71191561D01*
X115233430Y-71191561D02*
X115314242Y-71164624D01*
X115314242Y-71164624D02*
X115368117Y-71164624D01*
X115368117Y-71164624D02*
X115448929Y-71191561D01*
X115448929Y-71191561D02*
X115475866Y-71218499D01*
X115475866Y-71218499D02*
X115502804Y-71299311D01*
X115502804Y-71299311D02*
X115502804Y-71353186D01*
X115502804Y-71353186D02*
X115475866Y-71433998D01*
X115475866Y-71433998D02*
X115368117Y-71541747D01*
X115368117Y-71541747D02*
X115341179Y-71622560D01*
X115341179Y-71622560D02*
X115341179Y-71676434D01*
X115341179Y-71676434D02*
X115368117Y-71757247D01*
X115368117Y-71757247D02*
X115475866Y-71864996D01*
X115475866Y-71864996D02*
X115556679Y-71891934D01*
X115556679Y-71891934D02*
X115610553Y-71891934D01*
X115610553Y-71891934D02*
X115691366Y-71864996D01*
X115691366Y-71864996D02*
X115799115Y-71757247D01*
X115799115Y-71757247D02*
X115826053Y-71676434D01*
X115826053Y-71676434D02*
X115826053Y-71622560D01*
X115826053Y-71622560D02*
X115799115Y-71541747D01*
X115799115Y-71541747D02*
X115691366Y-71433998D01*
X115691366Y-71433998D02*
X115610553Y-71407060D01*
X115610553Y-71407060D02*
X115556679Y-71407060D01*
X115556679Y-71407060D02*
X115475866Y-71433998D01*
X113697998Y-70240868D02*
X113617185Y-70267805D01*
X113617185Y-70267805D02*
X113536373Y-70348618D01*
X113536373Y-70348618D02*
X113482498Y-70456367D01*
X113482498Y-70456367D02*
X113482498Y-70564117D01*
X113482498Y-70564117D02*
X113509436Y-70644929D01*
X113509436Y-70644929D02*
X113590248Y-70779616D01*
X113590248Y-70779616D02*
X113671060Y-70860428D01*
X113671060Y-70860428D02*
X113805747Y-70941241D01*
X113805747Y-70941241D02*
X113886560Y-70968178D01*
X113886560Y-70968178D02*
X113994309Y-70968178D01*
X113994309Y-70968178D02*
X114102059Y-70914303D01*
X114102059Y-70914303D02*
X114155934Y-70860428D01*
X114155934Y-70860428D02*
X114209808Y-70752679D01*
X114209808Y-70752679D02*
X114209808Y-70698804D01*
X114209808Y-70698804D02*
X114021247Y-70510242D01*
X114021247Y-70510242D02*
X113913497Y-70617992D01*
X114506120Y-70510242D02*
X113940434Y-69944557D01*
X113940434Y-69944557D02*
X114155934Y-69729057D01*
X114155934Y-69729057D02*
X114236746Y-69702120D01*
X114236746Y-69702120D02*
X114290621Y-69702120D01*
X114290621Y-69702120D02*
X114371433Y-69729057D01*
X114371433Y-69729057D02*
X114452245Y-69809870D01*
X114452245Y-69809870D02*
X114479182Y-69890682D01*
X114479182Y-69890682D02*
X114479182Y-69944557D01*
X114479182Y-69944557D02*
X114452245Y-70025369D01*
X114452245Y-70025369D02*
X114236746Y-70240868D01*
X115368117Y-69648245D02*
X115044868Y-69971494D01*
X115206492Y-69809870D02*
X114640807Y-69244184D01*
X114640807Y-69244184D02*
X114667744Y-69378871D01*
X114667744Y-69378871D02*
X114667744Y-69486621D01*
X114667744Y-69486621D02*
X114640807Y-69567433D01*
X115637491Y-69378871D02*
X115745240Y-69271121D01*
X115745240Y-69271121D02*
X115772178Y-69190309D01*
X115772178Y-69190309D02*
X115772178Y-69136434D01*
X115772178Y-69136434D02*
X115745240Y-69001747D01*
X115745240Y-69001747D02*
X115664428Y-68867060D01*
X115664428Y-68867060D02*
X115448929Y-68651561D01*
X115448929Y-68651561D02*
X115368117Y-68624624D01*
X115368117Y-68624624D02*
X115314242Y-68624624D01*
X115314242Y-68624624D02*
X115233430Y-68651561D01*
X115233430Y-68651561D02*
X115125680Y-68759311D01*
X115125680Y-68759311D02*
X115098743Y-68840123D01*
X115098743Y-68840123D02*
X115098743Y-68893998D01*
X115098743Y-68893998D02*
X115125680Y-68974810D01*
X115125680Y-68974810D02*
X115260367Y-69109497D01*
X115260367Y-69109497D02*
X115341179Y-69136434D01*
X115341179Y-69136434D02*
X115395054Y-69136434D01*
X115395054Y-69136434D02*
X115475866Y-69109497D01*
X115475866Y-69109497D02*
X115583616Y-69001747D01*
X115583616Y-69001747D02*
X115610553Y-68920935D01*
X115610553Y-68920935D02*
X115610553Y-68867060D01*
X115610553Y-68867060D02*
X115583616Y-68786248D01*
X88086435Y-62378431D02*
X88005623Y-62405368D01*
X88005623Y-62405368D02*
X87924811Y-62486180D01*
X87924811Y-62486180D02*
X87870936Y-62593930D01*
X87870936Y-62593930D02*
X87870936Y-62701680D01*
X87870936Y-62701680D02*
X87897873Y-62782492D01*
X87897873Y-62782492D02*
X87978685Y-62917179D01*
X87978685Y-62917179D02*
X88059498Y-62997991D01*
X88059498Y-62997991D02*
X88194185Y-63078803D01*
X88194185Y-63078803D02*
X88274997Y-63105741D01*
X88274997Y-63105741D02*
X88382746Y-63105741D01*
X88382746Y-63105741D02*
X88490496Y-63051866D01*
X88490496Y-63051866D02*
X88544371Y-62997991D01*
X88544371Y-62997991D02*
X88598246Y-62890241D01*
X88598246Y-62890241D02*
X88598246Y-62836367D01*
X88598246Y-62836367D02*
X88409684Y-62647805D01*
X88409684Y-62647805D02*
X88301934Y-62755554D01*
X88894557Y-62647805D02*
X88328872Y-62082119D01*
X88328872Y-62082119D02*
X89217806Y-62324556D01*
X89217806Y-62324556D02*
X88652120Y-61758871D01*
X89487180Y-62055182D02*
X88921494Y-61489497D01*
X88921494Y-61489497D02*
X89056181Y-61354810D01*
X89056181Y-61354810D02*
X89163931Y-61300935D01*
X89163931Y-61300935D02*
X89271680Y-61300935D01*
X89271680Y-61300935D02*
X89352493Y-61327872D01*
X89352493Y-61327872D02*
X89487180Y-61408685D01*
X89487180Y-61408685D02*
X89567992Y-61489497D01*
X89567992Y-61489497D02*
X89648804Y-61624184D01*
X89648804Y-61624184D02*
X89675741Y-61704996D01*
X89675741Y-61704996D02*
X89675741Y-61812746D01*
X89675741Y-61812746D02*
X89621867Y-61920495D01*
X89621867Y-61920495D02*
X89487180Y-62055182D01*
X88113372Y-42031494D02*
X88032560Y-42058431D01*
X88032560Y-42058431D02*
X87951748Y-42139243D01*
X87951748Y-42139243D02*
X87897873Y-42246993D01*
X87897873Y-42246993D02*
X87897873Y-42354742D01*
X87897873Y-42354742D02*
X87924810Y-42435555D01*
X87924810Y-42435555D02*
X88005623Y-42570242D01*
X88005623Y-42570242D02*
X88086435Y-42651054D01*
X88086435Y-42651054D02*
X88221122Y-42731866D01*
X88221122Y-42731866D02*
X88301934Y-42758803D01*
X88301934Y-42758803D02*
X88409684Y-42758803D01*
X88409684Y-42758803D02*
X88517433Y-42704929D01*
X88517433Y-42704929D02*
X88571308Y-42651054D01*
X88571308Y-42651054D02*
X88625183Y-42543304D01*
X88625183Y-42543304D02*
X88625183Y-42489429D01*
X88625183Y-42489429D02*
X88436621Y-42300868D01*
X88436621Y-42300868D02*
X88328871Y-42408617D01*
X88921494Y-42300868D02*
X88355809Y-41735182D01*
X88355809Y-41735182D02*
X88571308Y-41519683D01*
X88571308Y-41519683D02*
X88652120Y-41492746D01*
X88652120Y-41492746D02*
X88705995Y-41492746D01*
X88705995Y-41492746D02*
X88786807Y-41519683D01*
X88786807Y-41519683D02*
X88867619Y-41600495D01*
X88867619Y-41600495D02*
X88894557Y-41681307D01*
X88894557Y-41681307D02*
X88894557Y-41735182D01*
X88894557Y-41735182D02*
X88867619Y-41815994D01*
X88867619Y-41815994D02*
X88652120Y-42031494D01*
X88867619Y-41223372D02*
X89217806Y-40873185D01*
X89217806Y-40873185D02*
X89244743Y-41277246D01*
X89244743Y-41277246D02*
X89325555Y-41196434D01*
X89325555Y-41196434D02*
X89406367Y-41169497D01*
X89406367Y-41169497D02*
X89460242Y-41169497D01*
X89460242Y-41169497D02*
X89541054Y-41196434D01*
X89541054Y-41196434D02*
X89675741Y-41331121D01*
X89675741Y-41331121D02*
X89702679Y-41411933D01*
X89702679Y-41411933D02*
X89702679Y-41465808D01*
X89702679Y-41465808D02*
X89675741Y-41546620D01*
X89675741Y-41546620D02*
X89514117Y-41708245D01*
X89514117Y-41708245D02*
X89433305Y-41735182D01*
X89433305Y-41735182D02*
X89379430Y-41735182D01*
X114438651Y-57823710D02*
X113980716Y-57742898D01*
X114115403Y-58146959D02*
X113549717Y-57581274D01*
X113549717Y-57581274D02*
X113765216Y-57365775D01*
X113765216Y-57365775D02*
X113846029Y-57338837D01*
X113846029Y-57338837D02*
X113899903Y-57338837D01*
X113899903Y-57338837D02*
X113980716Y-57365775D01*
X113980716Y-57365775D02*
X114061528Y-57446587D01*
X114061528Y-57446587D02*
X114088465Y-57527399D01*
X114088465Y-57527399D02*
X114088465Y-57581274D01*
X114088465Y-57581274D02*
X114061528Y-57662086D01*
X114061528Y-57662086D02*
X113846029Y-57877585D01*
X114115403Y-57015588D02*
X114573338Y-57473524D01*
X114573338Y-57473524D02*
X114654151Y-57500462D01*
X114654151Y-57500462D02*
X114708025Y-57500462D01*
X114708025Y-57500462D02*
X114788838Y-57473524D01*
X114788838Y-57473524D02*
X114896587Y-57365775D01*
X114896587Y-57365775D02*
X114923525Y-57284962D01*
X114923525Y-57284962D02*
X114923525Y-57231088D01*
X114923525Y-57231088D02*
X114896587Y-57150275D01*
X114896587Y-57150275D02*
X114438651Y-56692340D01*
X115273711Y-56988651D02*
X114708025Y-56422966D01*
X114708025Y-56422966D02*
X115596959Y-56665402D01*
X115596959Y-56665402D02*
X115031274Y-56099717D01*
X88213372Y-54701494D02*
X88132560Y-54728431D01*
X88132560Y-54728431D02*
X88051748Y-54809243D01*
X88051748Y-54809243D02*
X87997873Y-54916993D01*
X87997873Y-54916993D02*
X87997873Y-55024742D01*
X87997873Y-55024742D02*
X88024810Y-55105555D01*
X88024810Y-55105555D02*
X88105623Y-55240242D01*
X88105623Y-55240242D02*
X88186435Y-55321054D01*
X88186435Y-55321054D02*
X88321122Y-55401866D01*
X88321122Y-55401866D02*
X88401934Y-55428803D01*
X88401934Y-55428803D02*
X88509684Y-55428803D01*
X88509684Y-55428803D02*
X88617433Y-55374929D01*
X88617433Y-55374929D02*
X88671308Y-55321054D01*
X88671308Y-55321054D02*
X88725183Y-55213304D01*
X88725183Y-55213304D02*
X88725183Y-55159429D01*
X88725183Y-55159429D02*
X88536621Y-54970868D01*
X88536621Y-54970868D02*
X88428871Y-55078617D01*
X89021494Y-54970868D02*
X88455809Y-54405182D01*
X88455809Y-54405182D02*
X88671308Y-54189683D01*
X88671308Y-54189683D02*
X88752120Y-54162746D01*
X88752120Y-54162746D02*
X88805995Y-54162746D01*
X88805995Y-54162746D02*
X88886807Y-54189683D01*
X88886807Y-54189683D02*
X88967619Y-54270495D01*
X88967619Y-54270495D02*
X88994557Y-54351307D01*
X88994557Y-54351307D02*
X88994557Y-54405182D01*
X88994557Y-54405182D02*
X88967619Y-54485994D01*
X88967619Y-54485994D02*
X88752120Y-54701494D01*
X88967619Y-53893372D02*
X89344743Y-53516248D01*
X89344743Y-53516248D02*
X89667992Y-54324370D01*
X105504761Y-82404200D02*
X105619047Y-82442295D01*
X105619047Y-82442295D02*
X105809523Y-82442295D01*
X105809523Y-82442295D02*
X105885714Y-82404200D01*
X105885714Y-82404200D02*
X105923809Y-82366104D01*
X105923809Y-82366104D02*
X105961904Y-82289914D01*
X105961904Y-82289914D02*
X105961904Y-82213723D01*
X105961904Y-82213723D02*
X105923809Y-82137533D01*
X105923809Y-82137533D02*
X105885714Y-82099438D01*
X105885714Y-82099438D02*
X105809523Y-82061342D01*
X105809523Y-82061342D02*
X105657142Y-82023247D01*
X105657142Y-82023247D02*
X105580952Y-81985152D01*
X105580952Y-81985152D02*
X105542857Y-81947057D01*
X105542857Y-81947057D02*
X105504761Y-81870866D01*
X105504761Y-81870866D02*
X105504761Y-81794676D01*
X105504761Y-81794676D02*
X105542857Y-81718485D01*
X105542857Y-81718485D02*
X105580952Y-81680390D01*
X105580952Y-81680390D02*
X105657142Y-81642295D01*
X105657142Y-81642295D02*
X105847619Y-81642295D01*
X105847619Y-81642295D02*
X105961904Y-81680390D01*
X106228571Y-81642295D02*
X106419047Y-82442295D01*
X106419047Y-82442295D02*
X106571428Y-81870866D01*
X106571428Y-81870866D02*
X106723809Y-82442295D01*
X106723809Y-82442295D02*
X106914286Y-81642295D01*
X107219048Y-82442295D02*
X107219048Y-81642295D01*
X107219048Y-81642295D02*
X107409524Y-81642295D01*
X107409524Y-81642295D02*
X107523810Y-81680390D01*
X107523810Y-81680390D02*
X107600000Y-81756580D01*
X107600000Y-81756580D02*
X107638095Y-81832771D01*
X107638095Y-81832771D02*
X107676191Y-81985152D01*
X107676191Y-81985152D02*
X107676191Y-82099438D01*
X107676191Y-82099438D02*
X107638095Y-82251819D01*
X107638095Y-82251819D02*
X107600000Y-82328009D01*
X107600000Y-82328009D02*
X107523810Y-82404200D01*
X107523810Y-82404200D02*
X107409524Y-82442295D01*
X107409524Y-82442295D02*
X107219048Y-82442295D01*
X108019048Y-82442295D02*
X108019048Y-81642295D01*
X108552381Y-81642295D02*
X108704762Y-81642295D01*
X108704762Y-81642295D02*
X108780952Y-81680390D01*
X108780952Y-81680390D02*
X108857143Y-81756580D01*
X108857143Y-81756580D02*
X108895238Y-81908961D01*
X108895238Y-81908961D02*
X108895238Y-82175628D01*
X108895238Y-82175628D02*
X108857143Y-82328009D01*
X108857143Y-82328009D02*
X108780952Y-82404200D01*
X108780952Y-82404200D02*
X108704762Y-82442295D01*
X108704762Y-82442295D02*
X108552381Y-82442295D01*
X108552381Y-82442295D02*
X108476190Y-82404200D01*
X108476190Y-82404200D02*
X108400000Y-82328009D01*
X108400000Y-82328009D02*
X108361904Y-82175628D01*
X108361904Y-82175628D02*
X108361904Y-81908961D01*
X108361904Y-81908961D02*
X108400000Y-81756580D01*
X108400000Y-81756580D02*
X108476190Y-81680390D01*
X108476190Y-81680390D02*
X108552381Y-81642295D01*
X113697998Y-77860868D02*
X113617185Y-77887805D01*
X113617185Y-77887805D02*
X113536373Y-77968618D01*
X113536373Y-77968618D02*
X113482498Y-78076367D01*
X113482498Y-78076367D02*
X113482498Y-78184117D01*
X113482498Y-78184117D02*
X113509436Y-78264929D01*
X113509436Y-78264929D02*
X113590248Y-78399616D01*
X113590248Y-78399616D02*
X113671060Y-78480428D01*
X113671060Y-78480428D02*
X113805747Y-78561241D01*
X113805747Y-78561241D02*
X113886560Y-78588178D01*
X113886560Y-78588178D02*
X113994309Y-78588178D01*
X113994309Y-78588178D02*
X114102059Y-78534303D01*
X114102059Y-78534303D02*
X114155934Y-78480428D01*
X114155934Y-78480428D02*
X114209808Y-78372679D01*
X114209808Y-78372679D02*
X114209808Y-78318804D01*
X114209808Y-78318804D02*
X114021247Y-78130242D01*
X114021247Y-78130242D02*
X113913497Y-78237992D01*
X114506120Y-78130242D02*
X113940434Y-77564557D01*
X113940434Y-77564557D02*
X114155934Y-77349057D01*
X114155934Y-77349057D02*
X114236746Y-77322120D01*
X114236746Y-77322120D02*
X114290621Y-77322120D01*
X114290621Y-77322120D02*
X114371433Y-77349057D01*
X114371433Y-77349057D02*
X114452245Y-77429870D01*
X114452245Y-77429870D02*
X114479182Y-77510682D01*
X114479182Y-77510682D02*
X114479182Y-77564557D01*
X114479182Y-77564557D02*
X114452245Y-77645369D01*
X114452245Y-77645369D02*
X114236746Y-77860868D01*
X115368117Y-77268245D02*
X115044868Y-77591494D01*
X115206492Y-77429870D02*
X114640807Y-76864184D01*
X114640807Y-76864184D02*
X114667744Y-76998871D01*
X114667744Y-76998871D02*
X114667744Y-77106621D01*
X114667744Y-77106621D02*
X114640807Y-77187433D01*
X114990993Y-76513998D02*
X115368117Y-76136874D01*
X115368117Y-76136874D02*
X115691366Y-76944996D01*
X87543998Y-77860868D02*
X87463185Y-77887805D01*
X87463185Y-77887805D02*
X87382373Y-77968618D01*
X87382373Y-77968618D02*
X87328498Y-78076367D01*
X87328498Y-78076367D02*
X87328498Y-78184117D01*
X87328498Y-78184117D02*
X87355436Y-78264929D01*
X87355436Y-78264929D02*
X87436248Y-78399616D01*
X87436248Y-78399616D02*
X87517060Y-78480428D01*
X87517060Y-78480428D02*
X87651747Y-78561241D01*
X87651747Y-78561241D02*
X87732560Y-78588178D01*
X87732560Y-78588178D02*
X87840309Y-78588178D01*
X87840309Y-78588178D02*
X87948059Y-78534303D01*
X87948059Y-78534303D02*
X88001934Y-78480428D01*
X88001934Y-78480428D02*
X88055808Y-78372679D01*
X88055808Y-78372679D02*
X88055808Y-78318804D01*
X88055808Y-78318804D02*
X87867247Y-78130242D01*
X87867247Y-78130242D02*
X87759497Y-78237992D01*
X88352120Y-78130242D02*
X87786434Y-77564557D01*
X87786434Y-77564557D02*
X88001934Y-77349057D01*
X88001934Y-77349057D02*
X88082746Y-77322120D01*
X88082746Y-77322120D02*
X88136621Y-77322120D01*
X88136621Y-77322120D02*
X88217433Y-77349057D01*
X88217433Y-77349057D02*
X88298245Y-77429870D01*
X88298245Y-77429870D02*
X88325182Y-77510682D01*
X88325182Y-77510682D02*
X88325182Y-77564557D01*
X88325182Y-77564557D02*
X88298245Y-77645369D01*
X88298245Y-77645369D02*
X88082746Y-77860868D01*
X89214117Y-77268245D02*
X88890868Y-77591494D01*
X89052492Y-77429870D02*
X88486807Y-76864184D01*
X88486807Y-76864184D02*
X88513744Y-76998871D01*
X88513744Y-76998871D02*
X88513744Y-77106621D01*
X88513744Y-77106621D02*
X88486807Y-77187433D01*
X89321866Y-76406248D02*
X89698990Y-76783372D01*
X88971680Y-76325436D02*
X89241054Y-76864184D01*
X89241054Y-76864184D02*
X89591240Y-76513998D01*
X88113372Y-57271494D02*
X88032560Y-57298431D01*
X88032560Y-57298431D02*
X87951748Y-57379243D01*
X87951748Y-57379243D02*
X87897873Y-57486993D01*
X87897873Y-57486993D02*
X87897873Y-57594742D01*
X87897873Y-57594742D02*
X87924810Y-57675555D01*
X87924810Y-57675555D02*
X88005623Y-57810242D01*
X88005623Y-57810242D02*
X88086435Y-57891054D01*
X88086435Y-57891054D02*
X88221122Y-57971866D01*
X88221122Y-57971866D02*
X88301934Y-57998803D01*
X88301934Y-57998803D02*
X88409684Y-57998803D01*
X88409684Y-57998803D02*
X88517433Y-57944929D01*
X88517433Y-57944929D02*
X88571308Y-57891054D01*
X88571308Y-57891054D02*
X88625183Y-57783304D01*
X88625183Y-57783304D02*
X88625183Y-57729429D01*
X88625183Y-57729429D02*
X88436621Y-57540868D01*
X88436621Y-57540868D02*
X88328871Y-57648617D01*
X88921494Y-57540868D02*
X88355809Y-56975182D01*
X88355809Y-56975182D02*
X88571308Y-56759683D01*
X88571308Y-56759683D02*
X88652120Y-56732746D01*
X88652120Y-56732746D02*
X88705995Y-56732746D01*
X88705995Y-56732746D02*
X88786807Y-56759683D01*
X88786807Y-56759683D02*
X88867619Y-56840495D01*
X88867619Y-56840495D02*
X88894557Y-56921307D01*
X88894557Y-56921307D02*
X88894557Y-56975182D01*
X88894557Y-56975182D02*
X88867619Y-57055994D01*
X88867619Y-57055994D02*
X88652120Y-57271494D01*
X89244743Y-56571121D02*
X89163931Y-56598059D01*
X89163931Y-56598059D02*
X89110056Y-56598059D01*
X89110056Y-56598059D02*
X89029244Y-56571121D01*
X89029244Y-56571121D02*
X89002306Y-56544184D01*
X89002306Y-56544184D02*
X88975369Y-56463372D01*
X88975369Y-56463372D02*
X88975369Y-56409497D01*
X88975369Y-56409497D02*
X89002306Y-56328685D01*
X89002306Y-56328685D02*
X89110056Y-56220935D01*
X89110056Y-56220935D02*
X89190868Y-56193998D01*
X89190868Y-56193998D02*
X89244743Y-56193998D01*
X89244743Y-56193998D02*
X89325555Y-56220935D01*
X89325555Y-56220935D02*
X89352493Y-56247872D01*
X89352493Y-56247872D02*
X89379430Y-56328685D01*
X89379430Y-56328685D02*
X89379430Y-56382559D01*
X89379430Y-56382559D02*
X89352493Y-56463372D01*
X89352493Y-56463372D02*
X89244743Y-56571121D01*
X89244743Y-56571121D02*
X89217806Y-56651933D01*
X89217806Y-56651933D02*
X89217806Y-56705808D01*
X89217806Y-56705808D02*
X89244743Y-56786620D01*
X89244743Y-56786620D02*
X89352493Y-56894370D01*
X89352493Y-56894370D02*
X89433305Y-56921307D01*
X89433305Y-56921307D02*
X89487180Y-56921307D01*
X89487180Y-56921307D02*
X89567992Y-56894370D01*
X89567992Y-56894370D02*
X89675741Y-56786620D01*
X89675741Y-56786620D02*
X89702679Y-56705808D01*
X89702679Y-56705808D02*
X89702679Y-56651933D01*
X89702679Y-56651933D02*
X89675741Y-56571121D01*
X89675741Y-56571121D02*
X89567992Y-56463372D01*
X89567992Y-56463372D02*
X89487180Y-56436434D01*
X89487180Y-56436434D02*
X89433305Y-56436434D01*
X89433305Y-56436434D02*
X89352493Y-56463372D01*
X113697998Y-67700868D02*
X113617185Y-67727805D01*
X113617185Y-67727805D02*
X113536373Y-67808618D01*
X113536373Y-67808618D02*
X113482498Y-67916367D01*
X113482498Y-67916367D02*
X113482498Y-68024117D01*
X113482498Y-68024117D02*
X113509436Y-68104929D01*
X113509436Y-68104929D02*
X113590248Y-68239616D01*
X113590248Y-68239616D02*
X113671060Y-68320428D01*
X113671060Y-68320428D02*
X113805747Y-68401241D01*
X113805747Y-68401241D02*
X113886560Y-68428178D01*
X113886560Y-68428178D02*
X113994309Y-68428178D01*
X113994309Y-68428178D02*
X114102059Y-68374303D01*
X114102059Y-68374303D02*
X114155934Y-68320428D01*
X114155934Y-68320428D02*
X114209808Y-68212679D01*
X114209808Y-68212679D02*
X114209808Y-68158804D01*
X114209808Y-68158804D02*
X114021247Y-67970242D01*
X114021247Y-67970242D02*
X113913497Y-68077992D01*
X114506120Y-67970242D02*
X113940434Y-67404557D01*
X113940434Y-67404557D02*
X114155934Y-67189057D01*
X114155934Y-67189057D02*
X114236746Y-67162120D01*
X114236746Y-67162120D02*
X114290621Y-67162120D01*
X114290621Y-67162120D02*
X114371433Y-67189057D01*
X114371433Y-67189057D02*
X114452245Y-67269870D01*
X114452245Y-67269870D02*
X114479182Y-67350682D01*
X114479182Y-67350682D02*
X114479182Y-67404557D01*
X114479182Y-67404557D02*
X114452245Y-67485369D01*
X114452245Y-67485369D02*
X114236746Y-67700868D01*
X114533057Y-66919683D02*
X114533057Y-66865809D01*
X114533057Y-66865809D02*
X114559995Y-66784996D01*
X114559995Y-66784996D02*
X114694682Y-66650309D01*
X114694682Y-66650309D02*
X114775494Y-66623372D01*
X114775494Y-66623372D02*
X114829369Y-66623372D01*
X114829369Y-66623372D02*
X114910181Y-66650309D01*
X114910181Y-66650309D02*
X114964056Y-66704184D01*
X114964056Y-66704184D02*
X115017930Y-66811934D01*
X115017930Y-66811934D02*
X115017930Y-67458431D01*
X115017930Y-67458431D02*
X115368117Y-67108245D01*
X115152618Y-66192373D02*
X115206492Y-66138499D01*
X115206492Y-66138499D02*
X115287305Y-66111561D01*
X115287305Y-66111561D02*
X115341179Y-66111561D01*
X115341179Y-66111561D02*
X115421992Y-66138499D01*
X115421992Y-66138499D02*
X115556679Y-66219311D01*
X115556679Y-66219311D02*
X115691366Y-66353998D01*
X115691366Y-66353998D02*
X115772178Y-66488685D01*
X115772178Y-66488685D02*
X115799115Y-66569497D01*
X115799115Y-66569497D02*
X115799115Y-66623372D01*
X115799115Y-66623372D02*
X115772178Y-66704184D01*
X115772178Y-66704184D02*
X115718303Y-66758059D01*
X115718303Y-66758059D02*
X115637491Y-66784996D01*
X115637491Y-66784996D02*
X115583616Y-66784996D01*
X115583616Y-66784996D02*
X115502804Y-66758059D01*
X115502804Y-66758059D02*
X115368117Y-66677247D01*
X115368117Y-66677247D02*
X115233430Y-66542560D01*
X115233430Y-66542560D02*
X115152618Y-66407873D01*
X115152618Y-66407873D02*
X115125680Y-66327060D01*
X115125680Y-66327060D02*
X115125680Y-66273186D01*
X115125680Y-66273186D02*
X115152618Y-66192373D01*
X87589998Y-72780868D02*
X87509185Y-72807805D01*
X87509185Y-72807805D02*
X87428373Y-72888618D01*
X87428373Y-72888618D02*
X87374498Y-72996367D01*
X87374498Y-72996367D02*
X87374498Y-73104117D01*
X87374498Y-73104117D02*
X87401436Y-73184929D01*
X87401436Y-73184929D02*
X87482248Y-73319616D01*
X87482248Y-73319616D02*
X87563060Y-73400428D01*
X87563060Y-73400428D02*
X87697747Y-73481241D01*
X87697747Y-73481241D02*
X87778560Y-73508178D01*
X87778560Y-73508178D02*
X87886309Y-73508178D01*
X87886309Y-73508178D02*
X87994059Y-73454303D01*
X87994059Y-73454303D02*
X88047934Y-73400428D01*
X88047934Y-73400428D02*
X88101808Y-73292679D01*
X88101808Y-73292679D02*
X88101808Y-73238804D01*
X88101808Y-73238804D02*
X87913247Y-73050242D01*
X87913247Y-73050242D02*
X87805497Y-73157992D01*
X88398120Y-73050242D02*
X87832434Y-72484557D01*
X87832434Y-72484557D02*
X88047934Y-72269057D01*
X88047934Y-72269057D02*
X88128746Y-72242120D01*
X88128746Y-72242120D02*
X88182621Y-72242120D01*
X88182621Y-72242120D02*
X88263433Y-72269057D01*
X88263433Y-72269057D02*
X88344245Y-72349870D01*
X88344245Y-72349870D02*
X88371182Y-72430682D01*
X88371182Y-72430682D02*
X88371182Y-72484557D01*
X88371182Y-72484557D02*
X88344245Y-72565369D01*
X88344245Y-72565369D02*
X88128746Y-72780868D01*
X89260117Y-72188245D02*
X88936868Y-72511494D01*
X89098492Y-72349870D02*
X88532807Y-71784184D01*
X88532807Y-71784184D02*
X88559744Y-71918871D01*
X88559744Y-71918871D02*
X88559744Y-72026621D01*
X88559744Y-72026621D02*
X88532807Y-72107433D01*
X88882993Y-71433998D02*
X89233179Y-71083812D01*
X89233179Y-71083812D02*
X89260117Y-71487873D01*
X89260117Y-71487873D02*
X89340929Y-71407060D01*
X89340929Y-71407060D02*
X89421741Y-71380123D01*
X89421741Y-71380123D02*
X89475616Y-71380123D01*
X89475616Y-71380123D02*
X89556428Y-71407060D01*
X89556428Y-71407060D02*
X89691115Y-71541747D01*
X89691115Y-71541747D02*
X89718053Y-71622560D01*
X89718053Y-71622560D02*
X89718053Y-71676434D01*
X89718053Y-71676434D02*
X89691115Y-71757247D01*
X89691115Y-71757247D02*
X89529491Y-71918871D01*
X89529491Y-71918871D02*
X89448679Y-71945808D01*
X89448679Y-71945808D02*
X89394804Y-71945808D01*
X88086435Y-75078431D02*
X88005623Y-75105368D01*
X88005623Y-75105368D02*
X87924811Y-75186180D01*
X87924811Y-75186180D02*
X87870936Y-75293930D01*
X87870936Y-75293930D02*
X87870936Y-75401680D01*
X87870936Y-75401680D02*
X87897873Y-75482492D01*
X87897873Y-75482492D02*
X87978685Y-75617179D01*
X87978685Y-75617179D02*
X88059498Y-75697991D01*
X88059498Y-75697991D02*
X88194185Y-75778803D01*
X88194185Y-75778803D02*
X88274997Y-75805741D01*
X88274997Y-75805741D02*
X88382746Y-75805741D01*
X88382746Y-75805741D02*
X88490496Y-75751866D01*
X88490496Y-75751866D02*
X88544371Y-75697991D01*
X88544371Y-75697991D02*
X88598246Y-75590241D01*
X88598246Y-75590241D02*
X88598246Y-75536367D01*
X88598246Y-75536367D02*
X88409684Y-75347805D01*
X88409684Y-75347805D02*
X88301934Y-75455554D01*
X88894557Y-75347805D02*
X88328872Y-74782119D01*
X88328872Y-74782119D02*
X89217806Y-75024556D01*
X89217806Y-75024556D02*
X88652120Y-74458871D01*
X89487180Y-74755182D02*
X88921494Y-74189497D01*
X88921494Y-74189497D02*
X89056181Y-74054810D01*
X89056181Y-74054810D02*
X89163931Y-74000935D01*
X89163931Y-74000935D02*
X89271680Y-74000935D01*
X89271680Y-74000935D02*
X89352493Y-74027872D01*
X89352493Y-74027872D02*
X89487180Y-74108685D01*
X89487180Y-74108685D02*
X89567992Y-74189497D01*
X89567992Y-74189497D02*
X89648804Y-74324184D01*
X89648804Y-74324184D02*
X89675741Y-74404996D01*
X89675741Y-74404996D02*
X89675741Y-74512746D01*
X89675741Y-74512746D02*
X89621867Y-74620495D01*
X89621867Y-74620495D02*
X89487180Y-74755182D01*
X87443998Y-67700868D02*
X87363185Y-67727805D01*
X87363185Y-67727805D02*
X87282373Y-67808618D01*
X87282373Y-67808618D02*
X87228498Y-67916367D01*
X87228498Y-67916367D02*
X87228498Y-68024117D01*
X87228498Y-68024117D02*
X87255436Y-68104929D01*
X87255436Y-68104929D02*
X87336248Y-68239616D01*
X87336248Y-68239616D02*
X87417060Y-68320428D01*
X87417060Y-68320428D02*
X87551747Y-68401241D01*
X87551747Y-68401241D02*
X87632560Y-68428178D01*
X87632560Y-68428178D02*
X87740309Y-68428178D01*
X87740309Y-68428178D02*
X87848059Y-68374303D01*
X87848059Y-68374303D02*
X87901934Y-68320428D01*
X87901934Y-68320428D02*
X87955808Y-68212679D01*
X87955808Y-68212679D02*
X87955808Y-68158804D01*
X87955808Y-68158804D02*
X87767247Y-67970242D01*
X87767247Y-67970242D02*
X87659497Y-68077992D01*
X88252120Y-67970242D02*
X87686434Y-67404557D01*
X87686434Y-67404557D02*
X87901934Y-67189057D01*
X87901934Y-67189057D02*
X87982746Y-67162120D01*
X87982746Y-67162120D02*
X88036621Y-67162120D01*
X88036621Y-67162120D02*
X88117433Y-67189057D01*
X88117433Y-67189057D02*
X88198245Y-67269870D01*
X88198245Y-67269870D02*
X88225182Y-67350682D01*
X88225182Y-67350682D02*
X88225182Y-67404557D01*
X88225182Y-67404557D02*
X88198245Y-67485369D01*
X88198245Y-67485369D02*
X87982746Y-67700868D01*
X89114117Y-67108245D02*
X88790868Y-67431494D01*
X88952492Y-67269870D02*
X88386807Y-66704184D01*
X88386807Y-66704184D02*
X88413744Y-66838871D01*
X88413744Y-66838871D02*
X88413744Y-66946621D01*
X88413744Y-66946621D02*
X88386807Y-67027433D01*
X89652865Y-66569497D02*
X89329616Y-66892746D01*
X89491240Y-66731121D02*
X88925555Y-66165436D01*
X88925555Y-66165436D02*
X88952492Y-66300123D01*
X88952492Y-66300123D02*
X88952492Y-66407873D01*
X88952492Y-66407873D02*
X88925555Y-66488685D01*
X113697998Y-52470868D02*
X113617185Y-52497805D01*
X113617185Y-52497805D02*
X113536373Y-52578618D01*
X113536373Y-52578618D02*
X113482498Y-52686367D01*
X113482498Y-52686367D02*
X113482498Y-52794117D01*
X113482498Y-52794117D02*
X113509436Y-52874929D01*
X113509436Y-52874929D02*
X113590248Y-53009616D01*
X113590248Y-53009616D02*
X113671060Y-53090428D01*
X113671060Y-53090428D02*
X113805747Y-53171241D01*
X113805747Y-53171241D02*
X113886560Y-53198178D01*
X113886560Y-53198178D02*
X113994309Y-53198178D01*
X113994309Y-53198178D02*
X114102059Y-53144303D01*
X114102059Y-53144303D02*
X114155934Y-53090428D01*
X114155934Y-53090428D02*
X114209808Y-52982679D01*
X114209808Y-52982679D02*
X114209808Y-52928804D01*
X114209808Y-52928804D02*
X114021247Y-52740242D01*
X114021247Y-52740242D02*
X113913497Y-52847992D01*
X114506120Y-52740242D02*
X113940434Y-52174557D01*
X113940434Y-52174557D02*
X114155934Y-51959057D01*
X114155934Y-51959057D02*
X114236746Y-51932120D01*
X114236746Y-51932120D02*
X114290621Y-51932120D01*
X114290621Y-51932120D02*
X114371433Y-51959057D01*
X114371433Y-51959057D02*
X114452245Y-52039870D01*
X114452245Y-52039870D02*
X114479182Y-52120682D01*
X114479182Y-52120682D02*
X114479182Y-52174557D01*
X114479182Y-52174557D02*
X114452245Y-52255369D01*
X114452245Y-52255369D02*
X114236746Y-52470868D01*
X114533057Y-51689683D02*
X114533057Y-51635809D01*
X114533057Y-51635809D02*
X114559995Y-51554996D01*
X114559995Y-51554996D02*
X114694682Y-51420309D01*
X114694682Y-51420309D02*
X114775494Y-51393372D01*
X114775494Y-51393372D02*
X114829369Y-51393372D01*
X114829369Y-51393372D02*
X114910181Y-51420309D01*
X114910181Y-51420309D02*
X114964056Y-51474184D01*
X114964056Y-51474184D02*
X115017930Y-51581934D01*
X115017930Y-51581934D02*
X115017930Y-52228431D01*
X115017930Y-52228431D02*
X115368117Y-51878245D01*
X114990993Y-51123998D02*
X115368117Y-50746874D01*
X115368117Y-50746874D02*
X115691366Y-51554996D01*
X88113372Y-44571494D02*
X88032560Y-44598431D01*
X88032560Y-44598431D02*
X87951748Y-44679243D01*
X87951748Y-44679243D02*
X87897873Y-44786993D01*
X87897873Y-44786993D02*
X87897873Y-44894742D01*
X87897873Y-44894742D02*
X87924810Y-44975555D01*
X87924810Y-44975555D02*
X88005623Y-45110242D01*
X88005623Y-45110242D02*
X88086435Y-45191054D01*
X88086435Y-45191054D02*
X88221122Y-45271866D01*
X88221122Y-45271866D02*
X88301934Y-45298803D01*
X88301934Y-45298803D02*
X88409684Y-45298803D01*
X88409684Y-45298803D02*
X88517433Y-45244929D01*
X88517433Y-45244929D02*
X88571308Y-45191054D01*
X88571308Y-45191054D02*
X88625183Y-45083304D01*
X88625183Y-45083304D02*
X88625183Y-45029429D01*
X88625183Y-45029429D02*
X88436621Y-44840868D01*
X88436621Y-44840868D02*
X88328871Y-44948617D01*
X88921494Y-44840868D02*
X88355809Y-44275182D01*
X88355809Y-44275182D02*
X88571308Y-44059683D01*
X88571308Y-44059683D02*
X88652120Y-44032746D01*
X88652120Y-44032746D02*
X88705995Y-44032746D01*
X88705995Y-44032746D02*
X88786807Y-44059683D01*
X88786807Y-44059683D02*
X88867619Y-44140495D01*
X88867619Y-44140495D02*
X88894557Y-44221307D01*
X88894557Y-44221307D02*
X88894557Y-44275182D01*
X88894557Y-44275182D02*
X88867619Y-44355994D01*
X88867619Y-44355994D02*
X88652120Y-44571494D01*
X89352493Y-43655622D02*
X89729616Y-44032746D01*
X89002306Y-43574810D02*
X89271680Y-44113558D01*
X89271680Y-44113558D02*
X89621867Y-43763372D01*
X88013372Y-34401494D02*
X87932560Y-34428431D01*
X87932560Y-34428431D02*
X87851748Y-34509243D01*
X87851748Y-34509243D02*
X87797873Y-34616993D01*
X87797873Y-34616993D02*
X87797873Y-34724742D01*
X87797873Y-34724742D02*
X87824810Y-34805555D01*
X87824810Y-34805555D02*
X87905623Y-34940242D01*
X87905623Y-34940242D02*
X87986435Y-35021054D01*
X87986435Y-35021054D02*
X88121122Y-35101866D01*
X88121122Y-35101866D02*
X88201934Y-35128803D01*
X88201934Y-35128803D02*
X88309684Y-35128803D01*
X88309684Y-35128803D02*
X88417433Y-35074929D01*
X88417433Y-35074929D02*
X88471308Y-35021054D01*
X88471308Y-35021054D02*
X88525183Y-34913304D01*
X88525183Y-34913304D02*
X88525183Y-34859429D01*
X88525183Y-34859429D02*
X88336621Y-34670868D01*
X88336621Y-34670868D02*
X88228871Y-34778617D01*
X88821494Y-34670868D02*
X88255809Y-34105182D01*
X88255809Y-34105182D02*
X88471308Y-33889683D01*
X88471308Y-33889683D02*
X88552120Y-33862746D01*
X88552120Y-33862746D02*
X88605995Y-33862746D01*
X88605995Y-33862746D02*
X88686807Y-33889683D01*
X88686807Y-33889683D02*
X88767619Y-33970495D01*
X88767619Y-33970495D02*
X88794557Y-34051307D01*
X88794557Y-34051307D02*
X88794557Y-34105182D01*
X88794557Y-34105182D02*
X88767619Y-34185994D01*
X88767619Y-34185994D02*
X88552120Y-34401494D01*
X89683491Y-33808871D02*
X89360242Y-34132120D01*
X89521867Y-33970495D02*
X88956181Y-33404810D01*
X88956181Y-33404810D02*
X88983119Y-33539497D01*
X88983119Y-33539497D02*
X88983119Y-33647246D01*
X88983119Y-33647246D02*
X88956181Y-33728059D01*
X87589998Y-80400868D02*
X87509185Y-80427805D01*
X87509185Y-80427805D02*
X87428373Y-80508618D01*
X87428373Y-80508618D02*
X87374498Y-80616367D01*
X87374498Y-80616367D02*
X87374498Y-80724117D01*
X87374498Y-80724117D02*
X87401436Y-80804929D01*
X87401436Y-80804929D02*
X87482248Y-80939616D01*
X87482248Y-80939616D02*
X87563060Y-81020428D01*
X87563060Y-81020428D02*
X87697747Y-81101241D01*
X87697747Y-81101241D02*
X87778560Y-81128178D01*
X87778560Y-81128178D02*
X87886309Y-81128178D01*
X87886309Y-81128178D02*
X87994059Y-81074303D01*
X87994059Y-81074303D02*
X88047934Y-81020428D01*
X88047934Y-81020428D02*
X88101808Y-80912679D01*
X88101808Y-80912679D02*
X88101808Y-80858804D01*
X88101808Y-80858804D02*
X87913247Y-80670242D01*
X87913247Y-80670242D02*
X87805497Y-80777992D01*
X88398120Y-80670242D02*
X87832434Y-80104557D01*
X87832434Y-80104557D02*
X88047934Y-79889057D01*
X88047934Y-79889057D02*
X88128746Y-79862120D01*
X88128746Y-79862120D02*
X88182621Y-79862120D01*
X88182621Y-79862120D02*
X88263433Y-79889057D01*
X88263433Y-79889057D02*
X88344245Y-79969870D01*
X88344245Y-79969870D02*
X88371182Y-80050682D01*
X88371182Y-80050682D02*
X88371182Y-80104557D01*
X88371182Y-80104557D02*
X88344245Y-80185369D01*
X88344245Y-80185369D02*
X88128746Y-80400868D01*
X89260117Y-79808245D02*
X88936868Y-80131494D01*
X89098492Y-79969870D02*
X88532807Y-79404184D01*
X88532807Y-79404184D02*
X88559744Y-79538871D01*
X88559744Y-79538871D02*
X88559744Y-79646621D01*
X88559744Y-79646621D02*
X88532807Y-79727433D01*
X89206242Y-78730749D02*
X88936868Y-79000123D01*
X88936868Y-79000123D02*
X89179305Y-79296434D01*
X89179305Y-79296434D02*
X89179305Y-79242560D01*
X89179305Y-79242560D02*
X89206242Y-79161747D01*
X89206242Y-79161747D02*
X89340929Y-79027060D01*
X89340929Y-79027060D02*
X89421741Y-79000123D01*
X89421741Y-79000123D02*
X89475616Y-79000123D01*
X89475616Y-79000123D02*
X89556428Y-79027060D01*
X89556428Y-79027060D02*
X89691115Y-79161747D01*
X89691115Y-79161747D02*
X89718053Y-79242560D01*
X89718053Y-79242560D02*
X89718053Y-79296434D01*
X89718053Y-79296434D02*
X89691115Y-79377247D01*
X89691115Y-79377247D02*
X89556428Y-79511934D01*
X89556428Y-79511934D02*
X89475616Y-79538871D01*
X89475616Y-79538871D02*
X89421741Y-79538871D01*
X113697998Y-65170868D02*
X113617185Y-65197805D01*
X113617185Y-65197805D02*
X113536373Y-65278618D01*
X113536373Y-65278618D02*
X113482498Y-65386367D01*
X113482498Y-65386367D02*
X113482498Y-65494117D01*
X113482498Y-65494117D02*
X113509436Y-65574929D01*
X113509436Y-65574929D02*
X113590248Y-65709616D01*
X113590248Y-65709616D02*
X113671060Y-65790428D01*
X113671060Y-65790428D02*
X113805747Y-65871241D01*
X113805747Y-65871241D02*
X113886560Y-65898178D01*
X113886560Y-65898178D02*
X113994309Y-65898178D01*
X113994309Y-65898178D02*
X114102059Y-65844303D01*
X114102059Y-65844303D02*
X114155934Y-65790428D01*
X114155934Y-65790428D02*
X114209808Y-65682679D01*
X114209808Y-65682679D02*
X114209808Y-65628804D01*
X114209808Y-65628804D02*
X114021247Y-65440242D01*
X114021247Y-65440242D02*
X113913497Y-65547992D01*
X114506120Y-65440242D02*
X113940434Y-64874557D01*
X113940434Y-64874557D02*
X114155934Y-64659057D01*
X114155934Y-64659057D02*
X114236746Y-64632120D01*
X114236746Y-64632120D02*
X114290621Y-64632120D01*
X114290621Y-64632120D02*
X114371433Y-64659057D01*
X114371433Y-64659057D02*
X114452245Y-64739870D01*
X114452245Y-64739870D02*
X114479182Y-64820682D01*
X114479182Y-64820682D02*
X114479182Y-64874557D01*
X114479182Y-64874557D02*
X114452245Y-64955369D01*
X114452245Y-64955369D02*
X114236746Y-65170868D01*
X114533057Y-64389683D02*
X114533057Y-64335809D01*
X114533057Y-64335809D02*
X114559995Y-64254996D01*
X114559995Y-64254996D02*
X114694682Y-64120309D01*
X114694682Y-64120309D02*
X114775494Y-64093372D01*
X114775494Y-64093372D02*
X114829369Y-64093372D01*
X114829369Y-64093372D02*
X114910181Y-64120309D01*
X114910181Y-64120309D02*
X114964056Y-64174184D01*
X114964056Y-64174184D02*
X115017930Y-64281934D01*
X115017930Y-64281934D02*
X115017930Y-64928431D01*
X115017930Y-64928431D02*
X115368117Y-64578245D01*
X115906865Y-64039497D02*
X115583616Y-64362746D01*
X115745240Y-64201121D02*
X115179555Y-63635436D01*
X115179555Y-63635436D02*
X115206492Y-63770123D01*
X115206492Y-63770123D02*
X115206492Y-63877873D01*
X115206492Y-63877873D02*
X115179555Y-63958685D01*
X113553406Y-32407585D02*
X114307653Y-32784709D01*
X114307653Y-32784709D02*
X113930529Y-32030462D01*
X114577027Y-31922712D02*
X114684776Y-31868838D01*
X114684776Y-31868838D02*
X114738651Y-31868838D01*
X114738651Y-31868838D02*
X114819463Y-31895775D01*
X114819463Y-31895775D02*
X114900276Y-31976587D01*
X114900276Y-31976587D02*
X114927213Y-32057399D01*
X114927213Y-32057399D02*
X114927213Y-32111274D01*
X114927213Y-32111274D02*
X114900276Y-32192086D01*
X114900276Y-32192086D02*
X114684776Y-32407586D01*
X114684776Y-32407586D02*
X114119091Y-31841900D01*
X114119091Y-31841900D02*
X114307653Y-31653338D01*
X114307653Y-31653338D02*
X114388465Y-31626401D01*
X114388465Y-31626401D02*
X114442340Y-31626401D01*
X114442340Y-31626401D02*
X114523152Y-31653338D01*
X114523152Y-31653338D02*
X114577027Y-31707213D01*
X114577027Y-31707213D02*
X114603964Y-31788025D01*
X114603964Y-31788025D02*
X114603964Y-31841900D01*
X114603964Y-31841900D02*
X114577027Y-31922712D01*
X114577027Y-31922712D02*
X114388465Y-32111274D01*
X114684776Y-31276215D02*
X115142712Y-31734151D01*
X115142712Y-31734151D02*
X115223524Y-31761088D01*
X115223524Y-31761088D02*
X115277399Y-31761088D01*
X115277399Y-31761088D02*
X115358211Y-31734151D01*
X115358211Y-31734151D02*
X115465961Y-31626401D01*
X115465961Y-31626401D02*
X115492898Y-31545589D01*
X115492898Y-31545589D02*
X115492898Y-31491714D01*
X115492898Y-31491714D02*
X115465961Y-31410902D01*
X115465961Y-31410902D02*
X115008025Y-30952966D01*
X115789210Y-31249277D02*
X115896959Y-31195403D01*
X115896959Y-31195403D02*
X116031646Y-31060716D01*
X116031646Y-31060716D02*
X116058584Y-30979903D01*
X116058584Y-30979903D02*
X116058584Y-30926029D01*
X116058584Y-30926029D02*
X116031646Y-30845216D01*
X116031646Y-30845216D02*
X115977771Y-30791342D01*
X115977771Y-30791342D02*
X115896959Y-30764404D01*
X115896959Y-30764404D02*
X115843084Y-30764404D01*
X115843084Y-30764404D02*
X115762272Y-30791342D01*
X115762272Y-30791342D02*
X115627585Y-30872154D01*
X115627585Y-30872154D02*
X115546773Y-30899091D01*
X115546773Y-30899091D02*
X115492898Y-30899091D01*
X115492898Y-30899091D02*
X115412086Y-30872154D01*
X115412086Y-30872154D02*
X115358211Y-30818279D01*
X115358211Y-30818279D02*
X115331274Y-30737467D01*
X115331274Y-30737467D02*
X115331274Y-30683592D01*
X115331274Y-30683592D02*
X115358211Y-30602780D01*
X115358211Y-30602780D02*
X115492898Y-30468093D01*
X115492898Y-30468093D02*
X115600648Y-30414218D01*
X113697998Y-60080868D02*
X113617185Y-60107805D01*
X113617185Y-60107805D02*
X113536373Y-60188618D01*
X113536373Y-60188618D02*
X113482498Y-60296367D01*
X113482498Y-60296367D02*
X113482498Y-60404117D01*
X113482498Y-60404117D02*
X113509436Y-60484929D01*
X113509436Y-60484929D02*
X113590248Y-60619616D01*
X113590248Y-60619616D02*
X113671060Y-60700428D01*
X113671060Y-60700428D02*
X113805747Y-60781241D01*
X113805747Y-60781241D02*
X113886560Y-60808178D01*
X113886560Y-60808178D02*
X113994309Y-60808178D01*
X113994309Y-60808178D02*
X114102059Y-60754303D01*
X114102059Y-60754303D02*
X114155934Y-60700428D01*
X114155934Y-60700428D02*
X114209808Y-60592679D01*
X114209808Y-60592679D02*
X114209808Y-60538804D01*
X114209808Y-60538804D02*
X114021247Y-60350242D01*
X114021247Y-60350242D02*
X113913497Y-60457992D01*
X114506120Y-60350242D02*
X113940434Y-59784557D01*
X113940434Y-59784557D02*
X114155934Y-59569057D01*
X114155934Y-59569057D02*
X114236746Y-59542120D01*
X114236746Y-59542120D02*
X114290621Y-59542120D01*
X114290621Y-59542120D02*
X114371433Y-59569057D01*
X114371433Y-59569057D02*
X114452245Y-59649870D01*
X114452245Y-59649870D02*
X114479182Y-59730682D01*
X114479182Y-59730682D02*
X114479182Y-59784557D01*
X114479182Y-59784557D02*
X114452245Y-59865369D01*
X114452245Y-59865369D02*
X114236746Y-60080868D01*
X114533057Y-59299683D02*
X114533057Y-59245809D01*
X114533057Y-59245809D02*
X114559995Y-59164996D01*
X114559995Y-59164996D02*
X114694682Y-59030309D01*
X114694682Y-59030309D02*
X114775494Y-59003372D01*
X114775494Y-59003372D02*
X114829369Y-59003372D01*
X114829369Y-59003372D02*
X114910181Y-59030309D01*
X114910181Y-59030309D02*
X114964056Y-59084184D01*
X114964056Y-59084184D02*
X115017930Y-59191934D01*
X115017930Y-59191934D02*
X115017930Y-59838431D01*
X115017930Y-59838431D02*
X115368117Y-59488245D01*
X115071805Y-58760935D02*
X115071805Y-58707060D01*
X115071805Y-58707060D02*
X115098743Y-58626248D01*
X115098743Y-58626248D02*
X115233430Y-58491561D01*
X115233430Y-58491561D02*
X115314242Y-58464624D01*
X115314242Y-58464624D02*
X115368117Y-58464624D01*
X115368117Y-58464624D02*
X115448929Y-58491561D01*
X115448929Y-58491561D02*
X115502804Y-58545436D01*
X115502804Y-58545436D02*
X115556679Y-58653186D01*
X115556679Y-58653186D02*
X115556679Y-59299683D01*
X115556679Y-59299683D02*
X115906865Y-58949497D01*
X113751873Y-50621240D02*
X114021247Y-50351866D01*
X113859623Y-50836739D02*
X113482499Y-50082492D01*
X113482499Y-50082492D02*
X114236746Y-50459615D01*
X114182871Y-49435994D02*
X114102059Y-49462932D01*
X114102059Y-49462932D02*
X114021247Y-49543744D01*
X114021247Y-49543744D02*
X113967372Y-49651494D01*
X113967372Y-49651494D02*
X113967372Y-49759243D01*
X113967372Y-49759243D02*
X113994310Y-49840055D01*
X113994310Y-49840055D02*
X114075122Y-49974742D01*
X114075122Y-49974742D02*
X114155934Y-50055555D01*
X114155934Y-50055555D02*
X114290621Y-50136367D01*
X114290621Y-50136367D02*
X114371433Y-50163304D01*
X114371433Y-50163304D02*
X114479183Y-50163304D01*
X114479183Y-50163304D02*
X114586932Y-50109429D01*
X114586932Y-50109429D02*
X114640807Y-50055555D01*
X114640807Y-50055555D02*
X114694682Y-49947805D01*
X114694682Y-49947805D02*
X114694682Y-49893930D01*
X114694682Y-49893930D02*
X114506120Y-49705368D01*
X114506120Y-49705368D02*
X114398371Y-49813118D01*
X114990993Y-49705368D02*
X114425308Y-49139683D01*
X114425308Y-49139683D02*
X115314242Y-49382120D01*
X115314242Y-49382120D02*
X114748557Y-48816434D01*
X115583616Y-49112746D02*
X115017931Y-48547060D01*
X115017931Y-48547060D02*
X115152618Y-48412373D01*
X115152618Y-48412373D02*
X115260367Y-48358498D01*
X115260367Y-48358498D02*
X115368117Y-48358498D01*
X115368117Y-48358498D02*
X115448929Y-48385436D01*
X115448929Y-48385436D02*
X115583616Y-48466248D01*
X115583616Y-48466248D02*
X115664428Y-48547060D01*
X115664428Y-48547060D02*
X115745241Y-48681747D01*
X115745241Y-48681747D02*
X115772178Y-48762560D01*
X115772178Y-48762560D02*
X115772178Y-48870309D01*
X115772178Y-48870309D02*
X115718303Y-48978059D01*
X115718303Y-48978059D02*
X115583616Y-49112746D01*
X88013372Y-39491494D02*
X87932560Y-39518431D01*
X87932560Y-39518431D02*
X87851748Y-39599243D01*
X87851748Y-39599243D02*
X87797873Y-39706993D01*
X87797873Y-39706993D02*
X87797873Y-39814742D01*
X87797873Y-39814742D02*
X87824810Y-39895555D01*
X87824810Y-39895555D02*
X87905623Y-40030242D01*
X87905623Y-40030242D02*
X87986435Y-40111054D01*
X87986435Y-40111054D02*
X88121122Y-40191866D01*
X88121122Y-40191866D02*
X88201934Y-40218803D01*
X88201934Y-40218803D02*
X88309684Y-40218803D01*
X88309684Y-40218803D02*
X88417433Y-40164929D01*
X88417433Y-40164929D02*
X88471308Y-40111054D01*
X88471308Y-40111054D02*
X88525183Y-40003304D01*
X88525183Y-40003304D02*
X88525183Y-39949429D01*
X88525183Y-39949429D02*
X88336621Y-39760868D01*
X88336621Y-39760868D02*
X88228871Y-39868617D01*
X88821494Y-39760868D02*
X88255809Y-39195182D01*
X88255809Y-39195182D02*
X88471308Y-38979683D01*
X88471308Y-38979683D02*
X88552120Y-38952746D01*
X88552120Y-38952746D02*
X88605995Y-38952746D01*
X88605995Y-38952746D02*
X88686807Y-38979683D01*
X88686807Y-38979683D02*
X88767619Y-39060495D01*
X88767619Y-39060495D02*
X88794557Y-39141307D01*
X88794557Y-39141307D02*
X88794557Y-39195182D01*
X88794557Y-39195182D02*
X88767619Y-39275994D01*
X88767619Y-39275994D02*
X88552120Y-39491494D01*
X88848432Y-38710309D02*
X88848432Y-38656434D01*
X88848432Y-38656434D02*
X88875369Y-38575622D01*
X88875369Y-38575622D02*
X89010056Y-38440935D01*
X89010056Y-38440935D02*
X89090868Y-38413998D01*
X89090868Y-38413998D02*
X89144743Y-38413998D01*
X89144743Y-38413998D02*
X89225555Y-38440935D01*
X89225555Y-38440935D02*
X89279430Y-38494810D01*
X89279430Y-38494810D02*
X89333305Y-38602559D01*
X89333305Y-38602559D02*
X89333305Y-39249057D01*
X89333305Y-39249057D02*
X89683491Y-38898871D01*
X113686435Y-62378431D02*
X113605623Y-62405368D01*
X113605623Y-62405368D02*
X113524811Y-62486180D01*
X113524811Y-62486180D02*
X113470936Y-62593930D01*
X113470936Y-62593930D02*
X113470936Y-62701680D01*
X113470936Y-62701680D02*
X113497873Y-62782492D01*
X113497873Y-62782492D02*
X113578685Y-62917179D01*
X113578685Y-62917179D02*
X113659498Y-62997991D01*
X113659498Y-62997991D02*
X113794185Y-63078803D01*
X113794185Y-63078803D02*
X113874997Y-63105741D01*
X113874997Y-63105741D02*
X113982746Y-63105741D01*
X113982746Y-63105741D02*
X114090496Y-63051866D01*
X114090496Y-63051866D02*
X114144371Y-62997991D01*
X114144371Y-62997991D02*
X114198246Y-62890241D01*
X114198246Y-62890241D02*
X114198246Y-62836367D01*
X114198246Y-62836367D02*
X114009684Y-62647805D01*
X114009684Y-62647805D02*
X113901934Y-62755554D01*
X114494557Y-62647805D02*
X113928872Y-62082119D01*
X113928872Y-62082119D02*
X114817806Y-62324556D01*
X114817806Y-62324556D02*
X114252120Y-61758871D01*
X115087180Y-62055182D02*
X114521494Y-61489497D01*
X114521494Y-61489497D02*
X114656181Y-61354810D01*
X114656181Y-61354810D02*
X114763931Y-61300935D01*
X114763931Y-61300935D02*
X114871680Y-61300935D01*
X114871680Y-61300935D02*
X114952493Y-61327872D01*
X114952493Y-61327872D02*
X115087180Y-61408685D01*
X115087180Y-61408685D02*
X115167992Y-61489497D01*
X115167992Y-61489497D02*
X115248804Y-61624184D01*
X115248804Y-61624184D02*
X115275741Y-61704996D01*
X115275741Y-61704996D02*
X115275741Y-61812746D01*
X115275741Y-61812746D02*
X115221867Y-61920495D01*
X115221867Y-61920495D02*
X115087180Y-62055182D01*
X87443998Y-70240868D02*
X87363185Y-70267805D01*
X87363185Y-70267805D02*
X87282373Y-70348618D01*
X87282373Y-70348618D02*
X87228498Y-70456367D01*
X87228498Y-70456367D02*
X87228498Y-70564117D01*
X87228498Y-70564117D02*
X87255436Y-70644929D01*
X87255436Y-70644929D02*
X87336248Y-70779616D01*
X87336248Y-70779616D02*
X87417060Y-70860428D01*
X87417060Y-70860428D02*
X87551747Y-70941241D01*
X87551747Y-70941241D02*
X87632560Y-70968178D01*
X87632560Y-70968178D02*
X87740309Y-70968178D01*
X87740309Y-70968178D02*
X87848059Y-70914303D01*
X87848059Y-70914303D02*
X87901934Y-70860428D01*
X87901934Y-70860428D02*
X87955808Y-70752679D01*
X87955808Y-70752679D02*
X87955808Y-70698804D01*
X87955808Y-70698804D02*
X87767247Y-70510242D01*
X87767247Y-70510242D02*
X87659497Y-70617992D01*
X88252120Y-70510242D02*
X87686434Y-69944557D01*
X87686434Y-69944557D02*
X87901934Y-69729057D01*
X87901934Y-69729057D02*
X87982746Y-69702120D01*
X87982746Y-69702120D02*
X88036621Y-69702120D01*
X88036621Y-69702120D02*
X88117433Y-69729057D01*
X88117433Y-69729057D02*
X88198245Y-69809870D01*
X88198245Y-69809870D02*
X88225182Y-69890682D01*
X88225182Y-69890682D02*
X88225182Y-69944557D01*
X88225182Y-69944557D02*
X88198245Y-70025369D01*
X88198245Y-70025369D02*
X87982746Y-70240868D01*
X89114117Y-69648245D02*
X88790868Y-69971494D01*
X88952492Y-69809870D02*
X88386807Y-69244184D01*
X88386807Y-69244184D02*
X88413744Y-69378871D01*
X88413744Y-69378871D02*
X88413744Y-69486621D01*
X88413744Y-69486621D02*
X88386807Y-69567433D01*
X88817805Y-68920935D02*
X88817805Y-68867060D01*
X88817805Y-68867060D02*
X88844743Y-68786248D01*
X88844743Y-68786248D02*
X88979430Y-68651561D01*
X88979430Y-68651561D02*
X89060242Y-68624624D01*
X89060242Y-68624624D02*
X89114117Y-68624624D01*
X89114117Y-68624624D02*
X89194929Y-68651561D01*
X89194929Y-68651561D02*
X89248804Y-68705436D01*
X89248804Y-68705436D02*
X89302679Y-68813186D01*
X89302679Y-68813186D02*
X89302679Y-69459683D01*
X89302679Y-69459683D02*
X89652865Y-69109497D01*
X88113372Y-52191494D02*
X88032560Y-52218431D01*
X88032560Y-52218431D02*
X87951748Y-52299243D01*
X87951748Y-52299243D02*
X87897873Y-52406993D01*
X87897873Y-52406993D02*
X87897873Y-52514742D01*
X87897873Y-52514742D02*
X87924810Y-52595555D01*
X87924810Y-52595555D02*
X88005623Y-52730242D01*
X88005623Y-52730242D02*
X88086435Y-52811054D01*
X88086435Y-52811054D02*
X88221122Y-52891866D01*
X88221122Y-52891866D02*
X88301934Y-52918803D01*
X88301934Y-52918803D02*
X88409684Y-52918803D01*
X88409684Y-52918803D02*
X88517433Y-52864929D01*
X88517433Y-52864929D02*
X88571308Y-52811054D01*
X88571308Y-52811054D02*
X88625183Y-52703304D01*
X88625183Y-52703304D02*
X88625183Y-52649429D01*
X88625183Y-52649429D02*
X88436621Y-52460868D01*
X88436621Y-52460868D02*
X88328871Y-52568617D01*
X88921494Y-52460868D02*
X88355809Y-51895182D01*
X88355809Y-51895182D02*
X88571308Y-51679683D01*
X88571308Y-51679683D02*
X88652120Y-51652746D01*
X88652120Y-51652746D02*
X88705995Y-51652746D01*
X88705995Y-51652746D02*
X88786807Y-51679683D01*
X88786807Y-51679683D02*
X88867619Y-51760495D01*
X88867619Y-51760495D02*
X88894557Y-51841307D01*
X88894557Y-51841307D02*
X88894557Y-51895182D01*
X88894557Y-51895182D02*
X88867619Y-51975994D01*
X88867619Y-51975994D02*
X88652120Y-52191494D01*
X89163931Y-51087060D02*
X89056181Y-51194810D01*
X89056181Y-51194810D02*
X89029244Y-51275622D01*
X89029244Y-51275622D02*
X89029244Y-51329497D01*
X89029244Y-51329497D02*
X89056181Y-51464184D01*
X89056181Y-51464184D02*
X89136993Y-51598871D01*
X89136993Y-51598871D02*
X89352493Y-51814370D01*
X89352493Y-51814370D02*
X89433305Y-51841307D01*
X89433305Y-51841307D02*
X89487180Y-51841307D01*
X89487180Y-51841307D02*
X89567992Y-51814370D01*
X89567992Y-51814370D02*
X89675741Y-51706620D01*
X89675741Y-51706620D02*
X89702679Y-51625808D01*
X89702679Y-51625808D02*
X89702679Y-51571933D01*
X89702679Y-51571933D02*
X89675741Y-51491121D01*
X89675741Y-51491121D02*
X89541054Y-51356434D01*
X89541054Y-51356434D02*
X89460242Y-51329497D01*
X89460242Y-51329497D02*
X89406367Y-51329497D01*
X89406367Y-51329497D02*
X89325555Y-51356434D01*
X89325555Y-51356434D02*
X89217806Y-51464184D01*
X89217806Y-51464184D02*
X89190868Y-51544996D01*
X89190868Y-51544996D02*
X89190868Y-51598871D01*
X89190868Y-51598871D02*
X89217806Y-51679683D01*
X113697998Y-55000868D02*
X113617185Y-55027805D01*
X113617185Y-55027805D02*
X113536373Y-55108618D01*
X113536373Y-55108618D02*
X113482498Y-55216367D01*
X113482498Y-55216367D02*
X113482498Y-55324117D01*
X113482498Y-55324117D02*
X113509436Y-55404929D01*
X113509436Y-55404929D02*
X113590248Y-55539616D01*
X113590248Y-55539616D02*
X113671060Y-55620428D01*
X113671060Y-55620428D02*
X113805747Y-55701241D01*
X113805747Y-55701241D02*
X113886560Y-55728178D01*
X113886560Y-55728178D02*
X113994309Y-55728178D01*
X113994309Y-55728178D02*
X114102059Y-55674303D01*
X114102059Y-55674303D02*
X114155934Y-55620428D01*
X114155934Y-55620428D02*
X114209808Y-55512679D01*
X114209808Y-55512679D02*
X114209808Y-55458804D01*
X114209808Y-55458804D02*
X114021247Y-55270242D01*
X114021247Y-55270242D02*
X113913497Y-55377992D01*
X114506120Y-55270242D02*
X113940434Y-54704557D01*
X113940434Y-54704557D02*
X114155934Y-54489057D01*
X114155934Y-54489057D02*
X114236746Y-54462120D01*
X114236746Y-54462120D02*
X114290621Y-54462120D01*
X114290621Y-54462120D02*
X114371433Y-54489057D01*
X114371433Y-54489057D02*
X114452245Y-54569870D01*
X114452245Y-54569870D02*
X114479182Y-54650682D01*
X114479182Y-54650682D02*
X114479182Y-54704557D01*
X114479182Y-54704557D02*
X114452245Y-54785369D01*
X114452245Y-54785369D02*
X114236746Y-55000868D01*
X114533057Y-54219683D02*
X114533057Y-54165809D01*
X114533057Y-54165809D02*
X114559995Y-54084996D01*
X114559995Y-54084996D02*
X114694682Y-53950309D01*
X114694682Y-53950309D02*
X114775494Y-53923372D01*
X114775494Y-53923372D02*
X114829369Y-53923372D01*
X114829369Y-53923372D02*
X114910181Y-53950309D01*
X114910181Y-53950309D02*
X114964056Y-54004184D01*
X114964056Y-54004184D02*
X115017930Y-54111934D01*
X115017930Y-54111934D02*
X115017930Y-54758431D01*
X115017930Y-54758431D02*
X115368117Y-54408245D01*
X115287305Y-53357686D02*
X115179555Y-53465436D01*
X115179555Y-53465436D02*
X115152618Y-53546248D01*
X115152618Y-53546248D02*
X115152618Y-53600123D01*
X115152618Y-53600123D02*
X115179555Y-53734810D01*
X115179555Y-53734810D02*
X115260367Y-53869497D01*
X115260367Y-53869497D02*
X115475866Y-54084996D01*
X115475866Y-54084996D02*
X115556679Y-54111934D01*
X115556679Y-54111934D02*
X115610553Y-54111934D01*
X115610553Y-54111934D02*
X115691366Y-54084996D01*
X115691366Y-54084996D02*
X115799115Y-53977247D01*
X115799115Y-53977247D02*
X115826053Y-53896434D01*
X115826053Y-53896434D02*
X115826053Y-53842560D01*
X115826053Y-53842560D02*
X115799115Y-53761747D01*
X115799115Y-53761747D02*
X115664428Y-53627060D01*
X115664428Y-53627060D02*
X115583616Y-53600123D01*
X115583616Y-53600123D02*
X115529741Y-53600123D01*
X115529741Y-53600123D02*
X115448929Y-53627060D01*
X115448929Y-53627060D02*
X115341179Y-53734810D01*
X115341179Y-53734810D02*
X115314242Y-53815622D01*
X115314242Y-53815622D02*
X115314242Y-53869497D01*
X115314242Y-53869497D02*
X115341179Y-53950309D01*
X113755064Y-45414049D02*
X114024438Y-45144675D01*
X113862813Y-45629549D02*
X113485690Y-44875301D01*
X113485690Y-44875301D02*
X114239937Y-45252425D01*
X114428499Y-45063863D02*
X113862813Y-44498178D01*
X113862813Y-44498178D02*
X113997500Y-44363491D01*
X113997500Y-44363491D02*
X114105250Y-44309616D01*
X114105250Y-44309616D02*
X114212999Y-44309616D01*
X114212999Y-44309616D02*
X114293812Y-44336553D01*
X114293812Y-44336553D02*
X114428499Y-44417366D01*
X114428499Y-44417366D02*
X114509311Y-44498178D01*
X114509311Y-44498178D02*
X114590123Y-44632865D01*
X114590123Y-44632865D02*
X114617060Y-44713677D01*
X114617060Y-44713677D02*
X114617060Y-44821427D01*
X114617060Y-44821427D02*
X114563186Y-44929176D01*
X114563186Y-44929176D02*
X114428499Y-45063863D01*
X115263558Y-44121054D02*
X115263558Y-44174929D01*
X115263558Y-44174929D02*
X115209683Y-44282679D01*
X115209683Y-44282679D02*
X115155808Y-44336553D01*
X115155808Y-44336553D02*
X115048059Y-44390428D01*
X115048059Y-44390428D02*
X114940309Y-44390428D01*
X114940309Y-44390428D02*
X114859497Y-44363491D01*
X114859497Y-44363491D02*
X114724810Y-44282679D01*
X114724810Y-44282679D02*
X114643998Y-44201866D01*
X114643998Y-44201866D02*
X114563186Y-44067179D01*
X114563186Y-44067179D02*
X114536248Y-43986367D01*
X114536248Y-43986367D02*
X114536248Y-43878618D01*
X114536248Y-43878618D02*
X114590123Y-43770868D01*
X114590123Y-43770868D02*
X114643998Y-43716993D01*
X114643998Y-43716993D02*
X114751747Y-43663118D01*
X114751747Y-43663118D02*
X114805622Y-43663118D01*
X115479057Y-44121054D02*
X115910056Y-43690056D01*
X115344370Y-43016621D02*
X116098618Y-43393744D01*
X116098618Y-43393744D02*
X115721494Y-42639497D01*
X116798990Y-42693372D02*
X116341054Y-42612560D01*
X116475741Y-43016621D02*
X115910056Y-42450935D01*
X115910056Y-42450935D02*
X116125555Y-42235436D01*
X116125555Y-42235436D02*
X116206367Y-42208499D01*
X116206367Y-42208499D02*
X116260242Y-42208499D01*
X116260242Y-42208499D02*
X116341054Y-42235436D01*
X116341054Y-42235436D02*
X116421866Y-42316248D01*
X116421866Y-42316248D02*
X116448804Y-42397061D01*
X116448804Y-42397061D02*
X116448804Y-42450935D01*
X116448804Y-42450935D02*
X116421866Y-42531748D01*
X116421866Y-42531748D02*
X116206367Y-42747247D01*
X116745115Y-42154624D02*
X116933677Y-41966062D01*
X117310800Y-42181561D02*
X117041426Y-42450935D01*
X117041426Y-42450935D02*
X116475741Y-41885250D01*
X116475741Y-41885250D02*
X116745115Y-41615876D01*
X117445488Y-41454251D02*
X117256926Y-41642813D01*
X117553237Y-41939125D02*
X116987552Y-41373439D01*
X116987552Y-41373439D02*
X117256926Y-41104065D01*
X113522407Y-39838584D02*
X113872593Y-39488398D01*
X113872593Y-39488398D02*
X113899531Y-39892459D01*
X113899531Y-39892459D02*
X113980343Y-39811646D01*
X113980343Y-39811646D02*
X114061155Y-39784709D01*
X114061155Y-39784709D02*
X114115030Y-39784709D01*
X114115030Y-39784709D02*
X114195842Y-39811646D01*
X114195842Y-39811646D02*
X114330529Y-39946333D01*
X114330529Y-39946333D02*
X114357467Y-40027146D01*
X114357467Y-40027146D02*
X114357467Y-40081020D01*
X114357467Y-40081020D02*
X114330529Y-40161833D01*
X114330529Y-40161833D02*
X114168905Y-40323457D01*
X114168905Y-40323457D02*
X114088093Y-40350394D01*
X114088093Y-40350394D02*
X114034218Y-40350394D01*
X114034218Y-39326773D02*
X114788465Y-39703897D01*
X114788465Y-39703897D02*
X114411342Y-38949649D01*
X114546028Y-38814963D02*
X114896215Y-38464776D01*
X114896215Y-38464776D02*
X114923152Y-38868837D01*
X114923152Y-38868837D02*
X115003964Y-38788025D01*
X115003964Y-38788025D02*
X115084776Y-38761088D01*
X115084776Y-38761088D02*
X115138651Y-38761088D01*
X115138651Y-38761088D02*
X115219464Y-38788025D01*
X115219464Y-38788025D02*
X115354151Y-38922712D01*
X115354151Y-38922712D02*
X115381088Y-39003524D01*
X115381088Y-39003524D02*
X115381088Y-39057399D01*
X115381088Y-39057399D02*
X115354151Y-39138211D01*
X115354151Y-39138211D02*
X115192526Y-39299836D01*
X115192526Y-39299836D02*
X115111714Y-39326773D01*
X115111714Y-39326773D02*
X115057839Y-39326773D01*
X115623525Y-38976587D02*
X116054523Y-38545588D01*
X115839024Y-38060715D02*
X116027586Y-37872153D01*
X116404709Y-38087652D02*
X116135335Y-38357026D01*
X116135335Y-38357026D02*
X115569650Y-37791341D01*
X115569650Y-37791341D02*
X115839024Y-37521967D01*
X116647146Y-37845215D02*
X116081461Y-37279530D01*
X116081461Y-37279530D02*
X116970395Y-37521967D01*
X116970395Y-37521967D02*
X116404710Y-36956281D01*
X113686435Y-36978431D02*
X113605623Y-37005368D01*
X113605623Y-37005368D02*
X113524811Y-37086180D01*
X113524811Y-37086180D02*
X113470936Y-37193930D01*
X113470936Y-37193930D02*
X113470936Y-37301680D01*
X113470936Y-37301680D02*
X113497873Y-37382492D01*
X113497873Y-37382492D02*
X113578685Y-37517179D01*
X113578685Y-37517179D02*
X113659498Y-37597991D01*
X113659498Y-37597991D02*
X113794185Y-37678803D01*
X113794185Y-37678803D02*
X113874997Y-37705741D01*
X113874997Y-37705741D02*
X113982746Y-37705741D01*
X113982746Y-37705741D02*
X114090496Y-37651866D01*
X114090496Y-37651866D02*
X114144371Y-37597991D01*
X114144371Y-37597991D02*
X114198246Y-37490241D01*
X114198246Y-37490241D02*
X114198246Y-37436367D01*
X114198246Y-37436367D02*
X114009684Y-37247805D01*
X114009684Y-37247805D02*
X113901934Y-37355554D01*
X114494557Y-37247805D02*
X113928872Y-36682119D01*
X113928872Y-36682119D02*
X114817806Y-36924556D01*
X114817806Y-36924556D02*
X114252120Y-36358871D01*
X115087180Y-36655182D02*
X114521494Y-36089497D01*
X114521494Y-36089497D02*
X114656181Y-35954810D01*
X114656181Y-35954810D02*
X114763931Y-35900935D01*
X114763931Y-35900935D02*
X114871680Y-35900935D01*
X114871680Y-35900935D02*
X114952493Y-35927872D01*
X114952493Y-35927872D02*
X115087180Y-36008685D01*
X115087180Y-36008685D02*
X115167992Y-36089497D01*
X115167992Y-36089497D02*
X115248804Y-36224184D01*
X115248804Y-36224184D02*
X115275741Y-36304996D01*
X115275741Y-36304996D02*
X115275741Y-36412746D01*
X115275741Y-36412746D02*
X115221867Y-36520495D01*
X115221867Y-36520495D02*
X115087180Y-36655182D01*
X88113372Y-59811494D02*
X88032560Y-59838431D01*
X88032560Y-59838431D02*
X87951748Y-59919243D01*
X87951748Y-59919243D02*
X87897873Y-60026993D01*
X87897873Y-60026993D02*
X87897873Y-60134742D01*
X87897873Y-60134742D02*
X87924810Y-60215555D01*
X87924810Y-60215555D02*
X88005623Y-60350242D01*
X88005623Y-60350242D02*
X88086435Y-60431054D01*
X88086435Y-60431054D02*
X88221122Y-60511866D01*
X88221122Y-60511866D02*
X88301934Y-60538803D01*
X88301934Y-60538803D02*
X88409684Y-60538803D01*
X88409684Y-60538803D02*
X88517433Y-60484929D01*
X88517433Y-60484929D02*
X88571308Y-60431054D01*
X88571308Y-60431054D02*
X88625183Y-60323304D01*
X88625183Y-60323304D02*
X88625183Y-60269429D01*
X88625183Y-60269429D02*
X88436621Y-60080868D01*
X88436621Y-60080868D02*
X88328871Y-60188617D01*
X88921494Y-60080868D02*
X88355809Y-59515182D01*
X88355809Y-59515182D02*
X88571308Y-59299683D01*
X88571308Y-59299683D02*
X88652120Y-59272746D01*
X88652120Y-59272746D02*
X88705995Y-59272746D01*
X88705995Y-59272746D02*
X88786807Y-59299683D01*
X88786807Y-59299683D02*
X88867619Y-59380495D01*
X88867619Y-59380495D02*
X88894557Y-59461307D01*
X88894557Y-59461307D02*
X88894557Y-59515182D01*
X88894557Y-59515182D02*
X88867619Y-59595994D01*
X88867619Y-59595994D02*
X88652120Y-59811494D01*
X89514117Y-59488245D02*
X89621867Y-59380495D01*
X89621867Y-59380495D02*
X89648804Y-59299683D01*
X89648804Y-59299683D02*
X89648804Y-59245808D01*
X89648804Y-59245808D02*
X89621867Y-59111121D01*
X89621867Y-59111121D02*
X89541054Y-58976434D01*
X89541054Y-58976434D02*
X89325555Y-58760935D01*
X89325555Y-58760935D02*
X89244743Y-58733998D01*
X89244743Y-58733998D02*
X89190868Y-58733998D01*
X89190868Y-58733998D02*
X89110056Y-58760935D01*
X89110056Y-58760935D02*
X89002306Y-58868685D01*
X89002306Y-58868685D02*
X88975369Y-58949497D01*
X88975369Y-58949497D02*
X88975369Y-59003372D01*
X88975369Y-59003372D02*
X89002306Y-59084184D01*
X89002306Y-59084184D02*
X89136993Y-59218871D01*
X89136993Y-59218871D02*
X89217806Y-59245808D01*
X89217806Y-59245808D02*
X89271680Y-59245808D01*
X89271680Y-59245808D02*
X89352493Y-59218871D01*
X89352493Y-59218871D02*
X89460242Y-59111121D01*
X89460242Y-59111121D02*
X89487180Y-59030309D01*
X89487180Y-59030309D02*
X89487180Y-58976434D01*
X89487180Y-58976434D02*
X89460242Y-58895622D01*
X88113372Y-31871494D02*
X88032560Y-31898431D01*
X88032560Y-31898431D02*
X87951748Y-31979243D01*
X87951748Y-31979243D02*
X87897873Y-32086993D01*
X87897873Y-32086993D02*
X87897873Y-32194742D01*
X87897873Y-32194742D02*
X87924810Y-32275555D01*
X87924810Y-32275555D02*
X88005623Y-32410242D01*
X88005623Y-32410242D02*
X88086435Y-32491054D01*
X88086435Y-32491054D02*
X88221122Y-32571866D01*
X88221122Y-32571866D02*
X88301934Y-32598803D01*
X88301934Y-32598803D02*
X88409684Y-32598803D01*
X88409684Y-32598803D02*
X88517433Y-32544929D01*
X88517433Y-32544929D02*
X88571308Y-32491054D01*
X88571308Y-32491054D02*
X88625183Y-32383304D01*
X88625183Y-32383304D02*
X88625183Y-32329429D01*
X88625183Y-32329429D02*
X88436621Y-32140868D01*
X88436621Y-32140868D02*
X88328871Y-32248617D01*
X88921494Y-32140868D02*
X88355809Y-31575182D01*
X88355809Y-31575182D02*
X88571308Y-31359683D01*
X88571308Y-31359683D02*
X88652120Y-31332746D01*
X88652120Y-31332746D02*
X88705995Y-31332746D01*
X88705995Y-31332746D02*
X88786807Y-31359683D01*
X88786807Y-31359683D02*
X88867619Y-31440495D01*
X88867619Y-31440495D02*
X88894557Y-31521307D01*
X88894557Y-31521307D02*
X88894557Y-31575182D01*
X88894557Y-31575182D02*
X88867619Y-31655994D01*
X88867619Y-31655994D02*
X88652120Y-31871494D01*
X89029244Y-30901747D02*
X89083119Y-30847872D01*
X89083119Y-30847872D02*
X89163931Y-30820935D01*
X89163931Y-30820935D02*
X89217806Y-30820935D01*
X89217806Y-30820935D02*
X89298618Y-30847872D01*
X89298618Y-30847872D02*
X89433305Y-30928685D01*
X89433305Y-30928685D02*
X89567992Y-31063372D01*
X89567992Y-31063372D02*
X89648804Y-31198059D01*
X89648804Y-31198059D02*
X89675741Y-31278871D01*
X89675741Y-31278871D02*
X89675741Y-31332746D01*
X89675741Y-31332746D02*
X89648804Y-31413558D01*
X89648804Y-31413558D02*
X89594929Y-31467433D01*
X89594929Y-31467433D02*
X89514117Y-31494370D01*
X89514117Y-31494370D02*
X89460242Y-31494370D01*
X89460242Y-31494370D02*
X89379430Y-31467433D01*
X89379430Y-31467433D02*
X89244743Y-31386620D01*
X89244743Y-31386620D02*
X89110056Y-31251933D01*
X89110056Y-31251933D02*
X89029244Y-31117246D01*
X89029244Y-31117246D02*
X89002306Y-31036434D01*
X89002306Y-31036434D02*
X89002306Y-30982559D01*
X89002306Y-30982559D02*
X89029244Y-30901747D01*
X88086435Y-36978431D02*
X88005623Y-37005368D01*
X88005623Y-37005368D02*
X87924811Y-37086180D01*
X87924811Y-37086180D02*
X87870936Y-37193930D01*
X87870936Y-37193930D02*
X87870936Y-37301680D01*
X87870936Y-37301680D02*
X87897873Y-37382492D01*
X87897873Y-37382492D02*
X87978685Y-37517179D01*
X87978685Y-37517179D02*
X88059498Y-37597991D01*
X88059498Y-37597991D02*
X88194185Y-37678803D01*
X88194185Y-37678803D02*
X88274997Y-37705741D01*
X88274997Y-37705741D02*
X88382746Y-37705741D01*
X88382746Y-37705741D02*
X88490496Y-37651866D01*
X88490496Y-37651866D02*
X88544371Y-37597991D01*
X88544371Y-37597991D02*
X88598246Y-37490241D01*
X88598246Y-37490241D02*
X88598246Y-37436367D01*
X88598246Y-37436367D02*
X88409684Y-37247805D01*
X88409684Y-37247805D02*
X88301934Y-37355554D01*
X88894557Y-37247805D02*
X88328872Y-36682119D01*
X88328872Y-36682119D02*
X89217806Y-36924556D01*
X89217806Y-36924556D02*
X88652120Y-36358871D01*
X89487180Y-36655182D02*
X88921494Y-36089497D01*
X88921494Y-36089497D02*
X89056181Y-35954810D01*
X89056181Y-35954810D02*
X89163931Y-35900935D01*
X89163931Y-35900935D02*
X89271680Y-35900935D01*
X89271680Y-35900935D02*
X89352493Y-35927872D01*
X89352493Y-35927872D02*
X89487180Y-36008685D01*
X89487180Y-36008685D02*
X89567992Y-36089497D01*
X89567992Y-36089497D02*
X89648804Y-36224184D01*
X89648804Y-36224184D02*
X89675741Y-36304996D01*
X89675741Y-36304996D02*
X89675741Y-36412746D01*
X89675741Y-36412746D02*
X89621867Y-36520495D01*
X89621867Y-36520495D02*
X89487180Y-36655182D01*
X88086435Y-49678431D02*
X88005623Y-49705368D01*
X88005623Y-49705368D02*
X87924811Y-49786180D01*
X87924811Y-49786180D02*
X87870936Y-49893930D01*
X87870936Y-49893930D02*
X87870936Y-50001680D01*
X87870936Y-50001680D02*
X87897873Y-50082492D01*
X87897873Y-50082492D02*
X87978685Y-50217179D01*
X87978685Y-50217179D02*
X88059498Y-50297991D01*
X88059498Y-50297991D02*
X88194185Y-50378803D01*
X88194185Y-50378803D02*
X88274997Y-50405741D01*
X88274997Y-50405741D02*
X88382746Y-50405741D01*
X88382746Y-50405741D02*
X88490496Y-50351866D01*
X88490496Y-50351866D02*
X88544371Y-50297991D01*
X88544371Y-50297991D02*
X88598246Y-50190241D01*
X88598246Y-50190241D02*
X88598246Y-50136367D01*
X88598246Y-50136367D02*
X88409684Y-49947805D01*
X88409684Y-49947805D02*
X88301934Y-50055554D01*
X88894557Y-49947805D02*
X88328872Y-49382119D01*
X88328872Y-49382119D02*
X89217806Y-49624556D01*
X89217806Y-49624556D02*
X88652120Y-49058871D01*
X89487180Y-49355182D02*
X88921494Y-48789497D01*
X88921494Y-48789497D02*
X89056181Y-48654810D01*
X89056181Y-48654810D02*
X89163931Y-48600935D01*
X89163931Y-48600935D02*
X89271680Y-48600935D01*
X89271680Y-48600935D02*
X89352493Y-48627872D01*
X89352493Y-48627872D02*
X89487180Y-48708685D01*
X89487180Y-48708685D02*
X89567992Y-48789497D01*
X89567992Y-48789497D02*
X89648804Y-48924184D01*
X89648804Y-48924184D02*
X89675741Y-49004996D01*
X89675741Y-49004996D02*
X89675741Y-49112746D01*
X89675741Y-49112746D02*
X89621867Y-49220495D01*
X89621867Y-49220495D02*
X89487180Y-49355182D01*
X57166666Y-142404819D02*
X57166666Y-143119104D01*
X57166666Y-143119104D02*
X57119047Y-143261961D01*
X57119047Y-143261961D02*
X57023809Y-143357200D01*
X57023809Y-143357200D02*
X56880952Y-143404819D01*
X56880952Y-143404819D02*
X56785714Y-143404819D01*
X57547619Y-142404819D02*
X58214285Y-142404819D01*
X58214285Y-142404819D02*
X57785714Y-143404819D01*
X55261904Y-135981009D02*
X55404761Y-136028628D01*
X55404761Y-136028628D02*
X55452380Y-136076247D01*
X55452380Y-136076247D02*
X55499999Y-136171485D01*
X55499999Y-136171485D02*
X55499999Y-136314342D01*
X55499999Y-136314342D02*
X55452380Y-136409580D01*
X55452380Y-136409580D02*
X55404761Y-136457200D01*
X55404761Y-136457200D02*
X55309523Y-136504819D01*
X55309523Y-136504819D02*
X54928571Y-136504819D01*
X54928571Y-136504819D02*
X54928571Y-135504819D01*
X54928571Y-135504819D02*
X55261904Y-135504819D01*
X55261904Y-135504819D02*
X55357142Y-135552438D01*
X55357142Y-135552438D02*
X55404761Y-135600057D01*
X55404761Y-135600057D02*
X55452380Y-135695295D01*
X55452380Y-135695295D02*
X55452380Y-135790533D01*
X55452380Y-135790533D02*
X55404761Y-135885771D01*
X55404761Y-135885771D02*
X55357142Y-135933390D01*
X55357142Y-135933390D02*
X55261904Y-135981009D01*
X55261904Y-135981009D02*
X54928571Y-135981009D01*
X56309523Y-136457200D02*
X56214285Y-136504819D01*
X56214285Y-136504819D02*
X56023809Y-136504819D01*
X56023809Y-136504819D02*
X55928571Y-136457200D01*
X55928571Y-136457200D02*
X55880952Y-136361961D01*
X55880952Y-136361961D02*
X55880952Y-135981009D01*
X55880952Y-135981009D02*
X55928571Y-135885771D01*
X55928571Y-135885771D02*
X56023809Y-135838152D01*
X56023809Y-135838152D02*
X56214285Y-135838152D01*
X56214285Y-135838152D02*
X56309523Y-135885771D01*
X56309523Y-135885771D02*
X56357142Y-135981009D01*
X56357142Y-135981009D02*
X56357142Y-136076247D01*
X56357142Y-136076247D02*
X55880952Y-136171485D01*
X56928571Y-136504819D02*
X56833333Y-136457200D01*
X56833333Y-136457200D02*
X56785714Y-136361961D01*
X56785714Y-136361961D02*
X56785714Y-135504819D01*
X57452381Y-136504819D02*
X57357143Y-136457200D01*
X57357143Y-136457200D02*
X57309524Y-136361961D01*
X57309524Y-136361961D02*
X57309524Y-135504819D01*
X58595239Y-136504819D02*
X58595239Y-135504819D01*
X58595239Y-135504819D02*
X58833334Y-135504819D01*
X58833334Y-135504819D02*
X58976191Y-135552438D01*
X58976191Y-135552438D02*
X59071429Y-135647676D01*
X59071429Y-135647676D02*
X59119048Y-135742914D01*
X59119048Y-135742914D02*
X59166667Y-135933390D01*
X59166667Y-135933390D02*
X59166667Y-136076247D01*
X59166667Y-136076247D02*
X59119048Y-136266723D01*
X59119048Y-136266723D02*
X59071429Y-136361961D01*
X59071429Y-136361961D02*
X58976191Y-136457200D01*
X58976191Y-136457200D02*
X58833334Y-136504819D01*
X58833334Y-136504819D02*
X58595239Y-136504819D01*
X59500001Y-135504819D02*
X60166667Y-135504819D01*
X60166667Y-135504819D02*
X59738096Y-136504819D01*
D12*
%TO.C,J5*%
X74440000Y-137090000D02*
X74440000Y-141810000D01*
X74440000Y-139200000D02*
X75050000Y-139200000D01*
X74440000Y-140500000D02*
X75050000Y-140500000D01*
X74440000Y-141810000D02*
X80560000Y-141810000D01*
X75050000Y-137700000D02*
X75050000Y-141200000D01*
X75050000Y-141200000D02*
X77000000Y-141200000D01*
X77000000Y-141200000D02*
X77000000Y-141810000D01*
X77400000Y-138200000D02*
X77400000Y-137700000D01*
X77500000Y-137700000D02*
X77500000Y-138200000D01*
X77600000Y-137700000D02*
X77600000Y-138200000D01*
X77600000Y-138200000D02*
X77400000Y-138200000D01*
X78000000Y-141200000D02*
X79950000Y-141200000D01*
X78000000Y-141810000D02*
X78000000Y-141200000D01*
X78800000Y-141810000D02*
X78800000Y-142010000D01*
X78800000Y-141910000D02*
X79100000Y-141910000D01*
X78800000Y-142010000D02*
X79100000Y-142010000D01*
X79100000Y-142010000D02*
X79100000Y-141810000D01*
X79610000Y-142110000D02*
X80860000Y-142110000D01*
X79950000Y-137700000D02*
X75050000Y-137700000D01*
X79950000Y-141200000D02*
X79950000Y-137700000D01*
X80560000Y-137090000D02*
X74440000Y-137090000D01*
X80560000Y-139200000D02*
X79950000Y-139200000D01*
X80560000Y-140500000D02*
X79950000Y-140500000D01*
X80560000Y-141810000D02*
X80560000Y-137090000D01*
X80860000Y-142110000D02*
X80860000Y-140860000D01*
%TO.C,Q7*%
X56849999Y-85700001D02*
G75*
G03*
X56122795Y-85175817I-1849999J-1799999D01*
G01*
X53901193Y-85143600D02*
G75*
G03*
X52400000Y-87500000I1098807J-2356400D01*
G01*
X56122795Y-89824183D02*
G75*
G03*
X56849999Y-89299999I-1122795J2324183D01*
G01*
X52400001Y-87500000D02*
G75*
G03*
X53901193Y-89856399I2599999J0D01*
G01*
X56850000Y-89300000D02*
X56850000Y-85700000D01*
%TO.C,J6*%
X64440000Y-137090000D02*
X64440000Y-141810000D01*
X64440000Y-139200000D02*
X65050000Y-139200000D01*
X64440000Y-140500000D02*
X65050000Y-140500000D01*
X64440000Y-141810000D02*
X70560000Y-141810000D01*
X65050000Y-137700000D02*
X65050000Y-141200000D01*
X65050000Y-141200000D02*
X67000000Y-141200000D01*
X67000000Y-141200000D02*
X67000000Y-141810000D01*
X67400000Y-138200000D02*
X67400000Y-137700000D01*
X67500000Y-137700000D02*
X67500000Y-138200000D01*
X67600000Y-137700000D02*
X67600000Y-138200000D01*
X67600000Y-138200000D02*
X67400000Y-138200000D01*
X68000000Y-141200000D02*
X69950000Y-141200000D01*
X68000000Y-141810000D02*
X68000000Y-141200000D01*
X68800000Y-141810000D02*
X68800000Y-142010000D01*
X68800000Y-141910000D02*
X69100000Y-141910000D01*
X68800000Y-142010000D02*
X69100000Y-142010000D01*
X69100000Y-142010000D02*
X69100000Y-141810000D01*
X69610000Y-142110000D02*
X70860000Y-142110000D01*
X69950000Y-137700000D02*
X65050000Y-137700000D01*
X69950000Y-141200000D02*
X69950000Y-137700000D01*
X70560000Y-137090000D02*
X64440000Y-137090000D01*
X70560000Y-139200000D02*
X69950000Y-139200000D01*
X70560000Y-140500000D02*
X69950000Y-140500000D01*
X70560000Y-141810000D02*
X70560000Y-137090000D01*
X70860000Y-142110000D02*
X70860000Y-140860000D01*
%TO.C,J10*%
X42890000Y-117360000D02*
X44140000Y-117360000D01*
X43190000Y-117060000D02*
X47910000Y-117060000D01*
X44500000Y-117060000D02*
X44500000Y-116450000D01*
X45800000Y-117060000D02*
X45800000Y-116450000D01*
X47910000Y-117060000D02*
X47910000Y-108940000D01*
X43800000Y-116450000D02*
X47300000Y-116450000D01*
X47300000Y-116450000D02*
X47300000Y-109550000D01*
X42890000Y-116110000D02*
X42890000Y-117360000D01*
X42990000Y-115600000D02*
X43190000Y-115600000D01*
X42990000Y-115300000D02*
X42990000Y-115600000D01*
X43090000Y-115300000D02*
X43090000Y-115600000D01*
X43190000Y-115300000D02*
X42990000Y-115300000D01*
X43190000Y-114500000D02*
X43800000Y-114500000D01*
X43800000Y-114500000D02*
X43800000Y-116450000D01*
X46800000Y-114100000D02*
X46800000Y-113900000D01*
X47300000Y-114100000D02*
X46800000Y-114100000D01*
X47300000Y-114000000D02*
X46800000Y-114000000D01*
X46800000Y-113900000D02*
X47300000Y-113900000D01*
X46800000Y-112100000D02*
X46800000Y-111900000D01*
X47300000Y-112100000D02*
X46800000Y-112100000D01*
X47300000Y-112000000D02*
X46800000Y-112000000D01*
X46800000Y-111900000D02*
X47300000Y-111900000D01*
X43800000Y-111500000D02*
X43190000Y-111500000D01*
X43800000Y-109550000D02*
X43800000Y-111500000D01*
X47300000Y-109550000D02*
X43800000Y-109550000D01*
X43190000Y-108940000D02*
X43190000Y-117060000D01*
X44500000Y-108940000D02*
X44500000Y-109550000D01*
X45800000Y-108940000D02*
X45800000Y-109550000D01*
X47910000Y-108940000D02*
X43190000Y-108940000D01*
%TO.C,D5*%
X43680000Y-131000000D02*
X44700000Y-131000000D01*
X44700000Y-129530000D02*
X44700000Y-132470000D01*
X44700000Y-132470000D02*
X50140000Y-132470000D01*
X49120000Y-132470000D02*
X49120000Y-129530000D01*
X49240000Y-132470000D02*
X49240000Y-129530000D01*
X49360000Y-132470000D02*
X49360000Y-129530000D01*
X50140000Y-129530000D02*
X44700000Y-129530000D01*
X50140000Y-132470000D02*
X50140000Y-129530000D01*
X51160000Y-131000000D02*
X50140000Y-131000000D01*
%TO.C,U2*%
X72105000Y-66825000D02*
G75*
G03*
X71705000Y-66825000I-200000J0D01*
G01*
X71705000Y-66825000D02*
G75*
G03*
X72105000Y-66825000I200000J0D01*
G01*
X72030000Y-66825000D02*
G75*
G03*
X71780000Y-66825000I-125000J0D01*
G01*
X71780000Y-66825000D02*
G75*
G03*
X72030000Y-66825000I125000J0D01*
G01*
X71955000Y-66825000D02*
G75*
G03*
X71855000Y-66825000I-50000J0D01*
G01*
X71855000Y-66825000D02*
G75*
G03*
X71955000Y-66825000I50000J0D01*
G01*
X72810000Y-66130000D02*
G75*
G03*
X74810000Y-66130000I1000000J0D01*
G01*
X76460000Y-73870000D02*
X76460000Y-66130000D01*
X76460000Y-66130000D02*
X74810000Y-66130000D01*
X72810000Y-66130000D02*
X71160000Y-66130000D01*
X71160000Y-73870000D02*
X76460000Y-73870000D01*
X71160000Y-66130000D02*
X71160000Y-73870000D01*
%TO.C,R7*%
X82700000Y-74040000D02*
X82700000Y-73270000D01*
X81330000Y-73270000D02*
X84070000Y-73270000D01*
X84070000Y-73270000D02*
X84070000Y-66730000D01*
X81330000Y-66730000D02*
X81330000Y-73270000D01*
X84070000Y-66730000D02*
X81330000Y-66730000D01*
X82700000Y-65960000D02*
X82700000Y-66730000D01*
%TO.C,R9*%
X78800000Y-102500000D02*
X78690000Y-102500000D01*
X78690000Y-104870000D02*
X78690000Y-100130000D01*
X78690000Y-100130000D02*
X66550000Y-100130000D01*
X66550000Y-104870000D02*
X78690000Y-104870000D01*
X66550000Y-100130000D02*
X66550000Y-104870000D01*
X66440000Y-102500000D02*
X66550000Y-102500000D01*
%TO.C,R11*%
X76660000Y-92340000D02*
X75890000Y-92340000D01*
X75890000Y-93710000D02*
X75890000Y-90970000D01*
X75890000Y-90970000D02*
X69350000Y-90970000D01*
X69350000Y-93710000D02*
X75890000Y-93710000D01*
X69350000Y-90970000D02*
X69350000Y-93710000D01*
X68580000Y-92340000D02*
X69350000Y-92340000D01*
%TO.C,D3*%
X81240000Y-131000000D02*
X80220000Y-131000000D01*
X80220000Y-132470000D02*
X80220000Y-129530000D01*
X80220000Y-129530000D02*
X74780000Y-129530000D01*
X79440000Y-132470000D02*
X79440000Y-129530000D01*
X79320000Y-132470000D02*
X79320000Y-129530000D01*
X79200000Y-132470000D02*
X79200000Y-129530000D01*
X74780000Y-132470000D02*
X80220000Y-132470000D01*
X74780000Y-129530000D02*
X74780000Y-132470000D01*
X73760000Y-131000000D02*
X74780000Y-131000000D01*
%TO.C,D2*%
X96160000Y-131000000D02*
X95140000Y-131000000D01*
X95140000Y-132470000D02*
X95140000Y-129530000D01*
X95140000Y-129530000D02*
X89700000Y-129530000D01*
X94360000Y-132470000D02*
X94360000Y-129530000D01*
X94240000Y-132470000D02*
X94240000Y-129530000D01*
X94120000Y-132470000D02*
X94120000Y-129530000D01*
X89700000Y-132470000D02*
X95140000Y-132470000D01*
X89700000Y-129530000D02*
X89700000Y-132470000D01*
X88680000Y-131000000D02*
X89700000Y-131000000D01*
%TO.C,R4*%
X95760000Y-103880000D02*
X95760000Y-104650000D01*
X97130000Y-104650000D02*
X94390000Y-104650000D01*
X94390000Y-104650000D02*
X94390000Y-111190000D01*
X97130000Y-111190000D02*
X97130000Y-104650000D01*
X94390000Y-111190000D02*
X97130000Y-111190000D01*
X95760000Y-111960000D02*
X95760000Y-111190000D01*
%TO.C,J4*%
X84640000Y-137090000D02*
X84640000Y-141810000D01*
X84640000Y-139200000D02*
X85250000Y-139200000D01*
X84640000Y-140500000D02*
X85250000Y-140500000D01*
X84640000Y-141810000D02*
X90760000Y-141810000D01*
X85250000Y-137700000D02*
X85250000Y-141200000D01*
X85250000Y-141200000D02*
X87200000Y-141200000D01*
X87200000Y-141200000D02*
X87200000Y-141810000D01*
X87600000Y-138200000D02*
X87600000Y-137700000D01*
X87700000Y-137700000D02*
X87700000Y-138200000D01*
X87800000Y-137700000D02*
X87800000Y-138200000D01*
X87800000Y-138200000D02*
X87600000Y-138200000D01*
X88200000Y-141200000D02*
X90150000Y-141200000D01*
X88200000Y-141810000D02*
X88200000Y-141200000D01*
X89000000Y-141810000D02*
X89000000Y-142010000D01*
X89000000Y-141910000D02*
X89300000Y-141910000D01*
X89000000Y-142010000D02*
X89300000Y-142010000D01*
X89300000Y-142010000D02*
X89300000Y-141810000D01*
X89810000Y-142110000D02*
X91060000Y-142110000D01*
X90150000Y-137700000D02*
X85250000Y-137700000D01*
X90150000Y-141200000D02*
X90150000Y-137700000D01*
X90760000Y-137090000D02*
X84640000Y-137090000D01*
X90760000Y-139200000D02*
X90150000Y-139200000D01*
X90760000Y-140500000D02*
X90150000Y-140500000D01*
X90760000Y-141810000D02*
X90760000Y-137090000D01*
X91060000Y-142110000D02*
X91060000Y-140860000D01*
%TO.C,J3*%
X43670000Y-76230000D02*
X43670000Y-66010000D01*
X43670000Y-78830000D02*
X43670000Y-77500000D01*
X45000000Y-78830000D02*
X43670000Y-78830000D01*
X46330000Y-66010000D02*
X43670000Y-66010000D01*
X46330000Y-76230000D02*
X43670000Y-76230000D01*
X46330000Y-76230000D02*
X46330000Y-66010000D01*
%TO.C,R8*%
X76660000Y-96390000D02*
X75890000Y-96390000D01*
X75890000Y-97760000D02*
X75890000Y-95020000D01*
X75890000Y-95020000D02*
X69350000Y-95020000D01*
X69350000Y-97760000D02*
X75890000Y-97760000D01*
X69350000Y-95020000D02*
X69350000Y-97760000D01*
X68580000Y-96390000D02*
X69350000Y-96390000D01*
%TO.C,Q5*%
X45470000Y-125350000D02*
X49070000Y-125350000D01*
X46450000Y-121050001D02*
G75*
G03*
X45458126Y-125341740I820000J-2449999D01*
G01*
X49078445Y-125327684D02*
G75*
G03*
X48050000Y-121050000I-1808445J1827684D01*
G01*
%TO.C,D4*%
X58760000Y-131000000D02*
X59780000Y-131000000D01*
X59780000Y-129530000D02*
X59780000Y-132470000D01*
X59780000Y-132470000D02*
X65220000Y-132470000D01*
X64200000Y-132470000D02*
X64200000Y-129530000D01*
X64320000Y-132470000D02*
X64320000Y-129530000D01*
X64440000Y-132470000D02*
X64440000Y-129530000D01*
X65220000Y-129530000D02*
X59780000Y-129530000D01*
X65220000Y-132470000D02*
X65220000Y-129530000D01*
X66240000Y-131000000D02*
X65220000Y-131000000D01*
%TO.C,Q2*%
X90470000Y-125350000D02*
X94070000Y-125350000D01*
X91450000Y-121050001D02*
G75*
G03*
X90458126Y-125341740I820000J-2449999D01*
G01*
X94078445Y-125327684D02*
G75*
G03*
X93050000Y-121050000I-1808445J1827684D01*
G01*
%TO.C,R5*%
X90680000Y-103880000D02*
X90680000Y-104650000D01*
X92050000Y-104650000D02*
X89310000Y-104650000D01*
X89310000Y-104650000D02*
X89310000Y-111190000D01*
X92050000Y-111190000D02*
X92050000Y-104650000D01*
X89310000Y-111190000D02*
X92050000Y-111190000D01*
X90680000Y-111960000D02*
X90680000Y-111190000D01*
%TO.C,R10*%
X78800000Y-86230000D02*
X78690000Y-86230000D01*
X78690000Y-88600000D02*
X78690000Y-83860000D01*
X78690000Y-83860000D02*
X66550000Y-83860000D01*
X66550000Y-88600000D02*
X78690000Y-88600000D01*
X66550000Y-83860000D02*
X66550000Y-88600000D01*
X66440000Y-86230000D02*
X66550000Y-86230000D01*
D11*
%TO.C,J8*%
X88526620Y-30383480D02*
X87025480Y-30383480D01*
X88526620Y-30132020D02*
X69027040Y-30132020D01*
X88526620Y-29883100D02*
X88526620Y-30383480D01*
X87025480Y-48381920D02*
X87025480Y-31381700D01*
X87025480Y-48381920D02*
X86525100Y-48882300D01*
X87025480Y-31381700D02*
X86525100Y-31381700D01*
X87025480Y-30883860D02*
X67525900Y-30883860D01*
X87025480Y-30632400D02*
X67525900Y-30632400D01*
X87025480Y-30383480D02*
X87025480Y-30883860D01*
X86525100Y-48882300D02*
X84025740Y-48882300D01*
X86525100Y-31381700D02*
X86525100Y-30883860D01*
X84025740Y-48882300D02*
X83525360Y-48381920D01*
X83525360Y-48381920D02*
X83525360Y-46382940D01*
X83525360Y-46382940D02*
X80025240Y-46382940D01*
X80025240Y-48381920D02*
X80025240Y-46382940D01*
X79527400Y-48882300D02*
X80025240Y-48381920D01*
X79527400Y-48882300D02*
X76525120Y-48882300D01*
X76525120Y-48882300D02*
X76027280Y-48381920D01*
X76027280Y-48381920D02*
X76027280Y-46382940D01*
X72527160Y-48381920D02*
X72527160Y-46382940D01*
X72527160Y-46382940D02*
X76027280Y-46382940D01*
X72026780Y-48882300D02*
X72527160Y-48381920D01*
X71526400Y-48882300D02*
X72026780Y-48882300D01*
X69527420Y-48882300D02*
X71526400Y-48882300D01*
X69527420Y-30883860D02*
X69527420Y-31381700D01*
X69027040Y-48381920D02*
X69527420Y-48882300D01*
X69027040Y-48381920D02*
X69027040Y-31381700D01*
X69027040Y-31381700D02*
X69527420Y-31381700D01*
X69027040Y-30383480D02*
X87025480Y-30383480D01*
X69027040Y-30383480D02*
X69027040Y-29883100D01*
X69027040Y-29883100D02*
X88526620Y-29883100D01*
X67525900Y-30883860D02*
X67525900Y-30383480D01*
X67525900Y-30383480D02*
X69027040Y-30383480D01*
D12*
%TO.C,Q1*%
X105470000Y-125350000D02*
X109070000Y-125350000D01*
X106450000Y-121050001D02*
G75*
G03*
X105458126Y-125341740I820000J-2449999D01*
G01*
X109078445Y-125327684D02*
G75*
G03*
X108050000Y-121050000I-1808445J1827684D01*
G01*
%TO.C,J11*%
X47910000Y-83940000D02*
X43190000Y-83940000D01*
X45800000Y-83940000D02*
X45800000Y-84550000D01*
X44500000Y-83940000D02*
X44500000Y-84550000D01*
X43190000Y-83940000D02*
X43190000Y-94060000D01*
X47300000Y-84550000D02*
X43800000Y-84550000D01*
X43800000Y-84550000D02*
X43800000Y-86500000D01*
X43800000Y-86500000D02*
X43190000Y-86500000D01*
X46800000Y-86900000D02*
X47300000Y-86900000D01*
X47300000Y-87000000D02*
X46800000Y-87000000D01*
X47300000Y-87100000D02*
X46800000Y-87100000D01*
X46800000Y-87100000D02*
X46800000Y-86900000D01*
X46800000Y-88900000D02*
X47300000Y-88900000D01*
X47300000Y-89000000D02*
X46800000Y-89000000D01*
X47300000Y-89100000D02*
X46800000Y-89100000D01*
X46800000Y-89100000D02*
X46800000Y-88900000D01*
X46800000Y-90900000D02*
X47300000Y-90900000D01*
X47300000Y-91000000D02*
X46800000Y-91000000D01*
X47300000Y-91100000D02*
X46800000Y-91100000D01*
X46800000Y-91100000D02*
X46800000Y-90900000D01*
X43800000Y-91500000D02*
X43800000Y-93450000D01*
X43190000Y-91500000D02*
X43800000Y-91500000D01*
X43190000Y-92300000D02*
X42990000Y-92300000D01*
X43090000Y-92300000D02*
X43090000Y-92600000D01*
X42990000Y-92300000D02*
X42990000Y-92600000D01*
X42990000Y-92600000D02*
X43190000Y-92600000D01*
X42890000Y-93110000D02*
X42890000Y-94360000D01*
X47300000Y-93450000D02*
X47300000Y-84550000D01*
X43800000Y-93450000D02*
X47300000Y-93450000D01*
X47910000Y-94060000D02*
X47910000Y-83940000D01*
X45800000Y-94060000D02*
X45800000Y-93450000D01*
X44500000Y-94060000D02*
X44500000Y-93450000D01*
X43190000Y-94060000D02*
X47910000Y-94060000D01*
X42890000Y-94360000D02*
X44140000Y-94360000D01*
%TO.C,D1*%
X111160000Y-131000000D02*
X110140000Y-131000000D01*
X110140000Y-132470000D02*
X110140000Y-129530000D01*
X110140000Y-129530000D02*
X104700000Y-129530000D01*
X109360000Y-132470000D02*
X109360000Y-129530000D01*
X109240000Y-132470000D02*
X109240000Y-129530000D01*
X109120000Y-132470000D02*
X109120000Y-129530000D01*
X104700000Y-132470000D02*
X110140000Y-132470000D01*
X104700000Y-129530000D02*
X104700000Y-132470000D01*
X103680000Y-131000000D02*
X104700000Y-131000000D01*
%TO.C,R3*%
X100840000Y-103880000D02*
X100840000Y-104650000D01*
X102210000Y-104650000D02*
X99470000Y-104650000D01*
X99470000Y-104650000D02*
X99470000Y-111190000D01*
X102210000Y-111190000D02*
X102210000Y-104650000D01*
X99470000Y-111190000D02*
X102210000Y-111190000D01*
X100840000Y-111960000D02*
X100840000Y-111190000D01*
%TO.C,R6*%
X59840000Y-74040000D02*
X59840000Y-73270000D01*
X58470000Y-73270000D02*
X61210000Y-73270000D01*
X61210000Y-73270000D02*
X61210000Y-66730000D01*
X58470000Y-66730000D02*
X58470000Y-73270000D01*
X61210000Y-66730000D02*
X58470000Y-66730000D01*
X59840000Y-65960000D02*
X59840000Y-66730000D01*
%TO.C,J9*%
X53230000Y-38130000D02*
X53730000Y-38630000D01*
X53230000Y-39130000D02*
X53230000Y-38130000D01*
X53730000Y-38630000D02*
X53230000Y-39130000D01*
X53840000Y-30130000D02*
X53840000Y-34600000D01*
X53840000Y-30130000D02*
X66240000Y-30130000D01*
X53840000Y-43530000D02*
X53840000Y-38060000D01*
X66240000Y-30130000D02*
X66240000Y-34600000D01*
X66240000Y-38060000D02*
X66240000Y-43530000D01*
X66240000Y-43530000D02*
X53840000Y-43530000D01*
%TO.C,Q6*%
X56849999Y-98200001D02*
G75*
G03*
X56122795Y-97675817I-1849999J-1799999D01*
G01*
X53901193Y-97643600D02*
G75*
G03*
X52400000Y-100000000I1098807J-2356400D01*
G01*
X56122795Y-102324183D02*
G75*
G03*
X56849999Y-101799999I-1122795J2324183D01*
G01*
X52400001Y-100000000D02*
G75*
G03*
X53901193Y-102356399I2599999J0D01*
G01*
X56850000Y-101800000D02*
X56850000Y-98200000D01*
%TO.C,J12*%
X42890000Y-106860000D02*
X44140000Y-106860000D01*
X43190000Y-106560000D02*
X47910000Y-106560000D01*
X44500000Y-106560000D02*
X44500000Y-105950000D01*
X45800000Y-106560000D02*
X45800000Y-105950000D01*
X47910000Y-106560000D02*
X47910000Y-96440000D01*
X43800000Y-105950000D02*
X47300000Y-105950000D01*
X47300000Y-105950000D02*
X47300000Y-97050000D01*
X42890000Y-105610000D02*
X42890000Y-106860000D01*
X42990000Y-105100000D02*
X43190000Y-105100000D01*
X42990000Y-104800000D02*
X42990000Y-105100000D01*
X43090000Y-104800000D02*
X43090000Y-105100000D01*
X43190000Y-104800000D02*
X42990000Y-104800000D01*
X43190000Y-104000000D02*
X43800000Y-104000000D01*
X43800000Y-104000000D02*
X43800000Y-105950000D01*
X46800000Y-103600000D02*
X46800000Y-103400000D01*
X47300000Y-103600000D02*
X46800000Y-103600000D01*
X47300000Y-103500000D02*
X46800000Y-103500000D01*
X46800000Y-103400000D02*
X47300000Y-103400000D01*
X46800000Y-101600000D02*
X46800000Y-101400000D01*
X47300000Y-101600000D02*
X46800000Y-101600000D01*
X47300000Y-101500000D02*
X46800000Y-101500000D01*
X46800000Y-101400000D02*
X47300000Y-101400000D01*
X46800000Y-99600000D02*
X46800000Y-99400000D01*
X47300000Y-99600000D02*
X46800000Y-99600000D01*
X47300000Y-99500000D02*
X46800000Y-99500000D01*
X46800000Y-99400000D02*
X47300000Y-99400000D01*
X43800000Y-99000000D02*
X43190000Y-99000000D01*
X43800000Y-97050000D02*
X43800000Y-99000000D01*
X47300000Y-97050000D02*
X43800000Y-97050000D01*
X43190000Y-96440000D02*
X43190000Y-106560000D01*
X44500000Y-96440000D02*
X44500000Y-97050000D01*
X45800000Y-96440000D02*
X45800000Y-97050000D01*
X47910000Y-96440000D02*
X43190000Y-96440000D01*
%TO.C,J2*%
X100860000Y-142110000D02*
X100860000Y-140860000D01*
X100560000Y-141810000D02*
X100560000Y-137090000D01*
X100560000Y-140500000D02*
X99950000Y-140500000D01*
X100560000Y-139200000D02*
X99950000Y-139200000D01*
X100560000Y-137090000D02*
X94440000Y-137090000D01*
X99950000Y-141200000D02*
X99950000Y-137700000D01*
X99950000Y-137700000D02*
X95050000Y-137700000D01*
X99610000Y-142110000D02*
X100860000Y-142110000D01*
X99100000Y-142010000D02*
X99100000Y-141810000D01*
X98800000Y-142010000D02*
X99100000Y-142010000D01*
X98800000Y-141910000D02*
X99100000Y-141910000D01*
X98800000Y-141810000D02*
X98800000Y-142010000D01*
X98000000Y-141810000D02*
X98000000Y-141200000D01*
X98000000Y-141200000D02*
X99950000Y-141200000D01*
X97600000Y-138200000D02*
X97400000Y-138200000D01*
X97600000Y-137700000D02*
X97600000Y-138200000D01*
X97500000Y-137700000D02*
X97500000Y-138200000D01*
X97400000Y-138200000D02*
X97400000Y-137700000D01*
X97000000Y-141200000D02*
X97000000Y-141810000D01*
X95050000Y-141200000D02*
X97000000Y-141200000D01*
X95050000Y-137700000D02*
X95050000Y-141200000D01*
X94440000Y-141810000D02*
X100560000Y-141810000D01*
X94440000Y-140500000D02*
X95050000Y-140500000D01*
X94440000Y-139200000D02*
X95050000Y-139200000D01*
X94440000Y-137090000D02*
X94440000Y-141810000D01*
%TO.C,Q4*%
X64078445Y-125327684D02*
G75*
G03*
X63050000Y-121050000I-1808445J1827684D01*
G01*
X61450000Y-121050001D02*
G75*
G03*
X60458126Y-125341740I820000J-2449999D01*
G01*
X60470000Y-125350000D02*
X64070000Y-125350000D01*
%TO.C,R1*%
X111000000Y-111960000D02*
X111000000Y-111190000D01*
X109630000Y-111190000D02*
X112370000Y-111190000D01*
X112370000Y-111190000D02*
X112370000Y-104650000D01*
X109630000Y-104650000D02*
X109630000Y-111190000D01*
X112370000Y-104650000D02*
X109630000Y-104650000D01*
X111000000Y-103880000D02*
X111000000Y-104650000D01*
%TO.C,Q3*%
X75470000Y-125350000D02*
X79070000Y-125350000D01*
X76450000Y-121050001D02*
G75*
G03*
X75458126Y-125341740I820000J-2449999D01*
G01*
X79078445Y-125327684D02*
G75*
G03*
X78050000Y-121050000I-1808445J1827684D01*
G01*
%TO.C,J1*%
X41755000Y-29965000D02*
X50955000Y-29965000D01*
X41755000Y-38565000D02*
X41755000Y-29965000D01*
X41755000Y-44465000D02*
X41755000Y-43165000D01*
X43755000Y-44465000D02*
X41755000Y-44465000D01*
X49555000Y-44765000D02*
X51255000Y-44765000D01*
X50955000Y-29965000D02*
X50955000Y-44465000D01*
X50955000Y-44465000D02*
X48955000Y-44465000D01*
X51255000Y-44765000D02*
X51255000Y-43465000D01*
%TO.C,R2*%
X105920000Y-103880000D02*
X105920000Y-104650000D01*
X107290000Y-104650000D02*
X104550000Y-104650000D01*
X104550000Y-104650000D02*
X104550000Y-111190000D01*
X107290000Y-111190000D02*
X107290000Y-104650000D01*
X104550000Y-111190000D02*
X107290000Y-111190000D01*
X105920000Y-111960000D02*
X105920000Y-111190000D01*
%TO.C,D6*%
X64920000Y-73130000D02*
X64920000Y-71950000D01*
X64000000Y-71950000D02*
X65840000Y-71950000D01*
X65840000Y-71950000D02*
X65840000Y-68670000D01*
X65840000Y-69366000D02*
X64000000Y-69366000D01*
X65840000Y-69246000D02*
X64000000Y-69246000D01*
X65840000Y-69126000D02*
X64000000Y-69126000D01*
X64000000Y-68670000D02*
X64000000Y-71950000D01*
X65840000Y-68670000D02*
X64000000Y-68670000D01*
X64920000Y-67490000D02*
X64920000Y-68670000D01*
%TO.C,U1*%
X91100000Y-30380000D02*
X91100000Y-30680000D01*
X91100000Y-30380000D02*
X112100000Y-30380000D01*
X91100000Y-32780000D02*
X91100000Y-33180000D01*
X91100000Y-33047000D02*
X94107000Y-33047000D01*
X91100000Y-35380000D02*
X91100000Y-35780000D01*
X91100000Y-37880000D02*
X91100000Y-38280000D01*
X91100000Y-40480000D02*
X91100000Y-40880000D01*
X91100000Y-42980000D02*
X91100000Y-43380000D01*
X91100000Y-45480000D02*
X91100000Y-45880000D01*
X91100000Y-48080000D02*
X91100000Y-48480000D01*
X91100000Y-50580000D02*
X91100000Y-50980000D01*
X91100000Y-53180000D02*
X91100000Y-53580000D01*
X91100000Y-55680000D02*
X91100000Y-56080000D01*
X91100000Y-58180000D02*
X91100000Y-58580000D01*
X91100000Y-60780000D02*
X91100000Y-61180000D01*
X91100000Y-63280000D02*
X91100000Y-63680000D01*
X91100000Y-65880000D02*
X91100000Y-66280000D01*
X91100000Y-68380000D02*
X91100000Y-68780000D01*
X91100000Y-70980000D02*
X91100000Y-71380000D01*
X91100000Y-73480000D02*
X91100000Y-73880000D01*
X91100000Y-75980000D02*
X91100000Y-76380000D01*
X91100000Y-78580000D02*
X91100000Y-78980000D01*
X94107000Y-33047000D02*
X94107000Y-30380000D01*
X97900000Y-81380000D02*
X91100000Y-81380000D01*
X100100000Y-81380000D02*
X100500000Y-81380000D01*
X102700000Y-81380000D02*
X103100000Y-81380000D01*
X112100000Y-30380000D02*
X112100000Y-30680000D01*
X112100000Y-32780000D02*
X112100000Y-33180000D01*
X112100000Y-35380000D02*
X112100000Y-35780000D01*
X112100000Y-37880000D02*
X112100000Y-38280000D01*
X112100000Y-40480000D02*
X112100000Y-40880000D01*
X112100000Y-42980000D02*
X112100000Y-43380000D01*
X112100000Y-45480000D02*
X112100000Y-45880000D01*
X112100000Y-48080000D02*
X112100000Y-48480000D01*
X112100000Y-50580000D02*
X112100000Y-50980000D01*
X112100000Y-53180000D02*
X112100000Y-53580000D01*
X112100000Y-55680000D02*
X112100000Y-56080000D01*
X112100000Y-58180000D02*
X112100000Y-58580000D01*
X112100000Y-60780000D02*
X112100000Y-61180000D01*
X112100000Y-63280000D02*
X112100000Y-63680000D01*
X112100000Y-65880000D02*
X112100000Y-66280000D01*
X112100000Y-68380000D02*
X112100000Y-68780000D01*
X112100000Y-70980000D02*
X112100000Y-71380000D01*
X112100000Y-73480000D02*
X112100000Y-73880000D01*
X112100000Y-75980000D02*
X112100000Y-76380000D01*
X112100000Y-78580000D02*
X112100000Y-78980000D01*
X112100000Y-81380000D02*
X105300000Y-81380000D01*
%TO.C,J7*%
X54440000Y-137140000D02*
X54440000Y-141860000D01*
X54440000Y-139250000D02*
X55050000Y-139250000D01*
X54440000Y-140550000D02*
X55050000Y-140550000D01*
X54440000Y-141860000D02*
X60560000Y-141860000D01*
X55050000Y-137750000D02*
X55050000Y-141250000D01*
X55050000Y-141250000D02*
X57000000Y-141250000D01*
X57000000Y-141250000D02*
X57000000Y-141860000D01*
X57400000Y-138250000D02*
X57400000Y-137750000D01*
X57500000Y-137750000D02*
X57500000Y-138250000D01*
X57600000Y-137750000D02*
X57600000Y-138250000D01*
X57600000Y-138250000D02*
X57400000Y-138250000D01*
X58000000Y-141250000D02*
X59950000Y-141250000D01*
X58000000Y-141860000D02*
X58000000Y-141250000D01*
X58800000Y-141860000D02*
X58800000Y-142060000D01*
X58800000Y-141960000D02*
X59100000Y-141960000D01*
X58800000Y-142060000D02*
X59100000Y-142060000D01*
X59100000Y-142060000D02*
X59100000Y-141860000D01*
X59610000Y-142160000D02*
X60860000Y-142160000D01*
X59950000Y-137750000D02*
X55050000Y-137750000D01*
X59950000Y-141250000D02*
X59950000Y-137750000D01*
X60560000Y-137140000D02*
X54440000Y-137140000D01*
X60560000Y-139250000D02*
X59950000Y-139250000D01*
X60560000Y-140550000D02*
X59950000Y-140550000D01*
X60560000Y-141860000D02*
X60560000Y-137140000D01*
X60860000Y-142160000D02*
X60860000Y-140910000D01*
%TD*%
D13*
%TO.C,J8*%
X83027520Y-32385000D03*
X73025000Y-32385000D03*
X70528180Y-42379900D03*
X78026260Y-42382440D03*
X85524340Y-42379900D03*
X73030080Y-44881800D03*
X83022440Y-44881800D03*
%TD*%
M02*
